<?xml version="1.0" encoding="utf-8"?>
<svg width="26px" height="26px" viewBox="0 0 26 26" version="1.1" xmlns:xlink="http://www.w3.org/1999/xlink" xmlns="http://www.w3.org/2000/svg">
  <desc>Created with Lunacy</desc>
  <g id="chevron-circle-down">
    <path d="M26 13C26 20.1815 20.1815 26 13 26C5.81855 26 0 20.1815 0 13C0 5.81855 5.81855 0 13 0C20.1815 0 26 5.81855 26 13ZM13.8911 18.9706L20.994 11.8677C21.4867 11.375 21.4867 10.5782 20.994 10.0907L20.1028 9.1996C19.6101 8.70685 18.8133 8.70685 18.3258 9.1996L13 14.5254L7.67419 9.1996C7.18145 8.70685 6.38468 8.70685 5.89718 9.1996L5.00605 10.0907C4.51331 10.5835 4.51331 11.3802 5.00605 11.8677L12.1089 18.9706C12.6016 19.4633 13.3984 19.4633 13.8911 18.9706Z" id="Shape" fill="#CBCBCB" stroke="none" />
  </g>
</svg>