<?xml version="1.0" encoding="utf-8"?>
<svg width="100px" height="109px" viewBox="0 0 100 109" version="1.1" xmlns:xlink="http://www.w3.org/1999/xlink" xmlns="http://www.w3.org/2000/svg">
  <desc>Created with Lunacy</desc>
  <defs>
    <path d="M0 0L6.8562 0L6.8562 9.41817L0 9.41817L0 0Z" transform="translate(0.0006355339 0.6683334)" id="path_1" />
    <path d="M0 0L10.8752 0L10.8752 9.03359L0 9.03359L0 0Z" transform="translate(0.5948333 0.05678916)" id="path_2" />
    <clipPath id="mask_1">
      <use xlink:href="#path_1" />
    </clipPath>
    <clipPath id="mask_2">
      <use xlink:href="#path_2" />
    </clipPath>
  </defs>
  <g id="Group-311">
    <path d="M1.87886 0.653333C3.66719 1.76833 4.81052 3.57333 6.40053 4.9C7.30719 5.375 7.80219 6.18833 8.20386 7.08C8.37219 7.21833 8.54219 7.35833 8.71053 7.49667C9.05719 8.27333 9.96053 8.67333 10.1272 9.57333C10.1689 10.0067 9.83053 10.2467 9.62719 10.56C9.26552 10.8133 8.90053 10.8183 8.53386 10.565C8.18219 10.2783 7.88053 9.90667 7.40719 9.82C7.14552 9.77167 6.68052 9.705 6.74719 10.0883C7.05886 11.8567 5.29719 12.6533 4.89052 14.1567C4.59719 15.2417 3.16052 14.66 2.19886 14.3967C1.81886 14.0633 1.69886 13.6067 1.76219 13.1483C2.02219 11.2483 1.84386 9.30167 2.37719 7.43167C2.44719 7.18667 2.20719 7.315 2.12386 7.27167C0.387191 6.39667 -0.332809 4.77833 0.143857 2.78833C0.292191 2.73667 0.433858 2.87167 0.583858 2.80333C-0.0278092 2.03333 -0.0244759 1.11333 0.593858 0C1.08052 0.103333 1.33386 0.665 1.87886 0.653333" transform="translate(16.14331 5.493333)" id="Fill-1" fill="#C4DFB7" stroke="none" />
    <path d="M0.241667 10.0064C0.205 9.84805 0.168333 9.68971 0.131667 9.53138C0.221667 8.79805 0.00333333 8.07471 0.0616667 7.34138C0.04 7.17805 0.0216667 7.01638 0 6.85305C0.371667 5.02638 0.235 3.11138 1.11667 1.36638C1.62333 0.366381 2.23 -0.181952 3.37833 0.0547142C3.79333 0.194714 4.12833 0.434714 4.35333 0.814714C4.35667 1.62305 4.72167 2.14805 5.54167 2.31138C5.71667 2.92638 5.57667 3.55138 5.61167 4.17305C5.49167 4.60805 5.36833 5.00971 5.49333 5.49805C6.14333 8.03305 5.93667 8.27971 3.25333 8.07471C4.36167 8.79971 6.38833 7.90305 6.22833 9.98638C6.15333 10.9497 5.415 11.4147 4.47 11.6097C4.47333 11.7664 4.69167 11.698 4.835 11.7364C5.38833 11.888 6.11833 12.053 5.83 12.7747C5.63167 13.2747 4.91333 13.3647 4.31667 13.263C4.29167 13.6147 3.82 12.2447 4.01333 13.338C4.18 14.2747 4.12 14.9697 2.885 14.798C1.99333 14.3097 1.39 13.8214 1.58833 12.5314C1.72667 11.628 0.631667 10.8997 0.241667 10.0064" transform="translate(0.5335 4.233619)" id="Fill-3" fill="#EDD6CD" stroke="none" />
    <path d="M6.99429 17.1757C6.93595 17.2624 6.87928 17.3491 6.82262 17.4374C6.80595 17.9607 6.59762 18.3391 6.01262 18.2374C5.59262 18.1641 5.53262 17.7757 5.62595 17.4357C5.83928 16.6524 5.27428 15.8824 5.60595 15.1024C5.67762 14.8657 5.77595 14.6391 5.88762 14.4191C7.44262 12.4207 6.36762 10.3907 5.73762 8.56739C5.72262 8.58239 5.57428 8.94906 5.18428 8.93239C4.14428 8.88739 3.11762 8.71239 2.87928 10.2407C2.81095 10.6824 2.02428 10.7307 1.50428 10.5741C0.985951 10.4191 1.10262 9.96406 1.11095 9.57239C1.12095 9.18572 1.59095 8.48239 0.562617 8.80072C0.355951 8.86406 0.165951 8.66906 0.0592839 8.42906C-0.247383 7.73906 0.702617 4.95906 1.37428 4.99572C3.05928 5.08906 3.34428 3.69072 4.10928 2.79072C4.62428 2.23239 4.99262 1.61072 4.94762 0.810724C4.98095 0.482391 4.92428 0.0890574 5.37262 0.00739069C5.62762 -0.039276 5.77928 0.140724 5.83928 0.387391C6.78595 1.14406 6.79262 2.41239 7.44095 3.33406C7.71595 3.95406 7.85762 4.59572 7.73095 5.27739C7.75929 5.43572 7.78595 5.59239 7.81429 5.74906C8.17428 6.68406 8.23595 7.65906 8.22262 8.64572C8.03928 10.7991 7.85595 12.9524 7.67262 15.1074C7.83095 15.9224 6.96929 16.4041 6.99429 17.1757" transform="translate(24.86405 22.10978)" id="Fill-5" fill="#BEDCB3" stroke="none" />
    <path d="M2.24782 8.05896C1.28448 7.59562 1.68115 6.36562 0.957816 5.76729C1.79615 4.65396 1.09948 3.80896 0.411149 3.02562C-0.150517 2.38396 -0.215517 1.97896 0.716149 1.74896C1.15282 1.83896 1.46282 2.19896 1.89448 2.30396C3.10115 2.74729 3.77615 3.62729 4.00948 4.86729C4.20448 5.17062 4.58948 5.52562 4.59948 4.89896C4.63282 2.95562 6.47782 2.13562 7.12448 0.582291C7.33782 0.072291 8.01448 -0.149376 8.62115 0.107291C9.26115 0.380624 9.65781 0.977291 9.54782 1.60562C9.34782 2.73396 8.87115 3.77562 7.59615 4.11396C6.14448 4.50062 6.01782 4.95562 7.07448 6.15729C7.30948 6.42729 7.49948 6.65896 7.35782 7.05396C6.73615 8.78729 7.05448 10.629 6.76448 12.4006C6.71281 13.1306 6.53448 13.799 5.87115 14.229C5.69948 14.229 5.59115 14.1456 5.54948 13.9773C4.28782 12.7823 3.99948 11.0606 3.19448 9.61729C2.93782 9.06229 2.31782 8.72729 2.24782 8.05896" transform="translate(5.586351 23.12854)" id="Fill-7" fill="#DDE1C4" stroke="none" />
    <path d="M10.0967 3.73357C9.885 4.3369 11.145 5.12857 9.84333 5.64357C9.725 5.68857 10.0167 6.24024 10.44 6.2219C11.2517 6.18524 11.145 6.68024 11.115 7.22024C10.4633 7.18024 10.185 6.69857 9.76167 6.46524C9.265 6.5919 8.885 6.40024 8.53833 5.9969C9.235 6.9769 9.235 6.9769 6.90833 7.7169C6.38833 7.73357 6.07167 7.3169 5.64667 7.1269C5.51333 7.03524 5.39667 6.9269 5.29333 6.80024C4.76 5.85357 4.41667 4.82857 4.29833 3.75857C4.125 2.18524 3.21167 1.4919 1.73 1.3469C1.06833 1.28357 0.333333 1.34857 0 0.553571C0 0.371904 0.0833333 0.250238 0.261667 0.196904C1.92833 -0.344762 3.375 0.330238 4.81833 1.02357C5.675 1.11857 6.35333 1.6719 7.14667 1.93024C7.51167 2.2769 7.96167 2.4219 8.45 2.47524C9.15833 2.68524 9.72833 3.07857 10.0967 3.73357" transform="translate(6.595667 1.859762)" id="Fill-9" fill="#D3E4C5" stroke="none" />
    <path d="M7.80224 7.80612C7.71058 8.54445 7.60391 9.27445 6.84058 9.66612C6.08724 8.92778 5.22558 8.41112 4.24058 7.97779C2.58058 7.24445 2.15558 5.80445 2.73724 4.12278C2.98558 3.40612 3.60058 3.51612 4.17558 3.34445C3.62558 2.33778 3.04558 2.60612 2.34724 3.03945C1.67391 3.45778 1.15224 4.39445 0.117242 3.85612C-0.329425 2.59112 0.630575 1.56445 0.822242 0.404451C0.975575 -0.523882 1.85391 0.391118 2.36391 0.722784C2.70391 0.814451 3.02391 0.767784 3.32558 0.584451C3.76558 0.756118 4.20558 0.931118 4.63391 1.13445C5.10058 1.63445 5.56558 2.13445 6.03224 2.63445C6.31724 3.20112 6.81391 3.64112 7.00058 4.26612C7.13724 4.65112 7.27391 5.03445 7.41058 5.41945C6.98558 5.77445 7.03891 7.19612 5.95058 6.07612C5.91558 6.04112 5.84891 6.03945 5.79724 6.02112C5.78058 6.07445 5.76391 6.12945 5.70391 6.32445C6.35724 6.81945 7.29224 7.04445 7.80224 7.80612" transform="translate(22.46442 15.23755)" id="Fill-11" fill="#BFDDB5" stroke="none" />
    <path d="M5.73509 10.7762C5.61509 11.0129 4.69676 10.9896 5.41842 11.4713C6.06176 11.9029 6.14842 12.5612 6.48009 13.1313C7.00676 14.0346 6.48342 14.3579 5.82176 14.6846C5.13676 13.4879 4.23676 12.4079 3.83509 11.0563C3.53009 10.4579 2.91009 9.99458 3.04009 9.20792C2.35342 7.31125 0.836757 5.75292 0.758424 3.60792C0.703424 3.19625 0.36509 2.88292 0.36009 2.45458C0.333424 2.28792 0.30509 2.12292 0.276757 1.95625C0.0617571 1.33958 -0.0182429 0.702918 0.00342381 0.0512516L0.0534238 0.0295849C0.666757 -0.152082 1.04842 0.556252 1.03176 0.704585C0.90009 1.85792 1.82676 1.74125 2.76009 1.99125C0.756757 2.99792 1.94842 3.77292 2.63842 4.58625C3.16009 5.08125 3.60176 5.64792 4.06842 6.19125C4.16176 6.30958 4.23176 6.43958 4.28509 6.57958C4.37176 6.93792 4.45842 7.29792 4.65676 7.61792C5.03509 8.66458 5.98842 9.51625 5.73509 10.7762" transform="translate(0.7212428 14.21075)" id="Fill-13" fill="#DBE3CC" stroke="none" />
    <g id="Group-17" transform="translate(0 0.9991667)">
      <path d="M0 0L6.8562 0L6.8562 9.41817L0 9.41817L0 0Z" transform="translate(0.0006355339 0.6683334)" id="Clip-16" fill="none" stroke="none" />
      <g clip-path="url(#mask_1)">
        <path d="M6.8562 0.39088C6.78786 0.487547 6.71786 0.582547 6.64953 0.677547C6.5212 1.16421 5.9062 1.33921 5.9212 1.95255C5.9462 2.97755 5.30453 2.98088 4.72953 2.48255C4.07953 1.92255 4.15286 2.94588 3.7612 2.81588C1.80286 3.01421 1.73953 4.63255 1.39786 6.01421C1.1162 7.15088 1.4662 8.44588 0.534531 9.41921C0.00453113 7.49255 -0.162136 5.54255 0.174531 3.56255C-0.0121355 2.59921 0.919531 2.06755 1.07286 1.23421C0.964531 0.417547 1.4712 -0.027453 2.14453 0.0192136C3.7162 0.12588 5.32953 -0.262453 6.8562 0.39088" transform="translate(0.0006355339 0.6672863)" id="Fill-15" fill="#E4E6D3" stroke="none" />
      </g>
    </g>
    <path d="M4.51235 0.878212C4.07568 1.71821 5.33568 2.59321 4.45735 3.44655C4.34568 3.55488 4.58068 3.80321 4.72901 3.72988C4.97068 3.61155 5.16068 3.38655 5.37401 3.20655C5.44068 3.28321 5.51401 3.35321 5.59568 3.41655C5.30401 5.09321 5.36235 6.88488 4.01735 8.21655C3.51235 8.42488 3.19235 8.72988 3.18568 9.34821C3.17568 10.2299 2.67901 10.9632 2.31068 11.7282C2.05901 12.2515 1.71901 12.7749 1.04068 12.6665C0.30568 12.5515 0.0573463 11.9799 0.029013 11.2899C0.014013 10.9482 -0.020987 10.6082 0.0173463 10.2699C0.0506796 10.1032 0.127346 9.95655 0.24568 9.83488C1.31568 9.92321 1.62901 9.29655 1.63068 8.37321C1.63235 7.20321 1.83235 6.08655 2.52401 5.10988C2.94735 4.51321 2.83068 3.97655 2.53068 3.35155C2.11735 2.48821 2.18401 1.70488 2.78735 0.806545C3.56401 -0.345121 3.98068 -0.211788 4.51235 0.878212" transform="translate(26.31415 36.34029)" id="Fill-18" fill="#CAE2BD" stroke="none" />
    <path d="M0.026378 1.57833C0.273045 1.05167 0.519711 0.526667 0.768045 0C0.848045 0.015 0.928045 0.03 1.00638 0.045C2.38804 1.31167 3.05138 3.1 4.24804 4.50167C5.48804 7.06667 6.57971 9.72333 8.84471 11.6283C9.10471 11.8483 9.26305 12.175 9.09305 12.55C8.32638 12.9567 7.91138 11.9317 7.20805 12.0883C6.43138 11.23 5.65638 10.3683 4.88138 9.51C4.62138 9.06333 4.27638 8.66333 4.13471 8.15167C3.81471 7.79333 3.24971 7.62333 3.24304 7.01667C2.84638 6.24667 2.16471 5.645 1.93138 4.77833C1.65471 4.51333 1.28804 4.30833 1.30638 3.845C0.899711 3.07833 -0.181955 2.69167 0.026378 1.57833" transform="translate(11.40646 35.71417)" id="Fill-20" fill="#C6D8B9" stroke="none" />
    <path d="M2.66101 2.93667C1.81601 2.59333 0.807677 2.43 0.172677 1.855C-0.392323 1.34333 0.617677 0.74 0.529344 0C1.18268 0.371667 0.801011 1.105 1.37434 1.35C1.88434 1.33833 1.44934 0.216667 2.26934 0.55C2.37101 0.61 2.47268 0.67 2.57434 0.731667C2.74601 1.22167 3.39934 1.47833 3.24268 2.12667C3.18601 2.21 3.13768 2.29833 3.09768 2.39C2.92101 2.31 2.70601 2.07833 2.56601 2.34C2.48934 2.48 2.62268 2.73333 2.66101 2.93667" transform="translate(27.60566 20.107)" id="Fill-22" fill="#CAE2BD" stroke="none" />
    <path d="M5.20333 4.19934C4.22 3.59934 3.235 2.99934 2.25167 2.39767C2.07667 2.26767 1.9 2.13767 1.725 2.00601C1.52833 1.38101 0.736667 1.31767 0.515 0.717674C0.343333 0.562674 0.171667 0.409341 0 0.254341C0.838333 -0.458993 1.19167 0.531007 1.76333 0.757674C3.135 1.10767 3.93667 2.30434 5.06833 3.01767C5.41833 3.23601 5.62667 3.75101 5.20333 4.19934" transform="translate(18.613 47.54882)" id="Fill-24" fill="#B9D4AC" stroke="none" />
    <path d="M0.546917 0.252211C0.891917 0.538877 1.23692 0.82721 1.58192 1.11388C1.52692 1.19388 1.47692 1.27721 1.43025 1.36221C0.841917 1.53721 0.448584 1.25221 0.121917 0.810544C-0.0430827 0.390544 0.38525 0.423877 0.546917 0.252211" transform="translate(25.66858 15.00996)" id="Fill-26" fill="#CAE2BD" stroke="none" />
    <path d="M1.04168 2.4381C1.56835 1.86143 2.24502 1.62976 3.01835 1.60476C2.99168 1.10643 2.57168 1.19476 2.30002 1.08976C2.02168 0.983097 1.73502 0.84643 1.83002 0.514763C1.88002 0.343097 2.13835 0.214763 2.32335 0.10143C2.60835 -0.0702366 2.95168 -0.0352366 3.00668 0.293097C3.11668 0.934763 3.66168 1.00643 4.07168 1.26476C4.25335 2.9831 4.47335 4.67143 6.30335 5.54476C6.40835 5.59643 7.76502 6.10143 6.25002 6.1781C6.21002 6.17976 6.13335 6.26476 6.14002 6.2781C7.23835 8.42476 5.31168 10.6064 6.21335 12.7548C6.88668 13.4364 6.71335 14.3448 6.86002 15.1681C7.32502 16.9881 7.47002 17.0448 8.77668 15.8098C9.41668 15.2048 10.1567 15.2831 10.5117 15.9131C11.0433 16.8581 11.935 17.6881 11.84 18.9231C11.6567 19.7064 11.6667 20.6198 10.6083 20.8414C9.75335 20.0698 8.82168 19.8781 7.79002 20.4864C7.63502 20.4098 7.49668 20.2814 7.49168 20.1181C7.45668 18.5881 6.78502 19.0664 6.07002 19.6598C5.15335 19.1381 3.91502 19.1131 3.40502 17.9514C3.14335 17.2898 3.14835 16.6164 3.42002 15.9714C3.60335 15.5364 3.64002 15.3981 3.16168 15.7398C1.85002 14.7548 1.31668 12.9931 1.99168 11.4264C2.44168 10.3798 2.40335 9.38976 1.48168 8.83643C-0.308317 7.7631 -0.213317 6.35143 0.400016 4.7281C0.503349 4.45143 0.455016 4.16476 0.465016 3.8831C0.460016 3.72476 0.471683 3.5681 0.491683 3.40976C0.583349 3.03476 0.606683 2.61976 1.04168 2.4381" transform="translate(12.28482 7.060737)" id="Fill-28" fill="#D5DFBD" stroke="none" />
    <path d="M0.394181 7.4165C0.272514 6.61483 -0.140819 5.85317 0.0491811 5.0065C1.42918 5.1865 2.49251 4.83483 2.85085 3.32317C3.08251 2.3465 4.55585 1.94483 3.93585 0.483165C3.65251 -0.186835 4.66918 0.028165 5.08085 0.0498316C5.72585 0.0814983 6.27418 0.398165 6.37918 1.1515C5.32251 0.644832 4.66918 0.561498 5.06418 2.12983C5.27085 2.95317 3.99418 3.28317 4.10918 4.17983C4.07918 4.24817 4.04918 4.31816 4.02251 4.38816C3.28918 6.82317 2.22918 7.70817 0.394181 7.4165" transform="translate(18.44915 14.80933)" id="Fill-30" fill="#CAE2BD" stroke="none" />
    <path d="M1.70729 15.0363C0.695625 14.8779 0.723958 13.7146 0.00729163 13.2663C-0.0110417 13.2546 0.00729163 13.1463 0.0389583 13.1096C0.070625 13.0713 0.142292 13.0646 0.195625 13.0446C2.33896 12.9579 0.318958 11.4179 1.08229 10.7529C1.56729 11.5346 2.26729 11.5129 3.10229 11.0679C2.65729 10.4246 1.65062 10.6579 1.28062 9.79959C2.15062 10.0596 2.52562 9.33459 3.07729 8.96793C3.46896 8.70793 3.33229 8.24126 3.21896 7.85793C3.08729 7.40793 2.77896 7.21793 2.29896 7.33293C2.13562 7.37126 1.95896 7.37959 1.79062 7.36793C1.23396 7.33293 0.613958 7.50126 0.188958 6.97793C-0.0777084 6.64793 0.300625 6.49126 0.435625 6.27793C0.973958 5.43459 1.42896 5.94959 1.92896 6.34793C2.18396 6.54959 2.50563 6.44459 2.67896 6.19126C3.12229 5.54126 3.02562 4.71959 2.58229 4.27959C1.73562 3.44126 2.22229 3.04959 2.86896 2.57959C2.69729 1.61293 3.19896 0.951259 3.87562 0.371259C4.43729 -0.110408 5.03729 -0.145408 5.54229 0.396259C6.14063 1.03959 5.58729 1.18959 5.12396 1.62126C4.55062 2.15293 4.02729 3.02293 4.87562 3.89959C5.56396 4.61126 5.08229 5.39626 4.93729 6.15293C5.07396 8.17459 5.07896 8.19459 6.82396 7.71793C7.31729 7.58293 7.71896 7.66626 7.68229 8.15959C7.61062 9.15459 8.17729 10.1896 7.51396 11.1463C7.05562 11.5946 6.31062 11.4079 5.87229 11.8979C5.60396 13.0879 4.07229 13.5696 4.22729 15.0929C4.28062 15.6163 3.38062 16.3746 2.89562 15.2346C2.51896 14.3463 2.10562 15.0413 1.70729 15.0363" transform="translate(3.164542 5.752408)" id="Fill-32" fill="#EDCFC5" stroke="none" />
    <path d="M3.995 9.42667C3.905 8.76 5.18833 7.405 2.975 7.59C4.405 6.96 2.55667 4.53667 4.86333 4.31333C3.82333 3.40833 3.17333 3.80333 2.27167 5.98667C1.68 5.41333 1.99167 4.83833 2.27 4.26333C2.115 3.62167 1.31167 3.56 1.10167 2.965C0.735 2.69 0.366667 2.41333 0 2.13667C0.268333 1.79667 0.163333 1.39833 0.015 0.871667C0.706667 1.23167 1.21667 1.5 1.93 1.87167C1.27833 0.648333 1.60833 0.0133333 2.88833 0C3.18833 0.148333 3.47667 0.391667 3.79 0.428333C6.94833 0.8 6.92833 0.795 7.61167 3.76C7.81333 4.635 8.17667 5.47167 8.46667 6.32667C8.43833 6.45167 8.375 6.54333 8.27 6.56667C7.56 6.73 7.275 5.46667 6.72167 5.89667C6.13833 6.35167 6.15167 7.305 5.86833 8.02667C5.72667 8.38833 5.705 8.79833 5.48 9.13833C5.38333 9.27833 5.26667 9.39833 5.135 9.505C4.73833 9.70833 4.34167 9.89667 3.995 9.42667" transform="translate(3.761833 2.345)" id="Fill-34" fill="#E7DFCC" stroke="none" />
    <path d="M0.457903 0.060515C1.08457 0.280515 2.08957 0.160515 1.62624 1.35885C1.14124 1.27051 0.641236 1.91385 0.196236 1.41385C-0.247097 0.913848 0.157903 0.473848 0.457903 0.060515" transform="translate(4.405931 5.249651)" id="Fill-36" fill="#EAC7BD" stroke="none" />
    <path d="M1.09544 0C1.18544 1.14167 1.18544 1.14167 0.550436 1.87C0.497103 1.04167 0.497103 1.04167 1.09544 0" transform="translate(1.69473 8.417334)" id="Fill-38" fill="#E4E6D3" stroke="none" />
    <path d="M0.730732 10.6256C1.54907 10.2639 1.3474 9.37392 1.69407 8.76559C2.08907 8.44892 2.58407 8.87392 2.76407 8.75226C3.19073 6.54892 1.59073 5.28559 0.877398 3.64059C0.635732 3.08226 0.0740651 2.54059 0.450732 1.81726C1.62407 1.90392 2.18573 0.88059 2.9874 0.333923C3.36573 0.0772568 3.56907 -0.171076 3.9524 0.157257C4.46073 0.59059 5.23407 0.80059 5.3724 1.55226C5.45907 2.01726 4.96573 1.95059 4.66073 2.06392C4.2474 2.21726 3.4774 1.34726 3.4524 2.27226C3.4274 3.23059 2.6924 4.49392 3.9174 5.14392C4.5424 5.47559 5.00573 6.17059 5.9824 6.01892C7.17073 5.83392 6.63073 7.25559 7.1974 7.73226C6.81907 8.42059 6.45907 9.12059 6.05407 9.79392C5.9124 10.0289 5.61907 10.3989 5.46907 10.3656C2.34073 9.68892 4.22073 12.6506 3.05907 13.2089C3.7174 14.2056 4.3124 11.8173 4.67073 13.4856C4.72407 13.7389 4.19073 14.4906 4.23573 15.1273C5.13573 15.3606 5.8124 15.2089 5.6374 13.9506C5.4624 12.6923 6.6524 14.0406 6.7724 13.3539C8.0424 13.8389 8.7174 13.5173 8.57573 11.9056C8.86407 14.5206 10.9691 16.8556 9.13073 19.4989C8.29573 19.5339 7.3824 18.8639 6.63907 19.7806C6.58073 19.8506 6.4024 19.8606 6.30907 19.8139C5.11907 19.2206 3.9774 18.5223 2.80407 17.9139C1.7124 17.3473 1.17907 15.7823 1.47407 14.3139C1.54907 13.9356 1.6574 13.6439 1.18907 13.5256C-0.534268 13.0906 -0.0609349 12.1389 0.600732 11.1173C0.685732 10.9873 0.660732 10.7856 0.730732 10.6256" transform="translate(22.10744 17.17158)" id="Fill-40" fill="#CAE2BD" stroke="none" />
    <path d="M2.75167 1.54322C2.84833 1.74989 3.085 2.06489 3.02167 2.14322C2.13 3.27489 2.02333 4.01822 3.805 4.10656C4.045 4.11656 4.50167 4.34656 4.195 4.97156C3.425 6.53822 4.75667 7.99322 6.03 8.91989C7.68333 10.1249 9.48833 9.82822 11.1517 10.4166C11.0133 10.5999 10.8767 10.7816 10.74 10.9649C10.355 10.7966 9.69 10.1699 9.64833 10.5216C9.53 11.5132 7.955 12.4599 9.12167 13.3766C10.1683 14.1999 9.55833 14.7516 9.16833 15.2982C8.38333 16.3966 8.03 17.5999 8.35 18.8499C8.58833 19.7866 7.34667 19.8716 7.57833 20.6666C6.92833 20.8382 7.02833 20.0482 6.61667 19.9182C6.265 19.6966 6.11667 19.3366 5.97167 18.9749C5.90667 18.8299 5.855 18.6816 5.80667 18.5316C5.25833 16.1766 4.73333 13.8132 3.72 11.5982C3.45833 11.0282 3.19333 10.4616 2.73333 10.0116C2.48 9.76322 2.21667 9.37156 2.47333 9.10989C3.56167 7.99822 2.61833 7.28989 2.01667 6.52656C0.78 4.95989 0.728333 2.95322 0 1.19989C0.195 1.08656 0.476667 1.01989 0.568333 0.84989C1.31 -0.51011 1.835 -0.0767765 2.33333 1.01989C2.42167 1.21822 2.61 1.36989 2.75167 1.54322" transform="translate(20.0865 26.25394)" id="Fill-42" fill="#DAE2C3" stroke="none" />
    <path d="M1.28163 3.823C1.3133 2.61967 2.44163 1.663 2.05163 0.351338C1.9783 0.108005 2.23163 -0.0403283 2.4883 0.00967165C2.96163 0.104672 3.54163 -0.0453283 3.83497 0.496338C4.0083 0.819672 3.97663 1.333 4.58163 1.13634C4.67163 1.20467 4.76163 1.27467 4.8533 1.343C5.29163 1.80967 5.20663 2.43467 5.3383 2.99301C4.79663 4.71467 4.65163 6.50634 4.40663 8.28134C4.36663 8.56134 4.21497 8.89301 4.37497 9.11134C5.68663 10.908 6.0783 13.1363 7.1933 15.0197C7.31497 15.2247 7.58997 15.2047 7.81997 15.1747C7.96163 15.0063 8.1033 14.8397 8.31997 14.5847C8.6983 15.5497 7.8583 16.4547 8.37663 17.3063C8.45663 18.168 8.22497 19.0563 8.9883 19.818C9.43497 20.2613 9.1933 20.9347 8.6783 21.3163C7.89163 21.898 7.61663 21.0813 6.87163 20.3847C7.9683 23.233 6.3983 25.2597 5.7133 27.4747C5.54163 28.028 5.15163 28.323 4.53163 28.178L4.5283 28.178C4.27497 27.1897 4.35497 23.218 4.8883 22.5247C5.22997 22.0813 4.91997 21.973 4.78163 21.9713C3.18163 21.9597 3.82663 20.7397 3.89663 20.0863C3.98997 19.2397 4.57497 19.0713 5.53997 19.293C6.5983 19.5363 6.3683 18.0147 7.1233 17.5397C7.51997 17.2913 7.06663 16.5113 6.7183 16.1963C5.99497 15.5413 5.37663 16.058 5.10163 16.708C4.70997 17.6363 4.2283 18.4197 3.3783 18.9813C2.77163 19.3797 3.00997 19.9997 3.06663 20.5547C3.11997 21.0813 3.21997 21.7047 2.42663 21.6363C1.80997 21.583 1.30663 21.2597 1.70163 20.4763C1.37497 18.533 2.45497 17.128 3.51497 15.7147C3.76997 15.328 4.0633 14.9747 4.4483 14.7197C4.5883 14.6497 4.74663 14.6363 4.90663 14.6363C4.80997 14.628 4.7133 14.6347 4.61163 14.6547C3.96497 14.9513 3.50997 15.4697 3.02497 15.9497C2.26997 16.6963 1.88663 16.6847 1.63663 15.498C1.3833 14.2963 0.8983 13.2963 2.81663 13.1247C3.78163 13.038 3.7033 11.598 2.69663 10.593C2.9333 10.1663 3.0683 9.72967 2.79663 9.263C3.3633 8.24467 2.2533 7.208 2.90997 6.13467C2.12997 6.64634 1.22163 7.33967 0.581633 6.848C-0.115033 6.31467 -0.0616999 5.178 0.109967 4.23634C0.431633 4.18967 0.7533 4.14301 1.0733 4.09801C1.17663 4.00634 1.33163 4.26134 1.3983 4.04467C1.40163 4.03467 1.27163 3.93134 1.28163 3.823" transform="translate(7.6462 7.536162)" id="Fill-44" fill="#E9CEBF" stroke="none" />
    <path d="M0 3.52281C0.335 3.24447 0.108333 2.46447 0.715 2.51114C1.555 2.57614 1.535 3.38781 1.58167 4.03281C2.61 3.70281 2.26333 3.16781 2.14333 2.53781C1.95333 1.53447 2.285 1.35781 3.57 1.82947C2.75333 0.889474 3.33167 0.447807 3.92333 0.00947382C4.17833 -0.0338595 4.365 0.0744738 4.51167 0.272807C4.525 0.982807 4.97667 1.48281 5.345 2.02614C5.53667 2.60447 5.99833 3.23281 4.84833 3.37947C4.11167 3.47281 3.26167 4.97947 3.41333 5.69114C3.43667 5.80614 3.43167 5.95114 3.555 5.95281C4.75333 5.95947 4.88167 6.94614 4.655 7.61281C4.31833 8.59781 3.27 8.39947 2.41167 8.33781C2.00833 8.30281 1.73333 8.09781 1.585 7.72114C1.10167 6.64281 0.62 5.56447 0.138333 4.48614C0.328333 4.13114 0.198333 3.82281 0 3.52281" transform="translate(4.871833 17.26586)" id="Fill-46" fill="#E9CEBF" stroke="none" />
    <path d="M0 7.57C0.278333 7.18333 0.693333 7.28167 1.08333 7.24333C1.47333 7.20667 1.96667 7.11833 2.00667 6.66667C2.03833 6.30667 1.89667 5.82833 1.655 5.565C1.19833 5.07 1.01 6.01167 0.565 5.88667C0.836667 2.29167 1.28667 1.55 2.73833 2.34667C3.085 1.92333 2.62333 1.645 2.55 1.30667C2.57667 0.936667 2.51167 0.553333 2.70333 0.206667C2.80833 0.0916667 2.93833 0.0233333 3.09 0C4.85333 0.13 4.14667 1.33167 4.19 2.32167C4.24667 3.67167 3.41167 3.13333 2.84167 3.07333C2.11833 2.99667 1.76833 3.40333 2.10167 3.90667C2.42 4.385 2.365 4.82833 2.49667 5.28333C2.75167 6.17 2.87333 5.14833 3.10167 5.165C3.53167 5.01167 3.95333 4.885 4.125 5.505C4.05833 6.14667 2.84333 6.59333 4.42167 7.65167C3.26167 7.20167 2.42167 6.22833 2.61833 7.88167C2.71 8.64833 2.35167 9.30667 2.065 9.97833C1.75833 8.84833 0.883333 8.205 0 7.57" transform="translate(7.284 18.03317)" id="Fill-48" fill="#EBD9CA" stroke="none" />
    <path d="M0.92254 1.70524C0.384207 1.26524 0.355873 0.676906 0.435873 0.0552391C1.04254 -0.178094 1.04921 0.385239 1.26421 0.675239L0.92254 1.70524Z" transform="translate(12.06213 8.823761)" id="Fill-50" fill="#E7DFCC" stroke="none" />
    <path d="M0.471391 0.351667C0.814724 0.471666 1.34472 0.366667 1.35972 0.916666C1.37472 1.445 0.826391 1.11 0.609724 1.315C0.258058 1.03833 0.213058 0.716666 0.471391 0.351667" transform="translate(4.400442 20.437)" id="Fill-52" fill="#EDCFC5" stroke="none" />
    <path d="M6.60167 2.39899C6.25833 2.72066 5.45167 2.46399 5.505 3.27899C4.975 3.64232 4.48167 4.02732 4.60333 4.78232C4.57667 5.11732 4.405 5.38399 4.19 5.62566C3.48333 6.33899 2.96833 7.21899 2.21 7.88732C2.13667 7.91232 2.06167 7.93566 1.98667 7.95899C0.958333 7.71232 1.19333 8.86899 0.651667 9.16399C0.476667 8.68399 0.48 8.12066 0 7.78566C1.03333 6.47566 0.325 4.99566 0.408333 3.59399C0.416667 3.44066 0.441667 3.28899 0.473333 3.13732C0.488333 2.28399 1.26833 1.47732 0.626667 0.578992C0.638333 0.408992 0.698333 0.260658 0.806667 0.130658C1.58833 -0.264342 1.87667 0.313992 2.19333 0.832325L2.19333 0.835658C2.08333 1.34399 2.48333 1.77566 2.40667 2.27899C2.435 2.32899 2.45167 2.39399 2.49167 2.42732C3.16833 2.97899 2.14667 4.64732 3.34333 4.44066C4.495 4.24232 4.76333 2.69232 4.97 1.54566C5.09833 0.847325 4.72833 -0.077675 6.03333 0.277325C5.89333 1.07232 5.40167 1.96232 6.60167 2.39899" transform="translate(24.093 44.16684)" id="Fill-54" fill="#B9D4AC" stroke="none" />
    <path d="M0.921376 1.555C0.713042 1.09333 0.316376 0.660001 0.708043 0.111667C0.846376 0.501667 0.986376 0.890001 1.12471 1.28C1.05638 1.37167 0.988042 1.46333 0.921376 1.555" transform="translate(25.57896 44.89117)" id="Fill-56" fill="#CBD7B2" stroke="none" />
    <path d="M12.7283 22.57C12.6617 22.6617 12.5967 22.7517 12.5317 22.845C12.4167 23.6017 12.7783 24.7183 12.0417 25.0167C11.275 25.3283 10.7083 24.32 10.1483 23.785C9.34 23.015 8.32833 22.3617 8.38667 21C8.41 20.4633 8.17 20.1467 7.51167 20.4933C6.34833 21.105 5.88 20.2267 6.13333 19.4283C6.64 17.8383 5.66833 17.255 4.65167 16.6067C4.08167 16.245 3.39 16.0467 3.095 15.3483C1.84333 14.0083 0.998333 12.3867 0 10.87C1.20667 9.00667 2.485 7.14333 2.24 4.77833C2.15833 3.98667 2.07167 3.24167 2.29333 2.52333C3.41167 2.29167 2.81833 4.11167 3.92 3.79C4.23167 3.7 4.37167 3.29667 4.335 2.92333C4.25 2.03 3.36333 2.62333 2.96167 2.17C4.24667 1.835 3.03333 0.536667 3.845 0C4.26667 1.15833 5.87 0.74 6.32333 1.85667C6.36 1.925 6.39833 1.995 6.435 2.065C5.85167 3.125 6.38 4.22 6.33333 5.29667C5.84167 5.24667 5.42 4.92167 4.98833 4.99167C5.35833 5.115 5.83667 5.16667 6.29667 5.29333C7.09667 5.32833 7.845 5.50667 8.47167 6.045C8.77833 6.33 8.91333 6.70167 8.99333 7.09833C9.73167 10.7667 12.0317 13.9783 12.1233 17.845C12.14 18.53 13.0067 19.065 12.5967 19.8833L12.5983 19.8833C12.7517 20.7733 12.2983 21.6933 12.7283 22.57" transform="translate(12.17767 24.843)" id="Fill-58" fill="#DDE1C4" stroke="none" />
    <path d="M0 0C1.22833 0.81 2.86333 0.973333 3.595 2.60333C3.87333 3.225 4.465 3.435 3.455 3.89833C2.86167 4.17 3.355 4.80667 3.63667 5.02667C4.10833 5.39167 4.065 4.93333 4.13833 4.585C4.245 4.085 4.685 4.30833 4.98833 4.365C5.39167 4.43833 5.95 4.67833 5.83 5.06333C5.19 7.10333 7.03333 7.595 7.96 8.655C8.21667 8.94667 8.485 9.22666 8.87167 9.64833C9.16833 8.875 9.00167 8.08667 9.43667 7.495C9.60333 8.42 9.80167 9.34167 9.93 10.2733C10.0433 11.0967 9.45167 11.4583 8.82 11.76C8.72833 11.6917 8.635 11.6233 8.54333 11.5567C8.53833 11.075 8.38667 10.545 7.95167 10.4233C6.64333 10.0617 6 8.94333 5.10333 8.11333C4.18 6.72667 2.835 5.71 1.98167 4.21167C1.205 2.84333 0.625 1.42 0 0" transform="translate(15.27317 40.19217)" id="Fill-60" fill="#CCE0C2" stroke="none" />
    <path d="M6.27333 19.3418C4.745 17.3102 5.54333 14.6002 4.31 12.5052C3.06333 10.3852 2.97333 7.8735 1.865 5.7185C1.63167 4.08516 0.191667 2.96516 0 1.31516C0.075 0.740162 -0.055 -0.144838 0.836667 0.0201623C2.005 0.238496 1.535 1.3035 1.585 2.07016C2.185 2.94683 2.76667 3.80683 2.89833 4.92683C3.06833 6.39016 4.14333 7.3835 4.985 8.48183C5.23333 8.8085 5.62333 9.3585 5.24667 9.4835C3.80167 9.9635 4.76667 10.2518 5.035 11.0152C5.50833 12.3668 6.315 13.5735 6.65833 15.0618C6.995 16.5252 7.18667 18.1602 7.785 19.6152C7.315 19.3418 6.915 18.6718 6.27333 19.3418" transform="translate(18.50167 25.384)" id="Fill-62" fill="#CBD7B2" stroke="none" />
    <path d="M3.83062 0C4.68728 1.49333 5.04395 3.31333 6.66562 4.305C6.78562 4.37833 6.90228 4.70167 6.89062 4.70833C5.16895 5.82 7.37562 6.33667 7.25728 7.23167C6.46395 7.725 5.78895 7.15333 5.07562 6.94833C5.05561 5.81 4.14728 5.07667 3.73562 4.11167C3.54062 3.655 2.60728 3.57167 2.55228 4.20167C2.45895 5.305 1.93895 5.6 1.10228 5.255C0.302282 4.925 -0.251051 4.24833 0.115615 3.23667C0.560615 2.57 2.55895 3.82667 1.89895 1.795C3.12728 1.825 2.86562 0.253333 3.83062 0" transform="translate(18.72688 18.9885)" id="Fill-64" fill="#C3DEB7" stroke="none" />
    <path d="M4.05959 12.1817C2.11126 12.725 1.95793 10.5033 1.97126 10.0433C2.00959 8.595 0.941259 7.92 0.407926 6.93C0.0795927 6.32167 -0.195407 5.93167 0.182926 5.27167C0.677926 4.40833 0.667926 3.37667 0.649593 2.46C0.629593 1.43333 1.00793 0.721667 1.57793 0C1.91293 0.665 1.77293 1.255 1.49793 1.94333C1.07793 2.995 1.02959 3.96333 2.29959 4.735C3.63293 5.54667 3.99293 6.65833 3.20293 8.35C2.68126 9.47167 2.95459 11.0817 4.05959 12.1817" transform="translate(11.40724 10.52833)" id="Fill-66" fill="#E4DCC3" stroke="none" />
    <path d="M0.527533 0.527158C0.745866 0.352158 1.0892 -0.322843 1.33087 0.187157C1.63587 0.832158 1.66587 1.71382 1.51087 2.42716C1.40253 2.91882 0.852533 2.55216 0.547533 2.32049C-0.172467 1.77382 -0.0108002 1.17716 0.527533 0.527158" transform="translate(16.36497 19.72934)" id="Fill-68" fill="#E9CEBF" stroke="none" />
    <path d="M1.58 1.31422C1.51 1.40089 1.44167 1.48922 1.37333 1.58089C0.918334 1.62256 0.66 1.39589 0.548333 0.972556C0.365 0.834223 0.183333 0.69589 0 0.55589C0.401667 -0.112443 1.10333 0.254223 1.64833 0.08089C2.545 0.542557 2.00833 0.92589 1.58 1.31422" transform="translate(8.794833 16.71811)" id="Fill-70" fill="#EFB8AF" stroke="none" />
    <path d="M0.445 0.431929C0.69 0.773596 1.39667 0.501929 1.43 1.16693C0.858333 1.42193 0.615 0.888596 0.236667 0.706929C0.306667 0.615263 0.375 0.523596 0.445 0.431929" transform="translate(8.482833 10.92724)" id="Fill-72" fill="#EDCFC5" stroke="none" />
    <path d="M0.545845 1.28917C0.462512 1.3725 0.380845 1.45583 0.297512 1.53917C0.294179 0.795834 0.632512 0.310834 1.36918 0.1275C1.09418 0.515834 0.820845 0.902501 0.545845 1.28917" transform="translate(28.22982 47.31767)" id="Fill-74" fill="#81B276" stroke="none" />
    <path d="M1.02333 1.56512C0.681667 1.45179 0.341667 1.33846 0 1.22346C0.57 0.648459 1.02 -0.164874 2.05667 0.186792C1.71333 0.646792 1.36833 1.10679 1.02333 1.56512" transform="translate(10.38583 21.97338)" id="Fill-76" fill="#E4DCC3" stroke="none" />
    <path d="M1.06587 0.373221C1.37753 0.558221 1.27253 0.769887 1.1642 0.953221C1.06087 1.12489 0.954199 1.39322 0.690865 1.25989C0.545865 1.18655 0.255865 1.06489 0.470865 0.784887C0.630865 0.576554 0.785865 0.344888 1.06587 0.373221" transform="translate(12.0743 21.24795)" id="Fill-78" fill="#E4DCC3" stroke="none" />
    <path d="M1.15667 1.14764C0.903333 1.15097 0.67 1.20097 0.641667 1.14764C0.556667 0.975969 0.548333 0.767636 0.51 0.574303C0.658333 0.549303 0.896667 0.457636 0.935 0.510969C1.045 0.660969 1.07 0.869303 1.15667 1.14764" transform="translate(8.6705 12.48603)" id="Fill-80" fill="#EDCFC5" stroke="none" />
    <path d="M0.60015 0.00916666C0.87515 0.2125 1.15015 0.414167 1.42515 0.615833C1.31348 0.9625 1.20182 1.31083 1.09015 1.6575C0.893484 1.1175 -0.361517 0.894166 0.60015 0.00916666" transform="translate(8.74285 17.68217)" id="Fill-82" fill="#EDCFC5" stroke="none" />
    <path d="M1.03509 0.496666C1.03842 0.735 1.09009 0.901666 1.03009 1.005C0.975087 1.09667 0.800087 1.11833 0.678421 1.17C0.653421 1.02333 0.578421 0.861666 0.620087 0.738333C0.651754 0.646666 0.833421 0.606666 1.03509 0.496666" transform="translate(6.003079 21.953)" id="Fill-84" fill="#EBD9CA" stroke="none" />
    <path d="M0.766428 2.68667C0.0897612 1.82167 -0.078572 0.931667 0.636428 0C1.43976 0.045 1.71309 0.603334 1.30643 1.13667C0.921428 1.64167 1.09476 2.23333 0.766428 2.68667" transform="translate(24.13957 44.72633)" id="Fill-86" fill="#CBD7B2" stroke="none" />
    <path d="M1.88167 0C1.66333 1.13 1.10333 1.99833 0 2.44833C0.383333 1.44667 1.06833 0.671667 1.88167 0" transform="translate(26.0745 49.68517)" id="Fill-88" fill="#81B276" stroke="none" />
    <path d="M1.40775 3.46089C1.32941 3.38089 1.19941 3.31089 1.17775 3.21756C0.99608 2.48922 -0.312253 2.23256 0.0694132 1.49756C0.532747 0.604225 1.39608 1.69422 1.98775 1.56089C2.94275 1.34256 4.42941 2.09256 4.72108 0.320891C4.77275 0.0158914 5.12775 -0.100775 5.40275 0.0992247C5.69108 0.307558 5.64441 0.575891 5.35608 0.785891C4.60275 1.33589 4.09608 2.07589 3.69775 2.90423C3.50108 3.31256 3.24275 3.32923 2.90941 3.02422C2.18608 2.36256 1.81608 2.98256 1.41108 3.46089L1.40775 3.46089Z" transform="translate(14.20642 32.25528)" id="Fill-90" fill="#E4D8C2" stroke="none" />
    <path d="M1.52445 0C1.73445 0.0816667 1.95945 0.255 2.15445 0.226667C3.17445 0.085 3.23112 0.763334 3.33945 1.48333C3.49445 2.51 2.82945 2.03667 2.43445 1.995C1.82612 1.93333 1.96112 3.40167 1.02945 2.64667C0.486121 2.20667 -0.0272125 1.78667 0.00112087 0.986667C0.0377875 -0.0966667 1.01612 0.33 1.52112 0L1.52445 0Z" transform="translate(14.09371 35.7155)" id="Fill-92" fill="#E4D8C2" stroke="none" />
    <path d="M0.703077 0C1.30808 1.475 3.11474 2.44 2.56974 4.40333C2.13641 3.71667 1.04141 4.31333 0.704744 3.44C-0.206923 2.29333 -0.261923 1.14667 0.703077 0" transform="translate(17.79842 26.69933)" id="Fill-94" fill="#D5DFBD" stroke="none" />
    <path d="M1.11079 0.235555C1.96079 0.783889 1.53413 1.52889 1.38413 2.20722C1.33413 2.43056 0.84746 2.43222 0.864126 2.35722C1.05413 1.49889 -0.294207 1.20222 0.12246 0.327222C0.354126 -0.156112 0.75246 -0.0311118 1.11079 0.235555" transform="translate(15.62554 30.74028)" id="Fill-96" fill="#E4D8C2" stroke="none" />
    <path d="M2.27519 1.3224C1.74853 1.3474 1.24519 1.3724 0.743526 1.3924C0.466859 1.40406 0.141859 1.47406 0.0385254 1.11406C-0.0398079 0.842398 -0.0114746 0.534065 0.243525 0.352398C0.513525 0.162398 0.743526 0.299065 0.991859 0.489065C1.38686 0.794065 1.82686 1.0374 2.27519 1.3224" transform="translate(16.25481 28.83393)" id="Fill-98" fill="#D5DFBD" stroke="none" />
    <path d="M5.1085 13.5098C5.9335 12.8865 6.91683 12.7148 7.8985 12.5382C8.4935 12.7565 8.9185 12.2382 9.4485 12.1748C12.2202 11.5215 14.8152 10.4532 17.1818 8.85318C17.2285 8.45151 17.0318 8.06651 17.1718 7.64651C18.0418 5.04317 17.6252 4.10317 15.0118 2.80151C15.4335 2.37651 16.0318 2.26484 16.4435 1.88817C16.5652 1.77484 16.6485 1.63651 16.6985 1.48151C16.2418 -0.0351603 15.9252 -0.213494 14.8235 0.723173C14.1318 1.30984 13.7052 1.08984 13.1868 0.62484C12.3768 0.24484 11.5952 -0.381827 10.6535 0.311506C10.2835 0.378173 10.7618 1.15317 10.0885 0.97484C9.94183 0.978173 9.81183 1.01151 9.68683 1.07817C8.9785 1.88317 9.21516 2.39151 10.2135 2.50484C10.5985 2.54984 10.8502 2.57817 10.9218 2.97151C10.9135 2.99651 10.9518 3.03817 10.9185 3.07817C10.9268 2.96651 10.9052 2.85984 10.8485 2.74984C10.3418 2.43151 9.54183 2.72984 9.2585 1.96151C9.21683 1.84984 9.0985 1.77817 8.98183 1.77317C8.26516 1.74984 8.60516 2.33317 8.4835 2.65317C8.25016 2.42484 8.39183 1.90484 7.88016 1.88984C7.45183 1.87817 7.0935 2.07484 6.72516 2.24484C6.0635 2.55317 5.56183 3.00984 5.3685 3.74317C5.27016 4.79651 4.4535 4.73151 3.70516 4.86984C2.1585 5.15484 1.82016 5.73484 2.35016 7.02317C2.7385 7.45984 3.15183 7.85651 3.73516 8.03151C4.4535 8.24984 4.88516 8.83317 5.25016 9.40817C5.94183 10.4948 5.60183 11.2748 4.39016 11.6698C3.50183 11.9582 2.74183 12.2715 2.5635 10.8098C2.45683 9.93984 2.09683 8.90317 0.748496 9.27484C0.195163 9.68484 -0.0598369 10.2415 0.0118298 10.9148C0.128496 11.9865 0.34683 13.0348 0.0351631 14.1332C-0.11817 14.6748 0.30183 15.0898 0.905163 15.1898C1.00016 15.1098 1.09516 15.0315 1.19016 14.9515C1.20183 14.8382 1.2135 14.6948 1.29683 14.6432C1.41683 14.5665 1.4985 14.6482 1.49016 14.7998C2.4385 14.7498 3.06183 13.7582 4.0785 13.9032C4.5535 14.1148 4.7385 13.5715 5.1085 13.5098" transform="translate(66.17367 88.36766)" id="Fill-100" fill="#D3D790" stroke="none" />
    <path d="M0.00195045 10.1304C0.445284 11.3471 1.10028 11.5687 1.89362 10.4487C2.92362 8.99705 3.14695 9.99038 3.42528 10.9087C3.46862 10.9171 3.51195 10.9254 3.55528 10.9337C3.33028 10.8704 3.65028 10.9671 3.42528 10.9087C2.84195 11.1421 2.26695 11.4021 1.67362 11.5987C1.41362 11.6854 0.990284 11.6054 1.03862 11.9854C1.08362 12.3521 1.32028 12.7187 1.81695 12.7037C2.98862 12.6687 3.38195 13.6887 3.99862 14.3704C4.70028 15.1471 4.43528 15.9454 3.76028 16.5721C2.94862 17.3271 3.45695 17.7404 4.06362 18.1787C4.81862 17.9571 5.57195 17.7337 6.32695 17.5137C7.17028 17.6604 7.72528 17.1237 8.31862 16.6771C8.98195 16.1704 9.48195 15.4437 10.3203 15.1671C10.6036 14.8037 10.887 14.4404 11.172 14.0787C12.3753 13.2337 13.8636 12.6287 13.9336 10.8221C14.377 10.0887 14.8236 9.35372 15.267 8.62039C15.957 8.22038 15.777 7.57372 15.732 6.96705C15.8936 6.62705 16.0553 6.28705 16.217 5.94538C16.5003 5.78705 16.6536 5.57372 16.5036 5.23705C16.587 4.72372 16.7703 4.25538 17.122 3.86372C17.2203 3.50538 17.7903 3.26038 17.377 2.78372C16.582 3.05538 16.292 2.39538 16.3853 1.94872C16.7803 0.022051 15.3486 0.235384 14.2703 0.00371768C14.0986 -0.0146157 13.9486 0.0353844 13.8153 0.142051C13.4203 0.778718 13.6336 1.44538 13.7303 2.13872C13.367 1.37538 12.887 1.19372 12.0436 1.40038C10.6103 1.74872 9.33028 2.22538 8.75862 3.70538C8.54862 4.24538 8.42695 4.22205 7.83528 4.16372C6.72528 4.05538 6.30195 5.21205 5.69528 5.89205C6.15362 4.96372 5.83695 4.51872 4.76862 4.56705C4.35195 4.99538 3.98195 4.91205 3.64862 4.45372C3.49028 4.37538 3.33195 4.36538 3.16695 4.42872C2.63695 4.77372 2.31695 5.28205 2.06195 5.84372C1.92195 6.42038 2.22028 6.85372 2.53528 7.28038C2.83195 7.65872 3.16028 8.01872 3.35028 8.46372C3.35862 8.61539 3.73362 8.89205 3.23195 8.87538C2.73195 8.85872 2.38028 8.58705 2.20195 8.10538C1.86362 7.60038 1.44528 7.19205 0.791951 7.45705C0.260284 7.67038 0.365284 8.20872 0.370284 8.65205C0.373617 9.18205 -0.0313829 9.60039 0.00195045 10.1304" transform="translate(79.29138 79.04128)" id="Fill-102" fill="#C8D084" stroke="none" />
    <path d="M10.2311 0L9.02941 0.208333C8.35274 0.146667 7.83274 0.651667 7.18941 0.716667C6.75941 0.92 6.32774 1.125 5.89441 1.33C5.19941 1.78667 4.41441 1.89667 3.60774 1.93L3.59108 1.945C2.85274 2.15667 2.33108 2.535 2.46274 3.41333C2.50441 3.58 2.57774 3.735 2.67774 3.875C4.13441 4.225 4.65774 5.51833 5.34274 6.60833C5.90274 7.49833 6.35941 8.15333 7.13774 6.83833C7.48941 6.24 8.07941 6.20167 8.43941 6.60833C8.87774 7.10667 8.22441 7.375 7.90941 7.655C7.39108 8.11667 6.70441 8.33833 6.20274 8.82667C5.54608 9.91 5.26274 11.2133 4.26274 12.0933C3.72108 12.5717 3.88108 13.1133 4.14108 13.66C4.18941 13.7267 4.23941 13.7933 4.28941 13.86C4.41774 13.9717 4.56774 14.0283 4.73608 14.0383C5.28941 13.9033 5.81274 13.6867 6.40608 14.0133C6.94274 14.3083 7.06608 13.8217 7.21108 13.245C7.17774 13.9783 6.92441 14.28 6.36941 14.3517C5.53108 14.4583 4.87108 14.8617 4.33274 15.535C3.41774 16.68 3.67441 15.2983 3.39274 15.0733C1.44607 14.2967 0.986075 14.5867 0.174408 17.0917C-0.0839253 17.4583 -0.0122586 17.84 0.114408 18.225C0.217741 18.4533 0.372741 18.6417 0.564408 18.8017C0.936075 19.0833 1.33107 19.335 1.65941 19.6683C2.39108 20.41 2.55274 20.2433 3.19108 19.3267C4.13774 17.97 5.34941 16.5 6.83608 15.8183C8.66274 14.9817 10.2561 13.8283 11.9711 12.8517C12.4827 12.56 13.0544 12.44 13.5394 12.12C14.0777 11.6383 14.2627 10.93 14.6711 10.3617C15.4094 9.335 16.5561 8.28333 14.4527 7.405C14.2644 7.32667 14.3661 6.52167 13.8827 6.26C12.5927 6.17167 13.0044 5.27833 13.2477 4.675C13.6294 3.72167 13.6477 2.92833 12.8344 2.22167C11.8477 1.52333 10.7011 2.05333 9.52441 1.815C9.67108 1.15167 11.0127 0.913333 10.2311 0" transform="translate(71.61993 61.25333)" id="Fill-104" fill="#B1CF8C" stroke="none" />
    <path d="M1.52126 9.55833C0.781258 10.6633 0.362925 11.9017 0.0195912 13.1717C-0.0170754 13.33 -0.00207543 13.4817 0.0629246 13.6283C0.436258 14.5117 0.222925 15.5783 0.969591 16.35C1.65292 17.055 2.27126 17.85 3.43292 17.355C3.86959 16.6417 5.01459 17.9683 5.27626 16.7133C5.40626 16.0967 5.86792 15.3333 5.27126 14.915C4.63459 14.4683 4.24126 13.705 3.19459 13.3783C4.17459 13.52 4.92459 13.565 5.04959 12.545C5.05792 12.4783 5.09626 12.4617 5.18626 12.5333C5.54959 12.8283 5.91292 12.87 6.29626 12.5783C6.29459 10.475 5.86792 8.315 7.12459 6.38167C8.41626 4.42167 8.75959 2.37833 7.66959 0.206667C7.53292 0.0866667 7.37626 0.0216667 7.19792 0C7.01792 0.0316667 6.85626 0.103333 6.70959 0.215C6.47292 1.00667 5.57292 1.355 5.39292 2.18333C3.95459 3.98333 2.72292 5.895 2.12126 8.15333C1.97292 8.64333 1.59292 9.035 1.52126 9.55833" transform="translate(53.61507 73.3535)" id="Fill-106" fill="#D5DFB3" stroke="none" />
    <path d="M0.3225 6.17126C0.3575 6.41293 0.394167 6.65293 0.429167 6.89293C0.599167 8.30293 2.06917 8.7496 2.6325 9.8696C2.8225 10.1479 3.05917 10.3296 3.42083 10.2746C3.7275 10.3079 4.03417 10.3429 4.34083 10.3763C4.7675 10.4879 5.0975 10.3246 5.3775 10.0163C5.94583 9.23293 6.6675 8.63626 7.5425 8.2196C8.64583 7.71293 9.75083 7.20293 10.8542 6.69293C10.8808 4.41126 10.8492 4.37126 8.6275 4.55293C8.20583 4.58793 7.8175 4.55793 7.46083 4.3496C7.09583 4.13459 6.6825 4.2546 6.26917 4.13793C6.6275 3.73459 7.52083 3.90126 7.41917 3.11793C7.33917 2.49626 6.75583 2.37459 6.24417 2.27293C5.8625 2.19793 5.6525 1.93959 5.43583 1.66793C4.1875 1.43126 4.1875 1.43126 3.44917 2.22959C3.0075 1.49793 4.11583 0.841261 3.54917 0.111261C3.02083 -0.133739 2.58917 0.0529275 2.19417 0.407928C1.8725 0.771261 1.5175 1.06959 0.980834 0.989594C0.359167 2.21126 0.1275 3.51959 0.094167 4.8746C-0.175833 5.36793 0.209167 5.7446 0.3225 6.17126" transform="translate(55.19633 97.25407)" id="Fill-108" fill="#D4D48A" stroke="none" />
    <g id="Group-112" transform="translate(88.33334 70.99917)">
      <path d="M0 0L10.8752 0L10.8752 9.03359L0 9.03359L0 0Z" transform="translate(0.5948333 0.05678916)" id="Clip-111" fill="none" stroke="none" />
      <g clip-path="url(#mask_2)">
        <path d="M10.785 2.59004C10.7367 2.03171 10.69 1.47338 10.6417 0.913377C10.7867 0.488377 10.47 0.280044 10.23 0.0350442C10.175 0.0233775 10.08 -0.0132892 10.0683 0.00504417C8.90333 1.75171 6.86833 1.59671 5.195 2.23171C4.49167 2.76838 3.745 3.26004 3.28167 4.04671C3.67667 5.70504 4.60667 4.89171 5.40833 4.60338C4.99833 5.66504 3.74833 4.96504 3.32 5.42671C3.71833 5.25338 3.21833 4.80338 3.21 4.42004C2.03667 4.18004 1.26833 5.19171 0.23 5.37504C-0.085 6.54504 0.213333 7.75504 0 8.93338C1.34333 9.24504 3.62833 8.79504 4.40333 8.06338L4.405 8.06338C5.635 7.97004 6.81833 8.10004 7.91833 8.72004C8.29667 8.93338 8.70167 9.06504 8.84833 8.43671C9.435 7.00504 10.0233 5.57338 10.6117 4.14004C10.9317 3.65338 10.9233 3.12838 10.785 2.59004" transform="translate(0.5948333 0.05678916)" id="Fill-110" fill="#AFBD6F" stroke="none" />
      </g>
    </g>
    <path d="M0.268915 4.445C1.13891 5.61333 0.112248 6.655 0.0205816 7.75667C-0.0177518 8.21834 -0.0544184 8.56667 0.423915 8.755C0.892248 8.93834 1.02225 8.56 1.19058 8.26C1.24225 8.195 1.29391 8.13167 1.34558 8.06834C1.56058 7.64 1.48058 7.155 1.59225 6.71C2.06225 4.82667 3.39391 4.15667 5.44558 4.755C5.47891 4.905 5.52391 5.04833 5.57058 5.19333C5.74225 5.63667 5.90725 6.08 6.15891 6.485C6.46391 6.915 6.87891 7.24 7.25391 7.60167C7.57058 7.90667 7.99558 8.07667 8.34558 7.75333C9.51558 6.67667 10.6839 5.595 11.3222 4.07333C11.6506 3.295 11.2306 2.35833 12.1172 1.63833C12.6189 1.23167 11.7139 0.326667 10.8322 0.51C10.3256 0.616667 9.69058 1.12167 9.85225 0C9.18558 0.163333 8.45391 -0.11 7.82391 0.301667C6.15558 0.896667 4.38391 1.10833 2.71891 1.71167C2.43225 1.87667 2.25558 2.14167 2.09058 2.41333C1.86725 2.83167 1.45225 3.05167 1.11725 3.355C0.827248 3.71333 0.408915 3.97167 0.268915 4.445" transform="translate(84.13675 59.23183)" id="Fill-113" fill="#A3C47E" stroke="none" />
    <path d="M0.0228069 4.065C0.177807 4.345 -0.33386 5.005 0.452807 4.91167C1.01614 4.845 1.46614 4.96833 1.94447 5.35833C1.80281 5.515 1.72114 5.68333 1.59281 5.73C1.07114 5.91833 0.0478069 5.415 0.172807 6.44334C0.249474 7.07 0.984474 7.365 1.63447 6.75334C2.45114 7.92167 3.46281 7.025 4.39614 7.02334C5.82781 7.01834 4.78781 8.52167 5.54281 8.94C5.90947 8.875 6.33114 8.95 6.57114 8.55C6.42781 8.365 6.12114 8.11 6.16614 8.005C6.90947 6.255 5.51114 4.32667 6.62114 2.62C6.65447 2.54667 6.68614 2.47333 6.71947 2.4C6.31614 1.62833 6.17281 0.743334 5.69781 0C4.79947 0.125 4.11114 1.36833 3.02281 0.501667C2.86447 0.538333 2.73114 0.618334 2.61447 0.731667C2.47114 1.41667 2.16781 1.93333 1.50947 2.32C0.847807 2.70667 0.127807 3.155 0.0228069 4.065" transform="translate(60.50819 95.00733)" id="Fill-115" fill="#CED184" stroke="none" />
    <path d="M6.72516 1.03429C6.39016 1.42762 6.05849 1.82262 6.17016 2.34929C7.05349 2.75929 7.97516 1.02262 8.62016 2.28429C9.12016 3.25762 7.52349 2.68762 7.37182 3.39096C8.82516 3.91762 7.60349 4.83929 7.52682 5.48596C7.46682 6.00096 6.31182 6.23929 6.78516 7.17262C6.80016 7.20096 6.50016 7.46096 6.46016 7.43596C4.77182 6.38096 5.49349 8.41929 4.74016 8.72929C4.25849 8.25429 3.73849 7.74429 3.22016 7.23429C2.70682 7.40596 2.76182 7.86096 2.70349 8.26096C2.69682 9.94596 1.35849 10.946 0.620158 12.251C0.381825 12.6726 -0.214842 12.906 0.0801582 13.546C1.38682 14.6726 1.88849 13.4393 2.55849 12.701C2.63682 12.051 2.80849 11.2876 3.49016 11.2026C5.04849 11.0093 5.57849 9.75596 6.37016 8.74762C7.36349 7.42262 8.35849 6.09929 9.35349 4.77429C9.88016 3.50262 11.2152 2.86929 11.8068 1.65096C11.7452 1.07096 12.9418 0.839289 12.3368 0.229289C11.7268 -0.389044 10.9568 0.454289 10.2368 0.317623C9.72349 0.394289 9.21516 0.485956 8.74182 0.712623C8.07016 0.820956 7.39849 0.927623 6.72516 1.03429" transform="translate(87.26384 58.19754)" id="Fill-117" fill="#99BA78" stroke="none" />
    <path d="M6.90167 6.93526C7.79667 7.40526 8.035 6.35693 8.65333 6.17693C9.48333 5.93359 10.0233 5.16193 9.98166 4.50359C9.92667 3.63359 8.86833 4.38859 8.36667 3.98359C8.20167 3.84859 7.93667 3.83859 7.73167 3.77526C7.30167 4.24859 7.665 5.00859 6.94333 5.42026C6.45333 4.64359 6.00167 3.82526 5.45167 3.08193C4.93167 2.38193 4.59333 1.33026 3.35333 1.65859C3.335 0.946927 3.58333 0.376927 4.22833 0.0185942C3.52833 -0.129739 3.13 0.660261 2.455 0.590261C1.45 0.958594 0.833333 1.84359 0 2.43193C0.00166667 2.42859 0.356667 3.79526 0.356667 3.79526C2.025 4.28859 2.49833 6.66693 4.92667 6.38193C4.04333 7.27693 3.74167 8.04026 4.875 8.61693C6.33333 9.00193 6.355 7.65359 6.90167 6.93526" transform="translate(70.98217 63.17874)" id="Fill-119" fill="#B9D597" stroke="none" />
    <path d="M8.72789 5.98C8.38455 5.44333 7.30622 4.83667 8.95122 4.54167C9.33955 4.47167 9.69955 3.58833 8.93789 3.69167C6.74455 3.99 6.31622 1.485 4.50955 1.17C3.65289 1.02167 4.69955 0.431667 4.65622 0C4.22955 0.136667 3.86289 0.253333 3.49455 0.371667C3.20289 0.261667 3.04955 0.456667 2.89289 0.643333C3.03122 2.29333 3.03289 2.28833 1.49622 1.64C1.23122 1.53 0.961221 1.405 0.666221 1.385L0.524555 1.49L0.424555 1.63333C-0.278779 2.39333 -0.0271119 3.09667 0.589555 3.73333C1.14289 4.30833 1.73122 4.84667 2.14622 5.53833C2.86289 6.3 3.74289 5.21 4.48122 5.74667C4.98289 5.91333 5.38289 6.43167 6.00289 6.20166C6.29455 5.67833 6.52122 5.14166 7.18955 5.925C7.50955 6.3 8.06455 6.46167 8.60289 6.19C8.64455 6.12 8.68622 6.05 8.72789 5.98" transform="translate(67.28245 65.716)" id="Fill-121" fill="#A6CA85" stroke="none" />
    <path d="M9.68148 7.80338C9.75815 7.86005 9.83315 7.92005 9.90648 7.98338C10.0681 8.02838 10.2348 8.03838 10.4015 8.01671C11.3265 7.55338 12.6065 7.88671 13.2448 6.76671C13.0731 5.66671 11.8481 6.37505 11.4231 5.70671C11.0798 5.53838 10.7281 5.39171 10.3365 5.40005C9.56315 5.01005 8.79148 4.62005 8.01982 4.23171C7.55148 3.94671 7.10815 3.61005 6.54148 3.52838L6.54648 3.53005C5.75648 3.40005 5.74315 2.20505 4.81482 2.26505C3.88315 1.67171 2.67148 1.49171 2.07648 0.406713C2.12315 0.275046 2.10982 0.195046 2.03315 0.163379C1.95648 0.130046 1.90315 0.126713 1.87315 0.151713C1.13482 -0.194954 0.341483 0.0883794 0.0898164 0.638379C-0.31685 1.51671 0.76815 1.92338 1.13648 2.57671C1.26982 3.09005 1.74815 3.28338 2.09148 3.60005C3.03148 3.57338 4.14482 3.14338 4.43815 4.61338C4.55815 4.72505 4.69315 4.81338 4.84315 4.87838C6.65148 5.53005 8.24148 6.54171 9.68148 7.80338" transform="translate(51.23368 65.66995)" id="Fill-123" fill="#7CB273" stroke="none" />
    <path d="M3.92164 4.5865C4.8583 3.97817 5.48664 2.99317 6.6733 2.6565C7.61997 2.38983 6.2133 1.76817 6.68997 1.3065C6.14497 0.233166 5.1883 0.638166 4.34164 0.646499C4.03997 0.629832 3.7383 0.608166 3.43997 0.658166C2.80997 0.511499 2.3583 -0.170168 1.6083 0.0398324C1.43497 0.0714991 1.31997 0.169832 1.26164 0.334832C1.1083 0.511499 0.954971 0.686499 0.801637 0.861499C0.686637 1.00317 0.653304 1.15983 0.711637 1.33483C0.271637 1.9015 -0.105029 2.4915 0.0266374 3.26317C0.238304 3.42317 0.461637 3.4565 0.701638 3.32817C0.883304 3.09983 1.06164 2.8715 1.21997 2.62483C1.36997 2.39317 1.4233 1.94983 1.7683 2.0415C2.2033 2.1565 2.01664 2.62483 2.06997 2.94983C1.96664 3.81317 0.788304 4.64817 2.00664 5.5465C2.30164 5.76317 2.6533 5.95983 2.9383 5.68483C3.2433 5.38817 2.6833 5.17983 2.69497 5.07317C2.79164 4.22983 3.46664 4.6565 3.92164 4.5865" transform="translate(56.60936 94.48583)" id="Fill-125" fill="#C7C781" stroke="none" />
    <path d="M5.99047 1.6362L6.30213 0.912866C6.22713 0.516199 5.7738 0.446199 5.6138 0.121199C5.0088 -0.182134 4.43047 0.177866 3.8388 0.191199C3.3038 0.219533 2.8338 0.479533 2.3288 0.612866C1.98713 0.749533 1.64546 0.887866 1.30213 1.02453C1.3838 1.66453 0.975465 1.93787 0.468798 2.13287C0.112132 2.2712 -0.156202 2.4162 0.103798 2.88453C0.307132 3.24953 0.427132 3.64787 0.977132 3.47787C1.9338 3.18287 2.8938 3.1712 3.85713 3.44787C4.42213 3.39287 4.77213 3.08453 4.92213 2.5412C5.09213 2.01953 5.51213 1.79287 5.99047 1.6362" transform="translate(80.54803 60.2283)" id="Fill-127" fill="#A6C580" stroke="none" />
    <path d="M3.75346 3.74834C2.06512 3.66834 1.27346 2.7 1.08846 1.09667C1.04179 0.683334 1.18512 0.145 0.558458 0C0.106791 0.16 0.0517912 0.551667 0.00512454 0.946667L0.0784579 0.990001C-0.223209 2.28667 0.668458 3.13167 1.25346 4.08C0.995125 4.65334 -0.723209 4.39834 0.348458 5.70334C1.58679 6.095 2.82679 5.64667 4.06513 5.715C4.60513 5.76834 5.09679 6.135 5.67179 5.96167C6.14513 5.55334 6.27346 5.015 6.25846 4.42C5.51679 3.85 4.55846 4.08667 3.75346 3.74834" transform="translate(53.24987 86.81)" id="Fill-129" fill="#C7D2A9" stroke="none" />
    <path d="M4.34531 0.11244C3.61198 0.22244 2.87865 0.61244 2.14031 0.12244C1.07365 0.145773 1.21198 1.11244 0.886981 1.71744C0.848648 1.87744 0.848648 2.03911 0.876981 2.19577C0.905314 2.41577 1.24698 2.61744 0.785314 2.85744C0.0919809 3.22077 -0.214686 3.81411 0.163648 4.60577C0.418648 4.86744 0.731981 4.94744 1.08365 4.91411C2.09365 4.60577 2.68198 3.79911 3.33365 3.04744C3.90365 2.39077 3.61365 2.04577 2.87698 1.76911C3.82531 1.43411 4.54365 1.57577 5.29865 2.13744C6.06698 2.70911 6.63531 1.99744 6.70865 0.38744C6.56032 0.175773 6.40532 -0.0258933 6.10032 0.0341067L6.14698 0.0274401C5.54198 -0.0108933 4.94031 -0.0292266 4.34531 0.11244" transform="translate(91.11736 68.03056)" id="Fill-131" fill="#A0AC67" stroke="none" />
    <path d="M4.44334 1.00732C3.725 1.56398 3.10834 0.642318 2.93667 0.492318C1.81833 -0.482683 0.946667 0.222318 0 0.632318C0.465 1.52899 1.36667 0.978985 2.08667 1.25565C2.08333 1.80732 0.765001 2.05399 1.40667 2.38065C2.025 2.69565 2.05667 4.24232 3.24834 3.40232C4.32667 3.19899 4.27167 2.29232 4.42334 1.51232L4.44334 1.00732Z" transform="translate(93.333 78.48585)" id="Fill-133" fill="#BDC87A" stroke="none" />
    <path d="M4.80333 3.82C4.84167 2.94167 4.17333 2.56667 3.61 2.095C2.95833 1.55 2.58833 0.881666 2.935 0C2.46 0.346667 1.985 0.693333 1.50833 1.04C0.876667 1.23667 0.501667 1.78167 0 2.15333C0.0716667 3.30833 1.38 2.85333 1.80833 3.54667C2.17667 3.77 2.585 3.84667 3.00667 3.86833C3.60167 3.77 4.22167 4.42167 4.80333 3.82" transform="translate(64.77067 67.3495)" id="Fill-135" fill="#BAD39E" stroke="none" />
    <path d="M1.70782 4.715C1.17616 3.80834 1.91616 3.97834 2.39949 3.85667C3.14949 3.66834 3.54782 3.46667 2.78616 2.615C2.15449 1.905 1.87449 0.883334 1.43782 0C0.70949 0.726667 0.346156 1.60333 0.367823 2.63334C0.372823 2.99834 -0.12051 3.19 0.027823 3.605C0.271156 4.12334 0.721156 4.41834 1.19449 4.68667C1.36449 4.69667 1.53616 4.70667 1.70782 4.715" transform="translate(51.89051 87.799)" id="Fill-137" fill="#D8E0BB" stroke="none" />
    <path d="M0.162001 0.965204C-0.412999 1.92854 0.717001 1.4102 0.852001 1.75854C2.48033 1.7802 3.927 0.933537 5.517 0.770204C5.86533 0.733537 6.002 0.491871 5.96033 0.150204C5.317 -0.143129 4.67533 0.0685374 4.03367 0.155204C3.42867 -0.196463 2.96533 0.273537 2.447 0.426871C1.68533 0.606871 0.923667 0.786871 0.162001 0.965204" transform="translate(85.99983 59.38396)" id="Fill-139" fill="#97B676" stroke="none" />
    <path d="M2.49049 3.13583C3.28882 2.75583 2.82549 1.60583 3.64882 1.24249C3.77382 0.840825 3.89882 0.437492 4.02549 0.0341585C3.45382 -0.137508 3.39382 0.379159 3.14049 0.665825C2.63216 1.24249 2.28882 1.89916 1.25049 1.91583C0.472153 1.92583 -0.394514 2.54083 0.19382 3.69416C1.01049 3.71916 1.80215 3.64416 2.49049 3.13583" transform="translate(89.60885 66.91068)" id="Fill-141" fill="#8D9F5D" stroke="none" />
    <path d="M0 0.674781C0.406667 0.978114 0.831667 1.25978 1.215 1.58811C1.66 1.96645 2.21333 2.48978 2.655 1.90145C3.085 1.33145 3.125 0.519781 2.265 0.0631137C2.10167 -0.0668863 1.92667 0.0447804 1.75833 0.0414471C1.17167 0.253114 0.586667 0.464781 0 0.674781" transform="translate(67.948 66.42655)" id="Fill-143" fill="#BCD59E" stroke="none" />
    <path d="M0 1.0363C0.928332 1.4663 1.855 1.89296 2.28833 0.436296C2.21166 0.37963 2.14166 0.31463 2.08 0.242963C1.49833 0.132963 1.02333 0.471296 0.503333 0.61963C0.336666 0.757963 0.168333 0.897963 0 1.0363" transform="translate(75.2275 62.14654)" id="Fill-145" fill="#C4D9A2" stroke="none" />
    <path d="M1.18734 0.417996C1.01568 0.402996 0.845678 0.389663 0.675678 0.374663C0.522344 0.539663 0.369011 0.704662 0.215677 0.869662C0.690678 1.29466 1.15068 1.62299 1.43568 0.699662C1.47068 0.557996 1.44568 0.467996 1.36068 0.431329C1.27568 0.396329 1.21901 0.391329 1.18734 0.417996" transform="translate(55.96082 97.3735)" id="Fill-147" fill="#A2A06A" stroke="none" />
    <path d="M0.877006 1.19565C1.08534 0.950652 1.37867 0.725652 1.18367 0.35232C1.15534 0.300653 0.888672 0.310653 0.788673 0.375653C0.41034 0.617319 0.292007 0.947319 0.577006 1.34732C0.685339 1.31398 0.785339 1.26399 0.877006 1.19565" transform="translate(66.78616 101.9725)" id="Fill-149" fill="#CED184" stroke="none" />
    <path d="M0.643484 4.45763C1.01515 5.61596 1.59348 5.67763 2.39682 4.81763C2.70348 4.49096 3.08348 4.23096 3.43015 3.93929C4.18682 4.01763 4.83182 4.54763 5.62515 4.48263C5.77848 4.41929 5.87015 4.30429 5.89848 4.14263C4.96515 2.3943 6.55848 2.72429 7.31515 2.5193C8.11181 2.3043 9.17681 2.55763 8.89515 1.15096C7.73015 0.789296 6.57515 0.36263 5.33182 0.829296C4.90848 0.987629 4.91182 0.579296 4.78182 0.354296C4.58015 0.060963 4.31682 -0.0707036 3.96182 0.0376296C3.35848 0.575963 2.56182 0.732629 1.86515 1.09096C1.59848 1.28763 1.38348 1.52763 1.27015 1.84263C1.28848 2.28763 1.10682 2.5343 0.671817 2.7493C-0.353183 3.25429 -0.0765161 3.87429 0.643484 4.45763" transform="translate(62.91902 91.13403)" id="Fill-151" fill="#BEC37D" stroke="none" />
    <path d="M1.68833 0L1.55667 0.111667L1.42333 0.223333C0.045 0.326667 0.215 1.46667 0 2.35L0 2.35167C0.798334 2.555 1.00667 3.18 1.21 3.88667C1.44167 4.68667 1.61833 5.56167 1.995 5.82667C3.32834 5.31 4.12 4.41333 5.35334 4.95167C5.41334 2.29 3.84 0.921667 1.68833 0" transform="translate(67.12967 95.276)" id="Fill-153" fill="#DDDA99" stroke="none" />
    <path d="M0.304085 4.75263C0.202418 5.0193 0.0890846 5.28096 0.00741797 5.55263C-0.0192487 5.64763 0.032418 5.7643 0.0607513 5.95263C1.18242 5.7643 2.29408 4.19763 3.47742 5.8993C3.68742 6.20263 3.86908 5.05596 4.48575 5.3693C4.73908 4.18096 5.91575 4.16263 6.67742 3.56096C6.97408 4.15096 6.66242 4.89763 7.41742 5.34596C7.75908 4.75263 7.98075 4.17096 7.74742 3.3743C8.13908 4.3993 9.08908 4.2443 9.78242 4.56263L9.77908 4.56263C9.88575 4.08596 10.2407 3.5843 9.23742 3.60263C8.33575 3.6193 8.33242 3.4893 8.95575 2.5043C8.92242 2.19596 8.64575 2.04596 8.51075 1.80263C8.35575 1.3793 8.39075 0.892631 8.04075 0.537631C7.65908 0.150964 7.23408 -0.145702 6.67908 0.0759642C6.04242 0.327631 6.03742 0.760964 6.38242 1.3043C6.51408 1.5093 6.26575 1.71096 6.14075 1.89596C5.51408 2.90096 4.44575 2.9843 3.43908 3.19096C2.12408 2.68596 1.50908 4.00596 0.502418 4.30596C0.392418 4.43763 0.327418 4.5843 0.304085 4.75263" transform="translate(67.32742 86.9157)" id="Fill-155" fill="#C0C77F" stroke="none" />
    <path d="M0.0170261 3.81053C0.258693 3.91386 0.498693 4.01553 0.737026 4.11886L0.735359 4.12053C1.05536 4.12886 1.22369 3.9622 1.27703 3.65886C2.17036 2.91053 2.90869 3.97053 3.74702 3.86886C4.14369 3.48553 4.68369 3.22053 4.68036 2.53553C4.67869 2.17386 4.11369 1.7872 4.62036 1.47553C5.24369 1.09386 5.38369 2.01386 5.88202 2.04553C6.16702 0.327196 5.23869 -0.357804 3.35869 0.178863C2.61036 0.898862 1.54869 1.1972 0.857026 2.0022C0.405359 2.52553 -0.0996405 3.02386 0.0170261 3.81053" transform="translate(75.54581 85.30247)" id="Fill-157" fill="#BFC77D" stroke="none" />
    <path d="M0.994819 0.362312C0.628152 0.462312 0.321486 0.595645 0.554819 1.06898C0.636486 1.23231 0.756486 1.38398 0.941485 1.25731C1.32482 0.993978 1.21148 0.673979 0.989819 0.362312L0.994819 0.362312Z" transform="translate(76.11584 91.11652)" id="Fill-159" fill="#C0C77F" stroke="none" />
    <path d="M1.07872 0.270758C0.898719 0.424091 0.717052 0.577424 0.537052 0.730757C0.687052 0.94409 0.353719 1.45242 0.675386 1.39076C1.22205 1.28742 1.17205 0.734091 1.07872 0.270758" transform="translate(75.74395 88.69091)" id="Fill-161" fill="#C0C77F" stroke="none" />
    <path d="M11.2796 0C9.90461 0.59 8.27628 -0.035 6.96961 0.893333C5.74461 -0.375 4.73461 0.728333 3.80794 1.30833C3.13794 1.72833 2.52961 2.3 1.85294 2.74667C1.68794 2.935 1.69961 3.26333 1.39128 3.33166C1.07128 3.23166 1.00794 2.705 0.556277 2.84167C0.307943 2.94667 0.131277 3.12333 0.0212768 3.36833C-0.0770565 3.925 0.167943 4.24166 0.70461 4.36L0.701277 4.36C1.09794 4.51333 1.44294 4.845 1.92128 4.70666C3.85961 4.89833 2.20294 5.90333 2.39794 6.73333C2.97294 6.13166 3.43461 5.51 4.04294 5.105C4.21461 4.99166 4.67128 3.33833 5.32461 5.03166C5.53128 5.565 6.15794 4.69833 6.31628 4.15C6.69794 2.83167 8.21294 2.36167 9.31794 1.905C10.7896 1.29833 10.4446 2.77667 11.1129 2.915C11.8796 1.985 10.9279 0.953333 11.2796 0" transform="translate(82.05172 79.1195)" id="Fill-163" fill="#BDC87A" stroke="none" />
    <path d="M0.696949 6.90572C1.45862 6.37738 2.12695 5.21072 3.46028 6.10572C3.60528 6.20238 4.46862 6.21905 4.31362 5.52905C4.27862 5.37072 4.43195 4.34738 3.50862 4.83072C3.00695 5.09572 2.69195 4.56072 2.70528 4.21905C2.72028 3.83738 3.20195 3.76738 3.55862 3.85572C3.96695 3.95738 4.37362 3.81572 4.73862 3.84738C5.86028 3.94072 6.04195 3.64738 5.53028 2.66572C5.31695 2.25238 5.15362 1.68238 5.69862 1.27738C6.15361 0.940718 6.24028 0.355718 5.90862 0.0773849C5.70362 -0.0942817 4.95528 0.052385 4.64862 0.200718C3.61695 0.695718 2.64195 1.35738 2.18695 2.51238C2.08028 2.78072 2.03528 3.09738 1.86362 3.31405C1.02028 4.37238 -1.08805 4.90572 0.696949 6.90572" transform="translate(88.27405 83.03978)" id="Fill-165" fill="#CFD48A" stroke="none" />
    <path d="M3.40334 1.48833C2.46333 0.571667 1.25167 0.888334 0 0C0.995001 1.905 -0.0966667 3.48 0.34 5.65334C1.14 3.71667 2.37667 2.68667 3.40334 1.48833" transform="translate(85.29433 88.47433)" id="Fill-167" fill="#CFD48A" stroke="none" />
    <path d="M3.20835 1.70267C4.71168 1.05433 5.53502 1.626 5.81835 3.161C5.61002 3.441 5.32502 3.806 5.85502 3.956C6.44335 4.121 7.07335 4.30433 7.69835 4.02767C7.56668 3.786 7.43502 3.54267 7.30502 3.301C7.13835 2.95933 6.95502 2.63433 6.61002 2.43433C6.14168 1.921 5.68002 1.40433 5.33002 0.797666C4.98168 0.192666 4.51168 -0.179 3.76002 0.0876664C2.88835 0.721 1.93502 1.001 0.845018 0.856C0.450018 0.804333 -0.00331506 0.891 1.82733e-05 1.46267C0.00168494 1.91267 0.226685 2.22433 0.673351 2.35267C1.64502 2.62933 2.46168 2.306 3.20835 1.70267" transform="translate(75.60965 84.18684)" id="Fill-169" fill="#A2AB69" stroke="none" />
    <path d="M1.52244 3.27311C2.4191 3.18645 2.5191 4.06645 2.9991 4.48645C3.50077 4.92478 3.7091 5.71644 4.5341 5.76478C4.61243 5.46478 4.30077 5.27311 4.32243 4.98978C4.06077 4.58811 3.5991 4.28645 3.68743 3.71145C3.72577 3.55978 3.69743 3.42311 3.59577 3.30311C2.99243 2.89145 2.9341 2.16978 2.6241 1.58978C2.23244 1.14811 1.8041 0.74478 1.39244 0.321447C0.0357694 -0.25522 -0.0942305 -0.148553 0.0424361 1.40978C0.354103 2.05978 0.797436 2.61311 1.32077 3.10311C1.38744 3.16145 1.4541 3.21645 1.52244 3.27311" transform="translate(77.92056 81.17272)" id="Fill-171" fill="#7F8653" stroke="none" />
    <path d="M0.9935 3.7993C1.06183 3.8843 1.1285 3.97097 1.1935 4.05597C1.57517 3.5893 1.9585 3.1193 2.34016 2.65263C2.10016 2.3443 1.7735 2.07097 1.93016 1.6093C1.95016 1.0393 2.4435 0.310966 1.49683 0.0492989C0.9685 -0.0973678 0.451834 0.0859656 0.148501 0.562633C-0.356498 1.3593 0.570167 1.6043 0.795166 2.12097C1.25517 2.6343 0.506834 3.29097 0.9935 3.7993" transform="translate(80.41566 80.82803)" id="Fill-173" fill="#B9C478" stroke="none" />
    <path d="M1.4425 0.609167C1.1125 0.224167 0.707499 0.104167 0.224166 0.262501C0.365833 0.7325 0.392499 1.3825 0.952499 1.46583C1.42583 1.53583 1.44083 0.997499 1.4425 0.609167" transform="translate(82.53017 83.2175)" id="Fill-175" fill="#B9C478" stroke="none" />
    <path d="M0.248333 0.463971C0.581666 0.73397 0.704999 1.31397 1.41833 1.18397C1.25166 0.512304 0.734999 0.510637 0.248333 0.463971Z" transform="translate(82.46783 89.48569)" id="Fill-177" fill="#D3D790" stroke="none" />
    <path d="M0.482542 0.167508C0.552542 0.425841 0.622542 0.684174 0.694209 0.942507C0.842542 1.12917 0.702542 1.55751 1.15254 1.49251C1.31754 0.854173 0.797542 0.562507 0.482542 0.167508" transform="translate(81.76079 85.99466)" id="Fill-179" fill="#BFC77D" stroke="none" />
    <path d="M16.705 0C16.5266 0.298333 15.4016 -0.238333 16.0233 0.873334C16.2116 1.20833 15.3166 1.44333 14.8316 1.58167L14.825 1.59833C13.3483 3.25667 11.5733 3.99167 9.35995 3.36C9.21329 3.30333 9.06162 3.28 8.90495 3.28667C8.28329 3.76167 7.59495 3 6.96329 3.38167C5.28662 4.69833 3.42995 5.78333 2.80495 8.12667C2.60495 8.87833 2.77495 9.46 2.78329 10.1117C2.81162 11.8933 1.52995 12.9667 0.558287 14.165C-0.0450465 14.91 -0.17838 15.45 0.25162 16.335C0.698287 17.2567 1.25495 16.885 1.94662 16.895C3.45162 16.9183 4.80162 16.7567 5.94329 15.65C6.29495 15.3083 6.81495 15.4467 7.26495 15.6583C7.64329 15.8333 8.02162 16.2233 8.49329 15.7333C6.85829 16.5633 6.85829 16.565 7.67995 17.52C8.87495 17.195 9.69829 16.4033 10.36 15.4033C10.7283 14.6867 10.7116 14.02 10.0916 13.4367C9.75829 13.1567 9.37496 13.0017 8.93495 13.01C8.78162 13.0367 8.64662 13.1067 8.53329 13.215C8.30662 13.4933 8.26162 13.875 8.00662 14.1333C7.19662 14.0933 6.57995 12.9333 5.63995 13.7367C5.64662 13.645 5.76495 13.6233 5.77495 13.55C5.88829 12.8017 5.38662 12.95 4.98162 12.97C5.44329 12.26 6.78662 12.9033 6.98495 11.7817C7.06995 11.2983 6.69995 10.905 6.25495 10.6917C5.56162 10.3567 5.30162 10.96 4.87162 11.2067C6.76329 10.06 8.18662 8.035 10.7916 8.23167C11.005 8.19 11.2183 8.14834 11.43 8.105C10.84 5.85 12.4583 6.26833 13.7016 6.23167C14.35 6.09167 14.9 5.83834 15.035 5.095C14.96 5.005 14.8866 4.91667 14.8116 4.82667C14.1783 4.86167 13.55 4.965 12.7216 4.99333C13.5266 4.63667 14.1833 4.93333 14.8116 4.82667C14.8616 4.215 14.2 3.23667 15.635 3.34667C16.005 3.375 15.93 2.93667 15.9066 2.65833C15.85 1.90333 16.0583 1.31333 16.795 0.941667C17.465 0.603333 16.8583 0.305 16.705 0" transform="translate(61.17888 70.114)" id="Fill-181" fill="#A6CA85" stroke="none" />
    <path d="M0.284723 11.6184C0.824723 12.1017 1.07306 12.6817 0.888056 13.4084C0.898056 13.7684 1.09472 13.9584 1.43306 14.0234C3.28972 13.4934 3.98639 11.6451 5.36472 10.5734C5.68472 10.1401 5.86139 9.63508 6.07972 9.15008C6.54639 8.41175 6.54139 7.33342 7.61139 7.02508C7.76139 6.98842 7.90639 6.94008 8.05306 6.89342C8.35139 6.79342 8.64472 6.68342 8.88472 6.46842C8.99306 6.35342 9.07472 6.22008 9.13972 6.07675C9.52139 4.94842 10.5247 4.73508 11.4981 4.47842C12.8364 3.70008 14.4497 3.44842 15.6047 2.32342C16.1414 1.62675 17.3047 1.26508 16.8414 0.0284175C15.7214 -0.171582 15.2397 0.728417 14.5897 1.34008C13.2597 0.991751 12.4947 2.79175 11.1147 2.25342C10.9164 4.80175 8.28639 3.79842 7.12972 4.96675C6.84639 5.25342 6.50806 5.45175 6.38639 5.87842C6.18306 6.58175 5.65639 7.02675 5.03139 7.33675C3.74472 7.97675 3.73806 7.96342 3.71806 9.34842C3.06972 8.90508 2.70806 8.08675 1.83472 8.00508C1.38472 8.20008 1.46639 8.57175 1.61306 8.88008C2.07639 9.85842 1.72306 10.3384 0.728056 10.5501C-0.15361 10.7351 -0.146944 10.7667 0.284723 11.6184" transform="translate(70.50511 71.86475)" id="Fill-183" fill="#9DBF7C" stroke="none" />
    <path d="M7.10483 0.70385C6.42983 -0.112817 5.70483 -0.322816 5.00816 0.635517C4.77316 0.960517 4.67649 0.947183 4.36649 0.755517C3.38316 0.140517 3.27149 0.29385 3.71149 1.38218C3.93983 1.94385 3.13649 1.87552 2.71983 1.99718C1.38649 2.38218 0.768159 3.20552 0.928159 4.32718C1.60983 4.55218 2.35483 2.13218 3.07983 4.60218C1.81816 3.92552 1.32316 5.37218 0.283159 5.33718C0.0148259 5.32885 -0.0785075 5.61885 0.0714926 5.85052C0.151493 5.97385 0.344826 6.09052 0.486493 6.09052C0.949826 6.09052 1.23483 5.50552 1.79649 5.69052C2.02816 6.28052 0.824826 6.05718 1.39316 6.87552C1.25149 6.76718 1.37483 6.87885 1.38649 6.86718C2.21149 6.12052 2.95483 5.98218 3.72316 6.99718C4.15983 7.57718 4.68149 7.74052 4.85816 6.74552C4.01816 6.34385 4.87316 6.08218 4.93983 5.75385C5.20816 5.16052 5.93483 4.71718 5.53649 3.90052C5.48483 3.79385 5.36483 3.50385 5.60816 3.56385C7.57483 4.04885 6.86316 2.54552 7.02649 1.69218C7.05316 1.36218 7.07816 1.03218 7.10483 0.70385" transform="translate(64.86501 77.64265)" id="Fill-185" fill="#9CC47D" stroke="none" />
    <path d="M0 6.80112C0.71 6.35946 1.42167 5.91779 2.13167 5.47779C2.29333 5.48279 2.375 5.41112 2.36333 5.24279C3.715 4.40613 3.72 2.52613 5.15667 1.69613C5.715 1.37446 5.1 0.576126 5.30334 0.0161258C4.72167 -0.0955408 4.34167 0.406126 3.82667 0.496126C3.675 0.516126 3.525 0.544459 3.37167 0.569459C2.605 0.667792 2.18667 0.979459 2.76167 1.89279C2.03833 1.60446 1.57667 1.21779 1.10167 0.846126C0.733334 0.557792 0.375 0.492792 0.231667 1.09279L0.233333 1.08946C0.83 1.58279 0.0216667 3.03946 1.60333 2.97946C1.90167 2.96779 1.78167 4.10446 1.29833 4.46779C0.491667 5.07279 0.298333 5.95112 0 6.80112" transform="translate(85.09483 66.40288)" id="Fill-187" fill="#A3C47E" stroke="none" />
    <path d="M1.65566 1.23333C1.289 1.70333 0.510663 1.69 0.32233 2.37C0.453996 2.87333 -0.509337 3.48333 0.383996 3.87C1.11233 4.185 1.50733 3.755 1.80233 3.03333C2.07233 2.37167 2.77233 2.17 3.47233 1.98333C4.674 1.66333 4.81566 0.931666 3.939 0C3.364 0.278333 4.21733 0.729999 3.74233 1.07833C2.95733 -0.36 2.33566 0.741666 1.65566 1.23333" transform="translate(74.55733 73.97517)" id="Fill-189" fill="#BAD594" stroke="none" />
    <path d="M2.085 0C2.03667 0.106667 1.95667 0.208333 1.945 0.318333C1.79833 1.65833 1.37167 2.28667 0.055 0.696666C-0.0233333 2.03833 0.605 3.08666 0 4.06333C0.326667 4.09166 0.656667 4.12 0.983334 4.14833C0.765 3.73166 0.601667 3.41833 1.36 3.445C2.28333 3.47833 2.03 2.91166 2.50167 2.675C4.20167 1.82833 1.745 1.19 2.535 0.535C2.385 0.356666 2.235 0.178333 2.085 0" transform="translate(69.806 79.33434)" id="Fill-191" fill="#A7C882" stroke="none" />
    <path d="M0 0C0.265 0.669999 0.543334 1.17333 1.27333 1.10666C1.70167 1.06666 2.23 1.075 2.425 1.38833C3.72667 3.49999 4.11667 1.28666 4.87334 0.891665C4.98334 0.833332 5.02667 0.651666 5.10167 0.526666C4.9 0.419999 4.555 0.185 4.52 0.225C3.555 1.32 2.73667 0.344999 1.84333 0.103333C1.27667 -0.0483332 0.65 0.0283333 0 0" transform="translate(79.08083 64.18383)" id="Fill-193" fill="#A6C781" stroke="none" />
    <path d="M0.486782 4.97086C1.05845 6.03086 2.10512 5.46919 2.92511 5.68586C3.51678 6.30586 4.03178 5.76919 4.57011 5.57919C4.92178 5.37252 5.10345 4.94752 5.47845 4.79752C6.05178 4.57252 6.90011 4.53419 6.74678 3.69419C6.61678 2.98086 6.15178 2.21919 5.34845 2.09752C4.31345 1.94252 4.18178 1.11419 3.80511 0.437524C3.68345 0.317524 3.53678 0.249191 3.36845 0.225858C2.80845 0.530858 1.76345 -0.784142 1.54345 0.794191C1.50512 1.07252 1.12678 0.954191 0.870115 0.717524C0.441782 0.322524 0.191782 0.915857 0.100116 1.07252C-0.278218 1.70752 0.536782 1.34086 0.548449 1.49752C0.625116 2.60586 3.00511 2.29919 2.04345 4.20919C1.62178 5.04419 1.65512 4.57586 1.29345 4.37752C0.685116 4.04252 0.083449 3.86252 0.486782 4.97086" transform="translate(56.51655 85.58748)" id="Fill-195" fill="#CEDCAA" stroke="none" />
    <path d="M0.627131 6.16667C0.703797 6.255 0.778797 6.345 0.855464 6.435C1.35546 6.47667 1.75213 6.17667 1.6788 5.75834C1.43713 4.38167 2.4538 3.71333 3.2588 3.09167C4.19713 2.36667 4.0038 1.9 3.23713 1.375C2.65546 0.978334 2.19546 0.451667 1.63213 0.0416667C1.55213 0.0266667 1.47046 0.0133333 1.39046 0C0.055464 0.66 0.110464 1.79833 0.257131 3.04C0.382131 4.08167 -0.606202 5.24834 0.627131 6.16667" transform="translate(59.25854 79.64716)" id="Fill-197" fill="#C7D9A4" stroke="none" />
    <path d="M0.763333 0C0.668333 0.05 0.578333 0.106667 0.491666 0.171667C1.145 2.235 0.775 4.21666 0 6.16333L0.00833333 6.165C0.425 6.18 0.83 6.085 1.15833 5.845C1.94 5.27666 3.63666 5.32333 3.31 4.025C2.93 2.515 3.13833 0.35 0.763333 0" transform="translate(60.6475 73.48317)" id="Fill-199" fill="#C7D9A4" stroke="none" />
    <path d="M0 0C0.71 0.463334 1.42167 0.925001 2.13167 1.38833C3.065 1.95 3.94667 2.57834 4.64667 3.42834C4.75333 3.34834 4.86167 3.26834 4.96833 3.19C3.87167 1.25667 2.03167 0.478334 0 0" transform="translate(55.94617 70.28333)" id="Fill-201" fill="#8AC182" stroke="none" />
    <path d="M0 2.11866C0.0833333 2.21199 0.166667 2.30699 0.248333 2.40032C0.581667 1.99699 1.04333 1.85532 1.53 1.76366C2.33667 1.53032 2.04333 0.998656 1.82167 0.546989C1.67667 0.250322 1.44 -0.0830109 1.03 0.0186558C0.645 0.111989 0.565 0.480322 0.461667 0.818656C0.328333 1.25699 0.155 1.68532 0 2.11866" transform="translate(57.14817 95.67284)" id="Fill-203" fill="#A1A36C" stroke="none" />
    <path d="M1.32917 0.321616C0.634167 0.551616 0.544167 0.916616 0.3375 1.34495C1.1925 1.35328 1.0575 0.836616 1.32917 0.321616" transform="translate(57.2325 100.0422)" id="Fill-205" fill="#C7C781" stroke="none" />
    <path d="M1.21496 0.378939C0.961624 0.467272 0.793291 0.473939 0.721624 0.558939C0.594958 0.713938 0.414958 0.952271 0.458292 1.09394C0.556625 1.41894 0.798291 1.27727 0.928291 1.08894C1.04329 0.918938 1.08829 0.702272 1.21496 0.378939" transform="translate(63.25488 102.5289)" id="Fill-207" fill="#CED184" stroke="none" />
    <path d="M2.64015 6.51782C2.52348 6.32449 2.36515 6.14449 2.30015 5.93616C2.18348 5.55449 1.34181 5.90449 1.58848 5.24282C1.71848 4.89449 2.12181 4.85616 2.45848 4.81949C3.32181 4.72782 2.80681 5.45949 3.01181 5.76282C3.07515 5.85616 3.12348 5.95782 3.17848 6.05616C3.35681 5.90782 3.53515 5.75949 3.71348 5.61282C4.01015 5.65116 4.13515 6.01282 4.45681 6.00949C4.61181 5.96949 4.69348 5.86949 4.70681 5.70949C5.44182 5.46282 6.13682 5.33782 6.71015 4.57782C7.41848 3.63449 8.58848 3.22782 9.85515 3.63282C10.7768 2.54449 10.1718 1.32949 10.1435 0.162823C9.04515 -0.393844 8.68348 0.611157 8.17848 1.16282C7.61182 1.78116 7.12182 2.39282 6.16348 2.07116C5.85348 1.98282 5.54515 1.88616 5.21681 1.92449C4.36681 2.74282 3.42181 3.41282 2.28181 3.77116C1.45515 3.88116 0.916814 4.47616 0.305147 4.94782C0.11848 5.10449 -0.00485341 5.29449 0.000146588 5.54949C0.34848 6.03949 0.750147 6.46449 1.34348 6.65782C1.84681 7.27283 2.28015 7.23116 2.64015 6.51782" transform="translate(79.16618 76.38101)" id="Fill-209" fill="#A9B66D" stroke="none" />
    <path d="M0.226658 6.49279C1.32333 7.43612 2.14166 6.56612 2.56833 5.83779C3.03666 5.03946 3.65333 4.68112 4.39333 4.34779C5.58333 4.70279 6.24499 3.58446 7.21999 3.33779L7.21499 3.33779C8.01833 2.65612 8.82166 1.97612 9.62499 1.29279C9.58666 0.97279 9.06333 0.834456 9.29499 0.411123C8.38999 -0.648878 7.87666 0.664456 7.16166 0.759456C6.47166 0.996123 5.95833 1.44779 5.57333 2.05446C5.29999 2.33446 5.73833 3.04612 5.18499 3.03446C3.36499 2.99779 2.14999 4.56612 0.426658 4.72112C0.323325 4.84612 0.271658 4.98946 0.273325 5.14946C1.07666 5.62112 -0.576675 6.01612 0.226658 6.49279" transform="translate(84.91701 72.19538)" id="Fill-211" fill="#A0AC67" stroke="none" />
    <path d="M0.032762 3.43C-0.120571 3.86167 0.304429 3.81167 0.479429 3.97C0.581095 3.91667 0.679429 3.825 0.782762 3.82C2.52276 3.72167 4.31443 3.73333 4.95443 1.585C4.9211 0.93 4.4061 0.526667 4.12443 0C3.1261 0.518333 2.26443 1.33667 1.02776 1.33167C0.679429 1.33 0.359429 1.54667 0.342762 1.98667C0.311095 2.74333 1.08443 2.58333 1.55943 2.97167C0.772762 2.59833 0.369429 2.92167 0.032762 3.43" transform="translate(94.06274 69.51933)" id="Fill-213" fill="#A5AE69" stroke="none" />
    <path d="M1.18167 0.496666C1.36833 1.37667 0.31 1.43 0 2.33167C1.515 1.515 3.49833 2.225 4.11833 0C3.175 0.391666 2.22167 0.829999 1.17833 0.496666L1.18167 0.496666Z" transform="translate(90.955 75.0365)" id="Fill-215" fill="#A0AC67" stroke="none" />
    <path d="M0.0139032 4.51589C0.907237 4.15922 0.993903 5.34589 1.78724 5.45256C2.21724 5.50922 2.7289 6.16089 3.1689 5.62255C3.7089 4.96089 2.2739 5.20422 2.62557 4.47755C2.85557 4.43255 3.18724 4.37089 3.52057 4.30755C4.2739 4.43755 4.5789 3.75756 5.0839 3.43922C4.9739 3.09922 5.00057 2.76922 5.17057 2.45255C5.06724 1.96422 4.90224 1.50589 4.5289 1.15089C4.88557 0.209221 4.84557 -0.345779 3.63724 0.240888C3.48224 0.315888 3.32057 0.400888 3.1539 0.427555C0.538903 0.835888 -0.107763 1.67422 0.0139032 4.51589" transform="translate(85.31293 62.97928)" id="Fill-217" fill="#AFCD86" stroke="none" />
    <path d="M1.3675 0.454263C0.3225 -0.0557372 0.512499 0.889264 0.299166 1.35926C0.664166 1.0676 1.2325 1.0176 1.3675 0.454263" transform="translate(85.171 61.41024)" id="Fill-219" fill="#B1CF8C" stroke="none" />
    <path d="M2.75667 0.976018C2.25167 1.09768 1.74667 1.21935 1.24 1.34102C0.706667 1.67435 0.896667 2.30769 0.653333 2.76102C0.631667 2.92602 0.608333 3.09269 0.586667 3.25769C0.686667 3.86769 0.21 4.25102 0 4.73935C0.723333 4.67769 0.956667 6.07935 1.895 5.37269C2.27167 5.10935 2.49 5.26435 2.61667 5.65102C3.45833 5.54602 4.31 5.32602 5.09833 5.86269C5.18667 5.79435 5.27333 5.72769 5.36167 5.66102C4.955 4.71435 5.075 4.17102 6.27833 3.99769C6.76167 3.92769 6.16667 3.49602 6.07167 3.22602C6.19167 2.36769 6.435 1.37602 4.96667 2.14268C4.565 2.35268 4.085 2.09435 3.71167 2.38102C4.78 1.70935 5.83 1.54935 6.825 2.53435C7.49167 2.23268 8.545 2.57602 8.69667 1.41435C8.70167 0.0160177 7.47333 0.451018 6.76333 0.109351C6.19833 -0.205649 5.74333 0.254351 5.23167 0.311018C4.395 0.492685 3.54167 0.604351 2.75667 0.976018" transform="translate(58.20083 89.93065)" id="Fill-221" fill="#A1AC6E" stroke="none" />
    <path d="M1.16011 2.82455C1.73344 2.18122 1.67011 1.11289 2.58344 0.697889C1.85511 0.521222 1.28511 -0.470444 0.380108 0.272889C-0.689893 1.52956 0.801775 2.00289 1.16011 2.82455" transform="translate(65.96922 94.80161)" id="Fill-223" fill="#D3D790" stroke="none" />
    <path d="M2.26897 1.61636C2.1973 1.69969 2.11897 1.77803 2.0373 1.84969C2.12564 2.78469 1.31564 3.15803 0.852304 3.74803C0.825637 4.15469 0.445637 4.27969 0.230637 4.53636C-0.219363 5.07803 0.0339702 5.49636 0.60397 5.48303C1.8173 5.45303 3.0373 5.29969 4.07397 4.54803C4.21564 4.44636 4.44397 4.30636 4.42064 4.17969C4.0223 2.04969 6.0073 1.35969 6.90897 0.019691L6.91064 0.0163577C6.0923 -0.010309 5.26397 -0.0819757 4.61397 0.574691C3.85564 0.974692 3.48064 2.23636 2.26897 1.61636" transform="translate(85.18919 70.03014)" id="Fill-225" fill="#7C8C53" stroke="none" />
    <path d="M1.11736 0.510141C0.874029 0.393475 0.594029 0.218475 0.385696 0.556808C0.260696 0.761808 0.28403 1.02347 0.512362 1.16847C0.767362 1.33014 1.06903 1.39514 1.28069 1.11181C1.44236 0.896808 1.32403 0.683474 1.11736 0.510141" transform="translate(74.26397 66.18436)" id="Fill-227" fill="#98C27E" stroke="none" />
    <path d="M1.415 0.930971C1.065 0.649305 0.738332 0.287638 0.251666 0.749305C0.583332 1.25264 0.974998 1.21597 1.415 0.930971" transform="translate(72.93117 63.9047)" id="Fill-229" fill="#B1CF8C" stroke="none" />
    <path d="M3.45667 3.16167C4.75 4.97667 6.245 3.45 7.59167 3.29167C8.37667 3.2 9.465 2.69167 9.32833 1.41C8.12833 1.65167 7.58667 0.556667 6.79 0C6.20167 0.513333 7.11833 1.05 6.58333 1.44C5.86333 1.745 5.26667 1.78 5.145 0.78C4.36 -0.171667 3.66667 1.33333 2.9 0.866667C2.32833 0.73 1.75667 0.593333 1.18667 0.456667C1.72 1.425 0.628333 1.24167 0.348333 1.63333C0.168333 1.81833 0.045 2.03333 0 2.29C0.0133333 2.67 0.2 2.89 0.581667 2.92833C0.93 2.83667 1.265 2.82667 1.54167 3.12C1.59333 3.16667 1.645 3.21333 1.69667 3.25833C2.04833 3.39667 2.40833 3.515 2.74833 3.67667C3.23333 3.905 3.255 3.89667 3.45667 3.16167C3.5 2.93 3.105 2.76 3.21333 2.70167C3.42667 2.585 3.75833 2.605 3.91833 2.86C3.94833 2.90833 3.51667 2.9 3.45667 3.16167" transform="translate(66.67484 70.30367)" id="Fill-231" fill="#8BBF78" stroke="none" />
    <path d="M0.740177 0.195455C0.601844 0.530455 -0.323157 0.600455 0.11851 0.913788C0.621844 1.27045 1.54185 1.99545 2.17851 0.855454C1.70018 0.635455 1.22018 0.415455 0.740177 0.195455" transform="translate(71.07999 70.88854)" id="Fill-233" fill="#6FAD63" stroke="none" />
    <path d="M7.31833 0.756667C7.01333 0.825 6.79333 0.678333 6.59667 0.471667C6.54 0.42 6.48167 0.368333 6.42333 0.316667C5.84333 0.085 5.20833 0.161667 4.615 0C4.54 0.0116667 4.46333 0.025 4.38667 0.0383333C3.56833 0.981667 2.12167 0.315 1.29667 1.24333C3.10833 1.98333 2.65 4.01833 3.57167 5.28167C3.915 5.75167 3.25833 5.89 2.90667 6.02667C2.04333 6.36167 1.18833 6.705 0.541667 7.40833C0.82 8.61833 2.055 8.88833 3.08167 9.86833C1.41333 9.65166 1.61 11.5483 0.285 11.6517C-0.103333 11.6817 0.0866667 12.2567 0.291667 12.5267C0.735 13.1067 0.463333 13.485 0 13.8417C0.226667 14.7617 -0.0716667 16.02 1.65667 15.8167C2.35333 15.735 2.6 16.7417 2.815 17.2617C2.97333 17.645 2.3 17.6283 1.80667 17.5733C1.23667 17.51 1.27667 18.3783 0.843333 18.6667C1.685 18.5617 2.525 18.4567 3.36333 18.3517C5.07333 17.2833 7.16333 16.8683 8.58333 15.3033C8.24833 14.765 8.43333 14.4117 8.99667 14.245C9.625 14.06 10.0367 13.6217 10.455 13.0867C9.64833 13.31 8.95833 13.7933 8.17167 12.88C7.82667 12.48 6.67 12.745 6.30667 13.32C5.53333 14.54 4.58 14.565 3.415 14.1517C3.20833 14.0783 2.82667 13.995 2.77 14.0783C1.71 15.6767 1.88 13.7433 1.56333 13.5667C0.796667 13.14 1.38833 12.8367 1.885 12.5267C2.705 12.01 2.60167 10.3833 4.10667 10.6517C3.795 9.565 4.55 8.45667 4.4 7.58333C4.02 5.39833 5.05667 4.15667 6.51167 2.965C7.13167 2.45833 7.83 2.03333 8.25833 1.32167L8.25833 1.32333C8.11 0.861667 7.73333 0.778333 7.31833 0.756667" transform="translate(60.11383 72.23983)" id="Fill-235" fill="#BCD598" stroke="none" />
    <path d="M4.17257 1.89028C4.34257 1.72528 4.51091 1.56195 4.67924 1.39862C4.68424 0.448616 3.89757 0.395282 3.27424 0.155282C2.46757 -0.0363842 1.65424 -0.0497175 0.83924 0.110282C0.572573 0.286949 0.307573 0.463616 0.0425728 0.640282C-0.137427 1.33862 0.279239 1.44528 0.805906 1.36528C1.20757 1.30528 1.59424 1.20195 1.96091 1.45695C1.96091 1.45862 1.95591 1.45362 1.95591 1.45362C2.63424 1.91028 3.46924 1.52695 4.16924 1.86862L4.17257 1.89028Z" transform="translate(62.53859 70.82055)" id="Fill-237" fill="#639F57" stroke="none" />
    <path d="M1.27992 1.3079C1.34992 0.7729 1.12825 0.321234 0.598253 0.361234C0.194919 0.3929 0.434919 0.7879 0.558253 1.02957C0.798253 1.1229 1.03825 1.21457 1.27992 1.3079" transform="translate(59.53758 94.2741)" id="Fill-239" fill="#8F8D5E" stroke="none" />
    <path d="M12.9318 0C12.2485 0.423333 11.5568 0.835 10.8852 1.27667C10.3785 1.60833 9.82684 2.18667 9.99517 2.675C10.6618 4.62333 9.10517 4.505 8.09017 4.85667C7.57017 5.035 6.99017 5.04167 6.42851 5.12833C6.14684 4.49 7.08184 4.29667 6.87517 3.72833C5.58517 4.86667 3.82517 5.12333 2.44684 6.09833C1.48517 6.41167 0.853507 7.11667 0.30684 7.92C0.223507 7.99833 0.138507 8.075 0.0518399 8.15333C-0.179827 9.75333 0.33184 10.1283 2.26017 9.76833C2.61851 9.435 2.90517 9.02833 2.64351 8.55167C2.40684 8.12167 2.06517 8.57167 1.64851 8.595C3.01684 7.50667 4.33351 6.64 6.10351 7.15667C6.83851 7.26667 7.40351 6.92333 8.06351 6.67833C9.07684 6.30333 9.89351 4.99333 11.3935 5.71333C11.8135 5.915 12.0602 4.98333 11.3118 4.60333C11.1718 3.7 12.5218 3.43333 12.2268 2.46333C12.4418 1.93333 12.0985 1.02833 13.2402 1.12667C13.6002 1.15667 13.6152 0.986667 12.9318 0" transform="translate(79.16666 70.0505)" id="Fill-241" fill="#8D9F5D" stroke="none" />
    <path d="M1.98887 4.40834C2.47553 4.23 2.9622 4.05167 3.4422 3.875C3.4972 3.14 2.46887 3.57667 2.55553 3.01834C2.6722 2.27833 3.31386 2.75 3.70886 2.66334C4.7472 2.43334 5.3372 1.605 6.08053 0.978334C6.11053 0.551667 5.91386 0.24 5.57886 0C5.51886 0.226667 5.44886 0.45 5.39886 0.676667C5.22553 1.48333 4.81386 1.545 4.23553 1.045C2.9222 -0.0883334 1.9572 0.675 0.9922 1.61C1.39553 2.07833 1.8922 1.48833 2.31553 1.78C1.7472 2.80834 0.883866 3.535 0.0072 4.24834C-0.0128 4.35167 0.00886666 4.42667 0.0722 4.47334C0.1372 4.52 0.178867 4.53667 0.1972 4.52C0.793866 4.485 1.32387 3.35334 1.98887 4.40834" transform="translate(92.10664 68.541)" id="Fill-243" fill="#99A164" stroke="none" />
    <path d="M2.30074 0.546667C2.23907 0.455 2.17574 0.365 2.11074 0.275C1.87073 0.183333 1.63073 0.0916666 1.39073 0C0.975733 0.508333 0.545733 1.00333 0.149066 1.525C-0.150935 1.92167 0.0240653 2.11667 0.475733 2.14C1.08407 1.60833 1.6924 1.07833 2.30074 0.546667" transform="translate(90.0036 72.51417)" id="Fill-245" fill="#7D8750" stroke="none" />
    <path d="M0 1.1992C0.678334 1.62253 1.485 1.35253 2.195 1.60086C2.595 1.31753 3.22667 1.49586 3.49334 0.947532C2.96167 0.2192 2.205 0.0375332 1.36167 0.0691998C0.906667 0.445866 0.453334 0.822532 0 1.1992" transform="translate(63.37783 69.73196)" id="Fill-247" fill="#A3C68B" stroke="none" />
    <path d="M1.29833 0.0633332C0.833333 0.216666 0.183333 0.00166666 0 0.716666C0.585 0.944999 1.3 0.928332 1.645 1.60333C1.92167 1.14333 3.29666 1.17 2.28833 0.143333C1.945 0.27 1.615 0.241666 1.29833 0.0633332" transform="translate(65.573 70.61633)" id="Fill-249" fill="#75AF6D" stroke="none" />
    <path d="M0.162989 2.31C0.126322 2.46 -0.172011 2.85333 0.142989 2.71667C1.11299 2.29833 1.55466 2.89 2.06632 3.455C2.38466 3.4 2.59799 3.57667 2.80132 3.78C2.87966 3.71 2.95799 3.64167 3.03966 3.57333C3.44799 2.36333 4.80466 2.35167 5.55966 1.57667C5.57299 1.405 5.54799 1.23833 5.49633 1.075C5.32299 0.675 5.13133 0.288333 4.78799 0C2.87299 0.02 1.60132 1.33167 0.162989 2.31" transform="translate(64.83101 87.88866)" id="Fill-251" fill="#8B9561" stroke="none" />
    <path d="M3.81099 1.10614C2.95932 -0.650524 1.65432 0.111143 0.437657 0.522809C-0.0573425 0.689476 -0.0990092 1.14948 0.145991 1.51781C0.510991 2.06281 0.595991 1.76614 0.917657 1.34448C1.23932 0.921143 2.04266 1.45281 2.67432 0.771142C3.06099 0.352809 2.42432 1.62948 3.05766 1.79948C3.30932 1.56781 3.55932 1.33781 3.81099 1.10614" transform="translate(61.21551 91.35819)" id="Fill-253" fill="#88925C" stroke="none" />
    <path d="M0 5.52606C0.0783333 5.61773 0.155 5.70773 0.233333 5.79939C0.756667 5.96773 1.18333 5.77939 1.57167 5.44273C2.09167 4.88939 2.67167 4.93606 3.27833 5.27606C3.35667 5.29273 3.43333 5.30939 3.51167 5.32273C3.63 4.92439 4.68333 5.32273 4.25167 4.47439C4.11667 4.21106 3.23833 4.23273 3.915 3.68273C4.44 3.25606 4.68167 3.91606 5.06167 4.08606C5.795 4.41606 4.64833 5.25106 5.49333 5.49273C6.075 4.43773 6.77667 3.48606 7.98667 3.11272C8.45167 2.96772 8.575 2.62106 8.75 2.26939C7.74 2.43772 6.66667 3.19272 5.5 1.79939C7.06 1.77939 8.55333 2.36772 9.375 0.826057L9.375 0.824391C8.60833 0.236057 7.52 0.819391 6.78833 0.10939C6.19 -0.108943 5.66667 -0.0072764 5.23667 0.476057C3.71667 1.16606 2.35333 2.07606 1.24 3.33273C1.12833 3.44606 1.04167 3.57773 0.975 3.72106C0.813333 4.40939 0.055 4.77773 0 5.52606" transform="translate(70.06883 83.61961)" id="Fill-255" fill="#B2BA73" stroke="none" />
    <path d="M3.73565 0C3.30231 0.213333 2.86898 0.425 2.43565 0.638333C1.32231 0.961667 -0.0643518 0.956667 0.00231485 2.68167C1.07565 2.69667 1.69898 1.45167 2.84565 1.66833C3.28731 1.47167 3.60565 1.10333 4.00065 0.84C4.09898 0.5 4.11398 0.188333 3.73565 0" transform="translate(67.86719 88.78017)" id="Fill-257" fill="#BEC37D" stroke="none" />
    <path d="M1.07333 0.633853C0.516667 0.71052 0.148333 1.00552 0 1.55719L0.225 2.00385C0.866666 1.36385 1.63667 1.10719 2.545 1.03552C3.025 0.997186 2.95667 0.452186 2.86833 0.0505196L2.87 0.0505196C2.20667 0.0471863 1.44833 -0.24948 1.07333 0.633853" transform="translate(70.71183 88.89265)" id="Fill-259" fill="#B2BA73" stroke="none" />
    <path d="M1.17001 0.707697C0.976675 0.492697 0.763342 0.327698 0.448343 0.401031C0.475009 0.837697 0.213343 1.5177 1.12668 1.2027C1.25167 1.0477 1.26834 0.882697 1.17001 0.707697" transform="translate(82.43066 81.59213)" id="Fill-261" fill="#B9C478" stroke="none" />
    <path d="M0.574469 0.568371C0.559469 0.73337 0.544469 0.89837 0.531136 1.06337C0.679469 1.19837 0.874469 1.43504 1.0378 1.22004C1.27113 0.916704 1.0378 0.620037 0.846135 0.360038C0.752802 0.426704 0.662802 0.496704 0.574469 0.568371" transform="translate(83.0262 81.73146)" id="Fill-263" fill="#C8D084" stroke="none" />
    <path d="M0.704603 1.90939C1.4496 2.97106 2.44127 2.61939 3.41294 2.38106C3.50794 1.49272 2.6746 1.16439 2.3096 0.554388C1.8546 0.486054 1.58794 -0.000612953 1.09794 0.00105372C0.541269 -0.0189463 0.194603 0.246054 0.0329362 0.771055C-0.14873 1.38939 0.469603 1.53606 0.704603 1.90939" transform="translate(76.02923 82.06294)" id="Fill-265" fill="#A2AB69" stroke="none" />
    <path d="M0.0820123 2.29519C0.522012 2.28019 0.703679 3.18019 1.29368 2.63686C1.29035 2.23519 0.845346 1.74519 1.35868 1.46186C1.67535 1.28519 1.88701 1.74019 2.12035 1.95019L2.63701 1.49852C3.09701 1.18686 3.35035 0.771857 3.10701 0.233523C2.96868 -0.0731435 2.65868 -0.0364769 2.38368 0.108523C1.98201 0.88019 1.04535 0.0868565 0.588679 0.71519C0.220346 1.17852 -0.174654 1.63352 0.0820123 2.29519" transform="translate(77.04649 79.98031)" id="Fill-267" fill="#919F63" stroke="none" />
    <path d="M1.51544 0C1.11544 0.34 0.682104 0.363333 0.220438 0.14C0.0171053 0.953333 0.173772 1.56333 1.11877 1.72833C1.35544 1.17667 1.5721 0.62 1.51544 0" transform="translate(80.29089 82.89883)" id="Fill-269" fill="#9FAE6D" stroke="none" />
    <path d="M1.51667 4.925C3.29667 4.73667 4.405 3.03667 6.18667 2.84667C6.895 2.88833 7.42334 2.60833 7.75 1.96833L7.74334 1.98667C7.88 1.47167 8.69167 1.25333 8.38 0.541667C8.225 0.36 8.07167 0.18 7.91667 0C7.01834 0.756667 6.11833 1.51333 5.22 2.26833C3.295 2.96833 1.555 3.985 0 5.31834C0.603334 5.56167 0.926667 4.72667 1.51667 4.925" transform="translate(63.47733 85.27367)" id="Fill-271" fill="#A7C882" stroke="none" />
    <path d="M2.93544 0.730205C1.98044 0.278539 1.01544 -0.0764605 0.0321035 0.636872C-0.0295632 0.681872 0.00210349 1.01354 0.0887703 1.08187C1.1421 1.88854 2.01711 1.1152 2.93544 0.730205Z" transform="translate(73.0554 74.21046)" id="Fill-273" fill="#93BF79" stroke="none" />
    <path d="M1.25622 0.355326C0.994558 0.508659 0.527892 0.0686595 0.431226 0.550325C0.329559 1.05032 0.604559 1.38032 1.17456 1.34699C1.20122 1.01532 1.22956 0.685325 1.25622 0.355326" transform="translate(68.54894 83.0415)" id="Fill-275" fill="#A7C882" stroke="none" />
    <path d="M0.767992 5.0364C0.847992 5.6464 -0.400341 5.67307 0.132992 6.48307C1.67132 5.61307 2.83299 4.15974 4.57632 3.6064C4.35632 2.92474 4.78966 2.5314 5.22299 2.13974C5.36466 1.75974 5.62799 1.53307 6.03966 1.4964C6.24466 1.01141 6.44966 0.524738 6.65466 0.0380719C6.48466 -0.00526138 6.31299 -0.011928 6.14132 0.0197386C5.51799 0.176405 5.06466 0.541405 4.78632 1.12307C3.21632 2.18974 2.27466 3.90307 0.767992 5.0364" transform="translate(71.08884 80.77826)" id="Fill-277" fill="#818E59" stroke="none" />
    <path d="M1.0666 2.22167C1.26326 2.10167 1.51993 1.93167 1.6766 2.15167C1.96326 2.55667 1.56993 2.90333 1.4716 3.27666C2.0816 2.91166 2.69326 2.54667 3.30326 2.18167C3.76493 1.80333 3.55326 1.58833 3.11993 1.42667C2.01826 1.53833 0.991596 1.54 1.0066 0L0.233263 0.188333C0.221597 0.74 -0.10007 1.25167 0.0315966 1.82333C0.251597 2.28167 0.61993 2.35333 1.0666 2.22167" transform="translate(78.21291 78.2025)" id="Fill-279" fill="#9FAE6D" stroke="none" />
    <path d="M2.46667 1.45833C2.94167 1.00333 2.96667 0.516667 2.56834 0C2.475 0.07 2.385 0.143333 2.29667 0.218333C1.24 0.531667 1.37833 1.935 0.386667 2.31L0 3.51C0.531667 3.225 1.06667 2.93833 1.6 2.65167C1.64167 2.075 2.50833 2.09667 2.46667 1.45833" transform="translate(75.87683 78.39117)" id="Fill-281" fill="#919F63" stroke="none" />
    <path d="M0 2.12371C1.21834 1.95871 1.46167 0.90371 1.91 0.0337093C0.188334 -0.261291 0.671668 1.45871 0 2.12371" transform="translate(76.26434 78.57713)" id="Fill-283" fill="#9FAE6D" stroke="none" />
    <path d="M0.0183516 1.82167C1.18335 1.745 1.23668 0.361667 2.15835 0C1.15335 0.263334 -0.171648 0.153334 0.0183516 1.82167" transform="translate(79.45565 76.14883)" id="Fill-285" fill="#9FAE6D" stroke="none" />
    <path d="M1.47 3.72759C1.65333 3.94926 1.77333 4.18592 1.65333 4.48259C2.94666 4.29592 4.15 3.97592 4.55333 2.49092C5.23333 2.37926 5.485 1.95926 5.40666 1.30259L5.40666 1.30592C5.10333 0.952589 4.81 0.589255 4.49166 0.249255C4.29333 0.0375882 3.76833 -0.119078 3.81166 0.120922C4.115 1.82592 2.61 0.794255 2.06333 1.21926C1.36333 1.76426 1.14 2.83592 0 2.91259C0.714999 3.53592 1.15333 2.99259 1.62 2.72426C1.85833 3.14092 1.555 3.41592 1.47 3.72759" transform="translate(79.86266 75.90141)" id="Fill-287" fill="#98A662" stroke="none" />
    <path d="M1.01535 0.0825114C0.835347 0.552511 0.587014 0.975843 0.160348 1.27084C0.360347 1.47418 0.575347 1.64084 0.88868 1.56584C1.70701 1.13751 1.67368 0.637511 1.01535 0.0825114" transform="translate(84.25449 77.12215)" id="Fill-289" fill="#8D9F5D" stroke="none" />
    <path d="M1.20676 0.519307C0.806764 0.429307 0.511765 0.52764 0.460098 0.980973C0.453432 1.03597 0.616765 1.11097 0.701765 1.17764C0.870098 0.95764 1.03676 0.73764 1.20676 0.51764L1.20676 0.519307Z" transform="translate(88.6359 63.61253)" id="Fill-291" fill="#A3C47E" stroke="none" />
    <path d="M1.24047 0.440463C0.873807 0.480463 0.690474 0.448797 0.577141 0.523796C0.345475 0.673796 0.420475 0.903796 0.537141 1.10046C0.715474 1.4038 0.800474 1.07046 0.863807 1.01213C0.993807 0.893796 1.06714 0.715463 1.24047 0.440463" transform="translate(88.20819 66.0472)" id="Fill-293" fill="#A3C47E" stroke="none" />
    <path d="M1.41 1.15258C1.89167 0.979242 2.31 1.86757 2.87833 1.16424C2.165 0.0925768 1.10167 0.219243 0 0.24591C0.18 1.14924 0.985 0.830909 1.41 1.15258" transform="translate(68.7215 72.31276)" id="Fill-295" fill="#7AAB69" stroke="none" />
    <path d="M0.343935 0.754628C0.657268 0.942961 0.970601 1.13296 1.28393 1.32129C1.41893 0.846294 1.18893 0.524628 0.790601 0.347962C0.715601 0.314628 0.495601 0.611295 0.343935 0.754628" transform="translate(67.08823 72.24187)" id="Fill-297" fill="#A6CA85" stroke="none" />
    <path d="M3.76342 0.354187C2.76675 0.770853 1.90342 0.197521 0.98675 0.0808541C0.58675 0.0291875 0.138417 -0.0191457 0.0200834 0.52752C-0.0949166 1.05252 0.305083 1.19752 0.68175 1.37919C2.01675 2.02252 2.88508 1.24252 3.76342 0.354187" transform="translate(63.03725 73.26164)" id="Fill-299" fill="#C7D9A4" stroke="none" />
    <path d="M2.21333 0.985206C1.58833 0.251874 0.731667 0.741873 0 0.56854C0.606667 1.41187 1.44667 1.00521 2.21333 0.985206" transform="translate(64.49367 71.70363)" id="Fill-301" fill="#7CB273" stroke="none" />
    <path d="M1.60478 0C0.964783 0.0816666 0.478117 0.436666 0.04145 0.878333C-0.116883 1.33667 0.213117 1.60167 0.44645 1.905C0.844783 1.27833 2.20812 1.23667 1.60478 0" transform="translate(69.62289 87.24133)" id="Fill-303" fill="#808A59" stroke="none" />
    <path d="M0.181667 1.60443C0.718333 1.21777 1.53333 1.68943 1.97833 1.0211C1.45167 -0.647231 0.715 0.241101 0 0.857767C0.06 1.10777 0.12 1.3561 0.181667 1.60443" transform="translate(71.6035 87.92207)" id="Fill-305" fill="#C0C77F" stroke="none" />
    <path d="M1.265 0.0999998C0.421668 0.123333 0.431668 0.976665 0 1.4C0.206667 1.455 0.413334 1.51166 0.618335 1.56666C0.798335 0.971665 1.28834 1.17833 1.68667 1.155C2.02167 0.613332 1.08834 0.578332 1.265 0.0999998" transform="translate(75.0465 82.8175)" id="Fill-307" fill="#919F63" stroke="none" />
    <path d="M0.869205 0.236666C0.520872 0.591666 -0.04246 0.789999 0.00253988 1.43C0.0908731 1.355 0.179206 1.27833 0.269206 1.205C0.730872 0.876665 1.4542 1.57166 1.80587 0.811665C1.4942 0.619999 1.18087 0.428333 0.869205 0.236666" transform="translate(77.4743 79.61283)" id="Fill-309" fill="#7E8951" stroke="none" />
  </g>
</svg>