<?xml version="1.0" encoding="utf-8"?>
<svg width="693px" height="631px" viewBox="0 0 693 631" version="1.1" xmlns:xlink="http://www.w3.org/1999/xlink" xmlns="http://www.w3.org/2000/svg">
  <desc>Created with Lunacy</desc>
  <defs>
    <path d="M0 0L3.48578 0L3.48578 4.14538L0 4.14538L0 0Z" transform="translate(1.480539 0.8240557)" id="path_1" />
    <path d="M525.938 344.409C525.304 344.404 524.662 344.219 524.618 343.319C524.553 342.064 524.844 340.727 526.26 340.329C527.547 339.977 527.706 341.107 528.089 342.223C528.116 343.028 528.111 344.233 526.844 344.345C526.616 344.363 526.306 344.407 525.991 344.409L525.938 344.409ZM435.044 234.244C434.306 234.269 434.162 233.536 433.983 233.047C434.239 232.085 434.748 231.469 435.56 231.521C436.403 231.581 436.517 232.458 436.51 233.119C436.497 234.016 435.69 234.225 435.044 234.244ZM502.196 297.838C503.018 297.997 503.592 298.974 503.433 300.055C503.279 301.076 502.521 301.687 501.711 301.473C500.973 301.297 500.31 300.745 500.576 299.54C500.759 298.251 501.458 297.687 502.196 297.838ZM439.3 326.947C440.264 327.071 440.935 327.503 440.945 328.308C440.95 328.872 440.537 329.469 439.685 329.305C438.932 329.158 437.908 329.133 437.891 328.343C438.065 327.416 438.254 326.82 439.3 326.947ZM502.24 318.22C504.452 319.167 502.248 320.511 502.094 321.672C502.034 322.097 501.393 322.472 501.005 322.864C499.82 322.71 498.299 323.262 497.544 322.176C496.737 320.996 494.972 319.845 496.506 318.22C498.354 316.265 500.523 317.482 502.24 318.22ZM401.83 309.805C403.232 310.078 403.202 311.276 403.098 312.503C402.956 314.128 401.893 314.26 400.841 314.324C399.592 314.091 399.01 313.052 399.231 311.922C399.495 310.577 400.384 309.539 401.83 309.805ZM473.368 317.177C474.364 317.167 475.748 319.296 475.261 320.308C474.787 321.316 474.511 323.262 472.814 322.213C471.094 322.223 470.491 320.971 470.811 319.403C471.065 318.104 472.086 317.177 473.368 317.177ZM434.738 296.795C435.893 297.051 436.937 298.939 436.674 300.216C436.445 301.292 434.572 302.517 433.476 302.313C432.335 302.09 430.899 300.089 431.135 299.036C431.431 297.682 433.359 296.479 434.738 296.795ZM446.225 254.768C448.965 253.347 451.177 254.477 451.763 257.258C451.895 257.884 452.456 258.634 451.935 259.087C451.02 259.84 449.982 260.582 448.896 261.226C448.394 261.537 447.86 261.087 447.427 260.736C447.326 260.771 447.226 260.809 447.124 260.843C446.498 260.925 446.503 260.689 446.796 260.304C445.74 260.038 444.565 259.961 444.349 258.567C444.148 256.932 444.873 255.69 446.225 254.768ZM522.632 298.847C523.991 299.935 524.824 302.579 524.083 303.481C522.62 305.233 519.171 306.068 517.864 304.967C515.991 303.384 515.732 301.103 517.208 299.245C518.632 297.468 520.657 297.274 522.632 298.847ZM414.763 266.103C417.027 266.394 419.589 268.857 419.358 270.549C419.032 272.981 417.248 274.427 414.885 274.174C412.622 273.938 411.369 272.33 411.638 269.821C411.819 268.089 413.605 265.964 414.763 266.103ZM299.045 200.656C299.072 201.464 299.068 202.666 297.8 202.773C297.102 202.835 295.639 203.133 295.574 201.754C295.509 200.492 295.8 199.163 297.216 198.765C298.503 198.41 298.663 199.54 299.045 200.656ZM206 92.6777C205.26 92.7026 205.118 91.9696 204.939 91.4751C205.195 90.5185 205.704 89.9023 206.517 89.957C207.359 90.0092 207.473 90.8937 207.466 91.5522C207.454 92.4516 206.646 92.6604 206 92.6777ZM273.152 156.267C273.974 156.433 274.548 157.407 274.389 158.49C274.235 159.504 273.477 160.115 272.667 159.902C271.927 159.728 271.266 159.179 271.532 157.981C271.716 156.689 272.414 156.122 273.152 156.267ZM210.256 185.38C211.218 185.507 211.891 185.939 211.901 186.744C211.906 187.306 211.494 187.9 210.641 187.738C209.889 187.594 208.865 187.569 208.847 186.774C209.021 185.85 209.21 185.253 210.256 185.38ZM273.197 176.654C275.406 177.6 273.204 178.94 273.05 180.1C272.99 180.532 272.349 180.9 271.962 181.298C270.777 181.139 269.256 181.698 268.503 180.604C267.693 179.429 265.929 178.276 267.462 176.649C269.311 174.693 271.48 175.916 273.197 176.654ZM172.787 168.235C174.188 168.511 174.158 169.704 174.054 170.941C173.912 172.559 172.849 172.691 171.798 172.758C170.551 172.524 169.964 171.485 170.188 170.36C170.451 169.006 171.341 167.967 172.787 168.235ZM244.324 175.605C245.318 175.605 246.705 177.732 246.22 178.741C245.741 179.75 245.467 181.693 243.768 180.644C242.051 180.654 241.444 179.402 241.767 177.834C242.021 176.537 243.042 175.61 244.324 175.605ZM205.694 155.228C206.85 155.481 207.891 157.375 207.63 158.649C207.401 159.728 205.528 160.95 204.43 160.747C203.292 160.518 201.855 158.518 202.092 157.472C202.387 156.118 204.315 154.912 205.694 155.228ZM293.589 157.28C294.948 158.364 295.78 161.012 295.04 161.917C293.576 163.669 290.128 164.508 288.821 163.4C286.947 161.82 286.689 159.539 288.167 157.68C289.588 155.899 291.613 155.705 293.589 157.28ZM185.72 124.539C187.983 124.83 190.545 127.29 190.316 128.989C189.988 131.414 188.204 132.856 185.841 132.61C183.575 132.366 182.323 130.766 182.594 128.251C182.775 126.525 184.562 124.398 185.72 124.539ZM175.965 108.816C177.252 108.461 177.411 109.591 177.793 110.702C177.821 111.512 177.816 112.712 176.549 112.824C175.85 112.886 174.389 113.182 174.322 111.8C174.258 110.543 174.548 109.214 175.965 108.816ZM97.1321 29.2206C97.0303 29.2554 96.9309 29.2901 96.829 29.3225C96.2029 29.4119 96.2078 29.1684 96.501 28.7858C95.445 28.5224 94.2697 28.4404 94.0536 27.0514C93.8523 25.4115 94.5779 24.1691 95.9295 23.2573C98.6702 21.831 100.882 22.9616 101.468 25.737C101.6 26.3681 102.161 27.121 101.639 27.5707C100.725 28.3186 99.6864 29.0665 98.6006 29.7126C98.0987 30.0182 97.5645 29.566 97.1321 29.2206ZM84.7458 2.72853C84.0104 2.75338 83.8662 2.02039 83.6873 1.52593C83.9433 0.569314 84.4526 -0.0468958 85.2651 0.00279854C86.1075 0.059947 86.2217 0.942021 86.2143 1.60296C86.2019 2.49994 85.3943 2.70865 84.7458 2.72853ZM151.9 66.3174C152.723 66.4764 153.297 67.4529 153.138 68.5412C152.981 69.555 152.226 70.1662 151.416 69.9525C150.678 69.7786 150.014 69.2295 150.28 68.0269C150.462 66.7348 151.162 66.1708 151.9 66.3174ZM89.0046 95.4308C89.9662 95.5575 90.6396 95.9824 90.6495 96.7949C90.652 97.3565 90.242 97.9503 89.3898 97.7888C88.6369 97.6422 87.6132 97.6199 87.5958 96.8223C87.7697 95.9004 87.9586 95.3041 89.0046 95.4308ZM151.945 86.7045C154.156 87.6512 151.95 88.9904 151.798 90.1508C151.739 90.5831 151.098 90.9509 150.708 91.3435C149.525 91.1894 148.004 91.746 147.249 90.6552C146.441 89.4799 144.677 88.3245 146.21 86.6995C148.059 84.744 150.228 85.9665 151.945 86.7045ZM50.5462 82.8084C49.2964 82.5749 48.7125 81.5363 48.9361 80.4107C49.1995 79.0565 50.089 78.0179 51.5351 78.2838C52.9365 78.5571 52.9092 79.7547 52.8023 80.9872C52.6582 82.6097 51.5972 82.7389 50.5462 82.8084ZM122.518 90.6949C120.799 90.7024 120.195 89.4526 120.516 87.8847C120.769 86.5877 121.79 85.6609 123.073 85.6559C124.069 85.6559 125.453 87.7829 124.966 88.7916C124.491 89.7955 124.213 91.741 122.518 90.6949ZM84.4427 65.2788C85.5981 65.5322 86.6392 67.4231 86.3783 68.7002C86.1497 69.7736 84.2787 71.0011 83.1805 70.7973C82.04 70.5687 80.6038 68.5685 80.8399 67.52C81.1355 66.1658 83.0637 64.9582 84.4427 65.2788ZM167.569 73.451C165.695 71.8682 165.437 69.5873 166.913 67.7287C168.337 65.9496 170.362 65.7534 172.337 67.3312C173.696 68.4145 174.529 71.0632 173.788 71.9651C172.325 73.7144 168.876 74.5517 167.569 73.451ZM64.4681 34.59C66.7316 34.8808 69.2934 37.3406 69.0623 39.0352C68.7368 41.4653 66.9503 42.9064 64.5898 42.6604C62.3262 42.4169 61.0739 40.8143 61.3423 38.3022C61.5237 36.5679 63.3102 34.4484 64.4681 34.59ZM127.075 196.017C128.36 195.659 128.522 196.79 128.902 197.905C128.932 198.711 128.927 199.911 127.657 200.022C126.961 200.085 125.498 200.38 125.431 199.001C125.368 197.746 125.659 196.41 127.075 196.017ZM35.8566 89.9272C35.1186 89.952 34.977 89.219 34.7956 88.7246C35.0515 87.7729 35.5634 87.1517 36.3759 87.2039C37.2182 87.2635 37.33 88.1406 37.325 88.8016C37.3126 89.6986 36.5026 89.9073 35.8566 89.9272ZM103.011 153.521C103.833 153.68 104.407 154.657 104.246 155.742C104.092 156.756 103.334 157.37 102.526 157.156C101.786 156.975 101.125 156.428 101.391 155.223C101.572 153.938 102.271 153.374 103.011 153.521ZM40.1154 182.629C41.0769 182.754 41.7478 183.186 41.7602 183.991C41.7627 184.555 41.3527 185.151 40.5005 184.987C39.7476 184.841 38.7239 184.816 38.7065 184.021C38.8805 183.099 39.0693 182.503 40.1154 182.629ZM103.056 173.903C105.265 174.855 103.061 176.189 102.909 177.349C102.849 177.779 102.208 178.149 101.818 178.547C100.636 178.393 99.1149 178.945 98.3596 177.854C97.5521 176.679 95.7879 175.528 97.321 173.903C99.1696 171.943 101.336 173.165 103.056 173.903ZM2.64336 165.487C4.04474 165.761 4.0174 166.958 3.91056 168.186C3.76893 169.806 2.70547 169.938 1.65692 170.01C0.407112 169.774 -0.176796 168.735 0.0468281 167.609C0.310208 166.255 1.19725 165.217 2.64336 165.487ZM74.1808 172.855C75.1772 172.855 76.5637 174.979 76.0767 175.995C75.5996 176.999 75.3238 178.94 73.6267 177.891C71.9098 177.901 71.3035 176.649 71.6265 175.081C71.88 173.786 72.9012 172.86 74.1808 172.855ZM35.5534 152.477C36.7063 152.728 37.7499 154.622 37.4865 155.899C37.2604 156.975 35.3869 158.2 34.2887 157.996C33.1507 157.772 31.7145 155.767 31.9506 154.719C32.2463 153.364 34.1719 152.162 35.5534 152.477ZM47.0403 110.456C49.7809 109.027 51.9898 110.165 52.5787 112.936C52.7079 113.567 53.2719 114.317 52.7501 114.769C51.8358 115.522 50.7947 116.265 49.7113 116.909C49.2069 117.214 48.6727 116.77 48.2404 116.424C48.141 116.459 48.0416 116.486 47.9372 116.521C47.3136 116.608 47.3186 116.372 47.6093 115.982C46.5533 115.721 45.3805 115.639 45.1643 114.25C44.9606 112.615 45.6886 111.368 47.0403 110.456ZM123.448 154.53C124.807 155.616 125.637 158.262 124.899 159.164C123.433 160.915 119.987 161.75 118.68 160.65C116.806 159.067 116.545 156.786 118.024 154.932C119.445 153.146 121.472 152.957 123.448 154.53ZM15.5788 121.786C17.8424 122.077 20.4016 124.539 20.173 126.236C19.845 128.664 18.061 130.105 15.6981 129.862C13.4345 129.616 12.1822 128.013 12.4505 125.498C12.6344 123.771 14.4209 121.647 15.5788 121.786ZM455.56 280.358C456.844 280.003 457.004 281.134 457.386 282.249C457.413 283.057 457.409 284.259 456.141 284.366C455.443 284.428 453.982 284.724 453.915 283.347C453.85 282.085 454.141 280.756 455.56 280.358ZM364.341 174.271C363.603 174.296 363.459 173.563 363.28 173.068C363.536 172.112 364.048 171.495 364.858 171.55C365.7 171.602 365.814 172.487 365.807 173.145C365.797 174.045 364.987 174.251 364.341 174.271ZM431.008 241.495C430.27 241.321 429.607 240.772 429.875 239.574C430.057 238.282 430.755 237.716 431.493 237.86C432.315 238.026 432.889 239 432.73 240.084C432.576 241.097 431.818 241.709 431.008 241.495ZM368.597 266.973C369.559 267.1 370.232 267.532 370.242 268.337C370.247 268.899 369.835 269.493 368.982 269.331C368.23 269.187 367.206 269.162 367.188 268.365C367.362 267.443 367.551 266.846 368.597 266.973ZM431.391 261.693C431.331 262.125 430.69 262.493 430.303 262.891C429.118 262.732 427.597 263.288 426.844 262.197C426.034 261.022 424.27 259.869 425.803 258.242C427.652 256.286 429.821 257.509 431.538 258.247C433.747 259.193 431.545 260.533 431.391 261.693ZM331.128 249.829C332.529 250.104 332.499 251.297 332.393 252.529C332.253 254.152 331.19 254.281 330.139 254.351C328.892 254.117 328.305 253.079 328.529 251.953C328.792 250.599 329.682 249.56 331.128 249.829ZM402.665 257.198C403.662 257.198 405.046 259.325 404.559 260.334C404.084 261.343 403.808 263.286 402.111 262.237C400.392 262.247 399.785 260.995 400.108 259.427C400.362 258.13 401.383 257.203 402.665 257.198ZM364.035 236.821C365.191 237.075 366.234 238.965 365.971 240.243C365.742 241.321 363.869 242.543 362.773 242.34C361.633 242.111 360.197 240.111 360.435 239.062C360.728 237.711 362.656 236.506 364.035 236.821ZM375.522 194.8C378.263 193.373 380.474 194.504 381.061 197.279C381.192 197.91 381.754 198.663 381.232 199.113C380.32 199.866 379.279 200.614 378.193 201.255C377.689 201.56 377.157 201.108 376.725 200.768C376.623 200.798 376.524 200.832 376.422 200.87C375.796 200.954 375.801 200.711 376.094 200.328C375.038 200.07 373.862 199.988 373.646 198.594C373.445 196.954 374.171 195.711 375.522 194.8ZM451.93 238.873C453.291 239.957 454.121 242.605 453.381 243.51C451.917 245.262 448.469 246.097 447.162 244.993C445.288 243.411 445.03 241.132 446.508 239.271C447.929 237.492 449.954 237.298 451.93 238.873ZM348.655 210.582C348.329 213.008 346.545 214.449 344.182 214.203C341.916 213.959 340.667 212.357 340.935 209.845C341.116 208.115 342.903 205.991 344.061 206.132C346.324 206.423 348.886 208.883 348.655 210.582ZM325.935 250.333L325.977 250.303L326.31 250.552L325.935 250.333ZM349.42 249.508C351.58 248.904 351.85 250.813 352.491 252.686C352.539 254.045 352.534 256.063 350.399 256.252C349.227 256.353 346.767 256.845 346.652 254.53C346.548 252.415 347.037 250.171 349.42 249.508ZM196.024 71.1129C194.781 71.1452 194.543 69.9128 194.24 69.0829C194.672 67.4778 195.529 66.4441 196.896 66.5261C198.312 66.628 198.504 68.1089 198.491 69.2146C198.471 70.7228 197.112 71.0731 196.024 71.1129ZM308.952 178.043C310.336 178.313 311.297 179.953 311.029 181.78C310.771 183.487 309.496 184.515 308.134 184.158C306.894 183.862 305.779 182.935 306.228 180.915C306.534 178.746 307.709 177.799 308.952 178.043ZM203.182 226.999C204.802 227.213 205.93 227.936 205.95 229.29C205.958 230.242 205.262 231.24 203.831 230.965C202.564 230.716 200.844 230.676 200.817 229.342C201.108 227.784 201.423 226.785 203.182 226.999ZM309.026 212.319C312.743 213.914 309.039 216.168 308.78 218.124C308.678 218.847 307.598 219.468 306.944 220.131C304.954 219.87 302.397 220.807 301.13 218.973C299.771 216.998 296.804 215.055 299.383 212.319C302.489 209.035 306.137 211.087 309.026 212.319ZM140.172 198.171C142.53 198.629 142.481 200.644 142.302 202.711C142.063 205.437 140.277 205.66 138.51 205.777C136.411 205.38 135.429 203.633 135.802 201.734C136.247 199.463 137.74 197.722 140.172 198.171ZM260.472 210.563C262.145 210.558 264.475 214.133 263.658 215.838C262.858 217.53 262.393 220.797 259.538 219.035C256.651 219.05 255.632 216.943 256.176 214.31C256.599 212.13 258.316 210.573 260.472 210.563ZM195.512 176.296C197.453 176.723 199.204 179.901 198.764 182.046C198.384 183.857 195.234 185.914 193.388 185.569C191.472 185.191 189.054 181.832 189.454 180.065C189.951 177.789 193.191 175.762 195.512 176.296ZM214.831 105.626C219.437 103.23 223.154 105.131 224.143 109.8C224.362 110.858 225.306 112.126 224.429 112.886C223.763 113.43 223.043 113.974 222.307 114.503C222.479 114.856 222.628 115.244 222.72 115.686C222.851 116.317 223.413 117.07 222.891 117.52C221.977 118.273 220.938 119.016 219.852 119.662C219.348 119.967 218.814 119.515 218.384 119.175C218.284 119.205 218.183 119.239 218.081 119.277C217.455 119.361 217.459 119.118 217.753 118.735C216.694 118.477 215.521 118.39 215.305 117.001C215.206 116.206 215.338 115.507 215.643 114.891C213.901 114.479 212.028 114.285 211.673 112.014C211.332 109.256 212.557 107.164 214.831 105.626ZM343.315 179.745C345.604 181.571 347.003 186.021 345.758 187.539C343.295 190.486 337.499 191.892 335.297 190.034C332.149 187.38 331.714 183.541 334.199 180.416C336.589 177.421 339.998 177.101 343.315 179.745ZM169.649 132.162C169.099 136.25 166.098 138.675 162.127 138.257C158.318 137.855 156.214 135.151 156.663 130.93C156.972 128.023 159.976 124.447 161.924 124.678C165.73 125.178 170.034 129.31 169.649 132.162Z" transform="translate(1.145836 0.9662408)" id="path_2" />
    <path d="M0.0220666 0L2.46265 0L2.46265 2.72374L0.0220666 2.72374L0.0220666 0Z" transform="translate(2.126621 0.2579418)" id="path_3" />
    <path d="M0 0L5.94789 0L5.94789 6.85827L0 6.85827L0 0Z" transform="translate(0 0.4525117)" id="path_4" />
    <path d="M0 0L3.79973 0L3.79973 4.09946L0 4.09946L0 0Z" transform="translate(0.1264721 2.107039)" id="path_5" />
    <clipPath id="mask_1">
      <use xlink:href="#path_1" />
    </clipPath>
    <clipPath id="mask_2">
      <use xlink:href="#path_2" />
    </clipPath>
    <clipPath id="mask_3">
      <use xlink:href="#path_3" />
    </clipPath>
    <clipPath id="mask_4">
      <use xlink:href="#path_4" />
    </clipPath>
    <clipPath id="mask_5">
      <use xlink:href="#path_5" />
    </clipPath>
  </defs>
  <g id="Dots" transform="matrix(0.8660254 -0.5 0.5 0.8660254 0 284.5)">
    <path d="M0.0599813 6.2622C0.370571 3.35508 3.37211 -0.220429 5.32012 0.0106493C9.12671 0.512562 13.4302 4.64216 13.0451 7.49461C12.496 11.582 9.49444 14.0071 5.52387 13.5896C1.7148 13.1871 -0.389752 10.4837 0.0599813 6.2622" transform="translate(165.203 178.1905)" id="Fill-1" fill="#208A6E" stroke="none" />
    <path d="M10.7195 1.79591C13.0079 3.61969 14.4043 8.06982 13.1619 9.59046C10.6996 12.5349 4.90026 13.9437 2.70129 12.0851C-0.449336 9.42896 -0.881676 5.59007 1.60304 2.46678C3.99085 -0.529785 7.39988 -0.847829 10.7195 1.79591" transform="translate(341.1968 231.4727)" id="Fill-3" fill="#208A6E" stroke="none" />
    <path d="M2.14782 1.03854C6.75449 -1.35921 10.4716 0.544085 11.4605 5.21287C11.6792 6.26887 12.6234 7.53608 11.7463 8.29889C10.2107 9.56112 8.46149 10.8134 6.63771 11.8943C5.79042 12.4136 4.89344 11.6557 4.16541 11.0743C3.97161 10.7588 3.85482 10.2593 3.57405 10.1425C1.70306 9.37477 0.502941 8.23429 0.132718 6.98447C-0.23502 5.73217 0.16005 4.29601 1.33532 2.82506C1.74281 2.31569 2.79385 2.01007 2.14782 1.03854" transform="translate(221.2828 158.111)" id="Fill-5" fill="#20B89D" stroke="none" />
    <path d="M6.10113 0.0862959C8.0417 0.513667 9.79591 3.69162 9.35611 5.83593C8.97347 7.64729 5.82533 9.70463 3.9767 9.35926C2.06098 8.98158 -0.354162 5.62473 0.0433924 3.85809C0.542821 1.58209 3.78041 -0.447918 6.10113 0.0862959" transform="translate(198.0099 229.7321)" id="Fill-7" fill="#BECECB" stroke="none" />
    <path d="M3.50394 8.47289C0.614214 8.4878 -0.402035 6.38076 0.139633 3.74696C0.564519 1.56786 2.28146 0.00994405 4.43571 5.17473e-06C6.11041 -0.00496426 8.44107 3.57054 7.6236 5.27506C6.82352 6.96964 6.35639 10.2346 3.50394 8.47289" transform="translate(264.6345 264.0853)" id="Fill-9" fill="#5F9E8C" stroke="none" />
    <path d="M2.78432 7.67685C0.684735 7.27929 -0.296728 5.53254 0.078464 3.63421C0.520744 1.36318 2.01406 -0.378605 4.4466 0.0711288C6.80708 0.528317 6.7549 2.54342 6.576 4.61071C6.33995 7.33644 4.55096 7.56007 2.78432 7.67685" transform="translate(144.325 251.6232)" id="Fill-11" fill="#BECECB" stroke="none" />
    <path d="M8.58576 9.58841C6.5955 9.32752 4.03376 10.2618 2.76655 8.42805C1.40493 6.4527 -1.55934 4.51213 1.0198 1.77397C4.12569 -1.51083 7.77326 0.54155 10.663 1.77397C14.3801 3.37164 10.6729 5.6228 10.417 7.57828C10.3126 8.31127 9.19949 8.94239 8.54849 9.6232L8.58576 9.58841Z" transform="translate(306.9637 264.0666)" id="Fill-13" fill="#BECECB" stroke="none" />
    <path d="M0 2.37179C0.290712 0.813877 0.608756 -0.184978 2.36545 0.028707C3.98549 0.242392 5.11355 0.965444 5.13342 2.31961C5.14088 3.26877 4.44764 4.27011 3.01396 3.99183C1.74676 3.74584 0.0273319 3.70608 0 2.37179" transform="translate(209.4164 280.4943)" id="Fill-15" fill="#208A6E" stroke="none" />
    <path d="M0.101669 2.90966C0.40729 0.740504 1.58256 -0.206173 2.82492 0.0373296C4.20643 0.308164 5.1705 1.94808 4.90215 3.77434C4.64374 5.48134 3.36907 6.51001 2.00745 6.15221C0.767574 5.85653 -0.348065 4.92725 0.101669 2.90966" transform="translate(314.7273 231.5285)" id="Fill-17" fill="#D7E0DE" stroke="none" />
    <path d="M0 2.56132C0.432341 0.956193 1.29205 -0.0774485 2.65616 0.00454718C4.07245 0.106421 4.26377 1.58483 4.25135 2.69301C4.23396 4.20123 2.87233 4.55158 1.78403 4.58885C0.541668 4.62363 0.303135 3.39122 0 2.56132" transform="translate(202.8396 120.0453)" id="Fill-19" fill="#20B89D" stroke="none" />
    <path d="M3.21428 0C3.86031 0.971524 2.80927 1.27714 2.40178 1.78651C1.2265 3.25746 0.831434 4.69363 1.19917 5.94592C1.5694 7.19574 2.76952 8.33622 4.64051 9.104C4.92128 9.22078 5.03806 9.72021 5.23187 10.0358C5.06291 10.0929 4.89395 10.1525 4.72251 10.2047C4.77717 9.7873 4.55851 9.50155 4.17338 9.29781C2.39432 8.8605 0.418971 8.72135 0.0562016 6.38572C-0.284205 3.63017 0.940762 1.53804 3.21428 0" transform="translate(220.2164 159.1496)" id="Fill-21" fill="#20B89D" stroke="none" />
    <path d="M5.85205 3.29095C5.89926 4.65009 5.89429 6.66768 3.75744 6.859C2.58714 6.96088 0.124792 7.45037 0.0129798 5.13461C-0.091378 3.02012 0.39811 0.776417 2.78095 0.112998C4.94016 -0.488304 5.21099 1.41747 5.85205 3.29095" transform="translate(355.2401 302.9178)" id="Fill-23" fill="#5F9E8C" stroke="none" />
    <path d="M1.12335 0.773841C1.50848 0.977587 1.72713 1.26333 1.67495 1.68076C0.623922 1.82736 0.631376 1.42483 1.12335 0.773841" transform="translate(223.2657 167.6738)" id="Fill-25" fill="#20B89D" stroke="none" />
    <path d="M1.05476 1.14794L1.42995 1.36659L1.097 1.11812L1.05476 1.14794Z" transform="translate(333.4795 302.707)" id="Fill-27" fill="#BECECB" stroke="none" />
    <path d="M0.0358747 3.71889C0.217259 1.99201 2.00377 -0.134914 3.16164 0.00671508C5.42522 0.297427 7.98696 2.7573 7.75588 4.45685C7.43038 6.88193 5.64636 8.32555 3.2834 8.07708C1.01982 7.83358 -0.232474 6.23342 0.0358747 3.71889" transform="translate(349.4988 259.6479)" id="Fill-29" fill="#208A6E" stroke="none" />
    <path d="M6.37508 1.07072C7.73671 2.15406 8.5666 4.80277 7.82616 5.70472C6.36266 7.45645 2.91388 8.29132 1.60692 7.19059C-0.26656 5.60782 -0.524971 3.32685 0.953435 1.46827C2.37469 -0.31327 4.39974 -0.507078 6.37508 1.07072" transform="translate(454.1541 291.3264)" id="Fill-31" fill="#208A6E" stroke="none" />
    <path d="M1.2753 0.618114C4.01594 -0.808112 6.22734 0.322433 6.81373 3.09786C6.94542 3.72898 7.50697 4.48185 6.98269 4.93158C6.0708 5.68445 5.03219 6.43235 3.94637 7.0734C3.44197 7.37902 2.90776 6.92681 2.47542 6.5864C2.36112 6.39259 2.29155 6.10188 2.12259 6.03479C1.01192 5.57264 0.298808 4.89431 0.0801531 4.15138C-0.140987 3.40845 0.0950614 2.55371 0.793266 1.68157C1.03428 1.37595 1.66043 1.19457 1.2753 0.618114" transform="translate(382.8477 247.7044)" id="Fill-33" fill="#20B89D" stroke="none" />
    <path d="M3.62659 0.050846C4.78198 0.304286 5.82556 2.19515 5.56218 3.47229C5.33359 4.55066 3.4626 5.77313 2.36436 5.56939C1.22387 5.3408 -0.212291 3.3406 0.0262418 2.29206C0.319438 0.937888 2.24757 -0.264712 3.62659 0.050846" transform="translate(369.0083 290.2935)" id="Fill-35" fill="#BECECB" stroke="none" />
    <path d="M2.08348 5.03653C0.366538 5.04647 -0.239735 3.79417 0.0832794 2.22631C0.334236 0.931771 1.35794 0.00496945 2.63757 0C3.63395 0 5.02042 2.12444 4.53342 3.13323C4.05635 4.14452 3.78055 6.08509 2.08348 5.03653" transform="translate(408.6264 310.7227)" id="Fill-37" fill="#5F9E8C" stroke="none" />
    <path d="M1.65679 4.56464C0.40947 4.33107 -0.176921 3.29246 0.0467022 2.16689C0.310081 0.812724 1.19961 -0.225884 2.64571 0.0424644C4.04708 0.318267 4.01727 1.51093 3.91042 2.74583C3.77128 4.36586 2.70782 4.49755 1.65679 4.56464" transform="translate(337.0826 303.3086)" id="Fill-39" fill="#BECECB" stroke="none" />
    <path d="M5.10561 5.70445C3.9204 5.54543 2.39976 6.10201 1.64441 5.01122C0.836875 3.83595 -0.927271 2.68055 0.605797 1.05555C2.45442 -0.899924 4.62358 0.322556 6.34051 1.06052C8.54942 2.00719 6.34797 3.34646 6.19392 4.50682C6.1318 4.94661 5.47087 5.32181 5.08325 5.71936L5.10561 5.70445Z" transform="translate(433.7976 310.71)" id="Fill-41" fill="#BECECB" stroke="none" />
    <path d="M0 1.45106C0.173931 0.529234 0.36277 -0.067097 1.40636 0.0571385C2.37043 0.183859 3.04379 0.616198 3.05373 1.42124C3.05622 1.98527 2.64375 2.57664 1.79397 2.41761C1.0411 2.27102 0.0173931 2.24617 0 1.45106" transform="translate(375.7892 320.4374)" id="Fill-43" fill="#208A6E" stroke="none" />
    <path d="M0.0599936 1.73456C0.241378 0.442506 0.939585 -0.124009 1.67755 0.0225892C2.49999 0.18658 3.07396 1.16307 2.91494 2.24392C2.76089 3.25769 2.00305 3.86893 1.19303 3.65524C0.455064 3.48131 -0.205872 2.93219 0.0599936 1.73456" transform="translate(438.4151 291.3616)" id="Fill-45" fill="#D7E0DE" stroke="none" />
    <path d="M0 1.52153C0.258409 0.56491 0.767773 -0.0513006 1.58027 0.00336326C2.42259 0.0555424 2.53688 0.940103 2.52943 1.59855C2.517 2.49802 1.70699 2.70674 1.06097 2.72413C0.323011 2.74898 0.181383 2.01599 0 1.52153" transform="translate(371.879 225.0694)" id="Fill-47" fill="#20B89D" stroke="none" />
    <path d="M1.90914 0C2.29427 0.576454 1.66812 0.757838 1.4271 1.06346C0.728895 1.93559 0.492847 2.79034 0.713987 3.53327C0.932642 4.2762 1.64576 4.95452 2.75642 5.41668C2.92538 5.48377 2.99496 5.77448 3.10925 5.96829C3.00986 5.9981 2.91048 6.03289 2.80612 6.07016C2.8409 5.8192 2.70921 5.64776 2.47814 5.52849C1.42213 5.27008 0.249345 5.18809 0.0331747 3.79416C-0.168087 2.15425 0.55745 0.911891 1.90914 0" transform="translate(382.2138 248.3225)" id="Fill-49" fill="#20B89D" stroke="none" />
    <path d="M3.47945 1.95908C3.50678 2.76413 3.50181 3.96922 2.2346 4.07606C1.5364 4.13818 0.0729036 4.43386 0.00830107 3.05484C-0.0563015 1.79509 0.23441 0.463276 1.65318 0.0657212C2.93778 -0.287109 3.0968 0.843438 3.47945 1.95908" transform="translate(462.507 333.8138)" id="Fill-51" fill="#5F9E8C" stroke="none" />
    <path d="M1.17177 0.962337C1.40036 1.08409 1.53205 1.25305 1.49975 1.50649C0.873604 1.58848 0.878573 1.34498 1.17177 0.962337" transform="translate(383.5214 252.8877)" id="Fill-53" fill="#20B89D" stroke="none" />
    <path d="M1.13054 1.18893L1.35417 1.31565L1.15539 1.16906L1.13054 1.18893Z" transform="translate(449.062 333.1863)" id="Fill-55" fill="#BECECB" stroke="none" />
    <path d="M0.0358747 3.71888C0.219744 1.992 2.00377 -0.134914 3.16165 0.00671507C5.42771 0.297427 7.98697 2.7573 7.75837 4.45684C7.43039 6.88193 5.64636 8.32555 3.2834 8.08204C1.01982 7.83357 -0.232475 6.23341 0.0358747 3.71888" transform="translate(21.01539 175.3034)" id="Fill-57" fill="#208A6E" stroke="none" />
    <path d="M6.37554 1.06823C7.73468 2.15405 8.56705 4.80027 7.82661 5.70223C6.36311 7.45395 2.91433 8.28881 1.60737 7.18809C-0.266105 5.60532 -0.524515 3.32435 0.951405 1.47076C2.37515 -0.315752 4.40019 -0.50459 6.37554 1.06823" transform="translate(125.6715 206.9845)" id="Fill-59" fill="#208A6E" stroke="none" />
    <path d="M1.27527 0.617204C4.01839 -0.809023 6.2273 0.326492 6.8137 3.09695C6.94539 3.72807 7.50693 4.48093 6.98514 4.93067C6.07077 5.68354 5.03216 6.42647 3.94634 7.07249C3.44442 7.37811 2.91021 6.93086 2.47538 6.58549C2.36109 6.39665 2.29152 6.10097 2.12504 6.03388C1.01189 5.57172 0.298773 4.8934 0.0801181 4.15047C-0.141022 3.40754 0.0950264 2.5528 0.795716 1.67569C1.03425 1.37504 1.6604 1.19366 1.27527 0.617204" transform="translate(54.36424 163.3609)" id="Fill-61" fill="#20B89D" stroke="none" />
    <path d="M3.62857 0.0508461C4.78396 0.304287 5.82506 2.19516 5.56416 3.4723C5.33557 4.55067 3.46458 5.77315 2.36385 5.5694C1.22585 5.34578 -0.210318 3.34061 0.0257302 2.29206C0.321411 0.93789 2.24955 -0.264713 3.62857 0.0508461" transform="translate(40.52384 205.949)" id="Fill-63" fill="#BECECB" stroke="none" />
    <path d="M2.08347 5.03652C0.366537 5.04646 -0.239734 3.79416 0.0832792 2.22631C0.33672 0.931769 1.35794 0.00496943 2.63757 0C3.63394 0 5.02041 2.12443 4.5334 3.1382C4.05634 4.14451 3.78053 6.08507 2.08347 5.03652" transform="translate(80.14299 226.3783)" id="Fill-65" fill="#5F9E8C" stroke="none" />
    <path d="M1.6568 4.56609C0.409471 4.32755 -0.176922 3.28894 0.0467024 2.16337C0.310082 0.809197 1.19961 -0.229414 2.64572 0.0439049C4.0471 0.314739 4.01976 1.51237 3.91292 2.74231C3.77129 4.36234 2.70783 4.49403 1.6568 4.56609" transform="translate(8.598867 218.9677)" id="Fill-67" fill="#BECECB" stroke="none" />
    <path d="M5.10562 5.70338C3.92289 5.54436 2.39976 6.10591 1.64441 5.01015C0.836877 3.83488 -0.927272 2.68445 0.605798 1.05944C2.45443 -0.900998 4.62358 0.321483 6.34052 1.05944C8.55192 2.01109 6.34798 3.34539 6.19392 4.50575C6.13181 4.94554 5.47087 5.32074 5.08326 5.71829L5.10562 5.70338Z" transform="translate(105.3142 226.3666)" id="Fill-69" fill="#BECECB" stroke="none" />
    <path d="M0 1.4504C0.17393 0.528568 0.362768 -0.0677624 1.40883 0.0564731C2.37042 0.183193 3.04378 0.615533 3.05371 1.42058C3.0562 1.98461 2.64622 2.58094 1.79396 2.41695C1.0411 2.27035 0.017393 2.2455 0 1.4504" transform="translate(47.30577 236.0937)" id="Fill-71" fill="#208A6E" stroke="none" />
    <path d="M0.0599843 1.72657C0.241369 0.439485 0.939574 -0.122061 1.67753 0.0220526C2.50246 0.183559 3.07394 1.15757 2.91492 2.24588C2.76087 3.25964 2.00303 3.87088 1.1955 3.6572C0.455054 3.4783 -0.20588 2.92917 0.0599843 1.72657" transform="translate(109.9314 207.0202)" id="Fill-73" fill="#D7E0DE" stroke="none" />
    <path d="M0 1.5215C0.25841 0.569854 0.767777 -0.0513245 1.58028 0.0033392C2.4226 0.0604876 2.53689 0.940076 2.52944 1.59853C2.51702 2.49799 1.707 2.70671 1.06097 2.7241C0.323013 2.74895 0.181384 2.01596 0 1.5215" transform="translate(43.39557 140.725)" id="Fill-75" fill="#20B89D" stroke="none" />
    <path d="M1.90914 0C2.29427 0.576454 1.66812 0.757838 1.42958 1.05849C0.728895 1.93559 0.492847 2.79033 0.713987 3.53326C0.932642 4.27619 1.64576 4.95452 2.75891 5.41668C2.92538 5.48376 2.99496 5.77944 3.10925 5.96828C3.00986 6.00307 2.91048 6.03288 2.80612 6.06519C2.8409 5.8192 2.70921 5.64775 2.47814 5.52849C1.42462 5.26511 0.249345 5.18311 0.0331747 3.79416C-0.168087 2.15922 0.55745 0.91189 1.90914 0" transform="translate(53.73037 163.9781)" id="Fill-77" fill="#20B89D" stroke="none" />
    <path d="M3.47945 1.95578C3.50678 2.76083 3.5043 3.96095 2.23461 4.07276C1.53889 4.13488 0.0729037 4.43056 0.00830108 3.05154C-0.0563015 1.79676 0.23441 0.459979 1.65318 0.0673935C2.93778 -0.290406 3.09929 0.840141 3.47945 1.95578" transform="translate(134.0235 249.4727)" id="Fill-79" fill="#5F9E8C" stroke="none" />
    <path d="M1.17056 0.963829C1.39916 1.08558 1.53333 1.25454 1.49854 1.50301C0.87488 1.58998 0.87985 1.35144 1.17056 0.963829" transform="translate(55.03918 168.5418)" id="Fill-81" fill="#20B89D" stroke="none" />
    <path d="M1.13055 1.18396L1.35417 1.31565L1.15539 1.16906L1.13055 1.18396Z" transform="translate(120.5783 248.8421)" id="Fill-83" fill="#BECECB" stroke="none" />
    <path d="M0.0358747 3.71889C0.219744 1.98705 2.00377 -0.134899 3.16413 0.00672971C5.42771 0.297441 7.98697 2.75731 7.75837 4.45189C7.43039 6.88194 5.64636 8.32556 3.2834 8.07709C1.01982 7.83358 -0.232475 6.23343 0.0358747 3.71889" transform="translate(69.90516 88.10528)" id="Fill-85" fill="#208A6E" stroke="none" />
    <path d="M6.37554 1.07072C7.73468 2.15405 8.56706 4.80276 7.82662 5.70471C6.36312 7.45147 2.91433 8.2913 1.60737 7.19057C-0.266105 5.60781 -0.524516 3.32684 0.951406 1.46827C2.37515 -0.313269 4.40019 -0.507077 6.37554 1.07072" transform="translate(174.5612 119.7839)" id="Fill-87" fill="#208A6E" stroke="none" />
    <path d="M1.27667 0.618115C4.01731 -0.808112 6.22623 0.322433 6.8151 3.09786C6.94431 3.72898 7.50834 4.48185 6.98406 4.93158C6.07217 5.67948 5.03356 6.42738 3.94774 7.07341C3.44334 7.37903 2.90913 6.92681 2.47679 6.58143C2.36249 6.39259 2.29292 6.10188 2.12396 6.02983C1.01329 5.57264 0.297692 4.89431 0.0815213 4.15138C-0.142103 3.40845 0.0939449 2.54874 0.794635 1.6766C1.03565 1.37595 1.65932 1.19457 1.27667 0.618115" transform="translate(103.2538 76.1621)" id="Fill-89" fill="#20B89D" stroke="none" />
    <path d="M3.62857 0.0521437C4.78396 0.305585 5.82505 2.19645 5.56416 3.4736C5.33557 4.547 3.46457 5.77445 2.36633 5.5707C1.22585 5.34211 -0.210319 3.34191 0.0257292 2.29336C0.32141 0.939188 2.24955 -0.268385 3.62857 0.0521437" transform="translate(89.41386 118.7498)" id="Fill-91" fill="#BECECB" stroke="none" />
    <path d="M2.08347 5.03652C0.366537 5.04645 -0.239734 3.79416 0.0832792 2.2263C0.334235 0.931768 1.35794 0.00496943 2.63757 0C3.63394 0 5.02041 2.12443 4.5334 3.13322C4.05634 4.13953 3.78053 6.08506 2.08347 5.03652" transform="translate(129.034 139.1804)" id="Fill-93" fill="#5F9E8C" stroke="none" />
    <path d="M1.65692 4.56465C0.407112 4.33109 -0.176796 3.29248 0.046828 2.1669C0.310208 0.812727 1.19974 -0.225885 2.64336 0.0424645C4.04473 0.313299 4.0174 1.51093 3.91056 2.74584C3.76893 4.36587 2.70547 4.49756 1.65692 4.56465" transform="translate(57.49001 131.7663)" id="Fill-95" fill="#BECECB" stroke="none" />
    <path d="M5.10562 5.69948C3.92041 5.54543 2.39976 6.10201 1.64441 5.01122C0.836877 3.83595 -0.927272 2.68055 0.605798 1.05555C2.45443 -0.899924 4.62358 0.322556 6.34052 1.06052C8.54944 2.00719 6.34549 3.34646 6.19393 4.50682C6.13181 4.94661 5.47087 5.32181 5.08326 5.71936L5.10562 5.69948Z" transform="translate(154.2052 139.1677)" id="Fill-97" fill="#BECECB" stroke="none" />
    <path d="M0 1.45106C0.17393 0.529234 0.362768 -0.067097 1.40883 0.0571385C2.37042 0.183859 3.04378 0.611229 3.05371 1.42124C3.0562 1.98527 2.64622 2.57664 1.79396 2.41761C1.0411 2.27102 0.017393 2.24617 0 1.45106" transform="translate(96.19579 148.8951)" id="Fill-99" fill="#208A6E" stroke="none" />
    <path d="M0.0599843 1.72974C0.241368 0.437685 0.939573 -0.123862 1.67753 0.0227366C2.50246 0.181759 3.07643 1.15825 2.91492 2.24407C2.76087 3.25784 2.00303 3.86908 1.1955 3.6554C0.455054 3.48146 -0.20588 2.93234 0.0599843 1.72974" transform="translate(158.8215 119.8188)" id="Fill-101" fill="#D7E0DE" stroke="none" />
    <path d="M0 1.52593C0.258411 0.569314 0.767777 -0.0468958 1.5778 0.00279855C2.4226 0.059947 2.5369 0.944506 2.52696 1.60296C2.51702 2.50242 1.707 2.71114 1.06097 2.72853C0.323013 2.75338 0.181384 2.02039 0 1.52593" transform="translate(92.28658 53.52271)" id="Fill-103" fill="#20B89D" stroke="none" />
    <path d="M1.90914 0C2.29178 0.576454 1.66812 0.757839 1.4271 1.05849C0.72641 1.93062 0.490362 2.79034 0.713987 3.53327C0.930157 4.2762 1.64576 4.95452 2.75642 5.41171C2.92538 5.48377 2.99496 5.77448 3.10925 5.96332C3.00986 5.99811 2.91048 6.03289 2.80612 6.06519C2.8409 5.81921 2.70673 5.64776 2.47814 5.52849C1.42213 5.26511 0.249345 5.18312 0.0331747 3.79416C-0.168087 2.15425 0.55745 0.911891 1.90914 0" transform="translate(102.6214 76.78021)" id="Fill-105" fill="#20B89D" stroke="none" />
    <path d="M3.47946 1.95412C3.50927 2.76414 3.5043 3.96426 2.23461 4.07607C1.53889 4.13819 0.0753885 4.43387 0.00830109 3.04988C-0.0563016 1.7951 0.234411 0.463287 1.65319 0.0657314C2.93779 -0.287099 3.09929 0.843449 3.47946 1.95412" transform="translate(182.9133 162.2715)" id="Fill-107" fill="#5F9E8C" stroke="none" />
    <path d="M1.17177 0.963954C1.40037 1.0857 1.53206 1.25467 1.49976 1.50314C0.873606 1.5901 0.878576 1.3466 1.17177 0.963954" transform="translate(103.929 81.34376)" id="Fill-109" fill="#20B89D" stroke="none" />
    <path d="M1.13054 1.18396L1.35417 1.31565L1.15788 1.16906L1.13054 1.18396Z" transform="translate(169.4683 161.644)" id="Fill-111" fill="#BECECB" stroke="none" />
    <path d="M0.0358748 3.71888C0.217259 1.992 2.00377 -0.134914 3.16165 0.00671507C5.42523 0.297427 7.98697 2.75729 7.75838 4.45684C7.4304 6.88192 5.64637 8.32554 3.2834 8.07707C1.01982 7.83357 -0.232475 6.23341 0.0358748 3.71888" transform="translate(191.1578 178.055)" id="Fill-113" fill="#208A6E" stroke="none" />
    <path d="M6.37509 1.07072C7.73422 2.15405 8.5666 4.80276 7.82616 5.70471C6.36266 7.45643 2.91388 8.29627 1.60692 7.19057C-0.26656 5.60781 -0.524971 3.32684 0.953435 1.46827C2.37469 -0.313269 4.40222 -0.507077 6.37509 1.07072" transform="translate(295.8131 209.7336)" id="Fill-115" fill="#208A6E" stroke="none" />
    <path d="M1.2753 0.618114C4.01594 -0.808112 6.22734 0.322433 6.81373 3.09786C6.94542 3.72898 7.50696 4.48185 6.98517 4.93158C6.0708 5.68445 5.03219 6.42738 3.94637 7.0734C3.44197 7.37902 2.90776 6.92681 2.47542 6.5864C2.36112 6.39259 2.29155 6.10188 2.12259 6.03479C1.01192 5.57264 0.296323 4.89431 0.080153 4.15138C-0.140987 3.40845 0.0950613 2.55371 0.793266 1.68157C1.03428 1.37595 1.66043 1.19457 1.2753 0.618114" transform="translate(224.5066 166.1116)" id="Fill-117" fill="#20B89D" stroke="none" />
    <path d="M3.62857 0.0508461C4.78396 0.304287 5.82506 2.19516 5.56417 3.4723C5.33557 4.55067 3.46458 5.77315 2.36633 5.5694C1.22585 5.34081 -0.210319 3.34061 0.0257292 2.29206C0.321411 0.93789 2.24955 -0.264713 3.62857 0.0508461" transform="translate(210.665 208.7006)" id="Fill-119" fill="#BECECB" stroke="none" />
    <path d="M2.08347 5.03652C0.366537 5.04646 -0.239734 3.79416 0.0832792 2.22631C0.334235 0.931768 1.35794 0.00496943 2.63757 0C3.63394 0 5.02041 2.12443 4.5334 3.13323C4.05634 4.14451 3.78053 6.08507 2.08347 5.03652" transform="translate(250.2854 229.1301)" id="Fill-121" fill="#5F9E8C" stroke="none" />
    <path d="M1.6568 4.56465C0.409472 4.33109 -0.176922 3.29248 0.0467025 2.1669C0.310083 0.812727 1.19961 -0.225885 2.64572 0.0424645C4.0471 0.318268 4.01729 1.51093 3.91293 2.75081C3.7713 4.36587 2.70784 4.49756 1.6568 4.56465" transform="translate(178.7413 221.7157)" id="Fill-123" fill="#BECECB" stroke="none" />
    <path d="M5.10561 5.70445C3.9204 5.54543 2.39976 6.10201 1.64441 5.01122C0.836875 3.83595 -0.927271 2.68055 0.605797 1.05555C2.45442 -0.899924 4.62358 0.322556 6.34051 1.06052C8.54942 2.00719 6.34797 3.34646 6.19392 4.50682C6.1318 4.94661 5.47087 5.32181 5.08325 5.71936L5.10561 5.70445Z" transform="translate(275.4564 229.1171)" id="Fill-125" fill="#BECECB" stroke="none" />
    <path d="M0 1.45106C0.17393 0.529234 0.362768 -0.067097 1.40635 0.0571385C2.37042 0.183859 3.04378 0.616198 3.05371 1.42124C3.0562 1.98527 2.64622 2.57664 1.79396 2.41761C1.0411 2.27102 0.017393 2.24617 0 1.45106" transform="translate(217.4482 238.8448)" id="Fill-127" fill="#208A6E" stroke="none" />
    <path d="M0.0599842 1.73456C0.241368 0.442506 0.939572 -0.124009 1.68002 0.0225892C2.50246 0.18658 3.07642 1.16307 2.91492 2.24392C2.76087 3.25769 2.00303 3.86893 1.1955 3.65524C0.455053 3.48131 -0.20588 2.93219 0.0599842 1.73456" transform="translate(280.0726 209.7687)" id="Fill-129" fill="#D7E0DE" stroke="none" />
    <path d="M0 1.52153C0.258411 0.56491 0.767778 -0.0513006 1.58028 0.00336326C2.4226 0.0555424 2.5369 0.940103 2.52944 1.59855C2.51702 2.49802 1.707 2.70674 1.06097 2.72413C0.323013 2.74898 0.181384 2.01599 0 1.52153" transform="translate(213.5378 143.4766)" id="Fill-131" fill="#20B89D" stroke="none" />
    <path d="M1.90914 0C2.29427 0.576454 1.66812 0.757838 1.4271 1.06346C0.728895 1.93559 0.492847 2.79034 0.713987 3.53327C0.930157 4.2762 1.64576 4.95452 2.75642 5.41668C2.92538 5.48377 2.99496 5.77448 3.10925 5.96829C3.00986 5.9981 2.91048 6.03289 2.80612 6.07016C2.8409 5.8192 2.70921 5.64776 2.47814 5.52849C1.42213 5.27008 0.249345 5.18312 0.0331747 3.79416C-0.168087 2.15425 0.55745 0.911891 1.90914 0" transform="translate(223.8728 166.7297)" id="Fill-133" fill="#20B89D" stroke="none" />
    <path d="M3.47945 1.95907C3.50678 2.76412 3.50181 3.9692 2.2346 4.07604C1.5364 4.13816 0.072905 4.43384 0.00830251 3.05483C-0.0563 1.79508 0.234411 0.463275 1.6507 0.065721C2.93778 -0.287108 3.0968 0.843435 3.47945 1.95907" transform="translate(304.1657 252.2209)" id="Fill-135" fill="#5F9E8C" stroke="none" />
    <path d="M1.17177 0.962337C1.40036 1.08409 1.53205 1.25305 1.49975 1.50649C0.873604 1.58848 0.878573 1.34498 1.17177 0.962337" transform="translate(225.1804 171.2948)" id="Fill-137" fill="#20B89D" stroke="none" />
    <path d="M1.13054 1.18893L1.35417 1.31565L1.15539 1.16906L1.13054 1.18893Z" transform="translate(290.7207 251.5934)" id="Fill-139" fill="#BECECB" stroke="none" />
    <path d="M0.0358747 3.72385C0.217259 1.992 2.00377 -0.134914 3.16164 0.00671491C5.42522 0.297427 7.98696 2.7573 7.75588 4.45187C7.43038 6.88193 5.64636 8.33051 3.2834 8.07707C1.01982 7.83854 -0.232474 6.23341 0.0358747 3.72385" transform="translate(420.2017 319.6207)" id="Fill-141" fill="#208A6E" stroke="none" />
    <path d="M6.37552 1.06702C7.73465 2.15284 8.56703 4.79906 7.82659 5.70101C6.36309 7.45273 2.91432 8.28759 1.60737 7.18687C-0.266104 5.6041 -0.524514 3.32314 0.951402 1.46457C2.37514 -0.311998 4.40018 -0.505805 6.37552 1.06702" transform="translate(524.8565 351.303)" id="Fill-143" fill="#208A6E" stroke="none" />
    <path d="M1.2753 0.614767C4.01594 -0.80649 6.22734 0.324055 6.81373 3.10445C6.94542 3.7306 7.50697 4.48347 6.98269 4.9332C6.0708 5.68607 5.03219 6.429 3.94637 7.07502C3.44197 7.38561 2.90776 6.93339 2.47542 6.58305C2.36112 6.39918 2.29155 6.1035 2.12259 6.03144C1.01192 5.57426 0.298808 4.9009 0.0801531 4.153C-0.140987 3.41007 0.0950614 2.55036 0.793266 1.68319C1.03428 1.37757 1.66043 1.19619 1.2753 0.614767" transform="translate(453.5505 307.6759)" id="Fill-145" fill="#20B89D" stroke="none" />
    <path d="M3.62857 0.050846C4.78396 0.309256 5.82754 2.19515 5.56416 3.47229C5.33557 4.55066 3.46458 5.77313 2.36633 5.56939C1.22585 5.34576 -0.210319 3.34557 0.0257292 2.29206C0.32141 0.937888 2.24955 -0.264712 3.62857 0.050846" transform="translate(439.7091 350.2665)" id="Fill-147" fill="#BECECB" stroke="none" />
    <path d="M2.08348 5.03654C0.366538 5.04648 -0.239735 3.79419 0.0832794 2.22633C0.334236 0.926831 1.35794 3.46711e-05 2.63757 3.46711e-05C3.63395 -0.00990417 5.02042 2.11949 4.53342 3.12828C4.05635 4.13956 3.78055 6.08509 2.08348 5.03654" transform="translate(479.3293 370.7005)" id="Fill-149" fill="#5F9E8C" stroke="none" />
    <path d="M1.65693 4.55969C0.407113 4.32613 -0.176797 3.28752 0.0468282 2.15697C0.310209 0.812739 1.19974 -0.225873 2.64337 0.0424767C4.04724 0.313311 4.01742 1.51094 3.91057 2.74088C3.77143 4.36588 2.70797 4.49757 1.65693 4.55969" transform="translate(407.7853 363.2864)" id="Fill-151" fill="#BECECB" stroke="none" />
    <path d="M5.10561 5.70122C3.9204 5.54717 2.39976 6.09878 1.64441 5.01296C0.836875 3.83272 -0.927271 2.6823 0.605797 1.0573C2.45442 -0.898173 4.62358 0.319336 6.34051 1.0573C8.54942 2.00397 6.34797 3.3482 6.19392 4.50856C6.1318 4.93842 5.47087 5.31858 5.08325 5.7211L5.10561 5.70122Z" transform="translate(504.5005 370.6861)" id="Fill-153" fill="#BECECB" stroke="none" />
    <path d="M0 1.45442C0.171446 0.527627 0.36277 -0.0687032 1.40636 0.058017C2.37043 0.182253 3.04379 0.614592 3.05373 1.41964C3.05622 1.98367 2.64375 2.58 1.79397 2.41601C1.0411 2.26941 0.0173931 2.24456 0 1.45442" transform="translate(446.4921 380.4119)" id="Fill-155" fill="#208A6E" stroke="none" />
    <path d="M0.0599848 1.72795C0.241371 0.435898 0.939582 -0.125649 1.68003 0.0234343C2.50248 0.184941 3.07646 1.15895 2.91495 2.24229C2.76089 3.26103 2.00305 3.87227 1.19551 3.65858C0.455058 3.48465 -0.205882 2.93056 0.0599848 1.72795" transform="translate(509.1165 351.3361)" id="Fill-157" fill="#D7E0DE" stroke="none" />
    <path d="M0 1.52649C0.258411 0.564906 0.76778 -0.0513006 1.58028 0.00336289C2.42261 0.0605111 2.5369 0.940097 2.52696 1.59854C2.51703 2.49801 1.70701 2.70672 1.06098 2.72412C0.323014 2.74896 0.181385 2.01597 0 1.52649" transform="translate(442.5819 285.0423)" id="Fill-159" fill="#20B89D" stroke="none" />
    <path d="M1.90914 0C2.29427 0.581424 1.66812 0.762808 1.4271 1.06843C0.728895 1.9356 0.492847 2.79531 0.713987 3.53824C0.932642 4.28614 1.64576 4.9595 2.75642 5.41668C2.92538 5.48874 2.99496 5.78442 3.10925 5.96829C3.00986 6.00308 2.91048 6.04283 2.80612 6.07513C2.8409 5.82418 2.70921 5.65273 2.47814 5.53844C1.42213 5.27009 0.249345 5.19306 0.0331747 3.79913C-0.168087 2.16419 0.55745 0.92183 1.90914 0" transform="translate(452.9167 308.2906)" id="Fill-161" fill="#20B89D" stroke="none" />
    <g id="Group-165" transform="translate(531.7292 392.9628)">
      <path d="M0 0L3.48578 0L3.48578 4.14538L0 4.14538L0 0Z" transform="translate(1.480539 0.8240557)" id="Clip-164" fill="none" stroke="none" />
      <g clip-path="url(#mask_1)">
        <path d="M3.47945 1.95907C3.50678 2.76412 3.50181 3.96921 2.23461 4.08102C1.5364 4.13817 0.0729051 4.42888 0.00830252 3.05483C-0.0563001 1.80005 0.234412 0.463276 1.6507 0.0657211C2.93778 -0.287109 3.0968 0.843437 3.47945 1.95907" transform="translate(1.480539 0.8240557)" id="Fill-163" fill="#5F9E8C" stroke="none" />
      </g>
    </g>
    <path d="M1.17177 0.964703C1.40036 1.08148 1.53205 1.25045 1.49975 1.50389C0.873604 1.58588 0.878573 1.34735 1.17177 0.964703" transform="translate(454.2243 312.8632)" id="Fill-166" fill="#20B89D" stroke="none" />
    <path d="M1.13056 1.18645L1.35418 1.31317L1.1554 1.17154L1.13056 1.18645Z" transform="translate(519.7648 393.1619)" id="Fill-168" fill="#BECECB" stroke="none" />
    <g id="Group-172" transform="translate(7.454148 52.55672)">
      <path d="M525.938 344.409C525.304 344.404 524.662 344.219 524.618 343.319C524.553 342.064 524.844 340.727 526.26 340.329C527.547 339.977 527.706 341.107 528.089 342.223C528.116 343.028 528.111 344.233 526.844 344.345C526.616 344.363 526.306 344.407 525.991 344.409L525.938 344.409ZM435.044 234.244C434.306 234.269 434.162 233.536 433.983 233.047C434.239 232.085 434.748 231.469 435.56 231.521C436.403 231.581 436.517 232.458 436.51 233.119C436.497 234.016 435.69 234.225 435.044 234.244ZM502.196 297.838C503.018 297.997 503.592 298.974 503.433 300.055C503.279 301.076 502.521 301.687 501.711 301.473C500.973 301.297 500.31 300.745 500.576 299.54C500.759 298.251 501.458 297.687 502.196 297.838ZM439.3 326.947C440.264 327.071 440.935 327.503 440.945 328.308C440.95 328.872 440.537 329.469 439.685 329.305C438.932 329.158 437.908 329.133 437.891 328.343C438.065 327.416 438.254 326.82 439.3 326.947ZM502.24 318.22C504.452 319.167 502.248 320.511 502.094 321.672C502.034 322.097 501.393 322.472 501.005 322.864C499.82 322.71 498.299 323.262 497.544 322.176C496.737 320.996 494.972 319.845 496.506 318.22C498.354 316.265 500.523 317.482 502.24 318.22ZM401.83 309.805C403.232 310.078 403.202 311.276 403.098 312.503C402.956 314.128 401.893 314.26 400.841 314.324C399.592 314.091 399.01 313.052 399.231 311.922C399.495 310.577 400.384 309.539 401.83 309.805ZM473.368 317.177C474.364 317.167 475.748 319.296 475.261 320.308C474.787 321.316 474.511 323.262 472.814 322.213C471.094 322.223 470.491 320.971 470.811 319.403C471.065 318.104 472.086 317.177 473.368 317.177ZM434.738 296.795C435.893 297.051 436.937 298.939 436.674 300.216C436.445 301.292 434.572 302.517 433.476 302.313C432.335 302.09 430.899 300.089 431.135 299.036C431.431 297.682 433.359 296.479 434.738 296.795ZM446.225 254.768C448.965 253.347 451.177 254.477 451.763 257.258C451.895 257.884 452.456 258.634 451.935 259.087C451.02 259.84 449.982 260.582 448.896 261.226C448.394 261.537 447.86 261.087 447.427 260.736C447.326 260.771 447.226 260.809 447.124 260.843C446.498 260.925 446.503 260.689 446.796 260.304C445.74 260.038 444.565 259.961 444.349 258.567C444.148 256.932 444.873 255.69 446.225 254.768ZM522.632 298.847C523.991 299.935 524.824 302.579 524.083 303.481C522.62 305.233 519.171 306.068 517.864 304.967C515.991 303.384 515.732 301.103 517.208 299.245C518.632 297.468 520.657 297.274 522.632 298.847ZM414.763 266.103C417.027 266.394 419.589 268.857 419.358 270.549C419.032 272.981 417.248 274.427 414.885 274.174C412.622 273.938 411.369 272.33 411.638 269.821C411.819 268.089 413.605 265.964 414.763 266.103ZM299.045 200.656C299.072 201.464 299.068 202.666 297.8 202.773C297.102 202.835 295.639 203.133 295.574 201.754C295.509 200.492 295.8 199.163 297.216 198.765C298.503 198.41 298.663 199.54 299.045 200.656ZM206 92.6777C205.26 92.7026 205.118 91.9696 204.939 91.4751C205.195 90.5185 205.704 89.9023 206.517 89.957C207.359 90.0092 207.473 90.8937 207.466 91.5522C207.454 92.4516 206.646 92.6604 206 92.6777ZM273.152 156.267C273.974 156.433 274.548 157.407 274.389 158.49C274.235 159.504 273.477 160.115 272.667 159.902C271.927 159.728 271.266 159.179 271.532 157.981C271.716 156.689 272.414 156.122 273.152 156.267ZM210.256 185.38C211.218 185.507 211.891 185.939 211.901 186.744C211.906 187.306 211.494 187.9 210.641 187.738C209.889 187.594 208.865 187.569 208.847 186.774C209.021 185.85 209.21 185.253 210.256 185.38ZM273.197 176.654C275.406 177.6 273.204 178.94 273.05 180.1C272.99 180.532 272.349 180.9 271.962 181.298C270.777 181.139 269.256 181.698 268.503 180.604C267.693 179.429 265.929 178.276 267.462 176.649C269.311 174.693 271.48 175.916 273.197 176.654ZM172.787 168.235C174.188 168.511 174.158 169.704 174.054 170.941C173.912 172.559 172.849 172.691 171.798 172.758C170.551 172.524 169.964 171.485 170.188 170.36C170.451 169.006 171.341 167.967 172.787 168.235ZM244.324 175.605C245.318 175.605 246.705 177.732 246.22 178.741C245.741 179.75 245.467 181.693 243.768 180.644C242.051 180.654 241.444 179.402 241.767 177.834C242.021 176.537 243.042 175.61 244.324 175.605ZM205.694 155.228C206.85 155.481 207.891 157.375 207.63 158.649C207.401 159.728 205.528 160.95 204.43 160.747C203.292 160.518 201.855 158.518 202.092 157.472C202.387 156.118 204.315 154.912 205.694 155.228ZM293.589 157.28C294.948 158.364 295.78 161.012 295.04 161.917C293.576 163.669 290.128 164.508 288.821 163.4C286.947 161.82 286.689 159.539 288.167 157.68C289.588 155.899 291.613 155.705 293.589 157.28ZM185.72 124.539C187.983 124.83 190.545 127.29 190.316 128.989C189.988 131.414 188.204 132.856 185.841 132.61C183.575 132.366 182.323 130.766 182.594 128.251C182.775 126.525 184.562 124.398 185.72 124.539ZM175.965 108.816C177.252 108.461 177.411 109.591 177.793 110.702C177.821 111.512 177.816 112.712 176.549 112.824C175.85 112.886 174.389 113.182 174.322 111.8C174.258 110.543 174.548 109.214 175.965 108.816ZM97.1321 29.2206C97.0303 29.2554 96.9309 29.2901 96.829 29.3225C96.2029 29.4119 96.2078 29.1684 96.501 28.7858C95.445 28.5224 94.2697 28.4404 94.0536 27.0514C93.8523 25.4115 94.5779 24.1691 95.9295 23.2573C98.6702 21.831 100.882 22.9616 101.468 25.737C101.6 26.3681 102.161 27.121 101.639 27.5707C100.725 28.3186 99.6864 29.0665 98.6006 29.7126C98.0987 30.0182 97.5645 29.566 97.1321 29.2206ZM84.7458 2.72853C84.0104 2.75338 83.8662 2.02039 83.6873 1.52593C83.9433 0.569314 84.4526 -0.0468958 85.2651 0.00279854C86.1075 0.059947 86.2217 0.942021 86.2143 1.60296C86.2019 2.49994 85.3943 2.70865 84.7458 2.72853ZM151.9 66.3174C152.723 66.4764 153.297 67.4529 153.138 68.5412C152.981 69.555 152.226 70.1662 151.416 69.9525C150.678 69.7786 150.014 69.2295 150.28 68.0269C150.462 66.7348 151.162 66.1708 151.9 66.3174ZM89.0046 95.4308C89.9662 95.5575 90.6396 95.9824 90.6495 96.7949C90.652 97.3565 90.242 97.9503 89.3898 97.7888C88.6369 97.6422 87.6132 97.6199 87.5958 96.8223C87.7697 95.9004 87.9586 95.3041 89.0046 95.4308ZM151.945 86.7045C154.156 87.6512 151.95 88.9904 151.798 90.1508C151.739 90.5831 151.098 90.9509 150.708 91.3435C149.525 91.1894 148.004 91.746 147.249 90.6552C146.441 89.4799 144.677 88.3245 146.21 86.6995C148.059 84.744 150.228 85.9665 151.945 86.7045ZM50.5462 82.8084C49.2964 82.5749 48.7125 81.5363 48.9361 80.4107C49.1995 79.0565 50.089 78.0179 51.5351 78.2838C52.9365 78.5571 52.9092 79.7547 52.8023 80.9872C52.6582 82.6097 51.5972 82.7389 50.5462 82.8084ZM122.518 90.6949C120.799 90.7024 120.195 89.4526 120.516 87.8847C120.769 86.5877 121.79 85.6609 123.073 85.6559C124.069 85.6559 125.453 87.7829 124.966 88.7916C124.491 89.7955 124.213 91.741 122.518 90.6949ZM84.4427 65.2788C85.5981 65.5322 86.6392 67.4231 86.3783 68.7002C86.1497 69.7736 84.2787 71.0011 83.1805 70.7973C82.04 70.5687 80.6038 68.5685 80.8399 67.52C81.1355 66.1658 83.0637 64.9582 84.4427 65.2788ZM167.569 73.451C165.695 71.8682 165.437 69.5873 166.913 67.7287C168.337 65.9496 170.362 65.7534 172.337 67.3312C173.696 68.4145 174.529 71.0632 173.788 71.9651C172.325 73.7144 168.876 74.5517 167.569 73.451ZM64.4681 34.59C66.7316 34.8808 69.2934 37.3406 69.0623 39.0352C68.7368 41.4653 66.9503 42.9064 64.5898 42.6604C62.3262 42.4169 61.0739 40.8143 61.3423 38.3022C61.5237 36.5679 63.3102 34.4484 64.4681 34.59ZM127.075 196.017C128.36 195.659 128.522 196.79 128.902 197.905C128.932 198.711 128.927 199.911 127.657 200.022C126.961 200.085 125.498 200.38 125.431 199.001C125.368 197.746 125.659 196.41 127.075 196.017ZM35.8566 89.9272C35.1186 89.952 34.977 89.219 34.7956 88.7246C35.0515 87.7729 35.5634 87.1517 36.3759 87.2039C37.2182 87.2635 37.33 88.1406 37.325 88.8016C37.3126 89.6986 36.5026 89.9073 35.8566 89.9272ZM103.011 153.521C103.833 153.68 104.407 154.657 104.246 155.742C104.092 156.756 103.334 157.37 102.526 157.156C101.786 156.975 101.125 156.428 101.391 155.223C101.572 153.938 102.271 153.374 103.011 153.521ZM40.1154 182.629C41.0769 182.754 41.7478 183.186 41.7602 183.991C41.7627 184.555 41.3527 185.151 40.5005 184.987C39.7476 184.841 38.7239 184.816 38.7065 184.021C38.8805 183.099 39.0693 182.503 40.1154 182.629ZM103.056 173.903C105.265 174.855 103.061 176.189 102.909 177.349C102.849 177.779 102.208 178.149 101.818 178.547C100.636 178.393 99.1149 178.945 98.3596 177.854C97.5521 176.679 95.7879 175.528 97.321 173.903C99.1696 171.943 101.336 173.165 103.056 173.903ZM2.64336 165.487C4.04474 165.761 4.0174 166.958 3.91056 168.186C3.76893 169.806 2.70547 169.938 1.65692 170.01C0.407112 169.774 -0.176796 168.735 0.0468281 167.609C0.310208 166.255 1.19725 165.217 2.64336 165.487ZM74.1808 172.855C75.1772 172.855 76.5637 174.979 76.0767 175.995C75.5996 176.999 75.3238 178.94 73.6267 177.891C71.9098 177.901 71.3035 176.649 71.6265 175.081C71.88 173.786 72.9012 172.86 74.1808 172.855ZM35.5534 152.477C36.7063 152.728 37.7499 154.622 37.4865 155.899C37.2604 156.975 35.3869 158.2 34.2887 157.996C33.1507 157.772 31.7145 155.767 31.9506 154.719C32.2463 153.364 34.1719 152.162 35.5534 152.477ZM47.0403 110.456C49.7809 109.027 51.9898 110.165 52.5787 112.936C52.7079 113.567 53.2719 114.317 52.7501 114.769C51.8358 115.522 50.7947 116.265 49.7113 116.909C49.2069 117.214 48.6727 116.77 48.2404 116.424C48.141 116.459 48.0416 116.486 47.9372 116.521C47.3136 116.608 47.3186 116.372 47.6093 115.982C46.5533 115.721 45.3805 115.639 45.1643 114.25C44.9606 112.615 45.6886 111.368 47.0403 110.456ZM123.448 154.53C124.807 155.616 125.637 158.262 124.899 159.164C123.433 160.915 119.987 161.75 118.68 160.65C116.806 159.067 116.545 156.786 118.024 154.932C119.445 153.146 121.472 152.957 123.448 154.53ZM15.5788 121.786C17.8424 122.077 20.4016 124.539 20.173 126.236C19.845 128.664 18.061 130.105 15.6981 129.862C13.4345 129.616 12.1822 128.013 12.4505 125.498C12.6344 123.771 14.4209 121.647 15.5788 121.786ZM455.56 280.358C456.844 280.003 457.004 281.134 457.386 282.249C457.413 283.057 457.409 284.259 456.141 284.366C455.443 284.428 453.982 284.724 453.915 283.347C453.85 282.085 454.141 280.756 455.56 280.358ZM364.341 174.271C363.603 174.296 363.459 173.563 363.28 173.068C363.536 172.112 364.048 171.495 364.858 171.55C365.7 171.602 365.814 172.487 365.807 173.145C365.797 174.045 364.987 174.251 364.341 174.271ZM431.008 241.495C430.27 241.321 429.607 240.772 429.875 239.574C430.057 238.282 430.755 237.716 431.493 237.86C432.315 238.026 432.889 239 432.73 240.084C432.576 241.097 431.818 241.709 431.008 241.495ZM368.597 266.973C369.559 267.1 370.232 267.532 370.242 268.337C370.247 268.899 369.835 269.493 368.982 269.331C368.23 269.187 367.206 269.162 367.188 268.365C367.362 267.443 367.551 266.846 368.597 266.973ZM431.391 261.693C431.331 262.125 430.69 262.493 430.303 262.891C429.118 262.732 427.597 263.288 426.844 262.197C426.034 261.022 424.27 259.869 425.803 258.242C427.652 256.286 429.821 257.509 431.538 258.247C433.747 259.193 431.545 260.533 431.391 261.693ZM331.128 249.829C332.529 250.104 332.499 251.297 332.393 252.529C332.253 254.152 331.19 254.281 330.139 254.351C328.892 254.117 328.305 253.079 328.529 251.953C328.792 250.599 329.682 249.56 331.128 249.829ZM402.665 257.198C403.662 257.198 405.046 259.325 404.559 260.334C404.084 261.343 403.808 263.286 402.111 262.237C400.392 262.247 399.785 260.995 400.108 259.427C400.362 258.13 401.383 257.203 402.665 257.198ZM364.035 236.821C365.191 237.075 366.234 238.965 365.971 240.243C365.742 241.321 363.869 242.543 362.773 242.34C361.633 242.111 360.197 240.111 360.435 239.062C360.728 237.711 362.656 236.506 364.035 236.821ZM375.522 194.8C378.263 193.373 380.474 194.504 381.061 197.279C381.192 197.91 381.754 198.663 381.232 199.113C380.32 199.866 379.279 200.614 378.193 201.255C377.689 201.56 377.157 201.108 376.725 200.768C376.623 200.798 376.524 200.832 376.422 200.87C375.796 200.954 375.801 200.711 376.094 200.328C375.038 200.07 373.862 199.988 373.646 198.594C373.445 196.954 374.171 195.711 375.522 194.8ZM451.93 238.873C453.291 239.957 454.121 242.605 453.381 243.51C451.917 245.262 448.469 246.097 447.162 244.993C445.288 243.411 445.03 241.132 446.508 239.271C447.929 237.492 449.954 237.298 451.93 238.873ZM348.655 210.582C348.329 213.008 346.545 214.449 344.182 214.203C341.916 213.959 340.667 212.357 340.935 209.845C341.116 208.115 342.903 205.991 344.061 206.132C346.324 206.423 348.886 208.883 348.655 210.582ZM325.935 250.333L325.977 250.303L326.31 250.552L325.935 250.333ZM349.42 249.508C351.58 248.904 351.85 250.813 352.491 252.686C352.539 254.045 352.534 256.063 350.399 256.252C349.227 256.353 346.767 256.845 346.652 254.53C346.548 252.415 347.037 250.171 349.42 249.508ZM196.024 71.1129C194.781 71.1452 194.543 69.9128 194.24 69.0829C194.672 67.4778 195.529 66.4441 196.896 66.5261C198.312 66.628 198.504 68.1089 198.491 69.2146C198.471 70.7228 197.112 71.0731 196.024 71.1129ZM308.952 178.043C310.336 178.313 311.297 179.953 311.029 181.78C310.771 183.487 309.496 184.515 308.134 184.158C306.894 183.862 305.779 182.935 306.228 180.915C306.534 178.746 307.709 177.799 308.952 178.043ZM203.182 226.999C204.802 227.213 205.93 227.936 205.95 229.29C205.958 230.242 205.262 231.24 203.831 230.965C202.564 230.716 200.844 230.676 200.817 229.342C201.108 227.784 201.423 226.785 203.182 226.999ZM309.026 212.319C312.743 213.914 309.039 216.168 308.78 218.124C308.678 218.847 307.598 219.468 306.944 220.131C304.954 219.87 302.397 220.807 301.13 218.973C299.771 216.998 296.804 215.055 299.383 212.319C302.489 209.035 306.137 211.087 309.026 212.319ZM140.172 198.171C142.53 198.629 142.481 200.644 142.302 202.711C142.063 205.437 140.277 205.66 138.51 205.777C136.411 205.38 135.429 203.633 135.802 201.734C136.247 199.463 137.74 197.722 140.172 198.171ZM260.472 210.563C262.145 210.558 264.475 214.133 263.658 215.838C262.858 217.53 262.393 220.797 259.538 219.035C256.651 219.05 255.632 216.943 256.176 214.31C256.599 212.13 258.316 210.573 260.472 210.563ZM195.512 176.296C197.453 176.723 199.204 179.901 198.764 182.046C198.384 183.857 195.234 185.914 193.388 185.569C191.472 185.191 189.054 181.832 189.454 180.065C189.951 177.789 193.191 175.762 195.512 176.296ZM214.831 105.626C219.437 103.23 223.154 105.131 224.143 109.8C224.362 110.858 225.306 112.126 224.429 112.886C223.763 113.43 223.043 113.974 222.307 114.503C222.479 114.856 222.628 115.244 222.72 115.686C222.851 116.317 223.413 117.07 222.891 117.52C221.977 118.273 220.938 119.016 219.852 119.662C219.348 119.967 218.814 119.515 218.384 119.175C218.284 119.205 218.183 119.239 218.081 119.277C217.455 119.361 217.459 119.118 217.753 118.735C216.694 118.477 215.521 118.39 215.305 117.001C215.206 116.206 215.338 115.507 215.643 114.891C213.901 114.479 212.028 114.285 211.673 112.014C211.332 109.256 212.557 107.164 214.831 105.626ZM343.315 179.745C345.604 181.571 347.003 186.021 345.758 187.539C343.295 190.486 337.499 191.892 335.297 190.034C332.149 187.38 331.714 183.541 334.199 180.416C336.589 177.421 339.998 177.101 343.315 179.745ZM169.649 132.162C169.099 136.25 166.098 138.675 162.127 138.257C158.318 137.855 156.214 135.151 156.663 130.93C156.972 128.023 159.976 124.447 161.924 124.678C165.73 125.178 170.034 129.31 169.649 132.162Z" transform="translate(1.145836 0.9662408)" id="Clip-171" fill="none" stroke="none" />
      <g clip-path="url(#mask_2)">
        <path d="M528.089 342.223C527.706 341.107 527.547 339.977 526.26 340.329C524.844 340.727 524.553 342.064 524.618 343.319C524.685 344.693 526.146 344.402 526.844 344.345C528.111 344.233 528.116 343.028 528.089 342.223L528.089 342.223ZM435.044 234.244C435.69 234.225 436.497 234.016 436.51 233.119C436.517 232.458 436.403 231.581 435.56 231.521C434.748 231.469 434.239 232.085 433.983 233.047C434.162 233.536 434.306 234.269 435.044 234.244L435.044 234.244ZM502.196 297.838C501.458 297.687 500.759 298.251 500.576 299.54C500.31 300.745 500.973 301.297 501.711 301.473C502.521 301.687 503.279 301.076 503.433 300.055C503.592 298.974 503.018 297.997 502.196 297.838L502.196 297.838ZM439.3 326.947C438.254 326.82 438.065 327.416 437.891 328.343C437.908 329.133 438.932 329.158 439.685 329.305C440.537 329.469 440.95 328.872 440.945 328.308C440.935 327.503 440.264 327.071 439.3 326.947L439.3 326.947ZM502.24 318.22C500.523 317.482 498.354 316.265 496.506 318.22C494.972 319.845 496.737 320.996 497.544 322.176C498.299 323.262 499.82 322.71 501.005 322.864C501.393 322.472 502.034 322.097 502.094 321.672C502.248 320.511 504.452 319.167 502.24 318.22L502.24 318.22ZM401.83 309.805C400.384 309.539 399.495 310.577 399.231 311.922C399.01 313.052 399.592 314.091 400.841 314.324C401.893 314.26 402.956 314.128 403.098 312.503C403.202 311.276 403.232 310.078 401.83 309.805L401.83 309.805ZM473.368 317.177C472.086 317.177 471.065 318.104 470.811 319.403C470.491 320.971 471.094 322.223 472.814 322.213C474.511 323.262 474.787 321.316 475.261 320.308C475.748 319.296 474.364 317.167 473.368 317.177L473.368 317.177ZM434.738 296.795C433.359 296.479 431.431 297.682 431.135 299.036C430.899 300.089 432.335 302.09 433.476 302.313C434.572 302.517 436.445 301.292 436.674 300.216C436.937 298.939 435.893 297.051 434.738 296.795L434.738 296.795ZM446.225 254.768C444.873 255.69 444.148 256.932 444.349 258.567C444.565 259.961 445.74 260.038 446.796 260.304C446.503 260.689 446.498 260.925 447.124 260.843C447.226 260.809 447.326 260.771 447.427 260.736C447.86 261.087 448.394 261.537 448.896 261.226C449.982 260.582 451.02 259.84 451.935 259.087C452.456 258.634 451.895 257.884 451.763 257.258C451.177 254.477 448.965 253.347 446.225 254.768L446.225 254.768ZM522.632 298.847C520.657 297.274 518.632 297.468 517.208 299.245C515.732 301.103 515.991 303.384 517.864 304.967C519.171 306.068 522.62 305.233 524.083 303.481C524.824 302.579 523.991 299.935 522.632 298.847L522.632 298.847ZM414.763 266.103C413.605 265.964 411.819 268.089 411.638 269.821C411.369 272.33 412.622 273.938 414.885 274.174C417.248 274.427 419.032 272.981 419.358 270.549C419.589 268.857 417.027 266.394 414.763 266.103L414.763 266.103ZM299.045 200.656C298.663 199.54 298.503 198.41 297.216 198.765C295.8 199.163 295.509 200.492 295.574 201.754C295.639 203.133 297.102 202.835 297.8 202.773C299.068 202.666 299.072 201.464 299.045 200.656L299.045 200.656ZM206 92.6777C206.646 92.6604 207.454 92.4516 207.466 91.5522C207.473 90.8937 207.359 90.0092 206.517 89.957C205.704 89.9023 205.195 90.5185 204.939 91.4751C205.118 91.9696 205.26 92.7026 206 92.6777L206 92.6777ZM273.152 156.267C272.414 156.122 271.716 156.689 271.532 157.981C271.266 159.179 271.927 159.728 272.667 159.902C273.477 160.115 274.235 159.504 274.389 158.49C274.548 157.407 273.974 156.433 273.152 156.267L273.152 156.267ZM210.256 185.38C209.21 185.253 209.021 185.85 208.847 186.774C208.865 187.569 209.889 187.594 210.641 187.738C211.494 187.9 211.906 187.306 211.901 186.744C211.891 185.939 211.218 185.507 210.256 185.38L210.256 185.38ZM273.197 176.654C271.48 175.916 269.311 174.693 267.462 176.649C265.929 178.276 267.693 179.429 268.503 180.604C269.256 181.698 270.777 181.139 271.962 181.298C272.349 180.9 272.99 180.532 273.05 180.1C273.204 178.94 275.406 177.6 273.197 176.654L273.197 176.654ZM172.787 168.235C171.341 167.967 170.451 169.006 170.188 170.36C169.964 171.485 170.551 172.524 171.798 172.758C172.849 172.691 173.912 172.559 174.054 170.941C174.158 169.704 174.188 168.511 172.787 168.235L172.787 168.235ZM244.324 175.605C243.042 175.61 242.021 176.537 241.767 177.834C241.444 179.402 242.051 180.654 243.768 180.644C245.467 181.693 245.741 179.75 246.22 178.741C246.705 177.732 245.318 175.605 244.324 175.605L244.324 175.605ZM205.694 155.228C204.315 154.912 202.387 156.118 202.092 157.472C201.855 158.518 203.292 160.518 204.43 160.747C205.528 160.95 207.401 159.728 207.63 158.649C207.891 157.375 206.85 155.481 205.694 155.228L205.694 155.228ZM293.589 157.28C291.613 155.705 289.588 155.899 288.167 157.68C286.689 159.539 286.947 161.82 288.821 163.4C290.128 164.508 293.576 163.669 295.04 161.917C295.78 161.012 294.948 158.364 293.589 157.28L293.589 157.28ZM185.72 124.539C184.562 124.398 182.775 126.525 182.594 128.251C182.323 130.766 183.575 132.366 185.841 132.61C188.204 132.856 189.988 131.414 190.316 128.989C190.545 127.29 187.983 124.83 185.72 124.539L185.72 124.539ZM175.965 108.816C174.548 109.214 174.258 110.543 174.322 111.8C174.389 113.182 175.85 112.886 176.549 112.824C177.816 112.712 177.821 111.512 177.793 110.702C177.411 109.591 177.252 108.461 175.965 108.816L175.965 108.816ZM97.1321 29.2206C97.5645 29.566 98.0987 30.0182 98.6006 29.7126C99.6864 29.0665 100.725 28.3186 101.639 27.5707C102.161 27.121 101.6 26.3681 101.468 25.737C100.882 22.9616 98.6702 21.831 95.9295 23.2573C94.5779 24.1691 93.8523 25.4115 94.0536 27.0514C94.2697 28.4404 95.445 28.5224 96.501 28.7858C96.2078 29.1684 96.2029 29.4119 96.829 29.3225C96.9309 29.2901 97.0303 29.2554 97.1321 29.2206L97.1321 29.2206ZM84.7458 2.72853C85.3943 2.70865 86.2019 2.49994 86.2143 1.60296C86.2217 0.942021 86.1075 0.059947 85.2651 0.00279854C84.4526 -0.0468958 83.9433 0.569314 83.6873 1.52593C83.8662 2.02039 84.0104 2.75338 84.7458 2.72853L84.7458 2.72853ZM151.9 66.3174C151.162 66.1708 150.462 66.7348 150.28 68.0269C150.014 69.2295 150.678 69.7786 151.416 69.9525C152.226 70.1662 152.981 69.555 153.138 68.5412C153.297 67.4529 152.723 66.4764 151.9 66.3174L151.9 66.3174ZM89.0046 95.4308C87.9586 95.3041 87.7697 95.9004 87.5958 96.8223C87.6132 97.6199 88.6369 97.6422 89.3898 97.7888C90.242 97.9503 90.652 97.3565 90.6495 96.7949C90.6396 95.9824 89.9662 95.5575 89.0046 95.4308L89.0046 95.4308ZM151.945 86.7045C150.228 85.9665 148.059 84.744 146.21 86.6995C144.677 88.3245 146.441 89.4799 147.249 90.6552C148.004 91.746 149.525 91.1894 150.708 91.3435C151.098 90.9509 151.739 90.5831 151.798 90.1508C151.95 88.9904 154.156 87.6512 151.945 86.7045L151.945 86.7045ZM50.5462 82.8084C51.5972 82.7389 52.6582 82.6097 52.8023 80.9872C52.9092 79.7547 52.9365 78.5571 51.5351 78.2838C50.089 78.0179 49.1995 79.0565 48.9361 80.4107C48.7125 81.5363 49.2964 82.5749 50.5462 82.8084L50.5462 82.8084ZM122.518 90.6949C124.213 91.741 124.491 89.7955 124.966 88.7916C125.453 87.7829 124.069 85.6559 123.073 85.6559C121.79 85.6609 120.769 86.5877 120.516 87.8847C120.195 89.4526 120.799 90.7024 122.518 90.6949L122.518 90.6949ZM84.4427 65.2788C83.0637 64.9582 81.1355 66.1658 80.8399 67.52C80.6038 68.5685 82.04 70.5687 83.1805 70.7973C84.2787 71.0011 86.1497 69.7736 86.3783 68.7002C86.6392 67.4231 85.5981 65.5322 84.4427 65.2788L84.4427 65.2788ZM167.569 73.451C168.876 74.5517 172.325 73.7144 173.788 71.9651C174.529 71.0632 173.696 68.4145 172.337 67.3312C170.362 65.7534 168.337 65.9496 166.913 67.7287C165.437 69.5873 165.695 71.8682 167.569 73.451L167.569 73.451ZM64.4681 34.59C63.3102 34.4484 61.5237 36.5679 61.3423 38.3022C61.0739 40.8143 62.3262 42.4169 64.5898 42.6604C66.9503 42.9064 68.7368 41.4653 69.0623 39.0352C69.2934 37.3406 66.7316 34.8808 64.4681 34.59L64.4681 34.59ZM127.075 196.017C125.659 196.41 125.368 197.746 125.431 199.001C125.498 200.38 126.961 200.085 127.657 200.022C128.927 199.911 128.932 198.711 128.902 197.905C128.522 196.79 128.36 195.659 127.075 196.017L127.075 196.017ZM35.8566 89.9272C36.5026 89.9073 37.3126 89.6986 37.325 88.8016C37.33 88.1406 37.2182 87.2635 36.3759 87.2039C35.5634 87.1517 35.0515 87.7729 34.7956 88.7246C34.977 89.219 35.1186 89.952 35.8566 89.9272L35.8566 89.9272ZM103.011 153.521C102.271 153.374 101.572 153.938 101.391 155.223C101.125 156.428 101.786 156.975 102.526 157.156C103.334 157.37 104.092 156.756 104.246 155.742C104.407 154.657 103.833 153.68 103.011 153.521L103.011 153.521ZM40.1154 182.629C39.0693 182.503 38.8805 183.099 38.7065 184.021C38.7239 184.816 39.7476 184.841 40.5005 184.987C41.3527 185.151 41.7627 184.555 41.7602 183.991C41.7478 183.186 41.0769 182.754 40.1154 182.629L40.1154 182.629ZM103.056 173.903C101.336 173.165 99.1696 171.943 97.321 173.903C95.7879 175.528 97.5521 176.679 98.3596 177.854C99.1149 178.945 100.636 178.393 101.818 178.547C102.208 178.149 102.849 177.779 102.909 177.349C103.061 176.189 105.265 174.855 103.056 173.903L103.056 173.903ZM2.64336 165.487C1.19725 165.217 0.310208 166.255 0.0468281 167.609C-0.176796 168.735 0.407112 169.774 1.65692 170.01C2.70547 169.938 3.76893 169.806 3.91056 168.186C4.0174 166.958 4.04474 165.761 2.64336 165.487L2.64336 165.487ZM74.1808 172.855C72.9012 172.86 71.88 173.786 71.6265 175.081C71.3035 176.649 71.9098 177.901 73.6267 177.891C75.3238 178.94 75.5996 176.999 76.0767 175.995C76.5637 174.979 75.1772 172.855 74.1808 172.855L74.1808 172.855ZM35.5534 152.477C34.1719 152.162 32.2463 153.364 31.9506 154.719C31.7145 155.767 33.1507 157.772 34.2887 157.996C35.3869 158.2 37.2604 156.975 37.4865 155.899C37.7499 154.622 36.7063 152.728 35.5534 152.477L35.5534 152.477ZM47.0403 110.456C45.6886 111.368 44.9606 112.615 45.1643 114.25C45.3805 115.639 46.5533 115.721 47.6093 115.982C47.3186 116.372 47.3136 116.608 47.9372 116.521C48.0416 116.486 48.141 116.459 48.2404 116.424C48.6727 116.77 49.2069 117.214 49.7113 116.909C50.7947 116.265 51.8358 115.522 52.7501 114.769C53.2719 114.317 52.7079 113.567 52.5787 112.936C51.9898 110.165 49.7809 109.027 47.0403 110.456L47.0403 110.456ZM123.448 154.53C121.472 152.957 119.445 153.146 118.024 154.932C116.545 156.786 116.806 159.067 118.68 160.65C119.987 161.75 123.433 160.915 124.899 159.164C125.637 158.262 124.807 155.616 123.448 154.53L123.448 154.53ZM15.5788 121.786C14.4209 121.647 12.6344 123.771 12.4505 125.498C12.1822 128.013 13.4345 129.616 15.6981 129.862C18.061 130.105 19.845 128.664 20.173 126.236C20.4016 124.539 17.8424 122.077 15.5788 121.786L15.5788 121.786ZM455.56 280.358C454.141 280.756 453.85 282.085 453.915 283.347C453.982 284.724 455.443 284.428 456.141 284.366C457.409 284.259 457.413 283.057 457.386 282.249C457.004 281.134 456.844 280.003 455.56 280.358L455.56 280.358ZM364.341 174.271C364.987 174.251 365.797 174.045 365.807 173.145C365.814 172.487 365.7 171.602 364.858 171.55C364.048 171.495 363.536 172.112 363.28 173.068C363.459 173.563 363.603 174.296 364.341 174.271L364.341 174.271ZM431.008 241.495C431.818 241.709 432.576 241.097 432.73 240.084C432.889 239 432.315 238.026 431.493 237.86C430.755 237.716 430.057 238.282 429.875 239.574C429.607 240.772 430.27 241.321 431.008 241.495L431.008 241.495ZM368.597 266.973C367.551 266.846 367.362 267.443 367.188 268.365C367.206 269.162 368.23 269.187 368.982 269.331C369.835 269.493 370.247 268.899 370.242 268.337C370.232 267.532 369.559 267.1 368.597 266.973L368.597 266.973ZM431.391 261.693C431.545 260.533 433.747 259.193 431.538 258.247C429.821 257.509 427.652 256.286 425.803 258.242C424.27 259.869 426.034 261.022 426.844 262.197C427.597 263.288 429.118 262.732 430.303 262.891C430.69 262.493 431.331 262.125 431.391 261.693L431.391 261.693ZM331.128 249.829C329.682 249.56 328.792 250.599 328.529 251.953C328.305 253.079 328.892 254.117 330.139 254.351C331.19 254.281 332.253 254.152 332.393 252.529C332.499 251.297 332.529 250.104 331.128 249.829L331.128 249.829ZM402.665 257.198C401.383 257.203 400.362 258.13 400.108 259.427C399.785 260.995 400.392 262.247 402.111 262.237C403.808 263.286 404.084 261.343 404.559 260.334C405.046 259.325 403.662 257.198 402.665 257.198L402.665 257.198ZM364.035 236.821C362.656 236.506 360.728 237.711 360.435 239.062C360.197 240.111 361.633 242.111 362.773 242.34C363.869 242.543 365.742 241.321 365.971 240.243C366.234 238.965 365.191 237.075 364.035 236.821L364.035 236.821ZM375.522 194.8C374.171 195.711 373.445 196.954 373.646 198.594C373.862 199.988 375.038 200.07 376.094 200.328C375.801 200.711 375.796 200.954 376.422 200.87C376.524 200.832 376.623 200.798 376.725 200.768C377.157 201.108 377.689 201.56 378.193 201.255C379.279 200.614 380.32 199.866 381.232 199.113C381.754 198.663 381.192 197.91 381.061 197.279C380.474 194.504 378.263 193.373 375.522 194.8L375.522 194.8ZM451.93 238.873C449.954 237.298 447.929 237.492 446.508 239.271C445.03 241.132 445.288 243.411 447.162 244.993C448.469 246.097 451.917 245.262 453.381 243.51C454.121 242.605 453.291 239.957 451.93 238.873L451.93 238.873ZM348.655 210.582C348.886 208.883 346.324 206.423 344.061 206.132C342.903 205.991 341.116 208.115 340.935 209.845C340.667 212.357 341.916 213.959 344.182 214.203C346.545 214.449 348.329 213.008 348.655 210.582L348.655 210.582ZM325.935 250.333L326.31 250.552L325.977 250.303L325.935 250.333ZM349.42 249.508C347.037 250.171 346.548 252.415 346.652 254.53C346.767 256.845 349.227 256.353 350.399 256.252C352.534 256.063 352.539 254.045 352.491 252.686C351.85 250.813 351.58 248.904 349.42 249.508L349.42 249.508ZM196.024 71.1129C197.112 71.0731 198.471 70.7228 198.491 69.2146C198.504 68.1089 198.312 66.628 196.896 66.5261C195.529 66.4441 194.672 67.4778 194.24 69.0829C194.543 69.9128 194.781 71.1452 196.024 71.1129L196.024 71.1129ZM308.952 178.043C307.709 177.799 306.534 178.746 306.228 180.915C305.779 182.935 306.894 183.862 308.134 184.158C309.496 184.515 310.771 183.487 311.029 181.78C311.297 179.953 310.336 178.313 308.952 178.043L308.952 178.043ZM203.182 226.999C201.423 226.785 201.108 227.784 200.817 229.342C200.844 230.676 202.564 230.716 203.831 230.965C205.262 231.24 205.958 230.242 205.95 229.29C205.93 227.936 204.802 227.213 203.182 226.999L203.182 226.999ZM309.026 212.319C306.137 211.087 302.489 209.035 299.383 212.319C296.804 215.055 299.771 216.998 301.13 218.973C302.397 220.807 304.954 219.87 306.944 220.131C307.598 219.468 308.678 218.847 308.78 218.124C309.039 216.168 312.743 213.914 309.026 212.319L309.026 212.319ZM140.172 198.171C137.74 197.722 136.247 199.463 135.802 201.734C135.429 203.633 136.411 205.38 138.51 205.777C140.277 205.66 142.063 205.437 142.302 202.711C142.481 200.644 142.53 198.629 140.172 198.171L140.172 198.171ZM260.472 210.563C258.316 210.573 256.599 212.13 256.176 214.31C255.632 216.943 256.651 219.05 259.538 219.035C262.393 220.797 262.858 217.53 263.658 215.838C264.475 214.133 262.145 210.558 260.472 210.563L260.472 210.563ZM195.512 176.296C193.191 175.762 189.951 177.789 189.454 180.065C189.054 181.832 191.472 185.191 193.388 185.569C195.234 185.914 198.384 183.857 198.764 182.046C199.204 179.901 197.453 176.723 195.512 176.296L195.512 176.296ZM214.831 105.626C212.557 107.164 211.332 109.256 211.673 112.014C212.028 114.285 213.901 114.479 215.643 114.891C215.338 115.507 215.206 116.206 215.305 117.001C215.521 118.39 216.694 118.477 217.753 118.735C217.459 119.118 217.455 119.361 218.081 119.277C218.183 119.239 218.284 119.205 218.384 119.175C218.814 119.515 219.348 119.967 219.852 119.662C220.938 119.016 221.977 118.273 222.891 117.52C223.413 117.07 222.851 116.317 222.72 115.686C222.628 115.244 222.479 114.856 222.307 114.503C223.043 113.974 223.763 113.43 224.429 112.886C225.306 112.126 224.362 110.858 224.143 109.8C223.154 105.131 219.437 103.23 214.831 105.626L214.831 105.626ZM343.315 179.745C339.998 177.101 336.589 177.421 334.199 180.416C331.714 183.541 332.149 187.38 335.297 190.034C337.499 191.892 343.295 190.486 345.758 187.539C347.003 186.021 345.604 181.571 343.315 179.745L343.315 179.745ZM169.649 132.162C169.099 136.25 166.098 138.675 162.127 138.257C158.318 137.855 156.214 135.151 156.663 130.93C156.972 128.023 159.976 124.447 161.924 124.678C165.73 125.178 170.034 129.31 169.649 132.162L169.649 132.162Z" transform="translate(1.145836 0.9662408)" id="Fill-170" fill="none" stroke="none" />
      </g>
    </g>
    <path d="M0.0599272 6.2622C0.370517 3.35508 3.37205 -0.220429 5.32007 0.0106493C9.12665 0.512562 13.4302 4.64216 13.0475 7.49461C12.4984 11.582 9.49439 14.0071 5.52382 13.5896C1.71723 13.1871 -0.389806 10.4837 0.0599272 6.2622" transform="translate(144.9819 110.7197)" id="Fill-173" fill="#208A6E" stroke="none" />
    <path d="M10.7195 1.79792C13.0054 3.6217 14.4043 8.07183 13.1619 9.5875C10.6996 12.5319 4.90026 13.9407 2.70129 12.0871C-0.449336 9.43096 -0.881676 5.59208 1.60304 2.46879C3.99085 -0.527774 7.39988 -0.850787 10.7195 1.79792" transform="translate(327.269 192.1277)" id="Fill-175" fill="#208A6E" stroke="none" />
    <path d="M2.14674 1.03854C6.7534 -1.35921 10.4705 0.544085 11.4595 5.21287C11.6781 6.26887 12.6248 7.53607 11.7452 8.29888C10.2121 9.56112 8.46289 10.8134 6.63662 11.8943C5.78933 12.4136 4.89235 11.6557 4.16433 11.0743C3.97052 10.7588 3.85374 10.2593 3.57545 10.1425C1.70197 9.37476 0.501854 8.23428 0.134116 6.98447C-0.236107 5.73217 0.158963 4.29601 1.33423 2.82505C1.74421 2.31569 2.79276 2.01007 2.14674 1.03854" transform="translate(201.0628 90.64027)" id="Fill-177" fill="#20B89D" stroke="none" />
    <path d="M6.1016 0.0862959C8.04216 0.513667 9.79388 3.69162 9.35657 5.83593C8.97393 7.64729 5.8258 9.70463 3.97717 9.35926C2.06145 8.98158 -0.356173 5.62473 0.0438656 3.85809C0.540808 1.58209 3.78088 -0.447918 6.1016 0.0862959" transform="translate(177.7895 162.2613)" id="Fill-179" fill="#BECECB" stroke="none" />
    <path d="M3.50481 8.47289C0.615089 8.4878 -0.403644 6.38076 0.140509 3.74696C0.565395 1.56786 2.28233 0.00994405 4.43658 5.17473e-06C6.11128 -0.00496426 8.44194 3.57054 7.62447 5.27506C6.82439 6.96964 6.35726 10.2346 3.50481 8.47289" transform="translate(244.414 196.6146)" id="Fill-181" fill="#5F9E8C" stroke="none" />
    <path d="M2.7859 7.67685C0.686317 7.27929 -0.295146 5.53254 0.0775615 3.63421C0.519841 1.36318 2.01564 -0.378605 4.44569 0.0711288C6.80617 0.528317 6.75648 2.54342 6.57758 4.61071C6.33905 7.33644 4.55253 7.56007 2.7859 7.67685" transform="translate(124.1036 184.1524)" id="Fill-183" fill="#BECECB" stroke="none" />
    <path d="M8.58684 9.5884C6.59659 9.3275 4.03484 10.2618 2.76764 8.42804C1.40601 6.45269 -1.56074 4.51212 1.02088 1.77397C4.12678 -1.51083 7.77186 0.541549 10.6616 1.77397C14.3812 3.37164 10.674 5.62279 10.4156 7.57826C10.3137 8.31125 9.20057 8.94237 8.54709 9.62318L8.58684 9.5884Z" transform="translate(286.7428 196.5958)" id="Fill-185" fill="#BECECB" stroke="none" />
    <path d="M0 2.37179C0.290712 0.813877 0.608756 -0.184978 2.36545 0.028707C3.98549 0.242392 5.11603 0.965444 5.13342 2.31961C5.14088 3.26877 4.44764 4.27011 3.01645 3.99183C1.74924 3.74584 0.0298166 3.70608 0 2.37179" transform="translate(189.1955 213.0235)" id="Fill-187" fill="#208A6E" stroke="none" />
    <path d="M0.100837 2.90966C0.406456 0.740504 1.58172 -0.206173 2.82408 0.0373296C4.20558 0.308164 5.17213 1.94808 4.9013 3.77434C4.64289 5.48134 3.36823 6.51001 2.00909 6.15221C0.766739 5.85653 -0.346411 4.92725 0.100837 2.90966" transform="translate(294.507 164.0578)" id="Fill-189" fill="#D7E0DE" stroke="none" />
    <path d="M0 2.56132C0.432341 0.956193 1.28957 -0.0774484 2.65368 0.00454718C4.06997 0.106421 4.26378 1.58483 4.25136 2.69301C4.23396 4.20123 2.86985 4.55158 1.78403 4.58388C0.541669 4.62363 0.303136 3.39121 0 2.56132" transform="translate(182.6197 52.57453)" id="Fill-191" fill="#20B89D" stroke="none" />
    <path d="M3.21363 0C3.85965 0.971524 2.8111 1.27714 2.40112 1.78651C1.22585 3.25746 0.830782 4.69363 1.201 5.94592C1.56874 7.19574 2.76886 8.33622 4.64234 9.104C4.92063 9.22078 5.03741 9.72021 5.23122 10.0358C5.06474 10.0929 4.89578 10.1525 4.72433 10.2047C4.77651 9.7873 4.55786 9.50155 4.17273 9.29781C2.39367 8.8605 0.420803 8.72135 0.0555498 6.38572C-0.282372 3.63017 0.940109 1.53804 3.21363 0" transform="translate(199.9959 91.67882)" id="Fill-193" fill="#20B89D" stroke="none" />
    <path d="M5.85257 3.29095C5.89978 4.65009 5.89481 6.66768 3.75795 6.859C2.58765 6.96088 0.125304 7.45037 0.0134916 5.13461C-0.0933511 3.02012 0.398622 0.776417 2.78146 0.112998C4.94068 -0.488304 5.20903 1.41747 5.85257 3.29095" transform="translate(335.0197 235.447)" id="Fill-195" fill="#5F9E8C" stroke="none" />
    <path d="M1.12305 0.773843C1.50818 0.97759 1.72932 1.26333 1.67465 1.68077C0.623621 1.82736 0.631075 1.42484 1.12305 0.773843" transform="translate(203.0448 100.203)" id="Fill-197" fill="#20B89D" stroke="none" />
    <path d="M1.05352 1.14794L1.43119 1.36659L1.09576 1.11812L1.05352 1.14794Z" transform="translate(313.2596 235.2363)" id="Fill-199" fill="#BECECB" stroke="none" />
    <path d="M12.3765 3.98546C13.6934 6.5969 13.1045 11.2259 11.3404 12.0856C7.87421 13.7305 2.01774 12.59 0.795264 9.98357C-0.958944 6.25152 0.251112 2.58408 3.81171 0.782659C7.23564 -0.93428 10.4658 0.191297 12.3765 3.98546" transform="translate(481.592 228.8757)" id="Fill-201" fill="#208A6E" stroke="none" />
    <path d="M6.28388 13.0145C3.37179 12.7238 -0.213662 9.73967 0.0099629 7.78668C0.482059 3.97761 4.59178 -0.345794 7.44672 0.0219443C11.5341 0.546219 13.9766 3.53782 13.584 7.51585C13.1964 11.3249 10.5079 13.4419 6.28388 13.0145" transform="translate(304.3543 279.9457)" id="Fill-203" fill="#208A6E" stroke="none" />
    <path d="M12.0472 7.41339C9.47305 11.9256 5.31861 12.3381 1.95679 8.95143C1.20143 8.18117 -0.279455 7.63204 0.0460423 6.5164C0.654797 4.62305 1.44494 2.62285 2.38913 0.722043C2.82147 -0.172456 3.9868 -0.0208877 4.9136 0.0710468C5.24655 0.235038 5.61429 0.585383 5.91494 0.53072C7.90519 0.167951 9.5302 0.478541 10.5191 1.32831C11.5055 2.17809 11.9528 3.60432 11.7615 5.47779C11.6944 6.1263 10.9738 6.94875 12.0472 7.41339" transform="translate(446.7422 278.2286)" id="Fill-205" fill="#20B89D" stroke="none" />
    <path d="M6.00845 9.1327C4.14243 9.82593 0.949565 8.10402 0.15694 6.06158C-0.503995 4.33222 1.02908 0.898339 2.76589 0.18274C4.58222 -0.535343 8.43602 0.980335 9.0572 2.68237C9.87219 4.86146 8.24718 8.32765 6.00845 9.1327" transform="translate(430.7291 206.646)" id="Fill-207" fill="#BECECB" stroke="none" />
    <path d="M2.21712 0.706284C4.63723 -0.871512 6.63246 0.346 7.60398 2.85556C8.42891 4.91788 7.83009 7.16158 6.0237 8.3294C4.61736 9.24377 0.721324 7.4995 0.487761 5.62602C0.244259 3.77243 -1.13724 0.773371 2.21712 0.706284" transform="translate(357.5477 213.8398)" id="Fill-209" fill="#5F9E8C" stroke="none" />
    <path d="M2.03262 0.288238C4.01045 -0.511841 5.78205 0.424897 6.49765 2.21886C7.35487 4.36566 7.04429 6.64663 4.75587 7.58336C2.52211 8.47538 1.47356 6.75347 0.504522 4.91726C-0.77262 2.49715 0.611365 1.34673 2.03262 0.288238" transform="translate(466.6425 159.8269)" id="Fill-211" fill="#BECECB" stroke="none" />
    <path d="M0.53683 2.3696C2.35316 1.51486 3.99556 -0.659269 6.05539 0.195473C8.27176 1.1173 11.815 1.14215 11.1292 4.83941C10.3018 9.28456 6.12496 9.538 3.02403 10.0623C-0.963941 10.7356 0.929415 6.83463 0.0895802 5.05309C-0.223494 4.37973 0.370353 3.24919 0.551738 2.32487L0.53683 2.3696Z" transform="translate(318.7847 236.9411)" id="Fill-213" fill="#BECECB" stroke="none" />
    <path d="M4.59591 0.528975C5.19225 1.99496 5.47302 3.00872 3.87783 3.78147C2.39943 4.47968 1.06017 4.48465 0.309787 3.3541C-0.212003 2.55651 -0.169762 1.34396 1.18192 0.79484C2.38204 0.320258 3.84802 -0.576725 4.59591 0.528975" transform="translate(398.9401 173.5386)" id="Fill-215" fill="#208A6E" stroke="none" />
    <path d="M4.82201 1.88298C5.74135 3.87324 5.26429 5.3094 4.08902 5.77405C2.77958 6.29335 1.08004 5.43612 0.319718 3.75646C-0.390909 2.17866 0.123426 0.625719 1.46268 0.188409C2.66528 -0.233992 4.10393 -0.0575774 4.82201 1.88298" transform="translate(336.3549 270.0006)" id="Fill-217" fill="#D7E0DE" stroke="none" />
    <path d="M3.9454 0.994761C4.45477 2.57753 4.29326 3.91182 3.1006 4.58021C1.85824 5.26599 0.891691 4.13048 0.302814 3.18877C-0.502232 1.91162 0.454382 0.877979 1.34888 0.256799C2.37258 -0.446377 3.24223 0.460546 3.9454 0.994761" transform="translate(491.9485 304.2044)" id="Fill-219" fill="#20B89D" stroke="none" />
    <path d="M7.13363 8.09198C6.06023 7.62734 6.7808 6.8049 6.84789 6.15638C7.03921 4.28291 6.59196 2.85668 5.60553 2.00691C4.61661 1.15713 2.9916 0.846543 1.00134 1.20931C0.700691 1.26398 0.332953 0.913631 0 0.749639C0.111812 0.61298 0.22114 0.473836 0.332953 0.332207C0.514337 0.714853 0.854744 0.831635 1.28957 0.796849C3.02142 0.200517 4.75576 -0.75113 6.3261 1.0155C8.10516 3.14739 8.20952 5.56751 7.13363 8.09198" transform="translate(451.6558 277.55)" id="Fill-221" fill="#20B89D" stroke="none" />
    <path d="M1.0671 5.56035C0.291868 4.44472 -0.79892 2.74517 0.895653 1.43075C1.82493 0.707701 3.62635 -1.03906 4.97555 0.84933C6.20796 2.56627 7.01549 4.72052 5.36813 6.56915C3.87979 8.24385 2.62004 6.7878 1.0671 5.56035" transform="translate(262.3387 231.0666)" id="Fill-223" fill="#5F9E8C" stroke="none" />
    <path d="M1.71594 1.65684C1.28111 1.69162 0.940705 1.57484 0.759321 1.1922C1.56437 0.501446 1.77557 0.846821 1.71594 1.65684" transform="translate(451.2307 276.691)" id="Fill-225" fill="#20B89D" stroke="none" />
    <path d="M1.45977 1.21751L1.02494 1.24236L1.43989 1.2672L1.45977 1.21751Z" transform="translate(285.5421 222.9956)" id="Fill-227" fill="#BECECB" stroke="none" />
    <path d="M0.0341351 3.55901C0.21055 1.90916 1.91755 -0.123344 3.02573 0.00586173C5.18991 0.28912 7.63735 2.64215 7.41621 4.26218C7.10563 6.58291 5.39614 7.96441 3.14003 7.72837C0.975841 7.49977 -0.22179 5.96173 0.0341351 3.55901" transform="translate(368.9731 188.804)" id="Fill-229" fill="#208A6E" stroke="none" />
    <path d="M6.09455 1.0205C7.39406 2.05911 8.18917 4.58855 7.48102 5.45075C6.08213 7.12545 2.78492 7.92552 1.53511 6.86952C-0.253888 5.35881 -0.502359 3.17475 0.911443 1.39818C2.2681 -0.298882 4.20617 -0.482751 6.09455 1.0205" transform="translate(469.0264 219.0968)" id="Fill-231" fill="#208A6E" stroke="none" />
    <path d="M1.21977 0.590792C3.84114 -0.773318 5.95067 0.310019 6.5147 2.9637C6.63894 3.565 7.17563 4.28308 6.67621 4.71542C5.80407 5.43351 4.81018 6.14662 3.77406 6.76283C3.28954 7.05603 2.78017 6.62866 2.36771 6.29819C2.25838 6.11929 2.19129 5.83106 2.03227 5.76894C0.966325 5.33163 0.285512 4.68064 0.0767957 3.97249C-0.134405 3.25938 0.0892193 2.44439 0.757608 1.60456C0.988687 1.31384 1.5875 1.14488 1.21977 0.590792" transform="translate(400.8555 177.3882)" id="Fill-233" fill="#20B89D" stroke="none" />
    <path d="M3.46848 0.0495859C4.57169 0.293088 5.56806 2.09699 5.31959 3.31947C5.10093 4.34815 3.31194 5.51845 2.26091 5.31967C1.17261 5.10599 -0.201435 3.19524 0.0246731 2.18893C0.30793 0.89936 2.1491 -0.256034 3.46848 0.0495859" transform="translate(387.6246 218.107)" id="Fill-235" fill="#BECECB" stroke="none" />
    <path d="M1.99118 4.81289C0.348782 4.82283 -0.230158 3.62768 0.080432 2.1294C0.32145 0.887042 1.29794 0.00248471 2.52291 0C3.47456 0 4.79891 2.02753 4.33427 2.99905C3.87957 3.95815 3.6137 5.81671 1.99118 4.81289" transform="translate(425.5003 237.6375)" id="Fill-237" fill="#5F9E8C" stroke="none" />
    <path d="M1.58273 4.36444C0.390067 4.14082 -0.168993 3.14693 0.0446922 2.06856C0.295648 0.778992 1.14542 -0.21738 2.52692 0.0410303C3.86866 0.301926 3.83885 1.44738 3.73946 2.62265C3.6028 4.1756 2.58655 4.29735 1.58273 4.36444" transform="translate(357.1047 230.5493)" id="Fill-239" fill="#BECECB" stroke="none" />
    <path d="M4.88187 5.45311C3.74883 5.30155 2.29527 5.83576 1.57222 4.79218C0.799473 3.6666 -0.887651 2.56588 0.580818 1.00796C2.34497 -0.860545 4.41971 0.309756 6.06211 1.01293C8.1766 1.91985 6.06956 3.19699 5.92296 4.31263C5.86333 4.72509 5.22973 5.08538 4.8595 5.47299L4.88187 5.45311Z" transform="translate(449.5643 237.6234)" id="Fill-241" fill="#BECECB" stroke="none" />
    <path d="M0 1.44166C0.163991 0.55959 0.345376 -0.0143781 1.34423 0.112342C2.26606 0.229124 2.90712 0.641586 2.91954 1.41185C2.92203 1.95103 2.52944 2.52003 1.71446 2.36349C0.991403 2.22186 0.0149083 2.1995 0 1.44166" transform="translate(394.1093 246.8712)" id="Fill-243" fill="#208A6E" stroke="none" />
    <path d="M0.0579366 1.65206C0.231866 0.419639 0.900251 -0.119546 1.60591 0.0220833C2.39107 0.171166 2.94019 1.10791 2.78614 2.14155C2.63954 3.11308 1.91649 3.69947 1.14127 3.49075C0.435612 3.32676 -0.197988 2.80249 0.0579366 1.65206" transform="translate(453.9782 219.1299)" id="Fill-245" fill="#D7E0DE" stroke="none" />
    <path d="M0.0333768 1.45399C0.279363 0.542103 0.766366 -0.046775 1.54408 0.00291931C2.34664 0.0575831 2.45845 0.899903 2.451 1.52605C2.43858 2.39073 1.66583 2.58454 1.04714 2.60939C0.341481 2.62927 0.204822 1.92858 0.0333768 1.45399" transform="translate(390.3366 155.7493)" id="Fill-247" fill="#20B89D" stroke="none" />
    <path d="M1.82612 0C2.19386 0.554091 1.59504 0.723052 1.36396 1.01376C0.695564 1.8536 0.471938 2.66858 0.68314 3.3817C0.891857 4.08984 1.57267 4.74083 2.63862 5.17814C2.79764 5.24026 2.86473 5.52849 2.97406 5.70739C2.87964 5.7372 2.78274 5.76951 2.68583 5.80429C2.71316 5.56576 2.59141 5.40177 2.37276 5.28499C1.36147 5.03651 0.238374 4.95949 0.0321413 3.63017C-0.161668 2.06728 0.531572 0.879589 1.82612 0" transform="translate(400.2492 177.979)" id="Fill-249" fill="#20B89D" stroke="none" />
    <path d="M3.32704 1.86943C3.35437 2.64466 3.35188 3.79011 2.13686 3.89696C1.47095 3.95659 0.0720502 4.23736 0.0074474 2.91798C-0.052186 1.71786 0.226103 0.443202 1.58028 0.06304C2.81022 -0.274881 2.96178 0.80597 3.32704 1.86943" transform="translate(477.0096 259.7115)" id="Fill-251" fill="#5F9E8C" stroke="none" />
    <path d="M1.17546 0.974502C1.39411 1.09128 1.51835 1.25527 1.48853 1.49381C0.889714 1.5758 0.894683 1.34224 1.17546 0.974502" transform="translate(401.446 182.2892)" id="Fill-253" fill="#20B89D" stroke="none" />
    <path d="M1.13551 1.19142L1.3492 1.31317L1.16036 1.17154L1.13551 1.19142Z" transform="translate(464.1025 259.055)" id="Fill-255" fill="#BECECB" stroke="none" />
    <path d="M7.03589 2.26605C7.78379 3.75191 7.45084 6.38074 6.44701 6.87272C4.47664 7.80697 1.14464 7.15846 0.451409 5.67757C-0.54496 3.55313 0.143305 1.47094 2.16834 0.447232C4.11139 -0.534233 5.95007 0.111794 7.03589 2.26605" transform="translate(560.3361 255.976)" id="Fill-257" fill="#208A6E" stroke="none" />
    <path d="M3.57368 7.39949C1.91637 7.23549 -0.12109 5.53595 0.00563048 4.43025C0.276464 2.26606 2.61458 -0.196302 4.23461 0.0124149C6.5603 0.313066 7.94677 2.01261 7.72315 4.27371C7.50201 6.4379 5.97391 7.64299 3.57368 7.39949" transform="translate(459.5749 285.0074)" id="Fill-259" fill="#208A6E" stroke="none" />
    <path d="M6.84705 4.21483C5.38603 6.77657 3.02307 7.01511 1.11233 5.08945C0.682472 4.65214 -0.159846 4.33658 0.026508 3.7005C0.371883 2.6271 0.821616 1.49159 1.35831 0.410737C1.60182 -0.0986288 2.26523 -0.0116639 2.79199 0.0405151C2.98083 0.132449 3.19203 0.333711 3.36099 0.303895C4.49402 0.0951788 5.41834 0.269109 5.97988 0.753628C6.54143 1.23566 6.79487 2.04568 6.68554 3.11411C6.64578 3.48184 6.23829 3.95394 6.84705 4.21483" transform="translate(540.5247 284.0331)" id="Fill-261" fill="#20B89D" stroke="none" />
    <path d="M3.41598 5.19174C2.35749 5.58432 0.541173 4.60534 0.088956 3.44498C-0.286235 2.46352 0.585897 0.508044 1.57233 0.105519C2.60596 -0.306944 4.79499 0.557738 5.1503 1.52181C5.61246 2.76417 4.69063 4.72958 3.41598 5.19174" transform="translate(531.4194 243.3395)" id="Fill-263" fill="#BECECB" stroke="none" />
    <path d="M1.25976 0.399098C2.63629 -0.492916 3.76933 0.195351 4.32094 1.62158C4.79303 2.79685 4.45014 4.06903 3.42395 4.73742C2.62387 5.25672 0.409981 4.2678 0.275806 3.19938C0.139146 2.14089 -0.646027 0.438853 1.25976 0.399098" transform="translate(489.8178 247.4285)" id="Fill-265" fill="#5F9E8C" stroke="none" />
    <path d="M1.15642 0.165646C2.282 -0.291542 3.28831 0.237703 3.69332 1.26141C4.18033 2.48637 4.00391 3.78091 2.7044 4.31512C1.43471 4.81952 0.840856 3.84054 0.286762 2.80193C-0.438778 1.42291 0.346396 0.766947 1.15642 0.165646" transform="translate(551.8363 216.7195)" id="Fill-267" fill="#BECECB" stroke="none" />
    <path d="M0.305083 1.35249C1.33872 0.867973 2.27297 -0.374386 3.44327 0.110134C4.70302 0.639379 6.71564 0.654287 6.32554 2.75387C5.85593 5.28332 3.48054 5.42494 1.71888 5.72559C-0.549658 6.10327 0.528707 3.8869 0.0491576 2.87562C-0.124772 2.49298 0.210664 1.84695 0.315022 1.32268L0.305083 1.35249Z" transform="translate(467.7802 260.5585)" id="Fill-269" fill="#BECECB" stroke="none" />
    <path d="M2.61268 0.329393C2.95309 1.16426 3.10963 1.74071 2.20519 2.17802C1.36535 2.57557 0.602543 2.58054 0.17517 1.93949C-0.120512 1.48975 -0.0956644 0.794034 0.672115 0.483446C1.35541 0.217581 2.19028 -0.296754 2.61268 0.329393" transform="translate(513.3483 224.4855)" id="Fill-271" fill="#208A6E" stroke="none" />
    <path d="M2.74154 1.069C3.26333 2.20452 2.99498 3.01455 2.32659 3.2829C1.58118 3.57858 0.614628 3.0866 0.182288 2.13744C-0.22272 1.23797 0.0704758 0.355888 0.830798 0.107416C1.51658 -0.133603 2.33156 -0.0317288 2.74154 1.069" transform="translate(477.7685 279.3558)" id="Fill-273" fill="#D7E0DE" stroke="none" />
    <g id="Group-277" transform="translate(564.0306 298.5436)">
      <path d="M0.0220666 0L2.46265 0L2.46265 2.72374L0.0220666 2.72374L0.0220666 0Z" transform="translate(2.126621 0.2579418)" id="Clip-276" fill="none" stroke="none" />
      <g clip-path="url(#mask_3)">
        <path d="M2.28728 0.564499C2.5755 1.46148 2.48357 2.22429 1.80773 2.60694C1.09958 2.99207 0.550459 2.34604 0.215023 1.81183C-0.242165 1.08877 0.301988 0.497412 0.811355 0.147067C1.39278 -0.255457 1.88724 0.263849 2.28728 0.564499" transform="translate(2.148688 0.2579418)" id="Fill-275" fill="#20B89D" stroke="none" />
      </g>
    </g>
    <path d="M4.05508 4.59967C3.44632 4.33878 3.85382 3.86668 3.89357 3.49894C4.0029 2.43052 3.74946 1.6205 3.18791 1.13847C2.62636 0.65395 1.70204 0.480021 0.569003 0.688736C0.400041 0.718553 0.188839 0.517291 0 0.425357C0.064603 0.348331 0.126721 0.266336 0.188839 0.18931C0.293198 0.407964 0.487007 0.475051 0.73548 0.450204C1.71943 0.114768 2.70339 -0.426899 3.59789 0.576924C4.60917 1.78449 4.66881 3.16848 4.05508 4.59967" transform="translate(543.3167 283.6483)" id="Fill-278" fill="#20B89D" stroke="none" />
    <path d="M0.607011 3.16038C0.164731 2.52926 -0.453964 1.55773 0.510107 0.817283C1.03687 0.404819 2.06057 -0.591556 2.82835 0.481845C3.52904 1.46083 3.98623 2.6858 3.05198 3.73186C2.20717 4.68351 1.49157 3.85859 0.607011 3.16038" transform="translate(435.6903 257.2217)" id="Fill-280" fill="#5F9E8C" stroke="none" />
    <path d="M1.51163 1.47578C1.26315 1.50062 1.06934 1.43105 0.967468 1.21488C1.42714 0.824784 1.54641 1.01362 1.51163 1.47578" transform="translate(542.5396 282.6229)" id="Fill-282" fill="#20B89D" stroke="none" />
    <path d="M1.36535 1.22993L1.11936 1.24484L1.35541 1.25478L1.36535 1.22993Z" transform="translate(448.3454 252.0961)" id="Fill-284" fill="#BECECB" stroke="none" />
    <path d="M0.0537497 5.5904C0.329553 2.99387 3.01305 -0.198993 4.75483 0.00972359C8.15889 0.447034 12.0052 4.14429 11.6599 6.6961C11.1679 10.3461 8.48688 12.5153 4.93622 12.1476C1.53216 11.7773 -0.348774 9.36717 0.0537497 5.5904" transform="translate(18.66436 54.46147)" id="Fill-286" fill="#208A6E" stroke="none" />
    <path d="M9.58292 1.607C11.6278 3.23697 12.8776 7.21749 11.7645 8.57166C9.56304 11.2055 4.38241 12.4627 2.417 10.8029C-0.400669 8.43003 -0.788285 4.99864 1.43057 2.20333C3.56991 -0.470222 6.61368 -0.760933 9.58292 1.607" transform="translate(175.9764 102.0827)" id="Fill-288" fill="#208A6E" stroke="none" />
    <path d="M1.91827 0.928813C6.03793 -1.2155 9.35999 0.486533 10.2446 4.66086C10.4408 5.60256 11.2856 6.73808 10.498 7.41641C9.12643 8.54198 7.56354 9.66508 5.93108 10.6291C5.17573 11.0963 4.37317 10.4155 3.72466 9.90112C3.54824 9.61538 3.44637 9.1731 3.19293 9.06626C1.52071 8.38296 0.449799 7.35926 0.119331 6.23865C-0.211136 5.12053 0.144178 3.83593 1.19273 2.52649C1.55798 2.06433 2.49472 1.79846 1.91827 0.928813" transform="translate(68.79204 36.50841)" id="Fill-290" fill="#20B89D" stroke="none" />
    <path d="M5.45348 0.0764604C7.1903 0.459107 8.75815 3.29914 8.36308 5.21982C8.02268 6.83737 5.20501 8.67606 3.55516 8.37044C1.8407 8.03004 -0.318516 5.02601 0.0392828 3.44822C0.484047 1.41075 3.38123 -0.39812 5.45348 0.0764604" transform="translate(47.98879 100.527)" id="Fill-292" fill="#BECECB" stroke="none" />
    <path d="M3.13227 7.5759C0.550651 7.58583 -0.361241 5.70739 0.125764 3.3494C0.503441 1.39889 2.04148 0.00993886 3.96465 0C5.46294 0 7.54513 3.19286 6.81214 4.7135C6.09654 6.2267 5.68159 9.14872 3.13227 7.5759" transform="translate(107.5422 131.2348)" id="Fill-294" fill="#5F9E8C" stroke="none" />
    <g id="Group-298" transform="translate(0 119.6441)">
      <path d="M0 0L5.94789 0L5.94789 6.85827L0 6.85827L0 0Z" transform="translate(0 0.4525117)" id="Clip-297" fill="none" stroke="none" />
      <g clip-path="url(#mask_4)">
        <path d="M2.49174 6.85827C0.615777 6.50295 -0.263813 4.94255 0.069139 3.24798C0.469178 1.21796 1.80347 -0.342439 3.9776 0.0650547C6.08464 0.472548 6.0424 2.27148 5.88089 4.12011C5.6672 6.56259 4.07202 6.7564 2.49174 6.85827" transform="translate(-0.0008092852 0.4525117)" id="Fill-296" fill="#BECECB" stroke="none" />
      </g>
    </g>
    <path d="M7.67389 8.56784C5.89483 8.33428 3.6064 9.17411 2.47089 7.52923C1.25586 5.76259 -1.39285 4.03075 0.910485 1.58827C3.6884 -1.35115 6.94835 0.482572 9.52997 1.58827C12.852 3.01698 9.53742 5.0296 9.31131 6.77139C9.2169 7.43232 8.22301 7.99636 7.64158 8.59766L7.67389 8.56784Z" transform="translate(145.3779 131.2183)" id="Fill-299" fill="#BECECB" stroke="none" />
    <path d="M0 2.12325C0.258411 0.734291 0.544153 -0.167661 2.11449 0.0261466C3.56308 0.214985 4.57188 0.861012 4.58927 2.07355C4.59424 2.9283 3.97555 3.81783 2.69592 3.57432C1.56289 3.3507 0.0248472 3.31591 0 2.12325" transform="translate(58.18361 145.8983)" id="Fill-301" fill="#208A6E" stroke="none" />
    <path d="M0.0901492 2.60163C0.363468 0.66107 1.4145 -0.188703 2.52517 0.0349217C3.76256 0.273455 4.62476 1.73695 4.38374 3.36941C4.15267 4.89751 3.01218 5.81437 1.79715 5.49384C0.686482 5.23295 -0.309891 4.40802 0.0901492 2.60163" transform="translate(152.3161 102.1364)" id="Fill-303" fill="#D7E0DE" stroke="none" />
    <g id="Group-307" transform="translate(52.17904 0.3776768)">
      <path d="M0 0L3.79973 0L3.79973 4.09946L0 4.09946L0 0Z" transform="translate(0.1264721 2.107039)" id="Clip-306" fill="none" stroke="none" />
      <g clip-path="url(#mask_5)">
        <path d="M0 2.28817C0.387616 0.856978 1.15291 -0.0747907 2.3729 0.00472018C3.64011 0.0892005 3.81155 1.41355 3.79913 2.40496C3.78174 3.75913 2.56671 4.06972 1.59519 4.09953C0.48452 4.1368 0.273319 3.0311 0 2.28817" transform="translate(0.1264721 2.106046)" id="Fill-305" fill="#20B89D" stroke="none" />
      </g>
    </g>
    <path d="M2.87259 0C3.44904 0.869651 2.51231 1.13552 2.14705 1.59767C1.0985 2.90712 0.74319 4.19172 1.07366 5.30984C1.40412 6.43045 2.47504 7.45415 4.14725 8.13745C4.40069 8.24429 4.50256 8.68657 4.67898 8.97231C4.52741 9.02201 4.37584 9.06921 4.22179 9.12388C4.27148 8.74869 4.07271 8.49276 3.72982 8.30889C2.14208 7.92128 0.377937 7.79456 0.0499546 5.70739C-0.253181 3.24752 0.840094 1.37902 2.87259 0" transform="translate(67.83771 37.43722)" id="Fill-308" fill="#20B89D" stroke="none" />
    <path d="M5.22977 2.94558C5.27201 4.15812 5.26704 5.96451 3.35878 6.1285C2.31023 6.22043 0.11125 6.66271 0.0118617 4.59046C-0.0825576 2.70208 0.354753 0.699399 2.48416 0.100583C4.41478 -0.436115 4.65828 1.27088 5.22977 2.94558" transform="translate(188.5311 165.9438)" id="Fill-310" fill="#5F9E8C" stroke="none" />
    <path d="M1.13629 0.82219C1.48167 1.00606 1.67796 1.26447 1.62827 1.63718C0.689042 1.7639 0.696496 1.40361 1.13629 0.82219" transform="translate(70.43049 44.92317)" id="Fill-312" fill="#20B89D" stroke="none" />
    <path d="M1.0734 1.15788L1.41132 1.35168L1.11067 1.13303L1.0734 1.15788Z" transform="translate(168.948 165.6252)" id="Fill-314" fill="#BECECB" stroke="none" />
  </g>
</svg>