<?xml version="1.0" encoding="utf-8"?>
<svg width="52px" height="61px" viewBox="0 0 52 61" version="1.1" xmlns:xlink="http://www.w3.org/1999/xlink" xmlns="http://www.w3.org/2000/svg">
  <desc>Created with Lunacy</desc>
  <defs>
    <path d="M0 0L11.881 0L11.881 12.1479L0 12.1479L0 0Z" transform="translate(0 0.04499541)" id="path_1" />
    <path d="M0 0L14.4643 0L14.4643 15.5417L0 15.5417L0 0Z" transform="translate(0.7209063 0.7082804)" id="path_2" />
    <path d="M0 0L5.32513 0L5.32513 3.6062L0 3.6062L0 0Z" transform="translate(1.4976 0.90675)" id="path_3" />
    <clipPath id="mask_1">
      <use xlink:href="#path_1" />
    </clipPath>
    <clipPath id="mask_2">
      <use xlink:href="#path_2" />
    </clipPath>
    <clipPath id="mask_3">
      <use xlink:href="#path_3" />
    </clipPath>
  </defs>
  <g id="Group-214">
    <path d="M1.38937 5.83625C1.99387 6.83562 2.07025 7.96012 2.15312 9.083C1.83787 9.7265 2.36925 10.2627 2.37737 10.8656C2.78525 14.0555 3.68062 17.0942 5.2 19.9396C5.64362 20.042 6.09862 19.8649 6.55362 20.0713C9.37463 21.355 10.4796 20.9975 12.2492 18.2155C12.6766 18.7388 12.7303 19.4245 13.1056 19.9315C13.2178 20.0794 13.3624 20.1899 13.5346 20.2663C15.2896 19.9315 15.5269 19.5951 14.6055 18.2496C14.027 17.4046 14.3244 16.9513 14.9078 16.4231C15.4294 15.557 16.2272 14.7543 15.5577 13.6167C15.5252 13.1926 14.599 13.6379 14.8785 12.9034C14.8931 12.7392 14.8704 12.5881 14.8103 12.4386C13.9896 11.5497 13.3916 11.7561 13.1446 12.8627C13.0504 13.2901 12.9903 13.5696 12.5385 13.6038C12.5125 13.5924 12.4605 13.6281 12.4199 13.5875C12.5434 13.6086 12.6652 13.5972 12.7969 13.5485C13.2145 13.0155 12.9724 12.0811 13.8694 11.8553C13.9994 11.8211 14.0936 11.696 14.1115 11.566C14.222 10.7632 13.5281 11.0769 13.1836 10.903C13.4696 10.669 14.0351 10.8867 14.1115 10.3147C14.1749 9.83537 13.9978 9.40962 13.8483 8.97737C13.5801 8.199 13.1284 7.5815 12.3256 7.27762C11.1556 7.042 11.323 6.13362 11.2564 5.27725C11.1182 3.506 10.5056 3.05912 8.99925 3.50112C8.46462 3.88625 7.969 4.3055 7.7025 4.93762C7.37425 5.71925 6.66737 6.13687 5.97837 6.47812C4.67675 7.1265 3.84312 6.652 3.54088 5.24637C3.31988 4.2145 3.05988 3.324 4.72062 3.29475C5.71025 3.27687 6.916 2.99575 6.65763 1.439C6.26438 0.769499 5.66962 0.418499 4.90425 0.420124C3.6855 0.421749 2.48463 0.543624 1.287 0.0658738C0.697125 -0.169751 0.180375 0.252749 0 0.918999L0.232375 1.26512C0.3575 1.29275 0.518375 1.322 0.567125 1.42275C0.638625 1.56575 0.537875 1.64862 0.36725 1.61937C0.312 2.69187 1.35362 3.50762 1.06925 4.63375C0.775125 5.14075 1.36337 5.41375 1.38937 5.83625" transform="translate(3.76285 16.31591)" id="Fill-1" fill="#D3D790" stroke="none" />
    <path d="M9.51437 0C8.09575 0.355875 7.77075 1.06438 8.93425 2.0865C10.4422 3.41412 9.3015 3.54738 8.23712 3.75213C8.2225 3.79925 8.20787 3.848 8.19487 3.89512C8.29075 3.64975 8.1445 3.99913 8.23712 3.75213C8.04375 3.06962 7.8195 2.39525 7.66837 1.703C7.60175 1.40075 7.7415 0.936 7.31087 0.944125C6.89162 0.953875 6.45287 1.1765 6.41225 1.7355C6.3115 3.055 5.12037 3.37675 4.28187 3.98938C3.328 4.6865 2.4635 4.29488 1.83788 3.46125C1.0855 2.46025 0.56225 2.9835 0 3.61238L0.479375 6.2335C0.2145 7.163 0.752375 7.84875 1.18462 8.567C1.677 9.373 2.431 10.0198 2.64225 10.9931C3.01762 11.3539 3.39137 11.7146 3.76675 12.077C4.57437 13.5281 5.07812 15.2701 7.09962 15.561C7.86987 16.1476 8.64175 16.7326 9.41362 17.3193C9.7825 18.1399 10.5284 18.0147 11.2157 18.0359C11.5781 18.2569 11.9405 18.4779 12.3045 18.6989C12.4507 19.0369 12.6718 19.2319 13.0666 19.1051C13.6337 19.2579 14.1391 19.5195 14.5372 19.9631C14.9256 20.111 15.1352 20.7821 15.7186 20.3743C15.5074 19.4496 16.2809 19.2026 16.7732 19.3586C18.8923 20.0314 18.8207 18.3983 19.2075 17.212C19.2465 17.0219 19.2075 16.848 19.1019 16.6855C18.4356 16.1671 17.6637 16.328 16.8724 16.3556C17.7726 16.0371 18.031 15.5204 17.8994 14.5486C17.6751 12.8976 17.2916 11.4043 15.6991 10.5885C15.1157 10.2911 15.158 10.1563 15.2929 9.49813C15.5431 8.26475 14.2951 7.65213 13.6045 6.89162C14.5909 7.51563 15.1287 7.21175 15.1986 6.00763C14.768 5.48762 14.9045 5.083 15.4586 4.76288C15.5659 4.5955 15.5967 4.41838 15.5447 4.225C15.2181 3.58963 14.6868 3.17037 14.0855 2.81612C13.4534 2.59188 12.9334 2.87625 12.4166 3.18012C11.9567 3.46938 11.5115 3.79275 10.9899 3.95687C10.8209 3.94712 10.465 4.3355 10.543 3.77325C10.621 3.21425 10.9688 2.85025 11.5278 2.70888C12.1355 2.38875 12.6441 1.96463 12.4248 1.2025C12.246 0.5785 11.6301 0.63375 11.1296 0.586625C10.5365 0.52975 10.114 0.024375 9.51437 0" transform="translate(8.963175 32.64251)" id="Fill-3" fill="#C8D084" stroke="none" />
    <path d="M21.6842 13.5726C21.6517 13.1144 21.6225 12.6577 21.5916 12.1979C21.7395 11.4455 21.2341 10.802 21.239 10.0724C21.0586 9.56374 20.8798 9.05674 20.7027 8.54812C20.2705 7.71287 20.2396 6.8175 20.2965 5.9075L20.2818 5.88637C20.1291 5.03487 19.7667 4.40275 18.7641 4.44662C18.5723 4.47425 18.392 4.53762 18.2213 4.63512C17.6575 6.22925 16.143 6.66637 14.8381 7.30662C13.7737 7.82987 12.984 8.26537 14.3701 9.29399C14.999 9.75875 14.973 10.4266 14.4741 10.7825C13.8647 11.2164 13.6405 10.451 13.361 10.0642C12.9043 9.42887 12.7353 8.63099 12.2462 8.01025C11.1071 7.14575 9.67709 6.67287 8.8061 5.44762C8.33159 4.78137 7.70597 4.89837 7.06247 5.12587C6.97959 5.173 6.89997 5.22175 6.82034 5.26887C6.68059 5.4005 6.59772 5.56137 6.56684 5.74987C6.65459 6.38687 6.83334 7.00112 6.39947 7.62837C6.00459 8.19549 6.53597 8.39212 7.16484 8.62287C6.34747 8.49937 6.0371 8.17924 6.02247 7.54712C6.00297 6.59325 5.62759 5.80512 4.93372 5.121C3.75722 3.95912 5.27659 4.40925 5.56259 4.12C6.66434 2.027 6.39297 1.4745 3.67597 0.267121C3.29572 -0.0643791 2.85859 -0.0302541 2.41009 0.0672459C2.14197 0.158246 1.91122 0.309371 1.70972 0.504371C1.34897 0.887871 1.01909 1.30387 0.60797 1.63212C-0.310155 2.36662 -0.144405 2.56812 0.80947 3.39362C2.22159 4.614 3.72959 6.14962 4.31947 7.89812C5.04585 10.048 6.15247 11.9736 7.04784 14.013C7.31434 14.6224 7.38259 15.2772 7.68484 15.8606C8.16259 16.5204 8.9361 16.8129 9.52759 17.3377C10.592 18.2884 11.6368 19.7005 12.8718 17.4401C12.9823 17.2386 13.8745 17.4482 14.2255 16.9347C14.4741 15.4982 15.4296 16.0654 16.0812 16.4099C17.105 16.9494 17.9938 17.0631 18.8827 16.2344C19.783 15.2074 19.3215 13.857 19.7293 12.5635C20.4557 12.8072 20.5662 14.3412 21.6842 13.5726" transform="translate(27.84139 25.22783)" id="Fill-5" fill="#B1CF8C" stroke="none" />
    <path d="M9.08017 2.15679C7.92642 1.19479 6.58417 0.58054 5.19804 0.04429C5.02742 -0.01421 4.85354 -0.01421 4.68129 0.04104C3.64617 0.35629 2.47292 -0.00933504 1.51904 0.738165C0.64804 1.42066 -0.31721 2.02354 0.100415 3.38529C0.851165 3.95891 -0.77546 5.08829 0.60254 5.53192C1.28179 5.74966 2.08292 6.35742 2.62242 5.73666C3.19929 5.07367 4.10279 4.72266 4.59192 3.58517C4.31729 4.66904 4.17917 5.50754 5.31342 5.76754C5.38492 5.78379 5.39954 5.82766 5.30692 5.92029C4.93479 6.29404 4.84379 6.69867 5.12492 7.16341C7.48929 7.40717 9.96417 7.18454 11.9873 8.82254C14.0348 10.5028 16.2903 11.1284 18.8578 10.1599C19.0057 10.0218 19.0983 9.85279 19.1438 9.65617C19.1308 9.44816 19.0674 9.25966 18.9602 9.08254C18.0989 8.72342 17.8145 7.67204 16.9045 7.37141C15.0537 5.54491 13.0517 3.93779 10.5882 2.99691C10.0552 2.76941 9.65866 2.29817 9.08017 2.15679" transform="translate(19.26958 4.097672)" id="Fill-7" fill="#D5DFB3" stroke="none" />
    <g id="Group-11" transform="translate(0 3.969063)">
      <path d="M0 0L11.881 0L11.881 12.1479L0 12.1479L0 0Z" transform="translate(0 0.04499541)" id="Clip-10" fill="none" stroke="none" />
      <g clip-path="url(#mask_1)">
        <path d="M5.26999 0.255142C4.99699 0.266517 4.72236 0.279517 4.44774 0.289267C2.84386 0.313642 2.16949 1.91427 0.84674 2.41314C0.51199 2.59352 0.279615 2.83889 0.299115 3.25164C0.22599 3.59127 0.15124 3.93089 0.0748648 4.27214C-0.0990102 4.73689 0.0439898 5.12852 0.35924 5.47789C1.17174 6.20752 1.75836 7.08989 2.12074 8.12014C2.56111 9.42014 3.00311 10.7201 3.44511 12.0201C6.00287 12.3175 6.05161 12.2866 6.11012 9.77114C6.11986 9.29339 6.19949 8.86114 6.47574 8.48414C6.75849 8.10064 6.67399 7.62289 6.85436 7.17114C7.26549 7.62289 6.97462 8.60439 7.86349 8.58327C8.57199 8.56702 8.77674 7.92677 8.95224 7.36452C9.08062 6.94364 9.39424 6.73889 9.72411 6.52764C10.1385 5.15452 10.1385 5.15452 9.32761 4.22989C10.2019 3.82039 10.808 5.14152 11.6952 4.59064C12.0316 4.02677 11.874 3.51977 11.523 3.03552C11.1525 2.62927 10.8584 2.19702 11.0111 1.60389C9.71274 0.763767 8.27136 0.347767 6.75361 0.151142C6.23199 -0.209608 5.76236 0.178767 5.26999 0.255142" transform="translate(-0.0002772724 0.04499541)" id="Fill-9" fill="#D4D48A" stroke="none" />
      </g>
    </g>
    <path d="M6.80592 12.8554C7.43967 12.8684 8.0718 12.8797 8.70555 12.8911C9.16542 13.104 9.4368 12.7725 9.74067 12.5336C9.75855 12.4735 9.81217 12.3711 9.79267 12.3549C7.96942 10.8404 8.38217 8.57512 7.86705 6.62187C7.34542 5.76875 6.8823 4.87175 6.05517 4.2575C4.1458 4.50612 4.94855 5.64687 5.17767 6.58125C4.03367 5.99462 4.96805 4.67512 4.49842 4.13887C4.64792 4.60687 5.2118 4.09825 5.64242 4.13237C6.0503 2.84537 5.00542 1.86225 4.92092 0.676C3.6453 0.183625 2.24942 0.377 0.952673 0C0.444048 1.47062 0.681298 4.08687 1.41255 5.04562L1.41255 5.04725C1.37192 6.43825 1.08592 7.75287 0.260423 8.91475C-0.0239524 9.31612 -0.218952 9.75325 0.468423 9.99212L5.08505 12.4784C5.5953 12.8944 6.18517 12.948 6.80592 12.8554" transform="translate(26.70125 44.54287)" id="Fill-12" fill="#AFBD6F" stroke="none" />
    <path d="M4.94029 0.741165C3.52654 1.58129 2.47842 0.305665 1.25154 0.0716648C0.738042 -0.0242102 0.351292 -0.107085 0.0831674 0.406415C-0.178458 0.910165 0.232667 1.10191 0.549542 1.32779C0.614542 1.39279 0.679542 1.45779 0.744542 1.52441C1.20117 1.81691 1.75367 1.78279 2.24117 1.95991C4.30004 2.70904 4.89804 4.28529 3.98317 6.51804C3.81092 6.53754 3.64354 6.57004 3.47617 6.60742C2.95779 6.74554 2.44104 6.88041 1.95679 7.11441C1.43842 7.40692 1.02567 7.83429 0.573917 8.21454C0.195292 8.53304 -0.0452076 8.98967 0.274917 9.42029C1.34742 10.8617 2.42317 12.2998 4.05792 13.1968C4.89479 13.655 5.99329 13.2959 6.69692 14.3749C7.09504 14.9859 8.21954 14.0775 8.11554 13.0652C8.05704 12.4834 7.56304 11.7115 8.80454 12.0252C8.69892 11.2565 9.09379 10.4668 8.70379 9.71117C8.23254 7.76929 8.20329 5.75429 7.72229 3.81404C7.56954 3.47279 7.29329 3.24366 7.00567 3.02591C6.56367 2.72691 6.36542 2.23291 6.06479 1.82179C5.69754 1.45454 5.45542 0.95404 4.94029 0.741165" transform="translate(41.56217 40.64206)" id="Fill-14" fill="#A3C47E" stroke="none" />
    <path d="M6.12462 0.112383C5.78987 0.252133 5.11225 -0.397867 5.12363 0.495883C5.13175 1.13451 4.94 1.62688 4.446 2.11763C4.28837 1.94051 4.10637 1.82838 4.069 1.67888C3.92112 1.07113 4.60525 -0.019242 3.43687 0.000258045C2.7235 0.011633 2.30425 0.804633 2.91525 1.60576C1.508 2.38413 2.39525 3.62726 2.28962 4.67376C2.12387 6.28251 0.559 4.93863 0 5.73651C0.030875 6.15738 -0.104 6.62051 0.3185 6.93738C0.54275 6.79763 0.8645 6.48238 0.976625 6.54576C2.85512 7.58901 5.18537 6.24351 6.97125 7.69138C7.04763 7.73688 7.12725 7.78238 7.20525 7.82788C8.12175 7.46551 9.13087 7.41026 10.0214 6.96338C9.98725 5.93963 8.66938 5.01988 9.77275 3.90188C9.74837 3.71826 9.67688 3.55901 9.5615 3.41601C8.80912 3.17388 8.26475 2.77088 7.9105 1.98601C7.553 1.19788 7.13375 0.338258 6.12462 0.112383" transform="translate(3.444025 10.29737)" id="Fill-16" fill="#CED184" stroke="none" />
    <g id="Group-20" transform="translate(35.75 42.96906)">
      <path d="M0 0L14.4643 0L14.4643 15.5417L0 15.5417L0 0Z" transform="translate(0.7209063 0.7082804)" id="Clip-19" fill="none" stroke="none" />
      <g clip-path="url(#mask_2)">
        <path d="M13.8956 8.99037C13.4926 8.56787 13.0896 8.14862 12.4851 8.21199C11.9196 9.15612 13.7608 10.3944 12.2674 10.9712C11.1169 11.4165 11.944 9.69074 11.1721 9.43887C10.41 11.007 9.51952 9.52824 8.80289 9.36574C8.23089 9.23737 8.10089 7.91299 6.99752 8.33549C6.96177 8.34849 6.70339 7.98125 6.73914 7.93899C8.12202 6.16775 5.74789 6.7365 5.48952 5.85574C6.07777 5.36825 6.71152 4.84662 7.34689 4.32337C7.21364 3.72862 6.69527 3.73512 6.25489 3.62462C4.36502 3.41662 3.39652 1.79649 2.01852 0.814995C1.57327 0.496495 1.38152 -0.199005 0.627519 0.0544946C-0.791106 1.39187 0.534894 2.09874 1.28564 2.93887C2.00714 3.10299 2.84402 3.38574 2.85864 4.15925C2.89277 5.93374 4.23664 6.67637 5.27502 7.68387C6.64652 8.95625 8.01802 10.2286 9.38789 11.501C10.7513 12.2404 11.3054 13.815 12.6054 14.6226C13.2619 14.6226 13.3821 15.9941 14.1394 15.3864C14.9031 14.7737 14.0484 13.8085 14.2873 13.0171C14.2629 12.4321 14.2174 11.8504 14.0175 11.293C13.9785 10.5244 13.9363 9.75737 13.8956 8.99037" transform="translate(0.7209063 0.7082804)" id="Fill-18" fill="#99BA78" stroke="none" />
      </g>
    </g>
    <path d="M1.78982 7.21987C1.15607 8.16887 2.30495 8.5605 2.43495 9.2755C2.61045 10.2359 3.41482 10.933 4.15745 10.9639C5.1422 11.0061 4.41745 9.72725 4.93257 9.21375C5.10157 9.04312 5.14545 8.74737 5.24132 8.52312C4.76032 7.98525 3.86332 8.30375 3.48632 7.44575C4.41745 6.98587 5.3892 6.57637 6.28782 6.045C7.13607 5.54287 8.35645 5.28775 8.1322 3.85612C8.93332 3.9195 9.54432 4.26562 9.87095 5.031C10.1196 4.26237 9.27945 3.72287 9.43707 2.97375C9.14295 1.80212 8.22157 1.00587 7.65932 0C7.66095 0.00325 6.08795 0.2405 6.08795 0.2405C5.33557 2.054 2.61045 2.3075 2.64295 5.06675C1.74432 3.96987 0.922073 3.5425 0.138823 4.745C-0.464052 6.3375 1.0472 6.52275 1.78982 7.21987" transform="translate(38.25229 26.08271)" id="Fill-21" fill="#B9D597" stroke="none" />
    <path d="M0.316264 9.40509C0.958139 9.08334 1.76739 7.94422 1.90551 9.82597C1.93639 10.2696 2.88701 10.7766 2.85939 9.91047C2.78464 7.41122 5.64626 7.22597 6.21339 5.23372C6.48151 4.28959 7.01939 5.53597 7.51014 5.53759C7.40614 5.04197 7.31839 4.61622 7.22901 4.18884C7.38826 3.87359 7.18839 3.67859 6.99501 3.48034C5.12626 3.44297 5.13114 3.44622 6.03951 1.79522C6.19551 1.51247 6.36614 1.22322 6.42464 0.893341L6.32226 0.722716L6.17276 0.592716C5.40414 -0.286409 4.58514 -0.0849087 3.79539 0.530966C3.08526 1.08347 2.41089 1.68309 1.58539 2.06659C0.646139 2.78322 1.76739 3.89797 1.07839 4.66334C0.829764 5.20772 0.202514 5.59447 0.387764 6.31922C0.940264 6.70759 1.51714 7.02609 0.558389 7.68259C0.100139 7.99784 -0.146861 8.60234 0.0936386 9.24097C0.166764 9.29622 0.241514 9.34984 0.316264 9.40509" transform="translate(38.17072 21.60755)" id="Fill-23" fill="#A6CA85" stroke="none" />
    <path d="M0.32227 10.0761C0.249145 10.1557 0.17277 10.2337 0.09477 10.3068C0.024895 10.484 -0.00435502 10.6692 0.000519977 10.8593C0.411645 11.9546 -0.114855 13.3505 1.06815 14.1987C2.32265 14.1353 1.67265 12.6777 2.47215 12.2796C2.7029 11.9123 2.90927 11.537 2.94502 11.0933C3.47315 10.2727 4.0029 9.4521 4.5294 8.62985C4.90477 8.1391 5.3354 7.67922 5.49302 7.0536L5.4914 7.05847C5.73027 6.18585 7.07252 6.31422 7.11477 5.26285C7.8899 4.28785 8.2344 2.94885 9.52465 2.4061C9.6644 2.47597 9.75865 2.46947 9.80252 2.38822C9.84802 2.30535 9.8594 2.24522 9.83502 2.20947C10.3095 1.42135 10.0853 0.49835 9.49702 0.148975C8.55777 -0.410025 7.97602 0.759975 7.19602 1.09635C6.60452 1.18572 6.33315 1.70085 5.93502 2.0486C5.8554 3.10647 6.20802 4.4081 4.52127 4.56572C4.38152 4.68597 4.2694 4.82735 4.17677 4.9866C3.23102 6.94147 1.9099 8.60872 0.32227 10.0761" transform="translate(37.94421 3.77735)" id="Fill-25" fill="#7CB273" stroke="none" />
    <path d="M1.23381 4.22276C1.80744 5.34401 2.83769 6.16788 3.07656 7.53938C3.26669 8.63301 4.12956 7.12663 4.59106 7.71651C5.86019 7.23063 5.51894 6.10938 5.60669 5.15713C5.66194 4.82238 5.72369 4.48601 5.70094 4.14476C5.93981 3.45413 6.75719 3.02676 6.61094 2.15901C6.59631 1.96238 6.49881 1.82101 6.32006 1.73651C6.14131 1.54313 5.96256 1.34976 5.78381 1.15801C5.63756 1.01176 5.46531 0.954882 5.26219 1.00201C4.67719 0.439757 4.05806 -0.0509933 3.17731 0.00425666C2.97256 0.223632 2.90919 0.470632 3.02619 0.755007C3.25856 0.984132 3.49744 1.21163 3.75419 1.41963C3.99794 1.61626 4.48706 1.72838 4.34569 2.10538C4.16694 2.57826 3.65994 2.31501 3.28944 2.33451C2.33231 2.11838 1.53444 0.698132 0.382314 1.95913C0.102814 2.26463 -0.158811 2.63676 0.117439 2.98938C0.414814 3.36638 0.712189 2.76188 0.830814 2.78788C1.76844 2.99588 1.20781 3.70276 1.23381 4.22276" transform="translate(8.334836 6.186993)" id="Fill-27" fill="#C7C781" stroke="none" />
    <path d="M1.78428 6.83696C2.04265 6.98158 2.30103 7.12783 2.56103 7.27408C3.01603 7.23508 3.14765 6.73458 3.53115 6.59321C3.94228 5.94971 3.60753 5.25746 3.66115 4.59121C3.69203 3.98833 3.4564 3.42933 3.3654 2.84433C3.25003 2.44458 3.1379 2.04646 3.02415 1.64671C2.29453 1.66133 2.03778 1.17058 1.87853 0.577457C1.76478 0.163082 1.63315 -0.157044 1.07578 0.0818315C0.643526 0.267081 0.182026 0.353207 0.307151 0.991832C0.526526 2.09846 0.425776 3.18071 2.56612e-05 4.22883C-0.00322434 4.87071 0.302276 5.29808 0.893776 5.53208C1.4609 5.78396 1.66565 6.28121 1.78428 6.83696" transform="translate(46.50195 37.15439)" id="Fill-29" fill="#A6C580" stroke="none" />
    <path d="M2.73207 4.36569C3.02132 2.47907 4.20107 1.70394 6.02269 1.68607C6.49069 1.68119 7.08057 1.90707 7.31619 1.21807C7.19107 0.69319 6.75882 0.58594 6.31844 0.486815L6.26157 0.564815C4.84132 0.07244 3.78669 0.97594 2.65244 1.52032C2.03819 1.16119 2.52894 -0.73681 0.936444 0.31294C0.351444 1.65682 0.710569 3.10144 0.486319 4.48432C0.362819 5.08394 -0.105181 5.59257 0.0215693 6.25882C0.422944 6.83894 1.01282 7.04532 1.68232 7.09894C2.41032 6.33357 2.25757 5.23019 2.73207 4.36569" transform="translate(16.81197 3.084447)" id="Fill-31" fill="#C7D2A9" stroke="none" />
    <path d="M5.00825 5.33965C4.97088 4.50115 4.61988 3.63177 5.25525 2.86152C5.356 1.66065 4.25588 1.7029 3.614 1.2674C3.4385 1.20565 3.2565 1.18777 3.07938 1.19915C2.8275 1.20565 2.55938 1.56477 2.34325 1.01877C2.01988 0.198147 1.38775 -0.216228 0.455 0.113647C0.131625 0.368772 0.004875 0.711647 0 1.1114C0.2275 2.28302 1.06438 3.03702 1.83138 3.85765C2.50088 4.57427 2.92338 4.2899 3.3215 3.49527C3.58475 4.59865 3.34263 5.39002 2.62113 6.17165C1.88988 6.96465 2.62275 7.68777 4.42163 7.96077C4.67838 7.81777 4.9205 7.66827 4.89125 7.31727L4.89288 7.3709C5.00663 6.69815 5.09763 6.02377 5.00825 5.33965" transform="translate(35.17833 47.93435)" id="Fill-33" fill="#A0AC67" stroke="none" />
    <path d="M2.75656 4.94487C2.21544 4.07225 3.32531 3.48887 3.51381 3.315C4.73906 2.17262 4.05006 1.1115 3.70069 0C2.63956 0.416 3.15144 1.49337 2.75656 2.27012C2.13581 2.20025 2.01394 0.69225 1.57194 1.37312C1.14619 2.03125 -0.595811 1.88337 0.210189 3.3215C0.310939 4.55487 1.33469 4.602 2.19106 4.86362C2.38119 4.88962 2.56969 4.91725 2.75656 4.94487" transform="translate(24.41262 49.59061)" id="Fill-35" fill="#BDC87A" stroke="none" />
    <path d="M0.227928 5.1983C1.20943 5.34455 1.70993 4.63768 2.30468 4.0608C2.99368 3.39293 3.78668 3.05818 4.73568 3.55055C4.40255 2.9753 4.06943 2.40005 3.7363 1.8248C3.59005 1.09355 3.02293 0.607676 2.6638 0.00155052C1.3573 -0.0553245 1.7148 1.46893 0.886053 1.86705C0.593553 2.2538 0.460303 2.70393 0.385553 3.17518C0.424553 3.85443 -0.379822 4.47355 0.227928 5.1983" transform="translate(39.60797 18.64955)" id="Fill-37" fill="#BAD39E" stroke="none" />
    <g id="Group-41" transform="translate(16.25 0.7190625)">
      <path d="M0 0L5.32513 0L5.32513 3.6062L0 3.6062L0 0Z" transform="translate(1.4976 0.90675)" id="Clip-40" fill="none" stroke="none" />
      <g clip-path="url(#mask_3)">
        <path d="M0 1.77193C1.08225 1.28118 0.80275 2.09368 0.884 2.64943C1.0075 3.5123 1.18463 3.98355 2.23113 3.22955C3.10212 2.60393 4.2835 2.40893 5.32513 2.02218C4.5955 1.11868 3.65625 0.608428 2.49438 0.512553C2.08488 0.473553 1.92888 -0.100072 1.44463 0.0153027C0.83525 0.228178 0.450125 0.697803 0.09425 1.1983C0.06175 1.39005 0.0325 1.58018 0 1.77193" transform="translate(1.4976 0.9062349)" id="Fill-39" fill="#D8E0BB" stroke="none" />
      </g>
    </g>
    <path d="M1.00967 0.232689C-0.00433242 -0.526186 0.444167 0.80469 0.0379176 0.913565C-0.178207 2.74007 0.600167 4.46419 0.598542 6.26957C0.596917 6.66444 0.852042 6.84482 1.24204 6.83832C1.64829 6.15257 1.48579 5.40669 1.46142 4.67544C1.92942 4.03682 1.45492 3.46157 1.34442 2.86194C1.23229 1.98607 1.12017 1.11019 1.00967 0.232689" transform="translate(49.02376 43.51426)" id="Fill-42" fill="#97B676" stroke="none" />
    <path d="M0.428827 2.78576C0.760327 3.72664 2.10745 3.34151 2.41783 4.30839C2.85495 4.49689 3.2937 4.68539 3.7292 4.87389C3.99083 4.25151 3.41883 4.12314 3.1247 3.80464C2.53808 3.16764 1.84095 2.70614 1.94658 1.53776C2.02295 0.660264 1.43633 -0.384612 0.071327 0.141888C-0.052173 1.05514 -0.061923 1.95376 0.428827 2.78576" transform="translate(38.01688 46.48684)" id="Fill-44" fill="#8D9F5D" stroke="none" />
    <path d="M1.93625 0C1.5495 0.420875 1.18225 0.8645 0.767876 1.25775C0.288501 1.71112 -0.361499 2.27012 0.246251 2.83725C0.836126 3.3865 1.74125 3.52787 2.35713 2.61625C2.51963 2.44725 2.41725 2.23762 2.44 2.04912C2.271 1.365 2.10525 0.6825 1.93625 0" transform="translate(42.65879 22.50056)" id="Fill-46" fill="#BCD59E" stroke="none" />
    <path d="M0.76703 0C0.17553 0.99125 -0.41272 1.9825 1.17165 2.64063C1.24478 2.561 1.32603 2.49112 1.41215 2.42937C1.60715 1.78912 1.28053 1.2155 1.17653 0.61425C1.04003 0.4095 0.90353 0.20475 0.76703 0" transform="translate(47.37002 31.13565)" id="Fill-48" fill="#C4D9A2" stroke="none" />
    <path d="M1.23581 1.24499C1.27156 1.05486 1.30894 0.864739 1.34306 0.674614C1.17731 0.484489 1.00994 0.292739 0.84256 0.100989C0.30956 0.583614 -0.11294 1.06136 0.889685 1.49199C1.04569 1.54886 1.14806 1.52936 1.20006 1.43836C1.25044 1.34736 1.26344 1.28236 1.23581 1.24499" transform="translate(10.16893 5.516473)" id="Fill-50" fill="#A2A06A" stroke="none" />
    <path d="M0.395835 0.810487C0.646085 1.07211 0.863835 1.42961 1.30584 1.25249C1.36759 1.22811 1.38871 0.929112 1.32696 0.807237C1.09946 0.353862 0.743585 0.183237 0.26096 0.456237C0.285335 0.582987 0.330835 0.699987 0.395835 0.810487" transform="translate(3.734427 17.12529)" id="Fill-52" fill="#CED184" stroke="none" />
    <path d="M1.16044 0.615673C-0.185057 0.896798 -0.321557 1.5403 0.549443 2.54292C0.880943 2.9248 1.12632 3.38305 1.41232 3.80555C1.23844 4.64567 0.565693 5.30867 0.546193 6.2073C0.599818 6.38605 0.718443 6.50142 0.897193 6.55342C2.96907 5.71167 2.41007 7.4618 2.54982 8.33442C2.69932 9.25417 2.28982 10.4209 3.90182 10.2698C4.44457 9.00555 5.05882 7.75917 4.68344 6.30642C4.55507 5.81242 5.01332 5.8628 5.27982 5.7458C5.63407 5.55405 5.81119 5.27292 5.73157 4.8618C5.19857 4.1208 5.11732 3.20755 4.79557 2.38367C4.60707 2.0603 4.36494 1.79217 4.02207 1.62805C3.51994 1.59555 3.26482 1.36155 3.07469 0.848048C2.62782 -0.362577 1.89982 -0.125327 1.16044 0.615673" transform="translate(11.95964 13.60746)" id="Fill-54" fill="#BEC37D" stroke="none" />
    <path d="M6.57963 2.17262L6.46913 2.01175L6.35863 1.84925C6.40575 0.28925 5.10413 0.3445 4.13888 0L4.13725 0C3.8155 0.872625 3.08912 1.0335 2.27175 1.17812C1.3455 1.34387 0.342875 1.43975 0 1.83137C0.424125 3.39137 1.33575 4.38425 0.586625 5.70537C3.57013 6.08562 5.291 4.48012 6.57963 2.17262" transform="translate(6.27705 17.98875)" id="Fill-56" fill="#DDDA99" stroke="none" />
    <path d="M1.72793 0.44505C1.4403 0.300425 1.15918 0.141175 0.863428 0.0176746C0.761053 -0.0245754 0.622928 0.0209246 0.408428 0.0306746C0.488053 1.31117 2.1163 2.74442 0.0671777 3.87217C-0.298447 4.07205 0.967428 4.41167 0.543303 5.06817C1.84655 5.49067 1.72955 6.81342 2.31618 7.7413C1.61905 8.00455 0.816303 7.56742 0.223178 8.36205C0.852053 8.81542 1.47768 9.13392 2.39905 8.96492C1.20305 9.28342 1.26643 10.3673 0.824428 11.1099L0.826053 11.105C1.3493 11.2822 1.87093 11.7388 1.9668 10.6094C2.05455 9.59542 2.20243 9.60842 3.2343 10.4242C3.5853 10.4242 3.78518 10.1284 4.0728 10.0065C4.56843 9.88305 5.11118 9.97892 5.55155 9.62792C6.0293 9.24442 6.4128 8.80242 6.2308 8.15242C6.02118 7.40817 5.5353 7.3513 4.88368 7.6763C4.63993 7.79817 4.44168 7.49592 4.24993 7.33505C3.19368 6.5128 3.22618 5.3038 3.11243 4.14842C3.83393 2.73142 2.42505 1.8848 2.20568 0.71805C2.07243 0.579925 1.91318 0.49055 1.72793 0.44505" transform="translate(15.31832 18.80941)" id="Fill-58" fill="#C0C77F" stroke="none" />
    <path d="M0.505474 0.0017351C0.362474 0.258485 0.217849 0.51686 0.0748488 0.77361L0.0732238 0.77036C0.0244738 1.12786 0.193474 1.33748 0.528224 1.43336C1.26272 2.52373 -0.0129012 3.23061 9.87882e-05 4.18286C0.385224 4.67199 0.619224 5.31061 1.38785 5.38698C1.7941 5.42923 2.29622 4.83936 2.58385 5.44549C2.94135 6.18973 1.8916 6.23686 1.79735 6.79423C3.69372 7.31748 4.57285 6.35548 4.18935 4.18123C3.46947 3.25498 3.25985 2.02811 2.4376 1.15549C1.90135 0.58836 1.40247 -0.0372649 0.505474 0.0017351" transform="translate(18.4768 28.45917)" id="Fill-60" fill="#BFC77D" stroke="none" />
    <path d="M1.33008 1.0469C1.26183 0.624397 1.14808 0.262022 0.589078 0.471647C0.395703 0.541522 0.210453 0.660147 0.332328 0.881147C0.582578 1.34265 0.956329 1.25327 1.3317 1.04202L1.33008 1.0469Z" transform="translate(14.81316 28.87325)" id="Fill-62" fill="#C0C77F" stroke="none" />
    <path d="M1.41852 1.17118C1.26577 0.950175 1.11465 0.729175 0.965148 0.508175C0.708398 0.6528 0.175398 0.218925 0.207898 0.5878C0.259898 1.21343 0.885523 1.22155 1.41852 1.17118" transform="translate(17.58585 28.72119)" id="Fill-64" fill="#C0C77F" stroke="none" />
    <path d="M6.51463 13.0954C6.0125 11.4818 6.90625 9.72677 6.01738 8.15215C7.5855 6.92365 6.4675 5.6594 5.92475 4.55115C5.5315 3.75002 4.9595 3.0009 4.53863 2.1884C4.34688 1.9804 3.97638 1.95602 3.93738 1.60015C4.08525 1.2524 4.6865 1.24265 4.58575 0.721022C4.49638 0.428522 4.31925 0.209147 4.056 0.0563965C3.44175 -0.119104 3.05663 0.119772 2.86325 0.706397L2.86325 0.704772C2.64388 1.13052 2.23113 1.4799 2.33025 2.0324C1.885 4.18715 0.953875 2.20952 0 2.32977C0.606125 3.0464 1.25125 3.63952 1.6315 4.36752C1.74038 4.5739 3.5425 5.28077 1.56488 5.81702C0.940875 5.98602 1.8395 6.79202 2.4375 7.03577C3.874 7.61752 4.22338 9.37252 4.60525 10.6676C5.1155 12.3918 3.49538 11.8295 3.25975 12.5656C4.21363 13.5358 5.48275 12.5884 6.51463 13.0954" transform="translate(21.59869 36.49294)" id="Fill-66" fill="#BDC87A" stroke="none" />
    <path d="M0 0.626564C0.505375 1.54306 1.7355 2.43031 0.57525 3.82294C0.446875 3.97569 0.32825 4.94256 1.12125 4.84994C1.30325 4.82881 2.43425 5.12132 1.99875 4.02606C1.76312 3.43294 2.40012 3.14206 2.782 3.19731C3.20937 3.26069 3.2305 3.80831 3.08912 4.19831C2.92662 4.64519 3.03712 5.11807 2.95912 5.52431C2.7235 6.77232 3.029 7.01119 4.19412 6.55294C4.68162 6.36119 5.34137 6.24582 5.73137 6.90557C6.058 7.45482 6.70312 7.62219 7.05412 7.28257C7.27187 7.07294 7.1955 6.21332 7.0655 5.85094C6.63 4.63544 6.00275 3.46219 4.758 2.81544C4.46875 2.66431 4.11937 2.57656 3.89675 2.35881C2.808 1.28794 2.457 -1.14306 0 0.626564" transform="translate(16.46856 42.79181)" id="Fill-68" fill="#CFD48A" stroke="none" />
    <path d="M4.316 3.95619C5.45512 3.00719 5.24225 1.61132 6.38625 0.309692C4.13075 1.20344 2.49112 -0.208683 0 0.0269416C2.07837 1.15144 3.09075 2.66269 4.316 3.95619" transform="translate(12.16686 39.15278)" id="Fill-70" fill="#CFD48A" stroke="none" />
    <path d="M3.22932 3.5818C3.7802 5.34655 3.04082 6.20293 1.2842 6.34105C0.993322 6.07455 0.617946 5.71055 0.387196 6.29068C0.132071 6.93093 -0.147429 7.61668 0.0898214 8.34955L0.952696 7.99205C1.35407 7.84743 1.74082 7.67843 2.0057 7.31443C2.63945 6.84968 3.27157 6.39143 3.99632 6.06968C4.71457 5.74955 5.18745 5.2653 4.9762 4.39105C4.36845 3.33643 4.16695 2.23305 4.4562 1.0273C4.56182 0.590177 4.51795 0.0718024 3.87445 0.00680241C3.3707 -0.0419476 2.99207 0.170927 2.79707 0.658427C2.37295 1.7163 2.63945 2.67343 3.22932 3.5818" transform="translate(18.99028 28.91316)" id="Fill-72" fill="#A2AB69" stroke="none" />
    <path d="M3.1525 1.443C3.14438 2.46025 2.145 2.46837 1.61688 2.9575C1.06438 3.46937 0.151125 3.60912 0 4.5305C0.326625 4.65562 0.580125 4.32737 0.895375 4.38587C1.37638 4.13887 1.768 3.65462 2.405 3.822C2.57238 3.88375 2.72675 3.8675 2.87463 3.76675C3.40763 3.13787 4.225 3.15737 4.914 2.87625C5.45513 2.49112 5.95888 2.05562 6.4805 1.6445C7.28813 0.190125 7.18413 0.030875 5.41938 0C4.65238 0.273 3.97963 0.70525 3.367 1.23662C3.29388 1.30487 3.224 1.37312 3.1525 1.443" transform="translate(20.61426 31.92394)" id="Fill-74" fill="#7F8653" stroke="none" />
    <path d="M0.310375 0.788575C0.208 0.8552 0.104 0.9202 0 0.983575C0.479375 1.4662 0.960375 1.95045 1.44137 2.43633C1.81512 2.20233 2.15962 1.86758 2.66012 2.09833C3.29712 2.1877 4.05762 2.82633 4.46387 1.79445C4.68975 1.2192 4.5435 0.61795 4.04462 0.22145C3.20937 -0.439925 2.8275 0.57245 2.21812 0.7642C1.58925 1.22083 0.93925 0.301075 0.310375 0.788575" transform="translate(23.01991 34.76431)" id="Fill-76" fill="#B9C478" stroke="none" />
    <path d="M0.989404 1.47631C1.46065 1.15131 1.64265 0.710938 1.5224 0.148687C0.976404 0.252687 0.243529 0.207188 0.085904 0.824687C-0.048971 1.34956 0.552279 1.42756 0.989404 1.47631" transform="translate(22.93921 37.04967)" id="Fill-78" fill="#B9C478" stroke="none" />
    <path d="M1.28738 0.197437C0.946131 0.540313 0.279881 0.610187 0.341631 1.42756C1.11676 1.31869 1.18013 0.738562 1.28738 0.197437Z" transform="translate(15.91276 36.19655)" id="Fill-80" fill="#D3D790" stroke="none" />
    <path d="M1.59691 0.480372C1.29628 0.529122 0.99891 0.577872 0.69991 0.626622C0.474035 0.771247 0.00765958 0.563247 0.0287846 1.07675C0.72591 1.33675 1.11428 0.787497 1.59691 0.480372" transform="translate(19.91322 35.82863)" id="Fill-82" fill="#BFC77D" stroke="none" />
    <path d="M18.6095 20.5806C18.2959 20.3433 19.0304 19.1441 17.7093 19.7128C17.3111 19.8834 17.1535 18.8516 17.0544 18.2909L17.0349 18.2812C15.3481 16.4271 14.7323 14.3487 15.7024 11.9372C15.7836 11.7796 15.8259 11.6106 15.8373 11.4351C15.3774 10.6811 16.3134 9.99695 15.9575 9.24295C14.677 7.20682 13.6792 4.99357 11.1215 4.01695C10.3009 3.70332 9.62813 3.82357 8.89363 3.75857C6.89 3.58145 5.837 2.01495 4.60525 0.783199C3.83988 0.0178243 3.25 -0.195051 2.2035 0.181949C1.11475 0.575199 1.46738 1.24632 1.37638 2.01982C1.17325 3.7082 1.19438 5.24382 2.30263 6.65432C2.6455 7.09145 2.42938 7.65695 2.1385 8.13957C1.898 8.54095 1.41538 8.91957 1.911 9.50782C1.17163 7.5757 1.17 7.57407 0 8.38495C0.22425 9.76457 1.01563 10.7834 2.0605 11.6431C2.82263 12.1403 3.57338 12.2021 4.29975 11.5748C4.654 11.2319 4.87338 10.8192 4.91725 10.3252C4.90263 10.1497 4.84088 9.98882 4.73362 9.84907C4.44763 9.56145 4.02188 9.4672 3.76188 9.1487C3.90325 8.24682 5.27962 7.68945 4.48825 6.53895C4.589 6.55845 4.59875 6.69332 4.68 6.71445C5.50875 6.92895 5.39988 6.3472 5.42588 5.89057C6.1685 6.49345 5.28775 7.92345 6.52437 8.27932C7.05737 8.43207 7.54163 8.0632 7.83413 7.5887C8.29238 6.84932 7.64563 6.48532 7.41813 5.97507C8.48575 8.2322 10.5885 10.0701 10.062 12.9707C10.0848 13.2161 10.1075 13.4598 10.1286 13.7036C12.7319 13.3071 12.0721 15.0751 11.9665 16.4742C12.0478 17.2184 12.2671 17.8668 13.0861 18.1057C13.195 18.0326 13.3039 17.9594 13.4128 17.8863C13.4485 17.1713 13.4046 16.4531 13.4729 15.5203C13.7768 16.4644 13.3673 17.1681 13.4144 17.8863C14.0953 18.0147 15.2701 17.3858 14.9776 18.9864C14.9029 19.3959 15.4018 19.3634 15.7203 19.3716C16.575 19.3959 17.212 19.6998 17.5419 20.5708C17.8425 21.3622 18.2488 20.7171 18.6095 20.5806" transform="translate(21.43261 12.72201)" id="Fill-84" fill="#A6CA85" stroke="none" />
    <path d="M2.83562 0.238233C2.2295 0.787483 1.54862 0.998733 0.754 0.706233C0.349375 0.673733 0.112125 0.871983 0 1.24573C0.375375 3.39073 2.36925 4.39173 3.41087 6.06548C3.85937 6.47498 4.407 6.73336 4.92375 7.03561C5.7005 7.64661 6.9095 7.76848 7.13212 9.00511C7.15325 9.17736 7.19062 9.34636 7.228 9.51698C7.30275 9.86473 7.39375 10.206 7.60662 10.5001C7.722 10.635 7.86175 10.7439 8.01612 10.8349C9.23812 11.3939 9.36 12.546 9.53225 13.6705C10.2489 15.263 10.3431 17.1041 11.4676 18.5341C12.1891 19.2182 12.4589 20.5686 13.9002 20.1932C14.2561 18.9582 13.3022 18.3115 12.6929 17.5104C13.2405 16.0576 11.31 14.9867 12.077 13.5015C9.2365 12.9782 10.673 10.1426 9.49975 8.70611C9.2105 8.35511 9.02687 7.95211 8.56212 7.76361C7.79675 7.45323 7.35962 6.80973 7.08337 6.07198C6.51787 4.55098 6.53087 4.54448 4.979 4.35923C5.55587 3.68648 6.51462 3.37448 6.70962 2.40436C6.54387 1.87461 6.11812 1.92336 5.7525 2.05173C4.60037 2.45636 4.1015 2.00298 3.98287 0.860608C3.87887 -0.150142 3.84312 -0.145267 2.83562 0.238233" transform="translate(23.03064 23.52544)" id="Fill-86" fill="#9DBF7C" stroke="none" />
    <path d="M7.26952 8.55843C8.26403 7.89705 8.58577 7.10568 7.59128 6.21193C7.2549 5.90968 7.2809 5.80243 7.5344 5.47743C8.33877 4.44555 8.18115 4.30255 6.90715 4.66818C6.24902 4.8583 6.42128 3.96455 6.33353 3.4803C6.05727 1.9398 5.20415 1.1468 3.9269 1.19555C3.59377 1.9333 6.22303 3.0578 3.36627 3.58105C4.27303 2.24368 2.70652 1.5173 2.86902 0.352175C2.90965 0.0531748 2.5944 -0.0865752 2.31652 0.0564248C2.17027 0.12955 2.0159 0.332675 1.99965 0.491925C1.9444 1.01192 2.56677 1.40192 2.29378 2.0113C1.6064 2.1998 1.99802 0.87705 1.01002 1.41817C1.14815 1.27192 1.01002 1.39705 1.01977 1.41167C1.7624 2.42568 1.82902 3.27718 0.600525 4.0198C-0.101475 4.44393 -0.34685 5.00943 0.7484 5.32468C1.29927 4.42768 1.49265 5.41893 1.8534 5.53268C2.48878 5.9048 2.90152 6.77255 3.86352 6.42155C3.98865 6.37443 4.3299 6.2753 4.23403 6.5418C3.45727 8.69168 5.23015 8.07093 6.16777 8.35368C6.53665 8.42193 6.90227 8.49018 7.26952 8.55843" transform="translate(24.22557 17.13494)" id="Fill-88" fill="#9CC47D" stroke="none" />
    <path d="M0 0C0.41275 0.849875 0.823875 1.69812 1.23663 2.548C1.209 2.73 1.28213 2.83075 1.47063 2.83725C2.25388 4.4525 4.36313 4.68 5.12525 6.3895C5.42263 7.05412 6.3895 6.45937 6.994 6.75187C7.18738 6.11325 6.669 5.62737 6.63 5.03912C6.6235 4.86525 6.6105 4.693 6.60075 4.51912C6.57963 3.64812 6.279 3.1395 5.18538 3.679C5.59488 2.899 6.08238 2.42775 6.55688 1.937C6.92413 1.55837 7.0395 1.16187 6.383 0.931125C6.383 0.931125 6.38625 0.934375 6.38788 0.934375C5.76225 1.54537 4.22338 0.466375 4.10313 2.249C4.082 2.58537 2.81775 2.31725 2.46838 1.73225C1.88175 0.755625 0.91975 0.433875 0 0" transform="translate(35.72416 41.03645)" id="Fill-90" fill="#A3C47E" stroke="none" />
    <path d="M2.98434 2.1215C2.50009 1.6535 2.60734 0.782496 1.86634 0.491621C1.28459 0.579371 0.714211 -0.576004 0.174711 0.382746C-0.264039 1.16437 0.171461 1.65837 0.948211 2.07437C1.65834 2.45462 1.80134 3.2655 1.92971 4.07312C2.14584 5.46087 2.95184 5.70462 4.10071 4.83037C3.85533 4.15275 3.24921 5.05625 2.91446 4.48425C4.62071 3.77087 3.45721 2.94212 2.98434 2.1215" transform="translate(31.53375 28.70557)" id="Fill-92" fill="#BAD594" stroke="none" />
    <path d="M4.52725 2.821C4.41513 2.75438 4.30788 2.652 4.186 2.626C2.70075 2.30425 2.04425 1.75013 3.9845 0.459875C2.48787 0.2145 1.23662 0.794625 0.212875 0C0.141375 0.365625 0.069875 0.73125 0 1.09525C0.494 0.898625 0.8645 0.754 0.74425 1.60225C0.598 2.6325 1.26587 2.41638 1.4755 2.97375C2.22625 4.98063 3.23213 2.29938 3.874 3.26138C4.09175 3.11513 4.3095 2.96725 4.52725 2.821" transform="translate(25.86642 22.66761)" id="Fill-94" fill="#A7C882" stroke="none" />
    <path d="M2.97471 0C2.19146 0.21775 1.59346 0.472875 1.58371 1.3C1.57884 1.78425 1.50734 2.37737 1.13034 2.55775C-1.39329 3.77325 1.04584 4.46875 1.40171 5.36737C1.45209 5.49737 1.65359 5.56725 1.78359 5.66475C1.92659 5.45187 2.23046 5.09275 2.19146 5.04725C1.07509 3.83662 2.26459 3.03225 2.64159 2.05725C2.87884 1.43975 2.86746 0.72475 2.97471 0" transform="translate(43.58495 35.34505)" id="Fill-96" fill="#A6C781" stroke="none" />
    <path d="M1.49071 0.120178C0.234583 0.636928 0.739958 1.88005 0.401958 2.7738C-0.366667 3.3653 0.176083 4.00718 0.327208 4.63443C0.515708 5.05205 0.973958 5.30718 1.09583 5.74593C1.28271 6.41543 1.22583 7.37255 2.18621 7.29943C3.00358 7.23768 3.91196 6.80543 4.14433 5.91655C4.44008 4.77418 5.38583 4.7238 6.19021 4.3793C6.33971 4.25743 6.43233 4.10143 6.47783 3.91455C6.20158 3.2483 7.80221 2.23105 6.05696 1.7988C5.74821 1.72243 5.92533 1.31293 6.22108 1.0513C6.71508 0.617428 6.07646 0.266428 5.91396 0.144553C5.24608 -0.355947 5.55971 0.604428 5.38421 0.597928C4.13133 0.554053 4.19308 3.2613 2.16183 1.95643C1.27296 1.38605 1.79458 1.47868 2.06271 1.0968C2.50796 0.453303 2.78096 -0.201572 1.49071 0.120178" transform="translate(18.05333 7.329959)" id="Fill-98" fill="#CEDCAA" stroke="none" />
    <path d="M0.349877 0.576417C0.241002 0.651167 0.130502 0.727542 0.0216269 0.802292C-0.0839981 1.35642 0.206877 1.83742 0.684627 1.80492C2.25925 1.69604 2.88813 2.91479 3.49425 3.89304C4.19625 5.03217 4.74225 4.87129 5.42313 4.07017C5.93663 3.46567 6.58338 3.01067 7.10988 2.42567C7.13588 2.33629 7.15863 2.24692 7.18463 2.15917C6.60125 0.582917 5.31588 0.509792 3.90538 0.529292C2.72075 0.545542 1.52638 -0.700833 0.349877 0.576417" transform="translate(24.18177 10.66891)" id="Fill-100" fill="#C7D9A4" stroke="none" />
    <path d="M6.85933 1.58275C6.81383 1.47063 6.76021 1.36175 6.69846 1.25775C4.30483 1.7485 2.12408 1.10013 0.027829 0L0.024579 0.008125C-0.040421 0.476125 0.019704 0.93925 0.250454 1.33738C0.796454 2.28313 0.542954 4.18275 2.03958 3.96825C3.77996 3.71963 6.18658 4.20713 6.85933 1.58275" transform="translate(31.3389 12.82694)" id="Fill-102" fill="#C7D9A4" stroke="none" />
    <path d="M4.39563 0L2.587 2.23112C1.846 3.21263 1.03838 4.1275 0 4.81325C0.076375 4.94325 0.154375 5.07325 0.23075 5.20325C2.53013 4.199 3.61888 2.22625 4.39563 0" transform="translate(38.038 8.649875)" id="Fill-104" fill="#8AC182" stroke="none" />
    <path d="M0.346125 0C0.23075 0.082875 0.115375 0.164125 0 0.247C0.414375 0.667875 0.518375 1.2025 0.5655 1.75987C0.73125 2.69425 1.36338 2.42612 1.89638 2.23112C2.24575 2.10275 2.64875 1.87687 2.58375 1.40237C2.52363 0.960375 2.119 0.82875 1.75175 0.67275C1.274 0.47125 0.814125 0.225875 0.346125 0" transform="translate(11.05861 6.761463)" id="Fill-106" fill="#A1A36C" stroke="none" />
    <path d="M1.33572 1.43C1.16185 0.624 0.760474 0.479375 0.302224 0.195C0.193349 1.15538 0.791349 1.06437 1.33572 1.43" transform="translate(7.014176 6.616025)" id="Fill-108" fill="#C7C781" stroke="none" />
    <path d="M1.28989 1.28109C1.22164 0.986965 1.23301 0.79684 1.14364 0.70584C0.986012 0.54659 0.740637 0.31584 0.576512 0.346715C0.197887 0.41984 0.331137 0.70909 0.526137 0.87484C0.703262 1.02597 0.940512 1.10234 1.28989 1.28109" transform="translate(3.508575 13.09918)" id="Fill-110" fill="#CED184" stroke="none" />
    <path d="M0.568547 2.85025C0.799297 2.743 1.01867 2.58375 1.2608 2.53662C1.7028 2.44887 1.41192 1.46412 2.12367 1.82C2.49905 2.00525 2.4958 2.4635 2.49742 2.847C2.49742 3.82525 1.73692 3.16062 1.3713 3.35562C1.2608 3.41575 1.14055 3.45962 1.02355 3.51C1.16817 3.72612 1.31442 3.94387 1.45905 4.16C1.37942 4.48987 0.958547 4.589 0.924422 4.94975C0.952047 5.12687 1.05605 5.2325 1.23317 5.265C1.4233 6.12137 1.4818 6.916 2.2683 7.64725C3.2433 8.55562 3.56342 9.91737 2.96055 11.2921C4.07205 12.454 5.50855 11.9177 6.82317 12.025C7.57555 10.855 6.49005 10.3317 5.93105 9.69962C5.30217 8.99112 4.67167 8.36712 5.14617 7.33037C5.28267 6.99237 5.4273 6.65762 5.42242 6.28387C4.60342 5.2325 3.9648 4.09337 3.69667 2.77062C3.66742 1.82975 3.06455 1.15537 2.6063 0.41275C2.45192 0.183625 2.25205 0.02275 1.96605 0C1.37455 0.333125 0.851297 0.7345 0.563672 1.378C-0.185453 1.87037 -0.191953 2.36275 0.568547 2.85025" transform="translate(24.65665 33.35247)" id="Fill-112" fill="#A9B66D" stroke="none" />
    <path d="M0.580648 0.222523C-0.607227 1.34377 0.273523 2.36265 1.04052 2.92977C1.88227 3.54727 2.21215 4.2834 2.49977 5.1544C1.96027 6.4479 3.13677 7.32377 3.3009 8.44665L3.3009 8.44177C3.9704 9.4249 4.64152 10.4064 5.31265 11.3879C5.67665 11.383 5.89277 10.811 6.3429 11.1214C7.63965 10.2293 6.22427 9.49965 6.20152 8.68552C6.01952 7.88115 5.5694 7.2539 4.93565 6.7469C4.6529 6.4089 3.8014 6.81677 3.8794 6.19602C4.13452 4.15827 2.51765 2.60965 2.5469 0.654773C2.41852 0.524773 2.26252 0.450023 2.08377 0.432148C1.45977 1.27877 1.21115 -0.624102 0.580648 0.222523" transform="translate(28.97989 40.22275)" id="Fill-114" fill="#A0AC67" stroke="none" />
    <path d="M0.658125 0.0574243C0.19175 -0.165201 0.196625 0.319049 0 0.496174C0.0455 0.616424 0.138125 0.736674 0.131625 0.853674C0.03575 2.8183 -0.186875 4.83167 2.1515 5.8018C2.89087 5.8408 3.40275 5.30942 4.02675 5.05592C3.562 3.87455 2.74625 2.8118 2.89737 1.42242C2.938 1.0308 2.73487 0.647299 2.2425 0.574174C1.39587 0.450674 1.48525 1.33955 0.992875 1.82542C1.50475 0.986924 1.18787 0.496174 0.658125 0.0574243" transform="translate(34.29319 51.11464)" id="Fill-116" fill="#A5AE69" stroke="none" />
    <path d="M1.92075 1.54375C0.91 1.64938 0.975 0.453375 0 0C0.736125 1.79725 -0.290875 3.94063 2.13363 4.89938C1.80375 3.79438 1.4235 2.6715 1.92075 1.53888L1.92075 1.54375Z" transform="translate(30.35987 47.12581)" id="Fill-118" fill="#A0AC67" stroke="none" />
    <path d="M1.80763 0C2.105 1.04488 0.759501 1.00263 0.548251 1.88175C0.432876 2.35788 -0.3585 2.85513 0.194001 3.4125C0.873251 4.09663 0.767626 2.45863 1.54438 2.938C1.56713 3.20125 1.598 3.5815 1.6305 3.96175C1.3965 4.79213 2.12125 5.21625 2.41863 5.82075C2.81513 5.73625 3.18238 5.8045 3.51875 6.03363C4.07775 5.9735 4.61238 5.8435 5.05438 5.4665C6.07163 5.97675 6.69888 5.99788 6.1805 4.57113C6.11388 4.3875 6.03913 4.19738 6.02938 4.00563C5.87825 1.02375 5.01213 0.19825 1.80763 0" transform="translate(40.29905 41.9679)" id="Fill-120" fill="#AFCD86" stroke="none" />
    <path d="M1.1442 1.46494C1.84132 0.351813 0.757448 0.454188 0.253698 0.160062C0.539698 0.603687 0.528323 1.24881 1.1442 1.46494" transform="translate(47.14203 42.52641)" id="Fill-122" fill="#B1CF8C" stroke="none" />
    <path d="M5.76225 3.53925C5.68425 2.9575 5.60788 2.37575 5.52988 1.794C5.21788 1.15538 4.485 1.29513 4.00563 0.966875C3.822 0.923 3.63838 0.879125 3.45638 0.833625C2.75763 0.87425 2.38388 0.294125 1.86063 0C1.846 0.820625 0.24375 0.918125 0.924625 2.054C1.17813 2.509 0.979875 2.73487 0.528125 2.83238C0.547625 3.7895 0.6955 4.77262 0 5.59325C0.066625 5.7005 0.13 5.80613 0.195 5.91337C1.3065 5.56887 1.90125 5.76712 1.95488 7.13862C1.97763 7.6895 2.53175 7.072 2.84538 6.99725C3.796 7.23288 4.8815 7.62288 4.1925 5.88412C4.004 5.408 4.35013 4.89937 4.07388 4.446C4.70113 5.72487 4.758 6.92412 3.53438 7.92513C3.79438 8.71 3.28575 9.85075 4.57275 10.1579C6.13925 10.3285 5.79638 8.89688 6.26438 8.13963C6.68363 7.54488 6.22213 6.97937 6.21725 6.39762C6.11163 5.43725 6.08725 4.46387 5.76225 3.53925" transform="translate(12.92476 8.309925)" id="Fill-124" fill="#A1AC6E" stroke="none" />
    <path d="M0 1.10519C0.654875 1.82344 1.86225 1.87869 2.21975 2.95444C2.50412 2.15657 3.6855 1.63332 2.95587 0.529943C1.6705 -0.820432 0.963625 0.799693 0 1.10519" transform="translate(10.41609 16.88372)" id="Fill-126" fill="#D3D790" stroke="none" />
    <path d="M4.19376 2.95498C4.10926 2.86398 4.02964 2.7681 3.95814 2.66735C2.89864 2.65598 2.57526 1.7021 1.96589 1.11385C1.51413 1.03423 1.41826 0.593852 1.15338 0.322477C0.600885 -0.246273 0.0987595 -0.0122734 0.0483845 0.631227C-0.0621156 1.99785 -0.0344906 3.3856 0.688635 4.63685C0.786135 4.80748 0.916135 5.0821 1.06238 5.0691C3.49989 4.87248 4.04264 7.1816 5.44014 8.35323L5.44501 8.35485C5.57014 7.43998 5.74726 6.5186 5.08751 5.70935C4.72839 4.81235 3.35526 4.24198 4.19376 2.95498" transform="translate(33.00151 40.91807)" id="Fill-128" fill="#7C8C53" stroke="none" />
    <path d="M1.13792 1.17367C1.2988 0.913672 1.52792 0.619547 1.17205 0.346547C0.957548 0.180797 0.661798 0.177547 0.471673 0.416422C0.258798 0.684547 0.151548 1.01605 0.442423 1.2858C0.666673 1.49217 0.920173 1.3833 1.13792 1.17367" transform="translate(43.03819 29.72164)" id="Fill-130" fill="#98C27E" stroke="none" />
    <path d="M0.627675 1.45519C0.9868 1.09606 1.43042 0.771062 0.968925 0.169813C0.36605 0.485063 0.35955 0.927063 0.627675 1.45519" transform="translate(45.7573 28.49584)" id="Fill-132" fill="#B1CF8C" stroke="none" />
    <path d="M1.17625 3.78145C-1.01587 5.0197 0.524627 6.8787 0.542502 8.40945C0.553877 9.29995 0.997502 10.5853 2.45188 10.5821C2.32188 9.20407 3.61538 8.7247 4.33363 7.89595C3.82825 7.17607 3.11488 8.14295 2.74113 7.4962C2.48438 6.6512 2.51363 5.97682 3.65113 5.95732C4.813 5.18707 3.20425 4.2332 3.82013 3.42557C4.04113 2.79995 4.25888 2.17595 4.47988 1.55032C3.331 2.03457 3.66575 0.832073 3.25788 0.471323C3.071 0.248698 2.8435 0.0829479 2.56238 0.00332287C2.13338 -0.0275521 1.86363 0.156073 1.77588 0.581823C1.83763 0.983198 1.81 1.3602 1.44925 1.63482C1.38913 1.68845 1.33225 1.74207 1.27538 1.79407C1.07713 2.1727 0.901627 2.5627 0.680627 2.9267C0.368627 3.44345 0.375127 3.46945 1.17625 3.78145C1.42975 3.8562 1.66863 3.4337 1.72225 3.56207C1.82463 3.81557 1.7645 4.18607 1.46063 4.33557C1.40375 4.3632 1.46388 3.87895 1.17625 3.78145" transform="translate(36.01577 20.42179)" id="Fill-134" fill="#8BBF78" stroke="none" />
    <path d="M1.56572 0.898679C1.20497 0.705304 1.23584 -0.344446 0.831218 0.115429C0.371343 0.640304 -0.550032 1.58768 0.654093 2.43755C0.957968 1.92405 1.26184 1.41055 1.56572 0.898679" transform="translate(38.10199 25.48108)" id="Fill-136" fill="#6FAD63" stroke="none" />
    <path d="M19.3489 9.7565C19.3083 9.40712 19.4984 9.17637 19.7551 8.98137C19.8185 8.92125 19.8835 8.86275 19.9485 8.80425C20.2751 8.17862 20.2654 7.45875 20.5156 6.81037C20.5124 6.72425 20.5059 6.6365 20.4994 6.54875C19.5374 5.52012 20.4571 3.97312 19.5114 2.93962C18.4649 4.88475 16.237 4.13237 14.7079 5.018C14.1407 5.34625 14.0611 4.59387 13.9506 4.18275C13.6744 3.17525 13.39 2.17425 12.6766 1.365C11.2856 1.534 10.8371 2.89087 9.61512 3.92762C10.0539 2.08 7.904 2.07675 7.94137 0.576875C7.95437 0.138125 7.2865 0.28275 6.95988 0.481C6.25625 0.911625 5.863 0.56225 5.51525 0C4.45738 0.144625 3.07938 -0.336375 3.10375 1.62825C3.11512 2.418 1.95487 2.57887 1.3455 2.75762C0.898625 2.89087 0.9945 2.13687 1.11312 1.58925C1.25125 0.9555 0.273 0.897 0 0.378625C0.017875 1.33412 0.037375 2.28962 0.056875 3.24675C1.05625 5.291 1.27562 7.68787 2.86488 9.46562C3.50837 9.152 3.88375 9.40225 4.00563 10.0539C4.1405 10.7819 4.5825 11.2954 5.13338 11.8267C4.97738 10.8956 4.51587 10.0636 5.6355 9.28687C6.123 8.94725 5.96375 7.618 5.3625 7.14187C4.082 6.1295 4.1665 5.05862 4.76613 3.79762C4.87337 3.57337 5.01312 3.15575 4.92537 3.08262C3.2565 1.70462 5.40637 2.12225 5.64037 1.7875C6.21075 0.97825 6.48213 1.677 6.773 2.27012C7.25562 3.25325 9.09188 3.328 8.61737 4.9855C9.87187 4.7645 11.0289 5.74275 12.0266 5.67612C14.5226 5.50712 15.7966 6.81687 16.9634 8.59137C17.4606 9.34862 17.8555 10.1806 18.603 10.7461L18.6014 10.7461C19.1376 10.634 19.2757 10.2196 19.3489 9.7565" transform="translate(18.6875 11.47055)" id="Fill-138" fill="#BCD598" stroke="none" />
    <path d="M0 4.57769C0.164125 4.78569 0.326625 4.99532 0.492375 5.20494C1.55838 5.32194 1.7095 4.44444 2.05238 3.77332C2.36275 2.88932 2.47325 1.97769 2.39038 1.04332C2.223 0.724816 2.05563 0.406316 1.88825 0.0861912C1.12613 -0.196559 0.957125 0.256816 0.983125 0.858066C1.00425 1.31632 1.07413 1.76319 0.74425 2.14507L0.75075 2.14019C0.15925 2.84707 0.489125 3.83019 0.024375 4.57607L0 4.57769Z" transform="translate(38.44262 15.87407)" id="Fill-140" fill="#639F57" stroke="none" />
    <path d="M0.241147 1.256C0.832647 1.39575 1.36565 1.20238 1.38352 0.601126C1.39815 0.144501 0.925272 0.368751 0.637647 0.477626C0.506022 0.737626 0.374397 0.996001 0.241147 1.256" transform="translate(13.21223 9.886136)" id="Fill-142" fill="#8F8D5E" stroke="none" />
    <path d="M9.74805 15.5684C9.35318 14.7526 8.9713 13.9271 8.55693 13.1211C8.24168 12.5118 7.65668 11.826 7.08955 11.956C4.8243 12.476 5.13955 10.7405 4.86493 9.56077C4.72355 8.95627 4.7853 8.30302 4.75443 7.66277C5.50518 7.42065 5.61243 8.49477 6.2738 8.32902C5.14768 6.7479 5.06643 4.7394 4.1353 3.07865C3.8948 1.96065 3.1798 1.16927 2.33968 0.460771C2.2633 0.356771 2.18693 0.252771 2.11055 0.147146C0.339304 -0.302979 -0.141697 0.230021 0.0338035 2.43677C0.368554 2.87552 0.789429 3.24765 1.35493 3.0104C1.8668 2.79427 1.40205 2.35877 1.4248 1.88915C2.4843 3.55152 3.30493 5.13265 2.51518 7.05827C2.30555 7.8724 2.62405 8.54515 2.82068 9.31702C3.12293 10.4984 4.4993 11.5709 3.51293 13.1683C3.23668 13.6168 4.25393 14.0035 4.77068 13.2089C5.80093 13.1569 5.94068 14.7039 7.06518 14.4861C7.63393 14.79 8.6918 14.5105 8.44643 15.7813C8.36843 16.1826 8.56018 16.22 9.74805 15.5684" transform="translate(28.69295 33.70258)" id="Fill-144" fill="#8D9F5D" stroke="none" />
    <path d="M0 2.22415C0.143 2.79128 0.286 3.36003 0.427375 3.9174C1.24637 4.0669 0.8775 2.86115 1.49337 3.02528C2.31237 3.2414 1.70625 3.90765 1.75662 4.36103C1.8915 5.5554 2.75275 6.31428 3.36862 7.22265C3.84475 7.30715 4.2185 7.12353 4.52562 6.77415C4.28025 6.6799 4.03812 6.5759 3.7895 6.49303C2.90387 6.20378 2.88275 5.73415 3.51 5.14265C4.93837 3.8004 4.19575 2.62878 3.25975 1.4344C2.68612 1.83253 3.289 2.45978 2.91037 2.90178C1.82487 2.14128 1.1115 1.08665 0.41275 0.0190282C0.299 -0.0167218 0.21125 -0.00209677 0.15275 0.0629032C0.092625 0.131153 0.069875 0.176653 0.086125 0.199403C0.053625 0.873778 1.261 1.60178 0 2.22415" transform="translate(34.95131 48.94791)" id="Fill-146" fill="#99A164" stroke="none" />
    <path d="M1.57462 2.73894C1.6835 2.68044 1.794 2.62031 1.90125 2.55694C2.03287 2.29856 2.1645 2.04019 2.2945 1.78019C1.7745 1.25531 1.2675 0.714186 0.728 0.208811C0.320125 -0.174689 0.079625 -0.00243883 0 0.501311C0.524875 1.24719 1.04975 1.99306 1.57462 2.73894" transform="translate(33.46233 46.40903)" id="Fill-148" fill="#7D8750" stroke="none" />
    <path d="M0.710125 0C0.154375 0.71175 0.362375 1.64937 0 2.418C0.26975 2.90062 -0.001625 3.588 0.58175 3.952C1.4625 3.44175 1.75662 2.613 1.82 1.66237C1.4495 1.10825 1.08062 0.554125 0.710125 0" transform="translate(40.12239 16.91771)" id="Fill-150" fill="#A3C68B" stroke="none" />
    <path d="M1.76963 1.534C1.65263 0.992875 1.9695 0.28925 1.18788 0C0.862876 0.628875 0.796251 1.43488 0 1.742C0.482625 2.10763 0.2925 3.64813 1.56163 2.63575C1.4625 2.23763 1.53238 1.87038 1.76963 1.534" transform="translate(38.93435 19.33587)" id="Fill-152" fill="#75AF6D" stroke="none" />
    <path d="M1.96138 0.230015C1.79563 0.16989 1.391 -0.21036 1.508 0.16014C1.86063 1.29927 1.14563 1.72339 0.450125 2.23202C0.4745 2.59439 0.251875 2.81539 0 3.01852C0.069875 3.11439 0.1365 3.21189 0.203125 3.31102C1.5145 3.91227 1.36825 5.43652 2.14988 6.37577C2.34 6.41152 2.53175 6.40339 2.72025 6.36277C3.18988 6.21652 3.6465 6.04589 4.0105 5.69489C4.21363 3.54177 2.89088 1.95902 1.96138 0.230015" transform="translate(17.04625 16.23546)" id="Fill-154" fill="#8B9561" stroke="none" />
    <path d="M0.689 4.27906C2.76088 3.52993 2.05888 1.97481 1.74038 0.559431C1.61038 -0.0141938 1.10013 -0.116569 0.658125 0.115806C0.00325 0.460306 0.325 0.590306 0.762125 1.00143C1.19763 1.41256 0.508625 2.25268 1.19925 3.04243C1.62338 3.52668 0.26325 2.66056 0 3.35118C0.23075 3.66156 0.45825 3.97031 0.689 4.27906" transform="translate(15.76997 11.95551)" id="Fill-156" fill="#88925C" stroke="none" />
    <path d="M0.611 0C0.498875 0.076375 0.38675 0.15275 0.27625 0.23075C0.026 0.797875 0.18525 1.3 0.518375 1.7745C1.079 2.4245 0.957125 3.068 0.507 3.7115C0.476125 3.79437 0.450125 3.8805 0.424125 3.96662C0.858 4.147 0.287625 5.28125 1.29025 4.89612C1.60225 4.7775 1.68187 3.78787 2.21975 4.61337C2.63737 5.252 1.86712 5.447 1.6315 5.85325C1.17487 6.6365 0.372125 5.252 0 6.17337C1.118 6.9485 2.10275 7.84875 2.38063 9.25112C2.48625 9.79062 2.86325 9.96937 3.237 10.2066C3.1655 9.05287 2.44725 7.75937 4.14862 6.61375C3.9845 8.36712 3.14925 9.97587 4.784 11.0776C4.784 11.0792 4.78562 11.0776 4.78562 11.0776C5.53637 10.2879 5.00987 8.99925 5.89225 8.25987C6.20912 7.61312 6.1555 7.01512 5.66312 6.474C5.06837 4.6865 4.20712 3.0485 2.92825 1.64937C2.81287 1.51125 2.67637 1.39912 2.52362 1.3065C1.768 1.04487 1.443 0.147875 0.611 0" transform="translate(18.98211 22.28785)" id="Fill-158" fill="#B2BA73" stroke="none" />
    <path d="M2.58298 4.50613C2.3961 3.99588 2.2076 3.484 2.0191 2.97213C1.78835 1.68513 1.95735 0.12675 0.0106017 0C-0.130773 1.2025 1.19523 2.04913 0.813352 3.31175C0.983977 3.83013 1.35935 4.2315 1.60798 4.706C1.97848 4.85713 2.32785 4.90913 2.58298 4.50613" transform="translate(17.23877 19.54631)" id="Fill-160" fill="#BEC37D" stroke="none" />
    <path d="M1.43813 1.313C1.417 0.67925 1.12938 0.23075 0.5265 0C0.351 0.066625 0.1755 0.13325 0 0.19825C0.641875 0.996125 0.840125 1.88987 0.814125 2.91687C0.7995 3.46125 1.42025 3.44987 1.88013 3.39787L1.88013 3.3995C1.96138 2.65525 2.3855 1.83787 1.43813 1.313" transform="translate(17.52497 22.85692)" id="Fill-162" fill="#B2BA73" stroke="none" />
    <path d="M0.895495 1.21577C1.15874 1.02564 1.36837 0.804645 1.32449 0.440645C0.83212 0.421145 0.0992445 0.0473949 0.342995 1.11014C0.50387 1.26939 0.687495 1.30514 0.895495 1.21577" transform="translate(24.79137 37.07134)" id="Fill-164" fill="#B9C478" stroke="none" />
    <path d="M1.14433 0.571046C0.960706 0.536921 0.775456 0.501171 0.59183 0.465421C0.424455 0.616546 0.136831 0.806671 0.35783 1.0163C0.669831 1.31367 1.03058 1.08455 1.34746 0.900921C1.28246 0.788796 1.21421 0.678296 1.14433 0.571046" transform="translate(24.54253 37.71606)" id="Fill-166" fill="#C8D084" stroke="none" />
    <path d="M0.984782 0.68593C-0.295718 1.39768 -0.0162182 2.55306 0.136532 3.67106C1.12128 3.88231 1.58766 2.98693 2.31728 2.64893C2.44728 2.14356 3.02578 1.90306 3.07941 1.35218C3.16878 0.729805 2.91203 0.30893 2.34003 0.0651795C1.66891 -0.211071 1.43003 0.466555 0.984782 0.68593" transform="translate(23.63251 29.69442)" id="Fill-168" fill="#A2AB69" stroke="none" />
    <path d="M0.681677 0.0493537C0.645927 0.544979 -0.384323 0.644104 0.156802 1.36885C0.606927 1.41273 1.20818 0.972354 1.46655 1.5801C1.62743 1.9571 1.0928 2.14073 0.829552 2.37798C0.979052 2.58923 1.12693 2.80048 1.2748 3.01335C1.57055 3.56423 2.00605 3.89898 2.64143 3.68935C3.00218 3.57073 2.9973 3.21648 2.86568 2.8931C2.04668 2.34873 3.04768 1.38998 2.39605 0.804979C1.91993 0.336979 1.4568 -0.160271 0.681677 0.0493537" transform="translate(25.79396 30.97368)" id="Fill-170" fill="#919F63" stroke="none" />
    <path d="M1.89475 1.63397C1.56163 1.14484 1.586 0.654092 1.88988 0.161717C1.001 -0.160033 0.297375 -0.0576583 0 0.983968C0.5915 1.31547 1.19275 1.62422 1.89475 1.63397" transform="translate(23.33045 34.56876)" id="Fill-172" fill="#9FAE6D" stroke="none" />
    <path d="M0.343623 1.7485C0.345249 3.77 2.123 5.21463 2.12787 7.23612C1.99787 8.0275 2.24975 8.65475 2.93062 9.09513L2.9095 9.087C3.47175 9.29825 3.62287 10.2375 4.45812 9.96937C4.67912 9.81825 4.90012 9.66713 5.1195 9.51437C4.37525 8.41587 3.63262 7.31738 2.88837 6.21887C2.331 3.97475 1.39337 1.90125 0.0803735 0C-0.265752 0.648375 0.636124 1.10825 0.343623 1.7485" transform="translate(18.664 14.71698)" id="Fill-174" fill="#A7C882" stroke="none" />
    <path d="M0.716755 3.30487C1.33588 2.28599 1.84613 1.24437 1.162 0.0564927C1.11975 -0.0182573 0.742755 -0.0231323 0.655005 0.0678677C-0.37362 1.15499 0.391755 2.22749 0.71513 3.30487L0.716755 3.30487Z" transform="translate(34.12991 27.30396)" id="Fill-176" fill="#93BF79" stroke="none" />
    <path d="M1.30845 1.31251C1.16707 1.00051 1.7147 0.529258 1.18657 0.363508C0.637323 0.191258 0.232698 0.459383 0.203448 1.10451C0.572323 1.17438 0.939573 1.24426 1.30845 1.31251" transform="translate(24.77053 21.35543)" id="Fill-178" fill="#A7C882" stroke="none" />
    <path d="M1.54863 0.992082C0.853125 1.00996 0.97175 -0.395668 0 0.109707C0.793 1.93946 2.28963 3.41496 2.70725 5.43808C3.497 5.27071 3.887 5.80208 4.27863 6.33671C4.68813 6.53983 4.90913 6.86158 4.901 7.32796C5.42425 7.61558 5.94425 7.90321 6.46588 8.19083C6.53738 8.00558 6.56338 7.81383 6.54875 7.61558C6.44638 6.89896 6.08888 6.34483 5.46813 5.96621C4.45575 4.07633 2.64388 2.81696 1.54863 0.992082" transform="translate(21.57383 23.69443)" id="Fill-180" fill="#818E59" stroke="none" />
    <path d="M1.23175 1.12635C1.34388 1.36035 1.50475 1.6691 1.23825 1.8186C0.75075 2.09322 0.407875 1.6106 0 1.45622L1.014 3.64185C1.38613 4.2041 1.65263 3.99285 1.88338 3.52485C1.88663 2.27522 2.00688 1.1231 3.73425 1.31972C3.69363 1.02235 3.653 0.724975 3.614 0.429225C2.9965 0.351225 2.45863 -0.0696503 1.80375 0.00997468C1.26263 0.20335 1.1375 0.6096 1.23175 1.12635" transform="translate(27.06876 32.53016)" id="Fill-182" fill="#9FAE6D" stroke="none" />
    <path d="M2.01337 3.01275C2.46837 3.59937 3.01275 3.6855 3.64 3.29875C3.57175 3.18662 3.50025 3.07612 3.4255 2.96725C3.198 1.74362 1.60712 1.73225 1.30325 0.576875C0.869375 0.385125 0.433875 0.193375 0 0C0.258375 0.632125 0.51675 1.26587 0.775125 1.898C1.42025 2.01337 1.2935 2.9835 2.01337 3.01275" transform="translate(27.0426 29.66064)" id="Fill-184" fill="#919F63" stroke="none" />
    <path d="M0 0C0.04225 1.38775 1.19925 1.78587 2.12387 2.38875C2.65687 0.49075 0.667875 0.832 0 0" transform="translate(28.34504 30.23833)" id="Fill-186" fill="#9FAE6D" stroke="none" />
    <path d="M0.00112849 0.0001332C-0.0476215 1.31801 1.49775 1.53901 1.79513 2.61801C1.618 1.45776 1.89588 -0.0161168 0.00112849 0.0001332" transform="translate(31.03215 34.16338)" id="Fill-188" fill="#9FAE6D" stroke="none" />
    <path d="M0.869375 1.55512C0.598 1.7355 0.316875 1.84275 0 1.67212C0.056875 3.14762 0.274625 4.53537 1.89475 5.16262C1.93863 5.93937 2.38225 6.27087 3.12813 6.26112L3.12488 6.26112C3.55713 5.96212 4.00075 5.67613 4.42 5.35763C4.68163 5.161 4.91725 4.589 4.64263 4.6085C2.69263 4.74987 4.02838 3.18012 3.61563 2.51712C3.08588 1.66725 1.911 1.28863 1.9565 0C1.17325 0.729625 1.73063 1.28537 1.97763 1.84275C1.482 2.0605 1.209 1.68837 0.869375 1.55512" transform="translate(28.08341 34.50005)" id="Fill-190" fill="#98A662" stroke="none" />
    <path d="M1.65725 1.13043C1.15025 0.872059 0.704995 0.543809 0.42387 0.0303088C0.17037 0.230184 -0.0392553 0.452809 0.00624475 0.813559C0.39137 1.78206 0.95687 1.80481 1.65725 1.13043" transform="translate(29.5538 39.63155)" id="Fill-192" fill="#8D9F5D" stroke="none" />
    <path d="M1.11854 1.25899C1.26642 0.820243 1.19004 0.477368 0.68792 0.366868C0.62617 0.352243 0.523795 0.527743 0.439295 0.613868C0.666795 0.828368 0.89267 1.04287 1.12017 1.25899L1.11854 1.25899Z" transform="translate(44.23342 46.1759)" id="Fill-194" fill="#A3C47E" stroke="none" />
    <path d="M1.20972 1.29063C1.20809 0.87463 1.26497 0.671505 1.19509 0.535005C1.05372 0.258755 0.785592 0.31563 0.553217 0.42288C0.190842 0.587005 0.556467 0.72188 0.613342 0.79988C0.728717 0.95913 0.922091 1.06475 1.20972 1.29063" transform="translate(41.5429 45.42455)" id="Fill-196" fill="#A3C47E" stroke="none" />
    <path d="M0.442336 1.4755C0.580461 2.03612 -0.466038 2.40012 0.257086 3.12325C1.54409 2.44725 1.52459 1.23987 1.62696 0C0.590211 0.09425 0.853461 1.03512 0.442336 1.4755" transform="translate(36.74969 22.72774)" id="Fill-198" fill="#7AAB69" stroke="none" />
    <path d="M0.982463 0.278112L0.234963 1.26774C0.753338 1.47574 1.14171 1.25474 1.38546 0.827362C1.43096 0.747737 1.12546 0.466612 0.982463 0.278112" transform="translate(37.05391 20.94894)" id="Fill-200" fill="#A6CA85" stroke="none" />
    <path d="M1.17596 4.27122C0.824958 3.10285 1.56921 2.2026 1.80971 1.18535C1.91371 0.741723 2.02096 0.244473 1.41971 0.0462232C0.844458 -0.143902 0.634832 0.288348 0.387832 0.689723C-0.492919 2.11322 0.280582 3.17922 1.17596 4.27122" transform="translate(36.23983 16.1742)" id="Fill-202" fill="#C7D9A4" stroke="none" />
    <path d="M0.453514 2.43587C1.35214 1.82 0.900389 0.801125 1.17989 0C0.162639 0.580125 0.521764 1.57137 0.453514 2.43587" transform="translate(38.01284 18.01361)" id="Fill-204" fill="#7CB273" stroke="none" />
    <path d="M2.00038 1.93766C1.9825 1.20966 1.64288 0.61979 1.19763 0.0770395C0.702 -0.15371 0.365625 0.185915 0 0.413415C0.654875 0.93504 0.541125 2.46904 2.00038 1.93766" transform="translate(19.59393 21.87525)" id="Fill-206" fill="#808A59" stroke="none" />
    <path d="M0.00602949 0.117C0.376529 0.765375 -0.249095 1.625 0.44803 2.2035C2.3834 1.80863 1.4734 0.875875 0.864029 0C0.579655 0.039 0.29203 0.078 0.00602949 0.117" transform="translate(18.95707 24.05293)" id="Fill-208" fill="#C0C77F" stroke="none" />
    <path d="M1.59629 1.573C1.66779 0.624 0.709043 0.534625 0.283293 0C0.198793 0.22425 0.111043 0.450125 0.0249177 0.674375C0.671668 0.94575 0.380793 1.47225 0.361293 1.92237C0.930043 2.36275 1.07954 1.31625 1.59629 1.573" transform="translate(24.25567 28.45749)" id="Fill-210" fill="#919F63" stroke="none" />
    <path d="M1.43163 1.11475C1.07413 0.680875 0.91975 0.026 0.193375 0C0.268125 0.108875 0.342875 0.21775 0.416 0.326625C0.729625 0.882375 -0.1365 1.61363 0.676 2.09625C0.927875 1.76963 1.18138 1.443 1.43163 1.11475" transform="translate(27.62435 31.55864)" id="Fill-212" fill="#7E8951" stroke="none" />
  </g>
</svg>