<?xml version="1.0" encoding="utf-8"?>
<svg width="206px" height="80px" viewBox="0 0 206 80" version="1.1" xmlns:xlink="http://www.w3.org/1999/xlink" xmlns="http://www.w3.org/2000/svg">
  <desc>Created with Lunacy</desc>
  <defs>
    <path d="M0 0L14.1919 0L14.1919 6.07087L0 6.07087L0 0Z" transform="translate(1.216824 1.998258)" id="path_1" />
    <path d="M0.198625 0L2.49108 0L2.49108 2.68971L0.198625 2.68971L0.198625 0Z" transform="translate(2.491084 2.588037)" id="path_2" />
    <path d="M0 0L21.1503 0L21.1503 10.6042L0 10.6042L0 0Z" transform="translate(0.6993241 1.952728)" id="path_3" />
    <clipPath id="mask_1">
      <use xlink:href="#path_1" />
    </clipPath>
    <clipPath id="mask_2">
      <use xlink:href="#path_2" />
    </clipPath>
    <clipPath id="mask_3">
      <use xlink:href="#path_3" />
    </clipPath>
  </defs>
  <g id="Group-236">
    <path d="M12.5228 13.3652C10.2258 13.1285 8.23541 11.9046 6.03254 11.364C4.91362 11.3317 4.03409 10.7696 3.20835 10.0864C2.97703 10.0299 2.74303 9.97613 2.51171 9.91964C1.79625 9.32253 0.714988 9.36556 0.117873 8.55865C-0.13227 8.1525 0.0855962 7.75174 0.136701 7.34828C0.370705 6.92331 0.725747 6.74579 1.2072 6.81572C1.69404 6.92869 2.17012 7.14924 2.67579 7.00938C2.95551 6.92869 3.44504 6.76999 3.1949 6.42571C2.03832 4.83609 3.38856 3.20344 3.06579 1.53313C2.83179 0.320075 4.5263 0.201728 5.59681 0C6.13206 0.145244 6.47096 0.535252 6.62966 1.01671C7.28594 3.01247 8.39679 4.84147 8.77066 6.93676C8.82177 7.21111 8.99391 6.97172 9.09881 6.97441C11.2291 6.99593 12.7138 8.24395 13.2033 10.4307C13.0823 10.5544 12.8778 10.4899 12.7649 10.627C13.7359 11.0924 14.1743 11.9988 14.1017 13.3894C13.5745 13.5212 13.0554 13.0908 12.5228 13.3652" transform="translate(22.07491 62.28046)" id="Fill-1" fill="#C4DFB7" stroke="none" />
    <path d="M6.83141 3.44283C6.94438 3.58 7.05466 3.71718 7.16762 3.85435C7.43122 4.62092 7.99605 5.22879 8.28923 5.97653C8.38875 6.12716 8.48827 6.27778 8.5851 6.4284C9.09883 8.40265 10.1532 10.2236 10.1263 12.3619C10.1102 13.5884 9.77395 14.4222 8.53131 14.7396C8.05792 14.8042 7.61143 14.7262 7.20797 14.4626C6.81527 13.6691 6.20471 13.3275 5.31979 13.5615C4.85179 13.0397 4.68771 12.3565 4.35688 11.7621C4.26274 11.2779 4.19012 10.8234 3.83239 10.4011C1.9738 8.22244 2.05987 7.87816 4.79799 6.78882C3.359 6.6113 1.79628 8.4672 0.951709 6.33964C0.561701 5.3579 1.06468 4.54561 1.90118 3.89739C1.82317 3.74676 1.64027 3.91891 1.48158 3.94849C0.862949 4.06684 0.0641053 4.25512 0.00224205 3.40517C-0.043483 2.81881 0.618185 2.38577 1.25565 2.20018C1.11309 1.84245 2.2347 2.96137 1.51924 1.97963C0.903294 1.13775 0.628944 0.424974 1.92538 0C3.03892 0.0511045 3.86466 0.242074 4.29233 1.60576C4.59088 2.5606 6.01912 2.75157 6.83141 3.44283" transform="translate(40.84044 55.94647)" id="Fill-3" fill="#EDD6CD" stroke="none" />
    <path d="M0.0935192 1.54503C0.109657 1.43206 0.123106 1.31909 0.136555 1.20613C-0.0974501 0.681634 -0.0732427 0.208245 0.54808 0.0280345C0.997261 -0.103761 1.24202 0.25128 1.31465 0.630529C1.48141 1.50468 2.40936 1.99152 2.45777 2.91678C2.50081 3.18306 2.51157 3.45203 2.50888 3.72369C1.94135 6.43761 3.97477 7.91964 5.47294 9.40974C5.47832 9.38822 5.44873 8.95249 5.84143 8.78304C6.88503 8.32578 7.97974 8.00571 7.47677 6.38651C7.33152 5.9185 8.08195 5.49352 8.66831 5.39938C9.25467 5.29986 9.35956 5.80553 9.53977 6.19554C9.7173 6.58016 9.59088 7.49735 10.4489 6.69044C10.6237 6.52906 10.9035 6.62858 11.124 6.81148C11.7561 7.34404 12.1596 10.5367 11.4817 10.8218C9.77916 11.5427 10.1719 13.0543 9.85178 14.3077C9.61509 15.1065 9.55053 15.8946 9.9782 16.6612C10.1046 16.9974 10.3494 17.3578 9.94861 17.6537C9.71999 17.8205 9.48329 17.7182 9.30577 17.5058C8.00933 17.2153 7.39339 15.9699 6.31481 15.3755C5.7446 14.8967 5.29541 14.3346 5.091 13.603C4.98879 13.4631 4.88658 13.3206 4.78437 13.1807C3.98015 12.433 3.45028 11.505 2.98765 10.5287C2.13232 8.32041 1.27699 6.11216 0.421664 3.90659C-0.127037 3.18037 0.488906 2.29277 0.0935192 1.54503" transform="translate(4.952911 48.15701)" id="Fill-5" fill="#BEDCB3" stroke="none" />
    <path d="M6.81361 4.37039C7.98632 4.36501 8.18536 5.76366 9.18593 6.00573C8.89814 7.5039 9.98747 8.0015 11.0418 8.43992C11.9025 8.80034 12.1608 9.16614 11.3565 9.84126C10.8831 9.96229 10.4044 9.75788 9.92829 9.86277C8.52964 10.0053 7.443 9.46739 6.61726 8.35654C6.27836 8.15481 5.72966 7.98805 6.02015 8.60937C6.92389 10.5379 5.50372 12.2324 5.614 14.0722C5.64897 14.6774 5.08951 15.2207 4.36867 15.2583C3.61017 15.2987 2.93236 14.9033 2.73601 14.2309C2.38904 13.0232 2.35945 11.7698 3.44879 10.823C4.69143 9.74712 4.59729 9.23876 2.98078 8.56365C2.62036 8.41033 2.3218 8.27585 2.27069 7.8186C2.04745 5.81476 0.847838 4.15521 0.282999 2.27242C-0.0182482 1.53006 -0.163492 0.785009 0.282999 0.0453391C0.452451 -0.0380419 0.595005 -0.00576539 0.718732 0.136789C2.53697 0.704318 3.64513 2.26166 5.13254 3.29451C5.65166 3.71679 6.4236 3.74638 6.81361 4.37039" transform="translate(25.76144 41.74089)" id="Fill-7" fill="#DDE1C4" stroke="none" />
    <g id="Group-11" transform="translate(32.2765 67.97968)">
      <path d="M0 0L14.1919 0L14.1919 6.07087L0 6.07087L0 0Z" transform="translate(1.216824 1.998258)" id="Clip-10" fill="none" stroke="none" />
      <g clip-path="url(#mask_1)">
        <path d="M2.67895 5.57327C2.59826 4.87664 0.976364 4.70449 2.00921 3.57213C2.10604 3.46992 1.55196 3.06915 1.14582 3.28971C0.363111 3.71737 0.231315 3.17943 0 2.63342C0.661668 2.35907 1.16733 2.69797 1.69452 2.72218C2.12218 2.36176 2.5875 2.36714 3.12544 2.59845C1.96618 1.96637 1.96618 1.96637 3.90008 0.121232C4.40305 -0.14505 4.9141 0.113162 5.42514 0.0943345C5.59997 0.121232 5.76673 0.172336 5.92812 0.244958C6.90986 0.922765 7.73829 1.76195 8.37037 2.75984C9.29832 4.22573 10.5302 4.4678 12.058 3.89489C12.7411 3.64206 13.4324 3.22246 14.1425 3.84379C14.2286 4.024 14.2043 4.18269 14.0537 4.31987C12.6766 5.65665 10.9283 5.68624 9.17728 5.69969C8.28699 6.01976 7.35366 5.8019 6.44723 5.92562C5.92274 5.76155 5.409 5.83686 4.90603 6.01976C4.10718 6.15156 3.35676 6.04128 2.67895 5.57327" transform="translate(1.216824 1.998258)" id="Fill-9" fill="#D3E4C5" stroke="none" />
      </g>
    </g>
    <path d="M0.288324 2.29163C0.0247323 1.51968 -0.222721 0.750428 0.339428 0C1.43683 0.36311 2.53154 0.454561 3.70963 0.408836C5.69733 0.330834 6.80549 1.54389 7.04218 3.47779C7.1417 4.30353 6.48541 4.48912 6.00395 4.93561C7.02873 5.65914 7.46984 5.11582 7.94861 4.35733C8.41124 3.62035 8.47311 2.45032 9.74803 2.47991C10.797 3.51007 10.3451 4.98134 10.7163 6.21322C11.0122 7.20035 9.70499 6.72427 9.04601 6.64358C8.66677 6.71889 8.37359 6.91793 8.16648 7.24338C7.65005 7.28373 7.13363 7.32407 6.61452 7.33214C5.91519 7.06317 5.21587 6.7942 4.51655 6.52792C3.96515 6.10564 3.26314 5.91198 2.77899 5.38748C2.46161 5.07548 2.14153 4.76347 1.82146 4.45147C2.0716 3.89739 1.33193 2.52564 2.94307 3.10123C2.99417 3.12006 3.06141 3.09047 3.12059 3.0824C3.10983 3.02054 3.09907 2.96137 3.06679 2.74081C2.18457 2.56867 1.1571 2.79461 0.288324 2.29163" transform="translate(14.13658 62.62286)" id="Fill-12" fill="#BFDDB5" stroke="none" />
    <path d="M2.46212 3.80325C2.46481 3.51276 3.37931 3.09585 2.4406 2.96675C1.59872 2.85109 1.19526 2.24591 0.595459 1.84514C-0.356697 1.21037 0.00372347 0.640151 0.49863 0C1.74665 0.847258 3.15068 1.47665 4.19698 2.6144C4.78334 3.05551 5.61714 3.2142 5.86729 4.0507C7.45691 5.58383 9.69743 6.38806 10.8056 8.46182C11.0584 8.83838 11.5399 8.98632 11.7524 9.40591C11.86 9.55653 11.9675 9.70447 12.0751 9.85509C12.5835 10.3581 12.9681 10.9444 13.2586 11.5953C13.2586 11.5953 13.221 11.6437 13.221 11.6437C12.7045 12.1171 11.9891 11.6034 11.9326 11.4474C11.5103 10.2505 10.6523 10.8126 9.61405 11.0144C11.1015 9.05894 9.55757 8.87066 8.48706 8.40265C7.73394 8.16864 7.02924 7.82167 6.3084 7.51236C6.16047 7.44242 6.02867 7.34559 5.90763 7.23263C5.64942 6.92331 5.39121 6.6113 5.04155 6.39075C4.16739 5.54349 2.81985 5.16424 2.46212 3.80325" transform="translate(34.4509 47.74528)" id="Fill-14" fill="#DBE3CC" stroke="none" />
    <path d="M0.0197209 11.9235C0.0412386 11.7971 0.0627562 11.668 0.0842739 11.5415C-0.0233144 11.0009 0.498489 10.5329 0.186483 9.93578C-0.327251 8.94059 0.299451 8.62858 1.10636 8.84107C2.01548 9.08045 1.45065 8.11216 1.89983 8.05029C3.72883 6.91255 3.01337 5.28796 2.68522 3.76559C2.41625 2.51219 1.44796 1.40672 1.89714 0C3.3442 1.64072 4.44698 3.47779 5.06561 5.58921C5.71652 6.44723 5.05485 7.41821 5.305 8.3112C5.80259 9.06431 5.51748 9.74481 4.8343 10.0218C3.23661 10.6754 1.83527 11.832 0.0197209 11.9235" transform="translate(47.52867 62.3746)" id="Fill-16" fill="#E4E6D3" stroke="none" />
    <path d="M3.28522 13.3315C3.30942 12.296 1.65256 12.0405 2.10443 10.779C2.16092 10.6203 1.81395 10.4858 1.70098 10.6311C1.52077 10.8651 1.44008 11.1771 1.31904 11.4568C1.21414 11.4111 1.10924 11.3788 0.998965 11.3573C0.479851 9.56593 -0.440029 7.83107 0.243157 5.87565C0.638544 5.42647 0.807995 4.97191 0.517507 4.36134C0.100602 3.48988 0.237777 2.52965 0.232398 1.6017C0.227019 0.964241 0.310399 0.286435 1.02855 0.0658788C1.80857 -0.173505 2.33037 0.267607 2.6881 0.934654C2.86562 1.26011 3.06466 1.57749 3.19108 1.93254C3.2368 2.11275 3.23411 2.29296 3.17225 2.46779C2.08023 2.89545 2.07216 3.66471 2.51596 4.57383C3.07542 5.72233 3.41701 6.91925 3.20453 8.213C3.07542 9.00378 3.44929 9.47448 4.0464 9.94518C4.86676 10.5961 5.17877 11.3976 5.01739 12.573C4.80759 14.0793 4.3342 14.1492 3.28522 13.3315" transform="translate(3.770426 37.90715)" id="Fill-18" fill="#CAE2BD" stroke="none" />
    <path d="M14.1963 6.88565C14.2043 7.52042 14.2151 8.15788 14.2259 8.79534C14.1398 8.81686 14.0537 8.84107 13.9703 8.86528C12.0015 8.2843 10.4899 6.84262 8.63665 6.04108C6.18364 4.11256 3.83283 2.02535 0.688565 1.23996C0.325455 1.14851 0.0107588 0.903742 0 0.451871C0.55677 -0.314696 1.45782 0.492216 2.07645 0L5.60535 1.41748C6.07336 1.73217 6.60592 1.9608 6.99055 2.39384C7.48008 2.59557 8.11754 2.48798 8.4161 3.08241C9.17459 3.64724 10.1375 3.91352 10.7804 4.65319C11.1811 4.7823 11.6411 4.8092 11.8482 5.27183C12.6174 5.8286 13.8654 5.68873 14.1963 6.88565" transform="translate(11.90277 34.95222)" id="Fill-20" fill="#C6D8B9" stroke="none" />
    <path d="M0.1829 0.38146C1.18078 0.311528 2.25129 -0.011237 3.15234 0.246975C3.95118 0.480979 3.25186 1.55686 3.69297 2.24543C2.87261 2.19432 2.89413 1.28789 2.21094 1.32286C1.71603 1.57838 2.68433 2.47405 1.71603 2.54129L1.33141 2.50902C0.92526 2.11094 0.158693 2.17011 0 1.45734C0.0161383 1.34706 0.0215177 1.23948 0.0161383 1.1292C0.231315 1.12113 0.55139 1.24754 0.564839 0.922091C0.570218 0.74726 0.317386 0.56167 0.1829 0.38146" transform="translate(14.242 64.53304)" id="Fill-22" fill="#CAE2BD" stroke="none" />
    <path d="M0.0492518 0.362294C1.30535 0.480641 2.56144 0.596298 3.81753 0.714646C4.05423 0.757681 4.29092 0.803406 4.52762 0.846441C5.01983 1.36824 5.82943 1.04817 6.3351 1.53232C6.57986 1.60225 6.82194 1.67218 7.06401 1.74211C6.58255 2.8449 5.7595 2.04067 5.08976 2.09447C3.57008 2.40916 2.2064 1.61839 0.748576 1.46238C0.302084 1.41397 -0.152476 1.00782 0.0492518 0.362294" transform="translate(6.914671 33.21064)" id="Fill-24" fill="#B9D4AC" stroke="none" />
    <path d="M1.9153 1.83707C1.43653 1.72141 0.960449 1.60576 0.481681 1.48741C0.49782 1.38251 0.508578 1.27761 0.513958 1.17002C1.00617 0.715463 1.53067 0.806913 2.06592 1.08395C2.42903 1.41748 1.99061 1.59231 1.9153 1.83707" transform="translate(20.23849 68.78256)" id="Fill-26" fill="#CAE2BD" stroke="none" />
    <path d="M18.8347 14.634C18.5954 15.4571 18.0386 16.0085 17.2909 16.4065C17.5571 16.8826 17.9256 16.5948 18.2457 16.5652C18.5685 16.5383 18.9181 16.5356 18.9854 16.9068C19.0176 17.1005 18.8267 17.3506 18.6976 17.5497C18.5012 17.8563 18.1462 17.9854 17.9337 17.6922C17.5168 17.1112 16.9466 17.3022 16.4194 17.2457C15.4161 15.6427 14.3833 14.088 12.1643 14.1095C12.0352 14.1095 10.459 14.2655 11.9114 13.4613C11.9518 13.4398 11.9867 13.3188 11.9733 13.3107C9.85919 11.7264 10.7064 8.65211 8.786 6.97373C7.7935 6.62676 7.52721 5.6504 6.98658 4.91073C5.65518 3.34263 5.48573 3.35877 4.79447 5.20122C4.45557 6.10496 3.689 6.38469 3.0354 5.93551C2.05904 5.26039 0.784115 4.87307 0.28383 3.61429C0.0847913 2.75358 -0.36439 1.8606 0.571629 1.13169C1.78469 1.47866 2.79333 1.22314 3.51417 0.125738C3.70514 0.125738 3.90149 0.184911 3.98487 0.346294C4.75681 1.8337 5.18717 1.03755 5.60407 0.112289C6.75796 0.184911 7.98715 -0.385307 9.0469 0.513056C9.6225 1.03486 9.94257 1.70191 9.98561 2.46578C10.0152 2.98221 10.0448 3.13552 10.3514 2.57068C12.1132 2.9069 13.4876 4.38355 13.5764 6.2502C13.6355 7.49554 14.1493 8.45039 15.3247 8.55259C17.6002 8.74894 18.1865 10.1799 18.364 12.0734C18.3936 12.3935 18.5819 12.6544 18.7083 12.9368C18.7863 13.0901 18.8509 13.2488 18.9074 13.4129C18.9988 13.8271 19.1763 14.2467 18.8347 14.634" transform="translate(18.7706 55.45493)" id="Fill-28" fill="#D5DFBD" stroke="none" />
    <path d="M2.87261 0C3.37558 0.731601 4.15022 1.28299 4.37078 2.20556C2.9264 2.68971 2.04956 3.55042 2.42343 5.20997C2.6655 6.28047 1.4121 7.38594 2.72198 8.52369C3.32448 9.04549 2.2217 9.32522 1.80748 9.50274C1.15657 9.77978 0.46263 9.73137 0 9.0428C1.2803 9.03204 1.96349 8.80073 0.820361 7.4478C0.220556 6.73503 1.31796 5.79901 0.774636 4.97058C0.771946 4.88989 0.766567 4.80651 0.758498 4.72582C0.309316 1.97694 0.925259 0.597115 2.87261 0" transform="translate(23.18448 60.2231)" id="Fill-30" fill="#CAE2BD" stroke="none" />
    <path d="M3.86644 0.0592019C4.93695 -0.271632 5.46951 0.887632 6.38939 0.984461C6.4136 0.987151 6.44856 1.10281 6.43512 1.15391C6.42167 1.20771 6.35442 1.24536 6.31139 1.29109C4.243 2.40732 6.97306 2.95064 6.5427 3.97273C5.69007 3.43748 5.00957 3.79521 4.4017 4.63708C5.14944 5.0513 6.02628 4.33853 6.80361 5.00558C5.82455 5.16965 5.80303 6.06263 5.43723 6.68933C5.17633 7.13313 5.53675 7.52583 5.83262 7.8486C6.1769 8.22785 6.57229 8.2655 6.9892 7.92391C7.12906 7.80556 7.3012 7.71411 7.47065 7.64418C8.03818 7.41017 8.56536 6.94754 9.2351 7.25686C9.6547 7.45321 9.35883 7.79211 9.32924 8.06646C9.20552 9.1531 8.51157 8.86531 7.82839 8.71468C7.47872 8.63668 7.21513 8.89758 7.16672 9.22842C7.04299 10.0811 7.53252 10.8449 8.18074 11.0628C9.41531 11.4797 9.12751 12.101 8.71599 12.873C9.35076 13.7417 9.17324 14.632 8.78861 15.5277C8.46585 16.2755 7.89294 16.5955 7.13444 16.3077C6.23608 15.9634 6.70947 15.5465 6.95692 14.901C7.26624 14.1022 7.36307 12.994 6.10697 12.5394C5.08757 12.171 5.1844 11.165 4.96116 10.3527C3.85569 8.42957 3.83955 8.41343 2.35214 9.72063C1.93254 10.0891 1.49681 10.2021 1.29508 9.69912C0.888937 8.6851 -0.168118 7.94005 0.0228509 6.67857C0.259545 6.0196 1.0826 5.84207 1.27894 5.15082C0.969628 3.85169 2.24455 2.63863 1.35964 1.21578C1.0557 0.728939 1.57481 -0.451843 2.59959 0.435761C3.39844 1.12702 3.47375 0.244792 3.86644 0.0592019" transform="translate(36.6255 54.85684)" id="Fill-32" fill="#EDCFC5" stroke="none" />
    <path d="M2.92225 0.106118C3.33108 0.719372 2.72052 2.66941 4.81042 1.42139C3.70495 2.73127 6.68784 4.22406 4.528 5.55547C5.98582 5.94548 6.435 5.24346 6.27093 2.66134C7.12895 2.94107 7.09936 3.65653 7.10205 4.35586C7.56468 4.91532 8.38235 4.58717 8.87457 5.07132C9.36947 5.16546 9.86438 5.26229 10.3593 5.35643C10.2598 5.82175 10.5529 6.16065 10.951 6.60714C10.0984 6.58563 9.4663 6.56949 8.58677 6.54528C9.81597 7.43558 9.79714 8.21828 8.54373 8.84767C8.17793 8.84767 7.77717 8.74546 7.45171 8.86112C4.16489 10.015 4.1891 10.0096 2.08844 7.42213C1.4698 6.65825 0.711305 6.00734 0.014671 5.30533C-0.0176055 5.17084 0.00122249 5.0498 0.0926725 4.97718C0.711305 4.47421 1.59891 5.57968 1.93512 4.89111C2.29285 4.1622 1.81947 3.23156 1.75222 2.3843C1.71726 1.95933 1.54243 1.5478 1.59891 1.104C1.6285 0.9211 1.68498 0.746269 1.76298 0.576818C2.05347 0.18681 2.35203 -0.18975 2.92225 0.106118" transform="translate(39.06948 65.0682)" id="Fill-34" fill="#E7DFCC" stroke="none" />
    <path d="M2.18312 2.00118C1.45959 2.08456 0.531642 2.68706 0.407916 1.28572C0.929719 1.14048 1.11262 0.263634 1.79043 0.543363C2.46554 0.823092 2.27995 1.44979 2.18312 2.00118" transform="translate(45.762 68.13887)" id="Fill-36" fill="#EAC7BD" stroke="none" />
    <path d="M1.59049 2.39518C0.953032 1.31661 0.953032 1.31661 1.22738 0.294523C1.67925 1.08261 1.67925 1.08261 1.59049 2.39518" transform="translate(46.89957 63.69067)" id="Fill-38" fill="#E4E6D3" stroke="none" />
    <path d="M12.5917 6.35578C11.9596 7.10621 12.5863 7.88622 12.5379 8.6501C12.3012 9.15039 11.6099 8.97018 11.4916 9.17728C12.1317 11.5496 14.3131 12.023 15.8059 13.3006C16.3115 13.731 17.1265 13.9946 17.105 14.8848C15.9081 15.3663 15.8462 16.6439 15.3217 17.5665C15.0743 17.9995 14.9936 18.3438 14.4556 18.2039C13.7483 18.021 12.8849 18.1851 12.3899 17.5154C12.0806 17.0985 12.5971 16.9263 12.8418 16.6681C13.178 16.3211 14.3507 16.8053 13.9312 15.8827C13.4954 14.9279 13.6111 13.3329 12.0941 13.2818C11.3194 13.2549 10.5287 12.7949 9.64107 13.4163C8.5598 14.1667 8.40918 12.5098 7.6211 12.3135C7.66144 11.4555 7.68027 10.5921 7.75558 9.73405C7.77979 9.43819 7.89007 8.93252 8.05414 8.88949C11.4593 8.05299 8.18325 6.04108 9.0574 4.93562C7.93041 4.27126 8.49525 6.90717 7.33868 5.43859C7.16385 5.21534 7.32792 4.22015 6.97826 3.61228C5.98037 3.8167 5.38864 4.29277 6.16327 5.44666C6.9406 6.59785 5.12236 5.84474 5.33753 6.57903C3.85282 6.71082 3.34446 7.35366 4.25627 8.87066C2.71776 6.43647 -0.477615 5.15348 0.0603266 1.66762C0.864549 1.23189 2.08568 1.44975 2.37617 0.193659C2.39768 0.0941398 2.56713 0 2.68279 0C4.13792 0.0134485 5.59844 0.150624 7.0455 0.18559C8.39035 0.215177 9.67065 1.49817 10.0849 3.0851C10.1925 3.49393 10.2274 3.83283 10.7438 3.72256C12.6509 3.32448 12.6428 4.48643 12.4814 5.80977C12.4599 5.97922 12.5836 6.1675 12.5917 6.35578" transform="translate(6.855451 50.3083)" id="Fill-40" fill="#CAE2BD" stroke="none" />
    <path d="M14.0546 16.6418C13.8583 16.4858 13.4763 16.2895 13.4978 16.1819C13.8314 14.6407 13.5785 13.858 11.7845 14.6273C11.5424 14.7321 10.983 14.7268 10.9857 13.9629C10.9884 12.0532 8.97914 11.2624 7.27924 10.9639C5.07368 10.5739 3.44103 11.7331 1.52327 11.9537C1.56899 11.7089 1.61741 11.4615 1.66313 11.2167C2.12307 11.1979 3.07792 11.4937 2.9515 11.1279C2.59108 10.0951 3.68579 8.40596 2.09349 8.06705C0.667942 7.76043 1.00416 6.92393 1.12519 6.19771C1.36996 4.73988 1.13595 3.38696 0.22145 2.31108C-0.464426 1.50417 0.719046 0.82367 0.108482 0.151243C0.662562 -0.330215 0.944981 0.498215 1.41299 0.425593C1.86486 0.474008 2.18494 0.756427 2.50232 1.04423C2.63412 1.1545 2.75516 1.27554 2.87888 1.39927C4.54919 3.4542 6.20336 5.52528 8.26637 7.21711C8.79624 7.65284 9.3288 8.0805 9.99854 8.30375C10.367 8.42478 10.8135 8.683 10.6898 9.06493C10.1519 10.6814 11.4214 10.9262 12.3789 11.3862C14.3505 12.3329 15.3645 14.283 16.9245 15.6547C16.7901 15.8618 16.5426 16.0636 16.5345 16.2734C16.4619 17.9706 15.7357 17.7957 14.719 16.9565C14.5361 16.8059 14.2779 16.7441 14.0546 16.6418" transform="translate(5.392509 40.02224)" id="Fill-42" fill="#DAE2C3" stroke="none" />
    <path d="M15.8742 22.3972C16.4229 23.5968 15.7693 25.0815 16.786 26.1816C16.9743 26.386 16.7968 26.655 16.5198 26.7276C16.0087 26.8621 15.5111 27.2898 14.9624 26.8971C14.637 26.6631 14.4191 26.144 13.9188 26.6281C13.7978 26.6039 13.6767 26.5797 13.553 26.5555C12.8967 26.3053 12.6815 25.6518 12.2835 25.1649C11.9849 23.2122 11.2667 21.3805 10.6562 19.5165C10.5594 19.2207 10.5486 18.8226 10.285 18.6827C8.13324 17.5477 6.67542 15.5438 4.67158 14.2259C4.45372 14.0833 4.19282 14.2366 3.98033 14.3765C3.92115 14.6078 3.86198 14.8418 3.77322 15.1969C2.93403 14.4303 3.32673 13.1338 2.40685 12.5448C1.91463 11.7379 1.71559 10.7508 0.596675 10.3715C-0.054234 10.1483 -0.140305 9.37094 0.18246 8.74693C0.677367 7.79747 1.34172 8.4672 2.40954 8.79266C-0.0407854 6.51985 0.526743 3.77097 0.136735 1.26416C0.0399058 0.634771 0.28198 0.158693 0.962476 0.00268971L0.965165 0C1.6887 0.852638 3.52039 4.79844 3.32942 5.73715C3.20838 6.33426 3.56342 6.29392 3.7006 6.22668C5.28215 5.46818 5.23104 6.98248 5.47581 7.6576C5.79319 8.53444 5.29829 8.98094 4.24392 9.22839C3.08466 9.49736 4.04219 10.8826 3.52846 11.7137C3.25949 12.1494 4.07985 12.6981 4.57206 12.8407C5.59953 13.1365 5.95995 12.3296 5.91692 11.5604C5.85506 10.4603 5.95457 9.45433 6.51941 8.4941C6.92287 7.81091 6.393 7.31601 6.06754 6.79689C5.76361 6.30468 5.36553 5.73715 6.17782 5.42514C6.8099 5.18038 7.4635 5.25569 7.45005 6.21861C8.70615 7.9723 8.31883 9.87392 7.95572 11.7729C7.89116 12.2758 7.77282 12.7627 7.51729 13.2038C7.4124 13.3383 7.26177 13.427 7.10577 13.5023C7.20529 13.4647 7.29674 13.4136 7.38819 13.3436C7.88041 12.7411 8.07944 12.0122 8.32421 11.3048C8.70884 10.2101 9.09346 10.0353 9.90845 11.0816C10.7342 12.1413 11.6944 12.8945 9.88962 13.9865C8.9805 14.5352 9.75244 15.9123 11.2237 16.418C11.1968 16.9532 11.2748 17.4454 11.767 17.7736C11.6998 19.0485 13.2894 19.5354 13.1603 20.9071C13.6821 20.0276 14.2416 18.9113 15.1077 19.0862C16.049 19.2745 16.544 20.4176 16.8264 21.4289C16.5332 21.6279 16.24 21.827 15.9442 22.026C15.8877 22.1659 15.6133 21.9911 15.651 22.2358C15.651 22.2466 15.8312 22.2842 15.8742 22.3972" transform="translate(25.164 43.74649)" id="Fill-44" fill="#E9CEBF" stroke="none" />
    <path d="M6.55904 3.65918C6.36269 4.09491 6.9598 4.75389 6.34117 4.99866C5.48584 5.34025 5.11198 4.53065 4.75693 3.91739C3.9043 4.73775 4.5041 5.09817 4.9237 5.66032C5.59343 6.556 5.35136 6.88952 3.86126 7.04283C5.11467 7.5754 4.75962 8.28817 4.38844 9.00363C4.15713 9.1677 3.92312 9.15156 3.68374 9.02784C3.33139 8.33658 2.64282 8.05954 2.0215 7.70181C1.55349 7.22573 0.797684 6.83035 1.85743 6.13371C2.53793 5.68722 2.6482 3.79636 2.15868 3.16965C2.07799 3.06745 2.01612 2.9222 1.8924 2.98137C0.708924 3.5489 0.109119 2.64247 0.0122894 1.8759C-0.130265 0.746227 0.996722 0.434221 1.87088 0.0845588C2.28509 -0.0768236 2.65358 -0.00689123 2.97904 0.291666C3.97423 1.1201 4.96673 1.94853 5.95923 2.77696C5.94309 3.21807 6.22013 3.46014 6.55904 3.65918" transform="translate(33.9329 51.25686)" id="Fill-46" fill="#E9CEBF" stroke="none" />
    <path d="M4.3896 1.37713C4.30084 1.89355 3.84628 1.99307 3.48048 2.21901C3.11468 2.44225 2.67088 2.76771 2.85109 3.23034C2.99096 3.60152 3.36214 4.00229 3.72525 4.14484C4.41381 4.41381 4.14484 3.39441 4.64244 3.30565C6.10564 6.97172 6.01688 7.9185 4.20939 7.83243C4.07222 8.41609 4.65857 8.4672 4.89258 8.76576C5.04589 9.14232 5.29335 9.4866 5.27183 9.92233C5.22341 10.0837 5.12927 10.2155 4.98941 10.3123C3.19537 11.0305 3.31103 9.50812 2.79192 8.55327C2.08721 7.25683 3.16579 7.38325 3.75752 7.16807C4.50526 6.89372 4.65319 6.32619 4.08298 5.99267C3.53966 5.67528 3.38096 5.20996 3.03399 4.82803C2.35618 4.0776 2.72736 5.14272 2.49336 5.23686C2.14639 5.5919 1.79135 5.92005 1.32334 5.39286C1.08126 4.72851 2.06032 3.70642 0 3.424C1.3583 3.30834 2.65205 3.86242 1.66224 2.32929C1.20499 1.6192 1.24265 0.798843 1.19961 0C2.04418 0.965605 3.2142 1.17809 4.3896 1.37713" transform="translate(31.41364 49.96402)" id="Fill-48" fill="#EBD9CA" stroke="none" />
    <path d="M0.708738 0.541031C1.44841 0.713172 1.76041 1.2807 1.98097 1.93161C1.49682 2.45072 1.21709 1.89933 0.867431 1.71643C0.816327 1.32642 0.762532 0.933728 0.708738 0.541031" transform="translate(36.73765 68.37118)" id="Fill-50" fill="#E7DFCC" stroke="none" />
    <path d="M1.94001 1.70505C1.54462 1.75346 1.07124 2.11119 0.794195 1.57594C0.525224 1.0649 1.22455 1.13214 1.34021 0.822824C1.82166 0.927723 2.01801 1.22359 1.94001 1.70505" transform="translate(38.55193 53.21099)" id="Fill-52" fill="#EDCFC5" stroke="none" />
    <path d="M0 9.51619C0.1829 9.03473 1.10009 8.90024 0.656289 8.12292C1.00326 7.51236 1.30182 6.89372 0.817671 6.21054C0.683186 5.86894 0.726221 5.52466 0.820361 5.18307C1.17271 4.14215 1.25609 3.02592 1.68107 2.00652C1.74024 1.94466 1.8021 1.88549 1.86397 1.82631C2.99633 1.57348 2.20825 0.55139 2.59826 0C3.00171 0.387318 3.268 0.944088 3.90277 1.04361C3.51545 2.82688 4.92486 3.94311 5.51659 5.36328C5.58383 5.51928 5.63225 5.67797 5.67259 5.84205C6.07067 6.6893 5.69142 7.85664 6.75386 8.43224C6.82379 8.60707 6.83455 8.7819 6.79151 8.96211C6.21054 9.72599 5.65108 9.29294 5.08893 8.9379L5.08893 8.93521C4.95175 8.38113 4.34926 8.14982 4.1825 7.61725C4.13139 7.58229 4.08567 7.5258 4.02918 7.51236C3.09854 7.29449 3.30296 5.16155 2.2217 5.94157C1.18616 6.6893 1.66762 8.34348 2.01459 9.57267C2.22439 10.3204 3.03399 11.052 1.57886 11.3317C1.3341 10.4791 1.39058 9.36825 0 9.51619" transform="translate(2.690246 32.46343)" id="Fill-54" fill="#B9D4AC" stroke="none" />
    <path d="M0.918666 0.685876C1.34633 1.03823 1.94344 1.27492 1.82241 2.00383C1.49964 1.68645 1.17688 1.36906 0.851423 1.05437C0.875631 0.930639 0.897148 0.809602 0.918666 0.685876" transform="translate(5.954614 39.39481)" id="Fill-56" fill="#CBD7B2" stroke="none" />
    <path d="M0.694362 3.0191C0.715879 2.89806 0.737397 2.77702 0.756225 2.6533C0.506082 1.85176 -0.386901 0.931883 0.191386 0.280974C0.79657 -0.394143 1.84018 0.326699 2.64978 0.582221C3.81442 0.950711 5.12431 1.1094 5.72143 2.47578C5.95812 3.01372 6.34544 3.21007 6.8269 2.55378C7.67415 1.39182 8.55907 2.02928 8.69355 2.93841C8.95983 4.74589 10.1971 4.85348 11.5097 4.99872C12.2413 5.0821 13.0186 4.94493 13.6426 5.48825C15.52 6.2064 17.1312 7.39256 18.8445 8.40389C18.554 10.8193 18.1909 13.2669 19.5707 15.4751C20.0307 16.2148 20.4745 16.9061 20.6036 17.721C19.6138 18.4849 19.3233 16.4112 18.3926 17.2557C18.129 17.4951 18.1855 17.9577 18.4007 18.3101C18.9144 19.1466 19.5035 18.1379 20.1141 18.3881C19.0113 19.3376 20.8295 20.0288 20.2889 20.9487C19.3179 20.01 17.9435 21.1935 16.959 20.3166C16.8891 20.2655 16.8192 20.2144 16.7492 20.1633C16.8138 18.84 15.7648 18.0169 15.2941 16.9356C15.8025 16.7474 16.3727 16.8657 16.7627 16.5887C16.3404 16.6452 15.8455 16.8227 15.3318 16.9195C14.5302 17.2719 13.7045 17.4575 12.8303 17.2288C12.3919 17.0943 12.0799 16.7958 11.8109 16.4407C9.32026 13.1862 5.51432 11.1366 3.56159 7.37642C3.21462 6.71207 2.10646 6.60179 2.11453 5.59853C1.53624 4.79699 1.53893 3.67539 0.694362 3.0191" transform="translate(7.281968 35.34367)" id="Fill-58" fill="#DDE1C4" stroke="none" />
    <path d="M14.9436 7.32677C13.3459 7.12235 11.6595 7.74905 10.1559 6.49296C9.58304 6.01688 8.89985 6.09488 9.6718 5.15348C10.1237 4.5994 9.33021 4.21208 8.94827 4.13408C8.30812 3.9996 8.57171 4.42995 8.66585 4.80651C8.80302 5.34983 8.26239 5.34176 7.93694 5.43321C7.5039 5.55425 6.83954 5.58921 6.77229 5.15079C6.42263 2.83495 4.37308 3.23841 2.95022 2.64129C2.55752 2.47991 2.15945 2.33198 1.57578 2.10604C1.65647 3.00709 2.19979 3.70373 2.05455 4.49181C1.44667 3.66338 0.809212 2.85109 0.233614 1.99845C-0.27474 1.24265 0.136785 0.602495 0.610174 0L0.981353 0.0672427C1.21805 0.540631 1.6215 0.989813 2.10834 0.898363C3.56885 0.626702 4.73888 1.41479 6.02187 1.79942C7.59804 2.72199 9.40821 3.07434 10.9682 4.13677C12.3911 5.10776 13.6472 6.23206 14.9436 7.32677" transform="translate(5.982301 33.50516)" id="Fill-60" fill="#CCE0C2" stroke="none" />
    <path d="M1.6192 0C4.10181 1.26147 4.61823 4.3116 6.83993 5.78018C9.08583 7.26759 10.3823 9.69371 12.5098 11.2806C13.5239 12.7761 15.4793 13.1849 16.4637 14.7154C16.6654 15.3179 17.2195 16.1248 16.262 16.3911C15.0086 16.7407 14.9575 15.4658 14.5406 14.7342C13.5292 14.1613 12.5421 13.5965 11.8751 12.5556C11.0036 11.1973 9.46777 10.74 8.11216 10.0622C7.7087 9.86316 7.06048 9.50812 7.37249 9.20149C8.56403 8.03416 7.47201 8.21706 6.84262 7.59574C5.72908 6.49296 4.35464 5.69411 3.30027 4.39498C2.26473 3.12006 1.28837 1.60307 0 0.45725C0.594425 0.500286 1.30989 0.968295 1.6192 0" transform="translate(7.778367 40.94354)" id="Fill-62" fill="#CBD7B2" stroke="none" />
    <path d="M6.848 6.48783C5.28797 5.43077 4.06146 3.81157 1.98769 3.61791C1.83438 3.60177 1.56541 3.34087 1.57348 3.32742C2.73274 1.40697 0.312006 1.95836 0 1.02234C0.540631 0.156254 1.47934 0.392948 2.28087 0.250393C2.8484 1.36124 4.09374 1.64635 4.96251 2.39678C5.37404 2.75182 6.33426 2.38602 6.08412 1.74049C5.6457 0.610814 6.01419 0.0674933 7.004 0.00562996C7.95078 -0.0535436 8.81955 0.347223 8.94597 1.51725C8.82762 2.38871 6.25895 2.11167 7.88354 3.79543C6.66241 4.35489 7.67374 5.77505 6.848 6.48783" transform="translate(17.11165 58.70639)" id="Fill-64" fill="#C3DEB7" stroke="none" />
    <path d="M0 0.513499C1.65686 -0.957772 2.8753 1.15365 3.0824 1.61359C3.74407 3.05527 5.11851 3.2059 6.11908 3.92405C6.73503 4.36516 7.19228 4.6153 7.13579 5.44642C7.06586 6.53307 7.57153 7.5444 8.03147 8.43738C8.5452 9.43526 8.51561 10.3202 8.30044 11.3019C7.65222 10.8097 7.50697 10.1615 7.44511 9.35457C7.35097 8.1173 6.93407 7.14094 5.31486 6.99301C3.61228 6.837 2.72467 5.91443 2.68433 3.87025C2.66012 2.51733 1.61651 1.06489 0 0.513499" transform="translate(29.1446 57.60975)" id="Fill-66" fill="#E4DCC3" stroke="none" />
    <path d="M2.24742 1.84303C2.11562 2.12007 2.10217 2.95119 1.62071 2.56387C1.01284 2.07703 0.55559 1.2244 0.36731 0.447071C0.235514 -0.0881809 0.953667 0.00595892 1.36519 0.0893399C2.33618 0.280309 2.46528 0.944667 2.24742 1.84303" transform="translate(26.67529 59.37957)" id="Fill-68" fill="#E9CEBF" stroke="none" />
    <path d="M0.506533 0.975777C0.53343 0.85474 0.560327 0.736392 0.581845 0.615356C1.00951 0.354454 1.37262 0.453973 1.68463 0.814394C1.93208 0.862809 2.17953 0.911224 2.4243 0.959638C2.35167 1.81228 1.48559 1.78807 1.03372 2.22111C-0.0717546 2.19959 0.272528 1.56482 0.506533 0.975777" transform="translate(35.89705 59.30005)" id="Fill-70" fill="#EFB8AF" stroke="none" />
    <path d="M1.97156 1.57771C1.56541 1.35984 1.00057 1.96772 0.64822 1.32757C1.08664 0.803073 1.58155 1.20922 2.04149 1.20653L1.97156 1.57771Z" transform="translate(39.06667 64.56598)" id="Fill-72" fill="#EDCFC5" stroke="none" />
    <g id="Group-76" transform="translate(0 35.70319)">
      <path d="M0.198625 0L2.49108 0L2.49108 2.68971L0.198625 2.68971L0.198625 0Z" transform="translate(2.491084 2.588037)" id="Clip-75" fill="none" stroke="none" />
      <g clip-path="url(#mask_2)">
        <path d="M1.30395 0.757153C1.3443 0.636116 1.38464 0.515079 1.42768 0.394042C1.7881 1.12295 1.69127 1.7631 1.05381 2.29567C1.13719 1.78462 1.22057 1.27089 1.30395 0.757153" transform="translate(2.292459 2.588037)" id="Fill-74" fill="#81B276" stroke="none" />
      </g>
    </g>
    <path d="M0.934673 0.496251C1.32468 0.442457 1.71469 0.391353 2.10739 0.340248C1.82228 1.17944 1.77117 2.19615 0.582322 2.34946C0.697979 1.73083 0.816326 1.11488 0.934673 0.496251" transform="translate(31.80338 54.85983)" id="Fill-77" fill="#E4DCC3" stroke="none" />
    <path d="M1.3347 1.87207C0.939315 1.83979 0.942005 1.57889 0.960833 1.34758C0.979661 1.12971 0.955453 0.812326 1.27822 0.817705C1.45305 0.820395 1.80002 0.804257 1.72471 1.18082C1.66554 1.46055 1.62519 1.76448 1.3347 1.87207" transform="translate(30.62199 56.20384)" id="Fill-79" fill="#E4DCC3" stroke="none" />
    <path d="M0.888949 1.20981C1.1364 1.08609 1.34082 0.924706 1.39461 0.962362C1.56138 1.08878 1.66896 1.29051 1.80076 1.46265C1.66896 1.55948 1.47799 1.76389 1.41075 1.72893C1.23323 1.63479 1.1095 1.44113 0.888949 1.20981" transform="translate(38.17019 63.12935)" id="Fill-81" fill="#EDCFC5" stroke="none" />
    <path d="M1.92347 2.03745C1.55498 1.97021 1.18918 1.90297 0.820691 1.83842C0.761517 1.44303 0.705033 1.04764 0.648549 0.652254C1.10311 1.08799 2.44259 0.706048 1.92347 2.03745" transform="translate(35.65955 58.07672)" id="Fill-83" fill="#EDCFC5" stroke="none" />
    <path d="M1.31908 1.76176C1.20074 1.53044 1.07163 1.39058 1.0797 1.25878C1.09046 1.14313 1.25184 1.03823 1.34598 0.927949C1.44012 1.05975 1.59343 1.18347 1.60957 1.32334C1.62302 1.42824 1.46433 1.55734 1.31908 1.76176" transform="translate(36.24269 52.56335)" id="Fill-85" fill="#EBD9CA" stroke="none" />
    <path d="M0.61325 0C1.69451 0.524493 2.28894 1.32065 2.03342 2.57943C1.22112 2.92371 0.683182 2.50412 0.828427 1.78328C0.962912 1.10278 0.508352 0.605184 0.61325 0" transform="translate(7.36308 38.36277)" id="Fill-87" fill="#CBD7B2" stroke="none" />
    <path d="M1.08009 3.31372C0.751943 2.09528 0.883739 0.973674 1.75251 0C1.8601 1.17271 1.55886 2.25936 1.08009 3.31372" transform="translate(2.802775 34.2806)" id="Fill-89" fill="#81B276" stroke="none" />
    <path d="M2.68913 0C2.80479 0.0403456 2.96617 0.0484148 3.03341 0.129106C3.5606 0.758498 4.97269 0.381939 4.95117 1.28837C4.92428 2.39115 3.54984 1.73217 3.03341 2.14908C2.1996 2.8215 0.375981 2.79999 0.94082 4.68278C1.03765 5.00824 0.741781 5.29335 0.375981 5.22879C-0.00864726 5.16155 -0.0893385 4.87644 0.0935617 4.53216C0.56695 3.62842 0.712195 2.65474 0.704125 1.64879C0.701436 1.15389 0.946199 1.01133 1.42228 1.1512C2.45244 1.45513 2.51968 0.667048 2.68644 0.00268971L2.68913 0Z" transform="translate(20.0545 45.39958)" id="Fill-91" fill="#E4D8C2" stroke="none" />
    <path d="M2.72778 2.8837C2.48301 2.90522 2.17639 2.84336 1.99887 2.96439C1.06285 3.59378 0.683599 2.95363 0.229038 2.29734C-0.416492 1.36133 0.465733 1.50926 0.871879 1.35864C1.50127 1.12732 0.662081 -0.252499 1.94238 0.0406788C2.68743 0.21282 3.39483 0.379582 3.75256 1.18112C4.2367 2.26507 3.06937 2.31348 2.73047 2.88101L2.72778 2.8837Z" transform="translate(20.01182 42.51857)" id="Fill-93" fill="#E4D8C2" stroke="none" />
    <path d="M3.95387 3.62086C2.64936 2.45891 0.406146 2.38091 0 0.186107C0.755808 0.654116 1.54389 -0.462113 2.29701 0.237211C3.74676 0.925777 4.34926 2.02856 3.95387 3.62086" transform="translate(20.28685 52.03834)" id="Fill-95" fill="#D5DFBD" stroke="none" />
    <path d="M1.49261 2.44012C0.392515 2.31101 0.454378 1.37231 0.274168 0.632636C0.214994 0.387873 0.693762 0.151179 0.71259 0.234559C0.938526 1.16789 2.4098 0.812847 2.42056 1.87528C2.42593 2.46164 1.97406 2.52888 1.49261 2.44012" transform="translate(22.42778 48.16297)" id="Fill-97" fill="#E4D8C2" stroke="none" />
    <path d="M0.0747381 1.73324C0.580403 1.4562 1.06186 1.18991 1.54601 0.926323C1.81229 0.783768 2.10009 0.557833 2.37444 0.86177C2.58155 1.09308 2.70258 1.41047 2.53851 1.70903C2.36637 2.0291 2.07319 2.0049 1.73698 1.93496C1.20173 1.82738 0.650336 1.79779 0.0747381 1.73324" transform="translate(22.47577 50.53775)" id="Fill-99" fill="#D5DFBD" stroke="none" />
    <path d="M7.33103 0.495596C4.76774 1.02816 2.64287 2.41336 0.60407 3.95994C0.345858 4.73458 -0.401881 5.59259 0.278616 6.30806C0.934905 6.99662 1.73913 6.06867 2.63749 6.0095C2.93336 6.60392 2.41693 8.22044 4.14373 7.42697C4.42884 7.29787 4.23249 8.39527 4.81077 8.61851C5.09857 8.77183 5.53431 8.675 5.66341 9.11342C6.53488 9.63522 7.30951 10.2834 8.23477 10.7515C9.11431 11.1926 9.98846 11.8246 10.1229 13.0404C10.1902 13.6779 10.6044 14.2292 11.301 14.3799C12.0703 14.5466 12.1214 13.8043 12.4926 13.4223C13.6653 12.2227 13.9235 10.8671 13.3883 9.09728C13.9477 9.79123 13.6895 10.5417 14.101 10.9747C14.7197 11.6229 15.0048 10.625 15.6853 10.4529C14.7277 11.007 14.6013 11.6848 14.8434 12.4433C14.9967 12.9194 15.4055 13.2045 15.9139 13.1238C16.4653 13.0404 16.4626 12.6154 16.2985 12.1958C15.8951 11.1415 17.2668 11.6256 17.3314 10.9021C18.028 11.3728 17.5573 13.035 19.0044 12.5509C19.8382 12.2738 20.0991 11.6202 19.6902 10.6197C20.3035 11.4508 20.446 12.6692 21.7828 12.0721C21.9899 11.9484 22.1379 11.7709 22.2374 11.5503C22.2966 10.894 22.5736 10.4959 23.3187 10.6573C24.4349 10.1194 25.9922 10.7488 26.7749 9.34205C25.4139 7.61256 23.1627 6.42371 21.0243 6.23812C21.9604 6.20854 22.8587 6.37261 23.7409 6.72227C24.5317 7.03697 24.8894 6.77069 24.9163 5.87501C24.9621 4.27464 23.0067 1.41279 21.2368 0.858707C20.0076 0.471389 18.7004 0.00875911 17.4094 0.689255C16.6993 1.06312 16.3658 0.441802 15.9058 0.197039C15.4432 -0.0477248 15.0397 -0.106898 14.6497 0.266971C14.327 0.578977 14.214 1.00126 14.448 1.36975C14.8515 1.99914 14.7277 2.9513 15.7095 3.33055C14.7519 3.30096 14.136 2.72267 13.4071 2.41874C11.8793 1.78935 10.1875 1.56879 8.83727 0.495596C8.40154 0.148624 7.83401 0.401456 7.33103 0.495596" transform="translate(173.5787 3.941077)" id="Fill-101" fill="#E2E2B2" stroke="none" />
    <path d="M14.5924 9.57052C14.891 9.06754 14.6623 8.52691 14.7108 8.00511C14.5978 7.63662 14.2427 7.26275 13.9845 7.44027C12.6666 8.36015 12.4487 7.00992 11.8247 6.48004C11.4347 6.14652 11.155 5.89638 11.7494 5.44989C12.1717 5.13519 12.4648 4.61877 12.099 4.09158C11.6418 3.44067 11.0689 3.88179 10.5417 4.03779C10.2674 4.12117 10.0118 4.26104 9.74824 4.37131C9.35016 4.5327 9.11347 5.24816 8.6078 4.8985C8.11021 4.5569 8.11558 3.95441 8.17476 3.33847C8.27159 2.29217 8.07524 1.41263 6.71425 1.26739C6.41838 1.23511 7.21453 0.748277 6.91328 0.342131C6.68197 0.0274347 6.28658 -0.107051 6.03375 0.0973671C5.17573 0.783243 3.96536 0.820899 3.21225 1.67354C2.95941 3.26853 3.12617 3.984 4.23971 5.41492C2.65817 5.14326 0.998615 4.40628 0.242807 6.1519C-0.131062 7.01261 0.831853 7.52096 1.5769 8.02125C0.509088 8.84968 -0.33548 9.71576 0.345016 11.2731C0.654332 11.9805 -0.636728 12.9111 0.431087 13.6938C1.65759 14.5922 3.14769 14.8746 4.54903 15.3077C5.27794 15.5336 6.04182 15.4233 6.11713 16.4777C6.17093 17.2604 6.72769 16.9753 7.14191 16.8569C8.42759 16.4911 9.42547 15.6977 10.0845 14.8935C9.35285 15.3104 9.20492 16.5718 8.12096 17.1286C7.47812 17.4567 7.0666 18.3282 7.7713 19.0329C8.42759 19.6838 9.35554 20.3509 10.1894 19.5466C11.1361 18.6348 12.5482 17.9812 12.5455 16.3271C12.5482 15.4744 13.1292 16.2679 13.3767 16.0742C13.5757 15.816 13.8205 15.5793 13.7828 15.2108L13.8474 15.071L13.9334 14.9419C14.1244 14.178 14.3853 13.4276 14.2266 12.6206L14.2266 12.618C14.1997 12.0988 14.6112 11.6255 14.3826 11.0848L14.3853 11.0902C14.3557 10.5711 14.9609 10.1354 14.5924 9.57052" transform="translate(190.66 17.64717)" id="Fill-103" fill="#DCDFAB" stroke="none" />
    <path d="M22.5133 14.4124C22.1905 14.1326 22.906 13.5194 22.2873 13.4414C21.7817 13.3768 21.3567 13.9982 21.432 14.3505C21.8086 16.1499 20.0038 16.505 19.3313 17.5889C18.8418 18.377 17.9919 17.5997 17.4216 17.2285C16.6793 16.7443 17.271 15.8514 17.5481 15.8379C18.8472 15.7707 18.6508 14.4608 19.3448 13.9121C19.8505 13.5113 20.1625 12.8604 20.6708 12.1718C19.4309 11.9809 19.2022 13.1375 18.511 13.514C18.1828 13.6942 17.8789 14.1568 17.4701 14.329C16.8191 14.6033 16.0015 15.4748 15.6518 13.9659C15.5873 13.6835 15.1892 13.2047 15.0977 13.2397C13.4812 13.8179 12.3758 12.3547 10.926 12.2391C9.74791 12.1449 9.52466 11.3622 10.2616 10.4262C10.4768 10.1492 10.5414 9.99318 10.259 9.58973C9.35521 8.28522 9.66184 7.45141 11.1466 7.05602C11.5877 6.94036 11.7437 6.82202 11.6926 6.42394C11.6468 6.06352 11.55 5.85372 11.047 5.86986C10.2267 5.89407 9.64839 4.93115 9.87163 4.58418C10.2213 4.04086 11.1008 3.19629 11.8378 3.78803C13.032 4.74825 13.6587 4.22107 14.3231 3.11829C12.4833 2.95691 12.9056 1.47757 12.7738 0.286025C12.7496 0.213403 12.72 0.138091 12.6958 0.0681587C12.5506 0.00360572 12.4 -0.0125325 12.244 0.00898514C11.7356 0.199954 11.1842 0.0170543 10.6705 0.181126C9.92005 1.30542 8.66664 1.40763 7.51814 1.72233C5.66493 2.04509 4.52987 3.68313 2.82729 4.28562C2.10107 5.16247 0.995597 5.61434 0.401171 6.67677C-0.190564 7.73383 -0.22822 8.4735 0.979459 9.00068C2.99943 9.35572 4.24745 10.7517 5.39058 12.2821C5.86666 12.7636 6.39115 13.0326 7.25455 12.5834C6.42612 14.251 7.55848 15.0794 8.43533 16.0127C8.64782 16.2387 8.92755 16.3866 9.20459 16.2494C11.0255 15.343 11.9508 16.548 12.876 17.7745C13.3925 17.9009 14.3527 17.562 13.7287 18.7805C13.4247 19.3776 13.8363 20.1253 13.7583 20.8139C13.6668 21.6369 14.0783 21.8333 14.7965 21.5939C15.2268 21.4513 15.59 21.1151 15.8428 21.9516C15.945 22.2932 16.8864 22.0162 17.4163 21.7795C18.3039 21.0129 18.5325 19.7407 19.5196 19.0575C19.8531 18.7159 20.1894 18.3716 20.5256 18.0273C20.9021 16.9622 21.6848 16.1392 22.2335 15.1736C22.3788 14.9396 22.5671 14.7217 22.5133 14.4124" transform="translate(181.3521 19.30635)" id="Fill-105" fill="#D4DBA3" stroke="none" />
    <path d="M1.33787 4.45624C1.11462 4.62569 0.915583 4.84894 0.66544 4.95115C0.259295 5.11253 -0.146851 5.28467 0.0521872 5.78764C0.399159 6.65104 0.622405 5.7204 0.891376 5.66392C1.89195 5.45412 2.6101 6.18034 2.16899 7.30195C1.80319 8.22183 2.40837 8.70867 2.68003 9.31116C2.88176 9.76034 3.43853 10.032 3.86888 9.32192C4.42834 8.40204 5.81623 7.77534 6.21969 8.31328C6.87328 9.18475 5.24332 9.35151 4.856 10.0562C6.01258 10.5484 6.83025 11.2935 6.83563 12.6867C7.65599 12.5899 8.07289 11.1186 9.15685 11.9955C8.87712 9.48868 8.60008 6.97919 8.32035 4.47238C7.72592 3.22435 7.9653 1.81764 7.58068 0.529265C6.89749 0.11505 6.1363 -0.608481 6.00989 0.978446C5.9534 1.69122 5.38319 1.69391 4.86138 1.71543C2.21471 1.83646 2.13402 1.89833 1.33787 4.45624" transform="translate(196.2145 13.65626)" id="Fill-107" fill="#E0E1B2" stroke="none" />
    <g id="Group-111" transform="translate(180.2104 0.73698)">
      <path d="M0 0L21.1503 0L21.1503 10.6042L0 10.6042L0 0Z" transform="translate(0.6993241 1.952728)" id="Clip-110" fill="none" stroke="none" />
      <g clip-path="url(#mask_3)">
        <path d="M0 1.74745C1.15388 2.18049 2.64398 2.05138 3.12006 3.63024C3.15772 3.75666 3.45896 3.93956 3.49662 3.91266C5.18038 2.62429 6.09219 4.46405 7.33214 4.88634C8.05568 5.13379 8.63127 4.84868 9.38977 4.68999C7.61456 4.79489 8.14444 3.02506 7.3187 2.36339C7.12773 2.21277 7.34828 1.81469 7.59843 1.63717C7.85664 1.45158 8.03147 1.68558 8.25471 1.75014C8.97825 1.97069 9.60495 3.7728 10.627 1.97607C10.7642 1.734 11.9853 2.09173 12.7035 2.18856C15.0893 2.51401 17.12 5.06924 17.1308 7.76163C16.3346 7.80198 15.7778 7.03272 14.8929 7.18335C14.3792 7.27211 13.661 6.48133 13.3732 7.50342C13.0881 8.51744 14.7019 7.27211 14.4545 8.34799C16.6627 7.85039 17.6741 9.95375 19.3524 10.6047C20.1109 10.5831 20.587 10.099 21.047 9.57988C21.133 9.42387 21.1653 9.25711 21.1438 9.07959C20.5171 7.11879 18.9813 5.86808 17.5746 4.51516C17.4804 3.19989 16.1786 3.26982 15.4604 2.66733C14.9386 1.75552 14.2474 1.1315 13.1016 1.27944C11.2242 0.655425 9.29832 0.249279 7.33214 0.617769C6.36385 0.79798 5.79632 -0.159557 4.90065 0.0233436C4.73389 0.0179642 4.61285 0.093276 4.53216 0.235831C3.69297 1.33054 2.53639 0.908258 1.4632 0.875981C1.00864 0.859843 0.535252 0.364937 0.110278 0.943224C0.242074 1.23371 0.166762 1.4973 0 1.74745" transform="translate(0.6993241 1.952247)" id="Fill-109" fill="#DADBAD" stroke="none" />
      </g>
    </g>
    <path d="M16.5383 9.09965C16.8019 8.95709 17.0278 9.06468 17.2457 9.21261C19.0747 9.85545 20.6025 8.84681 22.2163 8.30887C22.6467 6.92636 21.2722 6.80533 20.6455 6.24856C20.2017 5.85317 19.6907 6.27007 19.6691 6.94788C19.6503 7.56382 19.1715 7.21954 18.916 7.28678C17.3533 7.69024 15.7422 7.54769 14.1526 7.66334C13.811 7.69024 13.3967 7.69024 13.1627 7.46699C11.8636 6.24049 10.2444 6.16517 8.61175 6.11138C8.2325 6.00917 7.6838 5.95538 7.65691 5.5304C7.54663 3.7794 6.33895 4.17479 5.28727 4.22321C4.37277 3.71485 3.48248 3.35712 4.07422 1.89392C4.60409 0.58941 3.39103 1.01169 2.74819 0.95521C2.32859 0.944451 2.02197 0.729274 1.75031 0.425337C1.14243 -0.255159 0.596423 -0.0507409 0.0826887 0.557133C-0.0975217 0.877208 0.0557916 1.16501 0.174139 1.4555C1.04022 2.66855 1.45175 4.19362 2.72398 5.12426C4.27594 5.54654 5.91398 5.86124 6.29053 7.83279C7.54932 8.80378 9.08245 8.57784 10.5107 8.79302C11.0675 8.8764 11.6377 8.85488 12.2025 8.87909C12.6813 9.39283 13.2354 8.94364 13.7491 8.99744L13.733 9.00013C14.6609 9.20185 15.5808 9.69138 16.5383 9.09965" transform="translate(158.5821 41.65057)" id="Fill-112" fill="#BAC57F" stroke="none" />
    <path d="M7.83038 4.26444C7.49417 3.98202 6.17083 4.96914 6.8594 3.32842C6.13318 3.5947 5.50916 3.82602 4.73453 4.10844C5.27247 2.75013 4.00024 1.23583 5.79427 0.079254C4.82598 -0.111715 4.25576 0.0684952 3.69899 0.342845C1.42619 0.891546 0.869416 2.8631 0.422924 4.68941C0.172781 5.70612 -0.518474 7.0187 0.697274 8.02196C1.11687 8.04348 1.45577 7.84444 1.91302 7.53781C1.54184 8.07307 1.18142 8.47921 1.26211 9.05212C1.74088 9.62234 1.93723 8.87729 2.2842 8.83425C3.40312 8.20217 4.52204 7.57009 5.64096 6.93801C6.81905 6.41352 7.65555 5.60929 7.83038 4.26444" transform="translate(190.6518 36.65678)" id="Fill-114" fill="#C9D18D" stroke="none" />
    <path d="M9.7164 4.5214C8.95252 4.0776 9.83475 3.31372 9.28067 2.70585C8.86107 2.88875 8.385 3.09585 7.8874 3.31372C7.45167 2.82957 8.55176 1.8021 7.37636 1.5681C6.55868 1.40403 6.00192 2.36156 5.00941 2.22439C5.17349 1.47665 5.39404 0.747739 5.26494 0C4.31816 0.621323 3.36869 1.24265 2.42192 1.86397C2.62902 3.60152 1.57466 4.68547 0.364291 5.6188C-0.53676 6.31543 0.547191 6.94214 0.310497 7.58767C0.783886 8.16057 1.34603 7.98305 1.56659 7.48277C2.02384 6.44992 3.07014 6.13522 3.89319 5.25031C3.94698 6.55482 4.93948 6.80227 5.78136 7.1869C6.29509 7.42091 6.82766 7.17614 6.79 6.64358C6.69855 5.41707 7.31718 5.89046 7.97885 5.93081C8.87183 5.98729 9.6895 5.66991 9.7164 4.5214" transform="translate(168.916 7.90048)" id="Fill-116" fill="#DFE0AC" stroke="none" />
    <path d="M1.3221 1.0588C0.482914 4.08472 -0.447725 7.0972 0.238151 10.3033C0.216633 10.8816 0.636227 11.3066 0.789541 11.823C0.972441 12.6541 1.15534 13.4799 1.33824 14.3083C1.41893 14.9431 1.20107 15.6854 1.98108 16.0647C3.34476 15.8656 2.93055 14.9081 2.73958 14.1362C2.45178 12.993 1.8977 11.8903 2.37916 10.6718C2.38992 10.5051 2.35495 10.3491 2.27695 10.2038C1.33017 9.13599 1.50231 8.4017 3.02469 7.03264C3.82891 5.89221 2.86599 4.97502 2.58895 3.99327C2.37647 3.24284 2.07522 2.58386 2.90634 2.04861C3.21028 1.62633 3.35283 1.16639 3.27483 0.644585C2.25543 -0.96655 1.9757 0.935074 1.3221 1.0588" transform="translate(156.3585 25.31971)" id="Fill-118" fill="#BFCB7F" stroke="none" />
    <path d="M2.11949 5.7867L4.19325 5.18689C4.55098 4.51716 5.10506 4.11101 5.82321 3.84204C6.58171 3.55693 7.41552 3.29065 7.61725 2.31698C7.25952 1.70372 6.60592 1.40247 6.1137 0.926396C4.85761 -0.286663 2.88605 -0.297421 1.5681 0.829567C1.18347 1.1604 0.621322 1.83821 0.876844 2.10987C2.28087 3.60535 0.384628 3.78287 0 4.54405C0.0699324 4.99055 0.349662 5.29717 0.669737 5.58228C1.1243 5.84318 1.60575 5.94001 2.11949 5.7867" transform="translate(182.4677 43.6921)" id="Fill-120" fill="#CAD18C" stroke="none" />
    <path d="M2.95576 5.64839C3.28928 4.09374 3.27314 4.07491 5.40877 2.07645C5.7665 1.73755 5.54863 1.61382 5.37649 1.45513C4.92731 1.04361 5.19628 0.465319 5.00262 0C3.18438 1.04092 1.28545 1.97425 0.0723907 3.79787C-0.279961 5.21265 0.736748 4.64244 1.33924 4.67471C1.73194 4.68816 1.97401 4.95175 2.21609 5.20727C2.42588 5.41707 2.61954 5.65108 2.95576 5.64839" transform="translate(166.3361 9.762565)" id="Fill-122" fill="#D8DCA3" stroke="none" />
    <path d="M4.87913 0.438422C4.39229 0.422284 3.67414 1.10547 3.54503 0C2.64667 1.79135 0.745049 2.82688 0 4.7312C0.338903 4.8361 0.661668 4.98941 0.976363 5.15348C1.88548 5.16693 2.77309 4.91948 3.68759 4.9652C4.03456 3.79787 4.13139 2.54446 4.99209 1.55196C5.23417 1.26954 5.53272 0.745049 4.87913 0.438422" transform="translate(162.8632 13.55801)" id="Fill-124" fill="#C8D290" stroke="none" />
    <path d="M6.00612 0.441016C5.79094 -0.347069 5.47894 0.107492 5.18038 0.379152C2.91564 2.72996 1.22651 5.44925 0 8.4671C0.328144 8.62042 0.64553 8.71187 0.774636 8.23041C1.01671 7.33205 1.47665 7.84847 1.89087 8.05289C1.95004 8.00447 2.00921 7.95068 2.06839 7.90496C2.86992 7.28094 3.25993 6.62196 3.17386 5.44656C3.08779 4.25771 3.49393 2.97472 5.09431 2.63582C6.31544 2.37492 6.5871 1.54111 6.00612 0.441016" transform="translate(157.6804 17.91033)" id="Fill-126" fill="#B4BF76" stroke="none" />
    <path d="M3.59181 2.24455C2.70152 2.7018 1.90268 3.3043 0.888658 3.56789C0.428718 3.68893 -0.364745 4.12466 0.189334 4.97999C0.428718 4.98805 0.668102 4.99074 0.907486 4.99881C2.08289 4.93426 2.75262 4.009 3.61602 3.4092C4.05175 3.16712 4.48749 2.92774 4.92322 2.68835C5.34012 2.59152 5.54185 2.336 5.49882 1.90296C5.88344 1.31122 6.26538 0.719488 6.69843 0.0551299C5.85655 -0.103563 5.33474 0.0712681 5.0066 0.69797C4.78066 0.746385 4.56818 0.813628 4.37721 0.953492C4.12976 1.13101 3.89037 1.32467 3.70478 1.5775C3.57299 1.78461 3.53533 2.00517 3.59181 2.24455" transform="translate(186.4705 43.89981)" id="Fill-128" fill="#BEC784" stroke="none" />
    <path d="M3.56655 2.77356C3.92159 0.9338 2.38039 -0.303465 0 0.0650244C0.0376559 0.212958 0.0806912 0.363582 0.121037 0.511516C0.231315 1.24043 1.16195 1.17318 1.37444 1.80795C2.0899 2.163 2.68702 2.78701 3.56655 2.77356" transform="translate(161.3072 46.71061)" id="Fill-130" fill="#B6C181" stroke="none" />
    <path d="M2.06841 0.0161028C1.50626 1.03281 0.519135 1.81552 0.398098 3.0743C1.02749 2.1329 1.65419 1.19151 2.2809 0.250108C2.30779 0.129071 2.28359 0.0564485 2.21365 0.0268616C2.13296 -0.00541487 2.08455 -0.00810458 2.06841 0.0161028" transform="translate(201.478 34.26208)" id="Fill-132" fill="#DCDFAB" stroke="none" />
    <path d="M1.09973 2.98827C0.970621 2.76502 0.838825 2.54446 0.70703 2.32391C-0.180574 2.71392 -0.169815 3.37827 0.392334 3.95387C0.895309 4.4703 1.54353 4.97865 2.3101 4.18519C2.91259 3.56386 3.48012 2.79192 4.51297 3.06089C4.65014 3.43745 4.44034 3.56386 4.27896 3.71449C3.91047 4.06146 3.41826 4.85492 3.93468 4.85223C4.67435 4.84954 5.08587 6.64896 5.9681 5.20728C6.41728 4.47567 6.05417 5.25569 6.09451 5.28797C7.50661 6.43378 8.75732 7.90236 10.9925 7.70601C10.7934 8.26278 10.7369 8.85183 11.0624 9.40053C11.1808 9.59957 11.4712 9.69102 11.4739 9.9304C11.4874 11.3559 11.4793 11.3559 12.6816 11.6411C14.0964 11.4582 15.1588 10.5679 16.3154 9.8524C17.4155 9.17191 18.6124 8.63934 19.578 7.74636C19.3494 6.70813 18.5667 6.91524 18.0341 7.25145C17.3967 7.6576 16.9071 7.55001 16.3477 7.24338C15.9469 7.06586 15.487 7.06317 14.9544 6.77C15.4359 6.80227 15.7344 6.69737 15.9012 6.36385C15.7506 3.80325 14.169 2.20825 11.5008 1.93121C10.7773 2.3777 10.3685 3.18461 9.61534 3.59883C10.3469 3.23034 10.6939 2.45032 11.3421 1.99307C11.6649 1.36637 10.5971 1.0194 11.0194 0.373869C11.0328 -0.0726221 10.6482 0.0995192 10.4411 0C9.7579 0.685876 9.25761 1.78328 7.99614 0.64822C7.56847 0.260902 6.84763 0.481458 7.15426 1.35292C7.30757 1.7779 7.36406 2.18404 7.01708 2.40729C6.66204 2.63591 6.47107 2.07645 6.21555 2.00921C5.17463 1.73486 4.87608 1.13506 5.29567 0.158693C4.70394 0.0430353 4.33545 0.123727 4.01268 0.567528C3.38329 1.42824 2.11106 1.69721 1.85822 2.94792C1.80174 3.22765 1.3687 3.10661 1.09973 2.98827" transform="translate(168.1921 12.42269)" id="Fill-134" fill="#D7DDA1" stroke="none" />
    <path d="M5.78172 7.63877C6.30352 8.08795 6.74194 8.65548 7.46816 7.79209C7.81783 7.37787 8.48487 7.36711 9.03088 7.69526C9.22454 7.79478 9.43165 7.80284 9.64145 7.77326C9.85124 7.74636 10.053 7.69257 10.2466 7.61188C10.7066 7.41284 10.9164 6.88296 11.4167 6.73772C13.0789 6.04378 14.803 5.48432 16.3308 4.49181C16.5755 4.2336 16.7369 3.94849 16.6347 3.57731C15.1527 3.98884 15.5185 2.09259 14.4345 1.86935C14.2758 2.64398 14.768 4.05877 13.5657 3.96194C12.5705 3.88125 13.1677 2.26742 12.4011 1.57079C11.6587 1.33947 12.4468 3.46434 10.9513 2.57943C10.6447 2.39653 10.4887 3.75752 11.0105 4.47836C9.67641 3.91353 9.67103 3.85704 10.72 1.6461C10.3973 1.8559 10.1713 1.99845 9.94538 2.14639C9.72752 2.29432 9.51234 2.44494 9.21647 2.65205C9.12233 1.5681 9.28103 0.446492 7.98997 0C7.57844 1.24802 8.74308 2.52564 7.7721 3.84897C7.41706 4.33312 6.26048 4.63975 6.78498 5.66722C6.62628 5.71294 6.45952 5.82053 6.31428 5.79363C5.71447 5.68873 5.41054 5.1481 5.36212 4.69085C5.17384 2.83764 3.68643 2.4557 2.44379 1.59769C1.81978 1.17002 1.24418 0.758498 0.523336 0.529873C-0.52834 1.2534 0.232848 1.58962 0.827273 1.96349C0.827273 2.10604 0.870309 2.18135 0.956379 2.18942C1.04245 2.19749 1.09624 2.18404 1.11776 2.14908C1.91392 2.62785 2.7289 3.0582 3.57347 3.44552C4.57135 3.90277 4.81073 5.40093 5.28412 6.49834C5.77365 6.74041 5.80054 7.17883 5.78172 7.63877" transform="translate(178.6871 12.26507)" id="Fill-136" fill="#DEDFAC" stroke="none" />
    <path d="M1.52557 3.62842C1.33998 3.91622 1.1517 4.20401 0.963417 4.49181C0.987624 5.50583 -0.236193 6.0895 0.0408468 7.18959C0.137676 7.25145 0.234506 7.31332 0.331335 7.37787C1.42336 6.77269 2.35669 5.79363 3.75534 5.89853C4.0781 5.67529 4.45735 5.53273 4.5999 5.09969C4.96302 3.98615 5.77262 3.57462 7.09864 3.80594C8.30901 4.01574 9.2262 2.98558 8.81737 1.87204C9.2262 1.81555 9.60545 1.8828 9.94167 2.13563C10.0977 2.10335 10.251 2.07108 10.4043 2.0388C10.06 0.804223 8.57261 0.936019 7.97549 0C7.33265 0.164072 6.92112 0.653599 6.46656 1.07857C5.39068 1.76176 4.04582 1.49279 2.94304 2.07914C2.41048 2.20556 2.00971 2.46915 1.90213 3.05013C1.77571 3.2411 1.64929 3.43476 1.52557 3.62842" transform="translate(193.7967 12.2145)" id="Fill-138" fill="#CCD899" stroke="none" />
    <path d="M0.37387 0.894201C0.621324 1.87056 0.75312 1.92974 2.31584 1.65001C1.74831 0.999099 1.0194 1.04213 0.37387 0.894201Z" transform="translate(191.3103 7.246201)" id="Fill-140" fill="#DADBAD" stroke="none" />
    <path d="M2.07915 1.44493C1.67838 0.936571 1.20499 0.94195 0.610565 0.931192C0.911812 1.81342 1.32065 1.99901 2.07915 1.44493" transform="translate(186.1708 8.049475)" id="Fill-142" fill="#DADBAD" stroke="none" />
    <path d="M0.915757 1.91713C1.3488 1.6885 1.72805 1.39801 1.95668 0.948831C0.985689 0.601859 0.420849 0.690619 0.915757 1.91713" transform="translate(194.782 13.3467)" id="Fill-144" fill="#DEDFAC" stroke="none" />
    <path d="M1.83707 1.65068C1.77252 1.18267 1.57348 0.881422 1.05706 1.12619C0.946779 1.17729 0.917192 1.39785 0.852639 1.53771C1.18078 1.57537 1.50624 1.61302 1.83707 1.65068Z" transform="translate(189.8485 6.489723)" id="Fill-146" fill="#DADBAD" stroke="none" />
    <path d="M28.7931 14.0506C28.9168 13.8596 29.0406 13.6687 29.167 13.4777C28.898 11.9284 28.9491 10.5513 29.7049 8.99394C30.3209 7.72709 30.9987 6.72382 32.0396 5.87926C31.1627 3.82701 30.7835 3.65487 28.2121 4.12288C27.884 4.18205 26.3724 2.43105 26.4208 2.01415C26.4665 1.61876 26.5553 1.22606 26.6386 0.833365C26.7059 0.521359 26.6306 0.203974 26.3858 0.0667985C25.9232 -0.186034 26.0657 0.349218 25.9097 0.505221C25.3395 1.08351 25.0302 0.359977 24.5972 0.23625C24.6671 1.09427 24.5057 1.77745 23.957 2.93403C23.6746 3.52845 23.8548 3.8566 24.5111 3.7517C25.0356 3.66832 25.5466 3.42624 25.7188 4.20357C25.8317 4.71461 25.8909 4.86255 25.2938 4.46178C24.8769 4.18474 24.5084 4.77379 24.3174 5.19338C23.9086 6.09443 24.4008 6.69424 24.8957 7.19183C24.4949 6.94169 24.1803 6.42796 23.8279 5.9465C23.4998 5.50001 23.1447 5.5538 22.631 5.69098C20.7455 6.18857 18.9084 6.87714 16.9987 7.26446C15.2854 7.60874 14.4785 6.96859 14.578 5.28483C14.6291 4.45102 14.4839 3.84584 13.6823 3.71404C12.6818 3.54997 11.6355 2.89368 10.6295 3.79473C10.0566 4.31116 9.88177 5.0589 9.45141 5.66139C8.9054 6.42796 9.75804 6.73996 10.2395 7.22949C10.6214 7.61681 10.2825 8.39682 10.3632 9.10422C8.49657 7.88578 6.72405 7.88847 4.96767 9.06387C3.4184 9.61795 1.76423 11.1834 1.04339 12.8456C0.951937 13.05 0.871245 13.0016 0.742139 13.0581C-0.45747 13.5772 -0.019048 14.0829 0.766347 14.5858C1.00035 14.7365 1.28008 14.8494 1.34732 15.1722C2.06548 15.9065 2.53886 15.0888 3.06874 14.8306C3.60937 15.6026 2.85625 17.2971 4.71753 16.9447C5.15595 16.6327 4.96767 16.2481 4.79822 15.7209C5.16133 16.4283 5.63203 16.9071 6.27756 16.7484C7.40455 16.474 8.10925 17.0281 8.8543 17.7113C10.3014 19.0373 12.2756 18.3729 12.8351 16.4579C13.2143 15.1561 13.0045 13.8462 13.0287 12.5417C12.6683 11.7966 11.9636 11.143 12.4989 10.0618C12.714 10.9063 12.4693 11.7724 12.9857 12.4395C13.8087 12.9639 14.3897 13.4911 14.1692 14.6961C13.9755 15.7747 14.6157 16.4229 15.8395 16.0087C16.6356 15.7397 17.2354 15.7155 17.9186 16.4955C18.3893 17.0335 19.4517 16.8613 20.221 17.1303C21.1839 17.0442 21.7918 16.4686 22.1791 15.6429C22.2625 15.4627 22.5207 15.0404 22.0016 15.0216C20.3017 14.9543 21.703 14.177 21.8375 13.9833C22.5207 12.9774 25.3234 12.6761 25.9124 13.674C26.3993 14.4917 27.1362 14.5912 27.7522 15.0243C27.8759 14.8333 27.9996 14.6396 28.1234 14.446C28.083 14.1098 28.0992 13.7709 27.9647 13.4454C28.1933 13.744 28.4139 13.9968 28.7931 14.0506" transform="translate(162.3107 31.12037)" id="Fill-148" fill="#CCD694" stroke="none" />
    <path d="M0.061253 12.4399C0.357121 12.1037 0.970374 12.8191 1.07258 12.2355C1.21514 11.4259 1.29583 11.8509 1.86067 11.8293C3.3158 11.7755 4.45624 12.1279 5.62357 12.8084C5.68812 12.846 5.88985 12.6389 6.02971 12.5475C5.18246 11.832 6.64028 10.272 5.02645 9.82012C4.66065 9.7206 4.48313 9.06432 4.54231 9.06163C5.88985 8.99707 5.19321 7.50697 5.97861 7.04703C6.30944 6.85069 6.29868 6.57903 6.83394 6.98786C7.58168 7.55539 9.77648 6.10833 9.12288 8.78997C9.04219 9.11811 9.10136 10.194 9.31385 10.4845C9.96207 11.3748 10.9357 11.0386 11.939 10.7561C13.8917 10.2021 15.9063 9.86047 17.7676 9.01052C18.2033 8.81148 18.3055 8.95673 18.5288 9.30908C18.7924 9.72867 19.2469 10.0219 19.5858 10.4011C19.8521 10.6997 20.1534 11.2161 20.5219 10.8341C21.0329 10.3016 20.261 10.3043 20.0377 10.0703C19.2873 9.28756 19.3061 8.88142 20.425 7.27297C20.3228 8.1283 20.2663 8.58555 20.1937 9.19073C21.0114 8.73617 20.9334 8.20361 21.0813 7.82167C21.318 7.20573 21.0706 6.64896 20.5595 6.15943C19.8414 5.47087 19.6854 6.75924 19.1017 6.48758C19.4298 5.69411 20.1076 5.30679 20.9011 4.97058C20.5568 4.27126 19.5912 4.13677 19.5616 3.29489C19.0425 1.73217 16.8934 0.137175 15.1182 0C14.6771 0.107588 14.0773 -0.115657 13.9106 0.570218C14.0128 1.19423 14.4351 1.54658 14.9434 1.86666C16.8396 3.06896 16.923 3.44821 15.788 5.41438C15.675 5.61073 15.5755 5.82053 15.3872 6.04108C15.1505 5.58921 14.8358 5.23955 14.3302 5.11045C13.8379 4.98672 13.6577 4.7823 13.6846 4.15291C13.7303 3.1093 12.9261 2.65474 12.1488 3.32986C11.2128 4.14753 10.5242 4.0238 9.58282 3.44821C8.94536 3.05551 7.00877 4.41381 6.19648 5.19652C4.37285 6.95827 3.27545 9.42474 0.862786 10.6217C0.00476912 11.0439 -0.0947501 11.4824 0.061253 12.4399" transform="translate(167.3486 28.06361)" id="Fill-150" fill="#C8D28B" stroke="none" />
    <path d="M13.2807 0C13.1193 0.0322765 12.9579 0.064553 12.7965 0.0968295C10.9567 1.1754 9.11698 2.2486 7.27991 3.32986C6.8388 3.58807 6.42997 3.93504 5.86244 3.82208C4.85649 4.36809 4.31317 3.69835 3.81288 3.00978C3.6004 2.71392 3.70529 2.20556 3.21846 2.07377C2.47072 2.56329 1.6665 2.70854 0.795031 2.4826C0.208675 2.63591 -0.170574 2.92371 0.0768791 3.60959C0.208675 3.8409 0.388885 4.02918 0.593303 4.19325C1.74719 4.5483 1.39484 6.18902 2.57562 6.52254C2.73431 6.55751 2.893 6.54675 3.04901 6.49833C3.73488 6.05722 3.58695 5.48431 3.14583 4.63706C3.51432 5.25838 3.86937 5.41976 4.25399 5.54349C4.48531 5.60266 4.722 5.61611 4.9587 5.60804C5.86782 5.84743 6.7608 6.45799 7.35254 4.9652C7.59192 4.36271 8.49835 3.95118 9.09009 3.44014C9.48009 3.10392 9.45858 3.61766 9.59306 3.7898C11.4812 3.69566 12.4092 1.8559 14.058 1.32872C14.569 0.435733 14.1118 0.107588 13.2807 0" transform="translate(174.9233 19.86323)" id="Fill-152" fill="#C3D58A" stroke="none" />
    <path d="M0 3.15503C0.513734 3.44552 0.898363 3.8167 0.777326 4.48374C1.99038 4.24167 3.60421 4.7554 3.91622 2.81612C4.50526 3.03668 5.05396 2.65205 5.63494 2.69509C5.79901 1.74831 7.44511 1.3072 6.55751 0C4.87375 0.691255 3.19268 1.3852 1.51162 2.07645C1.10278 2.33467 1.28837 3.22496 0.470699 3.04744C0.314696 3.0851 0.156003 3.12006 0 3.15503" transform="translate(188.204 16.7082)" id="Fill-154" fill="#C4D68A" stroke="none" />
    <path d="M4.8216 1.35596C4.93457 0.925604 5.71727 0.516768 5.05561 0.0810355C4.62256 -0.201384 4.25407 0.31504 3.99855 0.699668C3.38261 1.63031 1.9732 1.85893 1.80913 3.21724C1.78492 3.40551 1.2685 3.52924 1.2416 3.07468C1.15822 1.60341 0.450829 3.1742 0.152271 2.8353C-0.377601 4.09408 0.62028 4.97361 0.940355 6.0226C1.13132 6.21357 1.35457 6.31578 1.62892 6.26198C2.00279 6.0764 2.52728 6.24585 2.77205 5.76708C1.88444 5.0812 2.06734 3.53731 3.2804 2.88371C3.99586 2.49639 4.41277 1.9719 4.8216 1.35596" transform="translate(179.6945 22.29599)" id="Fill-156" fill="#BCCE82" stroke="none" />
    <path d="M1.09449 0.282459C1.39036 0.997922 -0.0513239 1.56545 0.981526 2.29974C1.34195 2.55257 1.62437 2.31857 1.8503 2.02001C2.58997 1.04096 1.38229 0.874195 1.09449 0.282459" transform="translate(196.5601 36.31263)" id="Fill-158" fill="#DCDFAB" stroke="none" />
    <path d="M2.20422 1.36981C1.5291 -0.0476659 1.08261 1.80285 0.485493 1.49085C1.09068 1.91851 1.67973 2.09065 2.20422 1.36981" transform="translate(191.6339 18.03374)" id="Fill-160" fill="#CCD899" stroke="none" />
    <path d="M1.37753 0.269455C0.987518 0.452356 1.24035 0.775121 1.16235 1.01181C1.02248 1.42603 0.341987 1.76762 0.960621 2.29212C1.14352 2.44812 1.3318 2.49922 1.49856 2.22756C1.81595 1.71652 2.30548 1.24044 1.68953 0.624497C1.57925 0.514219 1.48242 0.387802 1.37753 0.269455" transform="translate(202.5852 22.5277)" id="Fill-162" fill="#DCDFAB" stroke="none" />
    <path d="M0.887555 1.97166C1.25067 1.90173 1.72674 2.01469 1.95268 1.63276C2.1571 1.28578 1.86661 0.930741 1.59495 0.782807C1.19418 0.559561 1.00859 0.963018 0.828381 1.24275C0.675067 1.48213 0.537892 1.74034 0.887555 1.97166" transform="translate(198.4494 19.94166)" id="Fill-164" fill="#DCDFAB" stroke="none" />
    <path d="M20.1355 1.00166C19.9418 0.87524 19.7482 0.751513 19.5545 0.625097C19.0381 0.0037745 18.5755 0.522888 18.0967 0.695029C18.3092 -0.472304 17.4727 0.205503 17.0719 0.111363C15.9261 -0.157608 15.4016 0.326539 15.2591 1.46967C15.1703 2.17706 15.0439 2.96245 14.1886 3.25563C13.6829 2.83335 14.2289 2.38148 14.0971 1.96726C13.0562 1.13614 12.4671 1.76822 11.948 2.62624C11.5499 3.38743 10.6489 3.49771 10.0894 4.0491C7.45083 6.61239 5.4739 9.79431 2.52329 12.0806C1.73251 12.6938 1.07353 13.5115 0.352691 14.2377C0.094479 14.625 -0.0776624 15.0339 0.0353054 15.5126C0.462969 15.4535 0.890633 15.3943 1.63299 15.2921C-0.325116 17.2098 1.14884 17.9468 2.46949 18.7376C2.46142 18.2588 2.06873 18.0867 1.75941 17.8473C1.51465 17.6563 1.41513 17.148 1.53885 17.1614C2.86757 17.2878 2.12521 15.83 2.55825 15.7224C4.21242 15.3028 4.47601 13.1511 6.22164 12.9466C6.13826 12.1478 6.79185 11.6475 7.26524 11.4189C9.85274 10.1628 11.0228 7.61027 12.8249 5.64409C13.2848 5.14112 14.1321 5.38588 14.6162 4.57628C15.2886 3.44929 16.0176 4.46331 16.5098 4.97167C17.3866 5.8781 17.8089 4.93132 18.0886 4.52786C18.4975 3.94689 18.987 3.61874 19.4658 4.01682C20.1705 4.5978 19.0973 4.56283 19.0058 4.89904C18.8471 5.46388 19.1564 5.89155 19.6567 5.87541C20.9532 5.82968 21.3566 6.5048 21.4588 7.71786C21.8811 6.90288 22.3034 6.08789 22.7311 5.27291C23.3712 4.05716 22.9893 2.56976 21.7413 2.18782C20.9908 1.95919 20.6439 1.42663 20.1355 1.00166" transform="translate(161.1893 27.55578)" id="Fill-166" fill="#BED081" stroke="none" />
    <path d="M15.646 4.69085C15.0086 4.51064 14.8983 2.81343 13.7713 4.03725C13.6718 3.92428 13.5319 3.82745 13.4781 3.69297C13.0424 2.61978 12.2274 2.63053 11.4124 3.08509C9.96537 3.8947 9.67488 2.86723 9.97075 1.97962C10.5356 0.290488 9.70985 0.0403456 8.41072 0C7.40477 1.15926 8.23051 2.59019 7.86471 3.91084C7.54463 5.07279 6.74848 5.29603 6.07605 5.65915C5.39556 6.02764 4.64782 5.55694 4.2605 4.79575C3.98346 4.25512 3.658 3.88125 2.93178 3.99691C1.68914 4.19863 0.578287 4.01304 0 2.58481C0.0484148 3.22496 0.0941398 3.86511 0.142555 4.50526C2.03342 4.48105 3.58 5.59997 5.28528 6.05184C6.92062 6.48489 8.84376 6.35847 10.5517 5.71294C10.9928 5.54618 12.7331 6.65165 11.7056 4.70699C11.6249 4.55905 12.0418 4.44609 12.2489 4.58326C12.8998 5.01631 13.4136 5.57845 13.7821 6.26702C14.6858 6.25895 15.6057 6.3235 16.3292 5.6188C16.3669 5.11582 15.9849 4.91948 15.646 4.69085" transform="translate(166.8856 43.56009)" id="Fill-168" fill="#C5D088" stroke="none" />
    <path d="M3.15651 8.37444C3.40665 7.98981 3.65679 7.60249 3.90694 7.21786C2.59167 6.61268 2.29849 5.13065 3.11347 3.16448C3.28561 2.75295 3.78859 2.37101 3.49541 1.91914C3.11885 1.33816 3.31251 0.447871 2.64815 0.106278C1.79551 -0.332144 1.72289 0.708773 1.24412 1.00195C1.04239 1.12299 0.800319 0.969674 0.574383 0.945467C-0.536468 2.16659 0.256997 3.37427 0.534038 4.61961C0.671213 5.23017 1.55344 6.1366 0.173616 6.50778C0.149409 6.97848 0.294653 7.37925 0.676592 7.68049C1.2226 7.312 1.77131 6.95965 2.14786 7.87415C2.34152 8.33947 2.7665 8.31258 3.15651 8.37444" transform="translate(158.0676 34.69397)" id="Fill-170" fill="#C3D088" stroke="none" />
    <path d="M0.609689 8.86964C0.822176 9.0902 0.553205 9.6658 1.09384 9.60931C1.61026 9.55821 2.18586 9.43448 2.0702 8.70288C2.00834 8.31287 2.10786 8.14342 2.48173 8.20797C2.76684 8.25908 2.65925 8.56301 2.74263 8.72978C3.52264 10.2575 2.44945 11.6212 2.28 13.0387C2.18048 13.851 2.48173 14.4669 2.60276 15.1044C2.78028 16.0216 3.47423 14.9591 3.94224 15.142C5.76048 13.5255 7.39044 11.7046 9.37007 10.2575C9.81656 9.93208 10.1447 9.31882 10.3034 8.68405C10.4406 8.12997 10.7364 7.43334 11.2609 7.3392C12.7026 7.0783 13.02 5.94862 13.4773 4.8808C14.3487 3.83989 14.2707 2.61876 13.2997 1.83874C12.9259 1.5375 12.5359 1.42453 12.3556 1.94633C12.1485 2.54345 11.5057 2.69138 11.2529 3.20243C11.113 3.37457 11.0861 3.6274 10.8655 3.74575C10.9409 3.60319 10.9597 3.44719 10.9462 3.28043C10.2281 3.02491 10.6934 2.48696 10.879 2.36055C12.2319 1.42991 12.3368 1.32232 11.8823 0.676791C11.3685 -0.0574997 10.8736 -0.318401 10.1259 0.528857C9.32166 1.43798 8.51743 2.36862 7.5841 3.1567C7.43079 3.20243 7.28286 3.2616 7.1403 3.32884C6.29573 3.88561 5.51841 4.65218 4.40756 3.77533C3.83465 3.32615 3.55223 2.98456 4.36183 2.54076C4.91591 2.23682 5.59103 1.95171 5.2602 1.15018C4.92129 0.327129 4.30535 0.579961 3.70016 0.894657C3.1945 1.15556 2.83677 0.857001 2.52207 0.491201C2.02179 -0.0870865 1.54571 0.0823651 1.0777 0.539616C-0.0708071 0.571892 -0.191844 0.988797 0.206233 2.07544C0.609689 3.17284 1.74475 4.13038 1.13956 5.51289C-0.272535 6.43815 -0.0197026 7.62431 0.609689 8.86964" transform="translate(158.0325 26.77061)" id="Fill-172" fill="#CDD793" stroke="none" />
    <path d="M6.29123 8.93164C6.83724 9.39158 7.56615 9.08227 7.54194 8.8644C7.39401 7.38506 9.49467 7.64327 9.44357 6.28228C9.4355 6.05366 9.73944 5.76048 10.0676 6.03752C10.5679 6.45711 10.9148 6.97354 10.818 7.66748C10.783 7.91493 10.5706 8.04404 10.3204 8.03597C9.58881 8.01445 9.24453 8.13011 9.16922 8.56584C9.05356 9.25979 9.60495 8.69495 9.78785 8.84826C9.97344 8.98813 10.0541 9.28937 10.3715 9.22213C10.6351 8.54164 11.6142 8.40715 11.6438 7.47382C12.3753 8.42598 13.2818 9.2571 12.3996 10.5401C13.1688 10.3249 13.973 10.1689 14.3926 9.362C14.0537 8.81868 14.2824 8.36949 14.632 7.94183C14.6455 7.36085 14.2555 6.95202 14.0161 6.47863C13.9381 6.35221 13.8439 6.23656 13.7417 6.12897C13.4539 5.83848 13.0155 5.68248 12.9267 5.21447C12.9133 5.06922 12.8891 4.92936 12.8622 4.78411C12.8057 4.56087 12.7008 4.36721 12.5125 4.22465C12.1198 3.95299 11.5389 4.5259 11.2134 3.93148C10.8718 3.88844 10.2451 4.05789 10.2317 3.88575C10.0891 1.99758 8.01802 2.00295 7.26221 0.765689C6.92331 0.20623 6.57634 -0.148812 5.89584 0.0609856C4.97327 0.340715 4.53485 1.10459 4.2067 1.90075C3.87856 2.68614 4.5725 2.84752 5.09162 3.07884C5.34445 3.11649 5.49239 2.84752 5.73715 2.85021C5.57039 2.96856 5.36866 3.00084 5.17769 3.07346C3.86511 3.14608 2.25936 2.46558 1.8828 4.66039C1.72141 5.60447 0.946777 4.79218 0.45994 4.85136C0.139865 5.24405 0.0349662 5.70937 0 6.1989C0.46532 6.15855 0.965605 5.8331 1.28568 6.54318C1.6461 7.33665 2.30508 7.42541 2.95868 6.90898C3.346 6.60505 3.69835 6.1989 3.93773 6.91436C4.17712 7.62444 3.49393 7.70783 3.04206 7.8719C2.70585 7.99294 2.14908 7.76162 2.1437 8.37487C2.13832 8.81599 2.11142 9.47765 2.52026 9.61214C3.60959 9.97256 4.78499 11.1937 5.86625 9.55566C5.98729 9.37276 6.18633 9.24096 6.29123 8.93164C6.2724 8.82405 6.29392 8.87516 6.2993 8.92895C6.26433 8.88323 6.24012 8.83481 6.29123 8.93164" transform="translate(159.1105 21.11105)" id="Fill-174" fill="#CAD288" stroke="none" />
    <path d="M1.65514 3.35675C1.9806 2.26204 1.03113 0.965605 2.18501 0C0.571187 0.303937 0.697604 1.71872 0.520083 2.8215C0.377528 3.71449 1.26244 3.18192 1.65514 3.35675" transform="translate(156.9871 32.28349)" id="Fill-176" fill="#C3D088" stroke="none" />
    <path d="M11.8147 8.05456C11.3924 9.48279 12.7776 9.74907 13.442 10.4081C13.8131 10.7765 14.1628 10.088 14.4264 9.741C13.4204 9.47472 13.4204 9.47472 13.8642 8.64629C13.8884 8.59788 13.9342 8.50105 13.9234 8.49298C12.783 7.68607 13.0466 6.75812 13.5953 5.72796C13.684 5.55851 13.1488 5.35678 12.9013 5.51009C11.4032 6.44073 10.4349 5.5074 9.70864 4.45304C9.26753 3.81558 8.57628 4.39655 8.26696 3.8882C8.18896 3.34488 9.09539 3.67033 8.91249 3.03287C8.06254 2.78273 7.48963 3.01404 7.38742 4.34814C6.9221 3.50088 6.8979 2.40348 5.79512 3.41212C5.91615 2.34431 6.99204 2.48686 7.16149 1.77678C5.88926 0.714343 4.78379 0.65786 4.07639 1.93278C3.66218 2.67514 3.55997 2.76121 2.8203 2.42231C1.79014 1.9543 2.17746 1.41905 2.54326 0.803104C2.0887 0.65786 2.11022 -0.221675 1.38399 0.0526753C1.59379 0.639032 1.23875 1.10704 0.886399 1.39215C-0.211003 2.27975 -0.0361715 3.41212 0.103693 4.56601C1.23606 5.48589 2.43567 5.54506 3.67563 4.81884C3.91501 4.67897 4.08446 4.36428 4.3884 4.3831C5.47235 4.44766 5.91346 5.81941 7.08618 5.72527C8.4391 5.61768 8.61124 6.66936 8.91249 7.59462C9.80278 8.23746 10.8356 7.98193 11.8147 8.05456" transform="translate(166.358 13.94268)" id="Fill-178" fill="#D0D897" stroke="none" />
    <path d="M15.9094 3.478C16.571 1.96638 15.4521 1.37196 14.4354 1.43113C13.6473 1.47417 13.2546 1.1783 12.87 0.793671C12.0039 -0.0643461 11.3557 -0.384421 10.2529 0.640357C9.39757 1.43651 8.14417 0.723738 7.06829 0.626909C6.20489 -0.535045 5.20701 0.675324 4.29251 0.470906C4.24409 1.40423 4.49424 2.42363 2.8562 2.26494C1.85294 2.16811 0.629126 4.75292 0.949201 6.00633C1.03258 6.3264 1.29617 6.60344 1.17514 6.97193C-0.14282 6.82669 -0.14282 6.82669 0.174566 8.08278C0.489261 8.54003 0.739404 9.21515 1.43066 8.98652C2.00088 8.79824 2.23219 8.21458 2.17571 7.59594C2.08964 6.68144 2.33171 6.62765 3.20049 6.91545C3.69001 7.07683 4.41623 6.52813 5.03487 6.2995C4.739 5.9606 3.82988 5.87453 4.28444 5.23707C4.739 4.6023 4.95686 3.4511 5.97895 3.57483C6.79931 3.67435 6.61103 4.9681 7.41795 5.32583C7.60623 5.4119 7.54436 6.02246 7.90747 5.82611C8.23293 5.64859 8.319 4.84437 8.87846 5.41728C9.20391 5.7508 8.86501 6.34254 8.96722 6.70834C9.28729 7.83802 10.0243 8.09085 10.9791 7.27856C11.5951 7.14138 12.2325 7.07414 12.8108 6.78634C13.061 6.67606 13.3353 6.44206 13.5828 6.53082C14.6936 6.92352 15.3284 6.37213 15.834 5.49528C15.5624 4.90623 16.1326 4.86589 16.3989 4.6265C16.6436 4.06974 16.0035 3.88952 15.9094 3.478" transform="translate(159.3951 17.87963)" id="Fill-180" fill="#BFCB7F" stroke="none" />
    <path d="M1.98619 2.08318C1.65804 1.5802 1.3299 1.07454 0.770438 0.211142C0.614434 1.35427 0.705885 1.97828 1.31645 2.47857C1.5397 2.34677 1.76294 2.21498 1.98619 2.08318" transform="translate(189.1176 43.08778)" id="Fill-182" fill="#C9D18D" stroke="none" />
    <path d="M2.02391 2.02935C2.46503 1.79265 2.71786 1.40534 2.51075 0.945395C2.27675 0.43166 1.86791 0.732908 1.52632 0.888911C1.06907 1.64472 0.130357 0.149241 0.10615 0.98843C0.0765629 1.88141 1.16052 2.05355 2.02391 2.02935" transform="translate(182.4449 17.87449)" id="Fill-184" fill="#E2E2B2" stroke="none" />
    <path d="M2.96944 0.418246C2.87261 0.356382 2.77578 0.294519 2.67895 0.229966C1.75907 0.711424 1.36906 1.9729 0 1.80882C0.788084 2.83629 0.788084 2.83629 2.96944 0.418246" transform="translate(176.8357 13.99724)" id="Fill-186" fill="#E2E2B2" stroke="none" />
    <path d="M0.825742 1.76971C1.88818 2.21082 1.73217 1.3528 1.86397 0.798723C1.19423 0.774515 1.39058 1.68095 0.825742 1.76971" transform="translate(187.8498 17.98701)" id="Fill-188" fill="#D4DBA3" stroke="none" />
    <path d="M1.08642 1.66476C1.3258 1.79655 1.47911 1.60289 1.59746 1.41999C1.67546 1.29896 1.67546 1.1295 1.71043 0.981571C1.5087 1.05957 1.29083 1.11068 1.11331 1.22364C0.976138 1.3124 0.908895 1.47917 1.08642 1.66476" transform="translate(185.2802 15.98538)" id="Fill-190" fill="#E2E2B2" stroke="none" />
    <path d="M3.83429 3.36563C4.54168 2.23058 3.79394 0.455372 2.66157 0.0680545C2.26887 -0.0664309 1.80356 -0.0126368 1.86542 0.328956C2.09135 1.56622 1.12575 1.81367 0.434493 2.34893C0.165522 2.55603 -0.18414 2.91645 0.114418 3.37639C0.168212 3.45708 0.345733 3.55122 0.396837 3.52164C1.49962 2.88418 2.3146 4.06227 3.29903 3.96006C3.5438 3.93316 3.74284 3.47322 3.83429 3.36563" transform="translate(184.4445 39.83538)" id="Fill-192" fill="#D5DB9D" stroke="none" />
    <path d="M1.92123 3.19016C1.80019 2.3429 2.19289 1.42302 1.80826 0.535417C1.66302 0.193824 1.39135 -0.075147 1.01748 0.0189928C0.667822 0.107753 0.829205 0.462795 0.796928 0.734455C0.667822 1.80765 0.468783 2.87815 1.92123 3.19016" transform="translate(173.387 40.31829)" id="Fill-194" fill="#C5D088" stroke="none" />
    <path d="M1.74647 1.66142C2.32206 1.23645 2.43234 0.867961 2.02082 0.542506C1.40487 0.0583585 1.0848 0.741545 0.727065 1.00783C0.280573 1.34135 0.358574 1.95998 0.737824 2.20475C1.37798 2.61358 1.52591 1.77439 1.74647 1.66142" transform="translate(175.465 40.81982)" id="Fill-196" fill="#C5D088" stroke="none" />
    <path d="M0.468241 1.96887C1.08687 2.02535 1.63289 2.07108 2.21924 2.12487C2.26228 1.37713 1.67323 1.08395 1.19984 0.564839C0.94432 1.05706 0.726453 1.47665 0.468241 1.96887" transform="translate(171.8536 41.64852)" id="Fill-198" fill="#C5D088" stroke="none" />
    <path d="M1.04666 1.85772C1.50122 1.52957 1.78633 1.2337 1.56846 0.948595C1.32908 0.636589 1.28066 1.03198 1.21611 1.19067C1.15963 1.33322 1.13811 1.48923 1.04666 1.85772" transform="translate(174.0948 35.28231)" id="Fill-200" fill="#C8D28B" stroke="none" />
    <path d="M3.42653 0.0376239C3.2517 0.435701 2.14085 -0.640183 2.469 0.691223C2.60617 1.25068 2.08975 0.798811 1.97678 0.7235C1.17256 0.199006 0.621165 0.476046 0.190811 1.22379C0.171983 1.29641 0.153156 1.36903 0.131638 1.43896C0.0966716 1.88007 0.0590157 2.3185 0.0159803 2.75692L0.0159803 2.75961C-0.140023 3.62569 0.892826 3.65797 1.08648 4.2766L1.08648 4.2766C1.43346 4.96248 2.08975 4.78765 2.66803 4.91406C3.17908 5.02703 4.16351 4.984 3.62826 6.06526C3.58522 6.12712 3.54488 6.19168 3.50722 6.25354C3.03921 6.56017 2.4152 6.79417 2.84555 7.54998C3.00156 7.82702 2.95314 8.30848 3.40232 8.31117C4.02365 8.31655 4.15544 7.68715 4.49166 7.32942C5.22595 6.55479 5.02422 5.4789 5.39809 4.42723C5.9952 5.01627 6.64342 5.25835 7.34275 4.58592C7.18943 4.95979 7.03612 5.33366 6.78867 5.93884C7.71931 5.58111 7.98021 4.46488 8.94044 4.84413C9.09106 3.69563 8.05283 2.89678 8.04207 1.794C7.88338 1.82897 7.72469 1.86125 7.56599 1.89352C6.77791 1.85587 6.62729 2.71657 6.049 2.96941L6.049 2.96941C4.69069 2.03339 3.39426 3.07699 2.03326 3.12541C2.73528 2.66278 3.21404 1.98497 3.94027 1.62724C4.70414 1.25606 4.23075 0.831088 4.00213 0.414183C3.81116 0.287767 3.6175 0.16135 3.42653 0.0376239" transform="translate(171.8028 23.33594)" id="Fill-202" fill="#B7C87A" stroke="none" />
    <path d="M2.809 0C2.87624 1.40672 1.38077 1.22113 0.770201 1.95004C0.697579 2.03342 0.089705 1.61114 0.0117034 2.15984C-0.0555393 2.63053 0.167707 3.12813 0.662613 3.23034C1.0849 3.31641 1.72505 3.346 1.97788 3.09854C2.85742 2.24591 3.8553 2.49874 4.85318 2.55791C3.5675 2.18673 4.29641 0.207108 2.809 0" transform="translate(172.9971 23.74932)" id="Fill-204" fill="#BCCE82" stroke="none" />
    <path d="M0 0.508031C0.164072 0.892659 0.325455 1.2746 0.489528 1.65654C1.49817 2.48766 2.29432 2.34241 2.86723 1.14818C2.08453 0.158369 0.895674 0.994868 0 0.508031" transform="translate(175.3044 20.8496)" id="Fill-206" fill="#BCCE82" stroke="none" />
    <path d="M0.756701 2.71391C1.4103 2.56329 1.82183 2.07376 2.27101 1.63803C1.63624 1.2803 1.06602 0.833809 0.420487 0C0.364003 1.16195 1.67389 1.82631 0.756701 2.71391" transform="translate(177.0954 23.59251)" id="Fill-208" fill="#BCCE82" stroke="none" />
    <path d="M1.28568 0.751392C0.876843 1.11181 0.468008 1.46954 0 1.88107C0.395386 2.02362 0.755807 2.15273 1.11354 2.28184C1.41747 1.38078 2.01997 1.08492 2.92102 1.39692C3.41054 1.16561 3.47241 0.856291 2.98288 0.592699C2.40728 0.288762 1.82093 0.372143 1.28568 0.751392" transform="translate(172.3888 28.19067)" id="Fill-210" fill="#CDD793" stroke="none" />
    <path d="M0.985615 1.21792C1.069 1.36316 1.11472 1.53531 1.225 1.61331C1.46707 1.78814 1.63653 1.61062 1.69839 1.39813C1.73067 1.28785 1.6177 1.13723 1.56928 1.00543C1.4348 1.05385 1.29762 1.10495 0.985615 1.21792" transform="translate(174.676 45.41489)" id="Fill-212" fill="#CCD694" stroke="none" />
    <path d="M2.04156 0.802986C1.86404 0.649673 1.86135 0.230078 1.45789 0.426427C1.19699 0.996645 0.583736 1.42162 0.653669 2.3146C1.49286 2.00798 1.6381 1.28444 2.04156 0.802986" transform="translate(167.4407 29.53127)" id="Fill-214" fill="#BBC67F" stroke="none" />
    <path d="M1.08683 1.79686C1.33966 1.50906 1.49029 1.3692 1.59787 1.20244C1.68395 1.06795 1.72698 0.855465 1.4607 0.8985C1.31008 0.920018 1.12986 1.04105 1.05186 1.17016C0.98731 1.27237 1.05993 1.45527 1.08683 1.79686" transform="translate(160.9398 34.73502)" id="Fill-216" fill="#C3D088" stroke="none" />
    <path d="M0.785396 1.67773C1.15389 1.94132 1.52507 1.71538 1.89894 1.69655C2.30508 1.67773 2.74351 1.70462 2.42074 2.32326C3.02593 2.40933 3.58539 2.1807 3.38097 1.55131C3.17924 0.935367 2.3804 0.639499 1.8048 0.585705C1.19961 0.529221 0.583668 0.626051 0 0.349011C0.0537943 0.916539 0.357732 1.33344 0.785396 1.67773" transform="translate(172.8891 27.26434)" id="Fill-218" fill="#BED081" stroke="none" />
    <path d="M2.08725 0.690903C1.45785 0.645178 0.871497 0.71242 0.46804 1.28802C0.712804 2.1541 0.712804 2.1541 1.81021 1.74527C2.39387 1.52202 2.22711 1.10243 2.08725 0.690903Z" transform="translate(169.9061 23.8699)" id="Fill-220" fill="#CDD793" stroke="none" />
    <path d="M1.46904 0.216522C0.81275 1.21709 0.904201 1.73083 1.66001 2.47319C1.59008 1.65283 1.54435 1.12295 1.46904 0.216522" transform="translate(162.6301 26.48125)" id="Fill-222" fill="#CDD793" stroke="none" />
    <path d="M1.17078 1.58884C1.33216 1.55657 1.62534 2.15368 1.87817 1.59422C2.01266 1.29297 1.88893 1.04552 1.59037 0.932553C1.26491 0.808827 0.947529 0.787309 0.799595 1.22304C0.708145 1.48932 0.737731 1.63457 1.17078 1.58884" transform="translate(163.6965 22.63198)" id="Fill-224" fill="#BFCB7F" stroke="none" />
    <path d="M1.9991 2.10335C1.92647 1.39596 1.10611 1.21844 0.931281 0.586356C0.0651935 1.95273 1.80006 1.48741 1.9991 2.10335" transform="translate(170.89 25.50973)" id="Fill-226" fill="#BED081" stroke="none" />
    <path d="M1.60607 2.14235C1.55766 1.62324 1.51731 1.15792 1.46083 0.547356C0.812609 1.26013 1.09234 1.69048 1.60607 2.14235" transform="translate(163.9022 28.10395)" id="Fill-228" fill="#CDD793" stroke="none" />
    <path d="M1.25202 1.66433C1.35423 1.6697 1.5963 1.73695 1.63934 1.67508C1.78727 1.45184 1.65547 1.22321 1.46988 1.08335C1.36229 1.00266 1.07988 0.959621 1.04491 1.01073C0.899664 1.23935 1.0476 1.43839 1.25202 1.66433" transform="translate(162.7747 28.39021)" id="Fill-230" fill="#CDD793" stroke="none" />
    <path d="M1.32074 0.579632C1.22929 0.929294 1.13515 1.28165 1.0437 1.63131C1.07867 1.79269 1.11095 1.95138 1.14591 2.11008C1.38799 1.62324 2.03352 1.17944 1.32074 0.579632" transform="translate(170.6726 23.98251)" id="Fill-232" fill="#BED081" stroke="none" />
    <path d="M1.92523 2.58772C2.19421 1.40155 2.13772 0.691471 1.50295 0.196564C1.16943 -0.0616476 0.83859 0.255738 0.709484 0.586572C0.249543 1.76735 1.55136 1.5979 1.92523 2.58772" transform="translate(172.3246 19.88883)" id="Fill-234" fill="#B7C87A" stroke="none" />
  </g>
</svg>